<?xml version="1.0" encoding="UTF-8"?><svg id="Layer_2" xmlns="http://www.w3.org/2000/svg" xmlns:xlink="http://www.w3.org/1999/xlink" viewBox="0 0 162.97 156.36"><defs><style>.cls-1{mask:url(#mask);}.cls-2{fill:none;stroke:#2e3192;stroke-linecap:round;stroke-linejoin:round;stroke-width:7px;}.cls-3{fill:#fff;stroke-width:0px;}</style><mask id="mask" x="-3.11" y="-9.72" width="169.19" height="169.19" maskUnits="userSpaceOnUse"><g id="custom"><rect id="bg" class="cls-3" x="-3.11" y="-9.72" width="169.19" height="169.19"/></g></mask></defs><g id="Layer_1-2"><g class="cls-1"><g id="g2205"><g id="g2207"><g id="g2209"><g id="g2215"><path id="path2217" class="cls-2" d="M98.01,146.25H23.33c-10.95,0-19.83-8.88-19.83-19.83V16.72c0-7.3,5.92-13.22,13.22-13.22h129.53c7.3,0,13.22,5.92,13.22,13.22v80.96"/></g><g id="g2219"><path id="path2221" class="cls-2" d="M159.47,30.27H4.16"/></g><g id="g2223"><path id="path2225" class="cls-2" d="M159.14,16.72c0-7.3-5.92-13.22-13.22-13.22s-13.22,5.92-13.22,13.22,5.92,13.22,13.22,13.22,13.22-5.92,13.22-13.22Z"/></g><g id="g2227"><path id="path2229" class="cls-2" d="M132.7,16.72c0-7.3-5.92-13.22-13.22-13.22s-13.22,5.92-13.22,13.22,5.92,13.22,13.22,13.22,13.22-5.92,13.22-13.22Z"/></g><g id="g2231"><path id="path2233" class="cls-2" d="M100.77,112.79l-7.39-26.68,26.01,7.9,36.2,36.28c5.16,5.16,5.16,13.53,0,18.69-5.16,5.16-13.53,5.16-18.69,0l-36.14-36.2Z"/></g><g id="g2235"><path id="path2237" class="cls-2" d="M148.4,125.6l-15.53,15.53"/></g></g></g></g></g></g></svg>