<?xml version="1.0" encoding="UTF-8"?><svg id="Layer_2" xmlns="http://www.w3.org/2000/svg" viewBox="0 0 215.15 189.92"><defs><style>.cls-1{fill:none;stroke:#2e3192;stroke-linecap:round;stroke-linejoin:round;stroke-width:7px;}</style></defs><g id="Layer_1-2"><g id="g15"><g id="g17"><path id="path19" class="cls-1" d="M86.87,70.94h99.68"/></g><g id="g21"><path id="path23" class="cls-1" d="M86.87,94.95h99.68"/></g><g id="g25"><path id="path27" class="cls-1" d="M86.87,118.96h99.68"/></g><g id="g29"><g id="g31"><g id="g37"><path id="path39" class="cls-1" d="M76.89,43.47h119.63c8.35,0,15.13,6.77,15.13,15.13v75.22c0,8.29-6.67,15.02-14.93,15.12v35.15c0,2.2-2.78,3.17-4.15,1.44l-27.08-34.28c-1.15-1.45-2.9-2.3-4.75-2.3h-83.85c-8.36,0-15.13-6.77-15.13-15.13V58.6c0-8.36,6.77-15.13,15.13-15.13Z"/></g><g id="g41"><path id="path43" class="cls-1" d="M133.98,28.79v-12.12c0-7.27-5.9-13.17-13.17-13.17H16.67c-7.27,0-13.17,5.9-13.17,13.17v65.49c0,7.22,5.8,13.07,13,13.16v30.6c0,1.92,2.42,2.76,3.61,1.25l23.57-29.84c.84-1.07,2.06-1.76,3.39-1.95"/></g></g></g></g></g></svg>