<?xml version="1.0" encoding="UTF-8"?><svg id="Layer_2" xmlns="http://www.w3.org/2000/svg" viewBox="0 0 178.66 179.38"><defs><style>.cls-1{fill:none;stroke:#2e3192;stroke-linecap:round;stroke-linejoin:round;stroke-width:7px;}</style></defs><g id="Layer_1-2"><g id="g2337"><g id="g2339"><g id="g2341"><g id="g2347"><path id="path2349" class="cls-1" d="M67.87,89.33v-53.64c0-5.93-4.8-10.73-10.73-10.73h0c-5.93,0-10.73,4.8-10.73,10.73v53.64"/></g><g id="g2351"><path id="path2353" class="cls-1" d="M89.33,96.48v-50.07c0-5.93-4.8-10.73-10.73-10.73h0c-5.93,0-10.73,4.8-10.73,10.73v42.92"/></g><g id="g2355"><path id="path2357" class="cls-1" d="M46.42,89.33v-42.92c0-5.93-4.8-10.73-10.73-10.73h0c-5.93,0-10.73,4.8-10.73,10.73v42.92"/></g><g id="g2359"><path id="path2361" class="cls-1" d="M24.96,89.33v-25.03c0-5.93-4.8-10.73-10.73-10.73h0c-5.93,0-10.73,4.8-10.73,10.73v32.19"/></g><g id="g2363"><path id="path2365" class="cls-1" d="M89.33,96.48v19.01l15.17-15.17c6.98-6.98,18.31-6.98,25.29,0h0c1.4,1.4,1.4,3.66,0,5.06l-29.99,29.99c-6.71,6.71-10.47,15.8-10.47,25.29v15.23H17.81v-18.6l-8.02-8.02c-4.02-4.02-6.29-9.48-6.29-15.17v-44.76"/></g><g id="g2367"><path id="path2369" class="cls-1" d="M110.79,67.87V14.23c0-5.93,4.8-10.73,10.73-10.73h0c5.93,0,10.73,4.8,10.73,10.73v53.64"/></g><g id="g2371"><path id="path2373" class="cls-1" d="M89.33,75.03V24.96c0-5.93,4.8-10.73,10.73-10.73h0c5.93,0,10.73,4.8,10.73,10.73v42.92"/></g><g id="g2375"><path id="path2377" class="cls-1" d="M132.25,67.87V24.96c0-5.93,4.8-10.73,10.73-10.73h0c5.93,0,10.73,4.8,10.73,10.73v42.92"/></g><g id="g2379"><path id="path2381" class="cls-1" d="M153.71,67.87v-25.03c0-5.93,4.8-10.73,10.73-10.73h0c5.93,0,10.73,4.8,10.73,10.73v32.19"/></g><g id="g2383"><path id="path2385" class="cls-1" d="M90.53,175.88h70.33v-40.05l8.02-8.02c4.02-4.02,6.29-9.48,6.29-15.17v-44.76"/></g></g></g></g></g></svg>