<?xml version="1.0" encoding="UTF-8"?><svg id="Layer_2" xmlns="http://www.w3.org/2000/svg" viewBox="0 0 172.95 172.95"><defs><style>.cls-1{fill:none;stroke:#2e3192;stroke-linecap:round;stroke-linejoin:round;stroke-width:7px;}</style></defs><g id="Layer_1-2"><g id="g5175"><g id="g5181"><g id="g5183"><g id="g5189"><path id="path5191" class="cls-1" d="M82.33,98.53l-7.5-8.36v-9.01c0-6.4,5.24-11.64,11.64-11.64s11.64,5.24,11.64,11.64v9.01s-7.5,8.36-7.5,8.36h-8.28Z"/></g><g id="g5193"><path id="path5195" class="cls-1" d="M66.44,117.89v-7l15.89-12.35M90.62,98.53l15.89,12.35v7"/></g><g id="g5209"><path id="path5211" class="cls-1" d="M86.47,139.4c8.3,0,15.03,6.73,15.03,15.03s-6.73,15.03-15.03,15.03-15.03-6.73-15.03-15.03,6.73-15.03,15.03-15.03ZM154.42,112.94c-8.3,0-15.03,6.73-15.03,15.03s6.73,15.03,15.03,15.03,15.03-6.73,15.03-15.03-6.73-15.03-15.03-15.03ZM154.42,29.96c-8.3,0-15.03,6.73-15.03,15.03s6.73,15.03,15.03,15.03,15.03-6.73,15.03-15.03-6.73-15.03-15.03-15.03ZM86.47,3.5c8.3,0,15.03,6.73,15.03,15.03s-6.73,15.03-15.03,15.03-15.03-6.73-15.03-15.03,6.73-15.03,15.03-15.03ZM18.53,29.96c8.3,0,15.03,6.73,15.03,15.03s-6.73,15.03-15.03,15.03-15.03-6.73-15.03-15.03,6.73-15.03,15.03-15.03ZM18.53,112.94c8.3,0,15.03,6.73,15.03,15.03s-6.73,15.03-15.03,15.03-15.03-6.73-15.03-15.03,6.73-15.03,15.03-15.03Z"/></g><g id="g5221"><path id="path5223" class="cls-1" d="M86.47,45.95v-12.4,12.4ZM86.47,139.4v-12.4,12.4ZM121.53,106.81l20.92,12.08-20.92-12.08ZM30.4,54.19l20.93,12.09-20.93-12.09ZM51.41,106.81l-20.92,12.08,20.92-12.08ZM142.55,54.19l-20.93,12.09,20.93-12.09Z"/></g></g></g></g><circle class="cls-1" cx="86.24" cy="85.54" r="38.94"/></g></svg>