<?xml version="1.0" encoding="utf-8"?>
<!-- Generator: Adobe Illustrator 16.0.4, SVG Export Plug-In . SVG Version: 6.00 Build 0)  -->
<!DOCTYPE svg PUBLIC "-//W3C//DTD SVG 1.1//EN" "http://www.w3.org/Graphics/SVG/1.1/DTD/svg11.dtd">
<svg version="1.1" id="Layer_1" xmlns="http://www.w3.org/2000/svg" xmlns:xlink="http://www.w3.org/1999/xlink" x="0px" y="0px"
	 width="56.297px" height="55.753px" viewBox="0 0 56.297 55.753" enable-background="new 0 0 56.297 55.753" xml:space="preserve">
<path fill="#FFFFFF" d="M41.136,39.392c0,0.814-0.659,1.473-1.473,1.473H16.635c-0.814,0-1.473-0.658-1.473-1.473
	s0.66-1.475,1.473-1.475h23.029C40.477,37.917,41.136,38.578,41.136,39.392 M27.107,34.058c0.276,0.279,0.651,0.434,1.043,0.434
	c0.391,0,0.765-0.154,1.042-0.434l5.827-5.825c0.577-0.576,0.577-1.509,0-2.085c-0.576-0.576-1.509-0.576-2.084,0l-3.311,3.312
	V16.363c0-0.814-0.661-1.474-1.473-1.474c-0.816,0-1.474,0.659-1.474,1.474V29.46l-3.312-3.312c-0.575-0.576-1.509-0.576-2.083,0
	c-0.576,0.576-0.576,1.509,0,2.084L27.107,34.058z M51.73,27.877c0,13.003-10.578,23.581-23.581,23.581
	c-13.004,0-23.582-10.578-23.582-23.581c0-13.002,10.578-23.581,23.582-23.581C41.152,4.296,51.73,14.875,51.73,27.877
	 M48.783,27.877c0-11.377-9.257-20.633-20.633-20.633c-11.378,0-20.635,9.256-20.635,20.633c0,11.378,9.257,20.634,20.635,20.634
	C39.526,48.511,48.783,39.255,48.783,27.877"/>
<path fill="none" stroke="#FFFFFF" stroke-miterlimit="10" d="M41.136,39.392c0,0.814-0.659,1.473-1.473,1.473H16.635
	c-0.814,0-1.473-0.658-1.473-1.473s0.66-1.475,1.473-1.475h23.029C40.477,37.917,41.136,38.578,41.136,39.392z M27.107,34.058
	c0.276,0.279,0.651,0.434,1.043,0.434c0.391,0,0.765-0.154,1.042-0.434l5.827-5.825c0.577-0.576,0.577-1.509,0-2.085
	c-0.576-0.576-1.509-0.576-2.084,0l-3.311,3.312V16.363c0-0.814-0.661-1.474-1.473-1.474c-0.816,0-1.474,0.659-1.474,1.474V29.46
	l-3.312-3.312c-0.575-0.576-1.509-0.576-2.083,0c-0.576,0.576-0.576,1.509,0,2.084L27.107,34.058z M51.73,27.877
	c0,13.003-10.578,23.581-23.581,23.581c-13.004,0-23.582-10.578-23.582-23.581c0-13.002,10.578-23.581,23.582-23.581
	C41.152,4.296,51.73,14.875,51.73,27.877z M48.783,27.877c0-11.377-9.257-20.633-20.633-20.633
	c-11.378,0-20.635,9.256-20.635,20.633c0,11.378,9.257,20.634,20.635,20.634C39.526,48.511,48.783,39.255,48.783,27.877z"/>
</svg>
