<?xml version="1.0" encoding="utf-8"?>
<!-- Generator: Adobe Illustrator 16.0.4, SVG Export Plug-In . SVG Version: 6.00 Build 0)  -->
<!DOCTYPE svg PUBLIC "-//W3C//DTD SVG 1.1//EN" "http://www.w3.org/Graphics/SVG/1.1/DTD/svg11.dtd">
<svg version="1.1" id="Layer_1" xmlns="http://www.w3.org/2000/svg" xmlns:xlink="http://www.w3.org/1999/xlink" x="0px" y="0px"
	 width="70.18px" height="39.301px" viewBox="0 0 70.18 39.301" enable-background="new 0 0 70.18 39.301" xml:space="preserve">
<path fill="#FFFFFF" d="M35.125,19.313c-4.826,0-8.752-3.925-8.752-8.751c0-4.826,3.926-8.752,8.752-8.752s8.752,3.926,8.752,8.752
	C43.877,15.388,39.951,19.313,35.125,19.313 M35.125,4.808c-3.173,0-5.754,2.581-5.754,5.754c0,3.172,2.581,5.754,5.754,5.754
	s5.754-2.582,5.754-5.754C40.879,7.389,38.298,4.808,35.125,4.808"/>
<path fill="#FFFFFF" d="M55.617,20.239c-4.388,0-7.956-3.569-7.956-7.956c0-4.387,3.568-7.956,7.956-7.956
	c4.387,0,7.956,3.569,7.956,7.956C63.573,16.67,60.004,20.239,55.617,20.239 M55.617,7.325c-2.734,0-4.958,2.224-4.958,4.958
	c0,2.734,2.224,4.958,4.958,4.958c2.733,0,4.958-2.224,4.958-4.958C60.575,9.549,58.351,7.325,55.617,7.325"/>
<path fill="#FFFFFF" d="M14.634,20.239c-4.388,0-7.956-3.569-7.956-7.956c0-4.387,3.568-7.956,7.956-7.956
	c4.387,0,7.956,3.569,7.956,7.956C22.59,16.67,19.021,20.239,14.634,20.239 M14.634,7.325c-2.734,0-4.958,2.224-4.958,4.958
	c0,2.734,2.224,4.958,4.958,4.958c2.733,0,4.958-2.224,4.958-4.958C19.592,9.549,17.367,7.325,14.634,7.325"/>
<path fill="#FFFFFF" d="M65.061,19.3c-2.526-0.883-5.259-1.331-8.119-1.331l0,0c-4.038,0-7.882,0.915-11.01,2.597
	c-3.072-1.683-6.845-2.597-10.807-2.597s-7.734,0.914-10.805,2.597c-3.129-1.683-6.973-2.597-11.011-2.597
	c-2.861,0-5.594,0.448-8.119,1.331c-1.065,0.373-2.08,0.82-3.017,1.332l1.438,2.631c0.793-0.434,1.657-0.814,2.568-1.133
	c2.177-0.761,4.642-1.163,7.13-1.163c2.945,0,5.754,0.543,8.163,1.556c-2.543,2.192-3.931,4.922-3.949,7.83h-0.001
	c0,0.008,0.001,0.017,0.001,0.024c0,0.011-0.001,0.022-0.001,0.035h0.002c0.032,3.618,3.091,6.552,6.846,6.552
	s6.813-2.934,6.846-6.552h0.023c0-2.942-1.425-5.703-4.048-7.913c2.345-0.998,5.072-1.532,7.934-1.532s5.589,0.534,7.935,1.532
	c-2.621,2.209-4.046,4.966-4.049,7.906v0.002v0.005c0.005,3.642,3.079,6.604,6.858,6.604c3.78,0,6.855-2.963,6.859-6.604v-0.005
	v-0.002c-0.002-2.928-1.394-5.678-3.951-7.883c2.41-1.013,5.218-1.556,8.164-1.556c2.488,0,4.953,0.402,7.13,1.163
	c0.911,0.318,1.774,0.699,2.567,1.133l1.438-2.631C67.141,20.121,66.126,19.673,65.061,19.3 M28.24,30.353h-0.02
	c0,1.992-1.728,3.613-3.851,3.613c-2.114,0-3.835-1.607-3.849-3.589c0.013-2.323,1.362-4.547,3.813-6.293
	C26.835,25.826,28.217,28.042,28.24,30.353 M49.73,30.408c-0.001,1.992-1.733,3.611-3.861,3.611s-3.859-1.619-3.861-3.611
	c0.002-2.331,1.388-4.567,3.907-6.323C48.376,25.838,49.729,28.076,49.73,30.408"/>
</svg>
