<?xml version="1.0" encoding="utf-8"?>
<!-- Generator: Adobe Illustrator 16.0.4, SVG Export Plug-In . SVG Version: 6.00 Build 0)  -->
<!DOCTYPE svg PUBLIC "-//W3C//DTD SVG 1.1//EN" "http://www.w3.org/Graphics/SVG/1.1/DTD/svg11.dtd">
<svg version="1.1" id="Layer_1" xmlns="http://www.w3.org/2000/svg" xmlns:xlink="http://www.w3.org/1999/xlink" x="0px" y="0px"
	 width="60.656px" height="60.823px" viewBox="0 0 60.656 60.823" enable-background="new 0 0 60.656 60.823" xml:space="preserve">
<path fill="#FFFFFF" d="M54.006,32.301V27.34c0-0.863-0.699-1.564-1.563-1.564c-3.23,0-6.242,0.273-9.089,0.83
	c-1.659-1.602-3.682-2.765-5.871-3.399c2.39-2.011,3.908-5.02,3.908-8.377c0-6.096-4.911-11.053-10.947-11.053
	S19.496,8.734,19.496,14.829c0,3.357,1.52,6.366,3.907,8.377c-2.189,0.635-4.212,1.798-5.87,3.398
	c-2.847-0.556-5.858-0.829-9.09-0.829c-0.863,0-1.563,0.701-1.563,1.564v4.961c-1.82,0.646-3.128,2.384-3.128,4.423v3.128
	c0,2.039,1.308,3.777,3.128,4.423v4.961c0,0.863,0.7,1.563,1.563,1.563c8.178,0,14.893,1.938,21.133,6.099
	c0.522,0.349,1.212,0.349,1.734,0c6.24-4.16,12.955-6.099,21.133-6.099c0.863,0,1.562-0.7,1.562-1.563v-4.961
	c1.822-0.646,3.129-2.384,3.129-4.423v-3.128C57.135,34.685,55.827,32.946,54.006,32.301 M22.624,14.829
	c0-4.37,3.508-7.924,7.819-7.924s7.819,3.554,7.819,7.924c0,4.312-3.509,7.818-7.819,7.818
	C26.132,22.648,22.624,19.141,22.624,14.829 M27.316,25.776h6.255c2.136,0,4.209,0.631,5.972,1.775
	c-3.207,0.975-6.211,2.362-9.099,4.183c-2.887-1.82-5.892-3.208-9.1-4.183C23.107,26.406,25.182,25.776,27.316,25.776 M6.88,36.724
	c0-0.861,0.701-1.563,1.563-1.563s1.563,0.702,1.563,1.563v3.128c0,0.862-0.701,1.564-1.563,1.564S6.88,40.714,6.88,39.852V36.724z
	 M10.007,44.274c1.821-0.646,3.128-2.384,3.128-4.423v-3.128c0-2.039-1.307-3.777-3.128-4.423v-3.375
	c7.349,0.211,13.256,1.942,18.873,5.517V52.79c-5.678-3.248-11.771-4.89-18.873-5.097V44.274z M32.006,52.79V34.444
	c5.617-3.575,11.522-5.308,18.873-5.519V32.3c-1.82,0.646-3.129,2.384-3.129,4.423v3.128c0,2.039,1.309,3.777,3.129,4.423v3.42
	C43.778,47.901,37.685,49.543,32.006,52.79 M54.006,39.852c0,0.862-0.701,1.564-1.563,1.564c-0.861,0-1.562-0.702-1.562-1.564
	v-3.128c0-0.861,0.701-1.563,1.562-1.563c0.862,0,1.563,0.702,1.563,1.563V39.852z"/>
</svg>
