<?xml version="1.0" encoding="utf-8"?>
<!-- Generator: Adobe Illustrator 16.0.4, SVG Export Plug-In . SVG Version: 6.00 Build 0)  -->
<!DOCTYPE svg PUBLIC "-//W3C//DTD SVG 1.1//EN" "http://www.w3.org/Graphics/SVG/1.1/DTD/svg11.dtd">
<svg version="1.1" id="Layer_1" xmlns="http://www.w3.org/2000/svg" xmlns:xlink="http://www.w3.org/1999/xlink" x="0px" y="0px"
	 width="300px" height="300px" viewBox="0 0 300 300" enable-background="new 0 0 300 300" xml:space="preserve">
<path fill="#FFFFFF" d="M17.809,251.253h248.73l17.911-36.905l-17.911-36.908H17.809l16.925,34.877c0.623,1.279,0.623,2.782,0,4.067
	L17.809,251.253z M269.453,260.562H10.373c-1.605,0-3.089-0.819-3.946-2.182c-0.848-1.357-0.94-3.064-0.238-4.502l19.181-39.53
	L6.189,174.82c-0.702-1.442-0.61-3.145,0.238-4.504c0.857-1.354,2.341-2.186,3.946-2.186h259.081c1.785,0,3.41,1.024,4.188,2.625
	l20.172,41.561c0.627,1.279,0.627,2.782,0,4.067l-20.172,41.557C272.863,259.55,271.238,260.562,269.453,260.562"/>
<path fill="#FFFFFF" d="M141.191,260.562c-0.773,0-1.563-0.196-2.282-0.603c-2.24-1.266-3.027-4.104-1.764-6.338l22.179-39.269
	l-22.171-39.005c-0.417-0.727-0.609-1.52-0.609-2.297c0-1.619,0.844-3.189,2.357-4.055c2.232-1.262,5.075-0.484,6.341,1.751
	l23.479,41.294c0.009,0.005,0.013,0.015,0.013,0.015v0.005h0.004c0.564,1.009,0.719,2.139,0.506,3.195
	c-0.051,0.223-0.108,0.451-0.188,0.664c-0.097,0.274-0.222,0.534-0.368,0.788l-23.437,41.484
	C144.393,259.715,142.813,260.562,141.191,260.562"/>
<path fill="#FFFFFF" d="M269.453,177.439h-59.64c-2.566,0-4.652-2.081-4.652-4.656c0-2.562,2.086-4.652,4.652-4.652h59.64
	c2.569,0,4.652,2.091,4.652,4.652C274.105,175.358,272.022,177.439,269.453,177.439"/>
<path fill="#FFFFFF" d="M208.434,260.562c-0.772,0-1.562-0.196-2.281-0.603c-1.518-0.856-2.366-2.433-2.366-4.059
	c0-0.772,0.192-1.557,0.602-2.279l22.184-39.269l-22.179-39.005c-0.414-0.727-0.606-1.52-0.606-2.297
	c0-1.619,0.84-3.189,2.354-4.055c2.232-1.262,5.073-0.484,6.346,1.751l23.479,41.294c0.405,0.715,0.609,1.514,0.609,2.307
	c0,0.79-0.196,1.572-0.603,2.283l-23.479,41.562C211.636,259.715,210.06,260.562,208.434,260.562"/>
<path fill="#FFFFFF" d="M73.945,260.562c-0.773,0-1.564-0.196-2.282-0.603c-1.513-0.856-2.366-2.433-2.366-4.059
	c0-0.772,0.192-1.557,0.606-2.279l22.174-39.269l-22.17-39.005c-0.418-0.727-0.61-1.52-0.61-2.297c0-1.619,0.844-3.193,2.357-4.055
	c2.232-1.262,5.079-0.484,6.345,1.751l23.479,41.294c0.406,0.715,0.606,1.514,0.606,2.307c0,0.79-0.2,1.572-0.602,2.283
	l-23.474,41.562C77.151,259.715,75.571,260.562,73.945,260.562"/>
<path fill="#FFFFFF" d="M257.59,207.367c-3.85,0-6.98,3.134-6.98,6.98c0,3.849,3.131,6.98,6.98,6.98c3.846,0,6.98-3.132,6.98-6.98
	C264.57,210.501,261.439,207.367,257.59,207.367 M257.59,230.638c-8.982,0-16.289-7.309-16.289-16.29
	c0-8.979,7.307-16.285,16.289-16.285s16.289,7.307,16.289,16.285C273.879,223.329,266.572,230.638,257.59,230.638"/>
<path fill="#FFFFFF" d="M190.348,207.367c-3.846,0-6.98,3.134-6.98,6.98c0,3.849,3.135,6.98,6.98,6.98c3.849,0,6.98-3.132,6.98-6.98
	C197.328,210.501,194.196,207.367,190.348,207.367 M190.348,230.638c-8.979,0-16.289-7.309-16.289-16.29
	c0-8.979,7.311-16.285,16.289-16.285c8.982,0,16.294,7.307,16.294,16.285C206.642,223.329,199.33,230.638,190.348,230.638"/>
<path fill="#FFFFFF" d="M123.101,207.367c-3.85,0-6.98,3.134-6.98,6.98c0,3.849,3.13,6.98,6.98,6.98c3.845,0,6.98-3.132,6.98-6.98
	C130.081,210.501,126.951,207.367,123.101,207.367 M123.101,230.638c-8.978,0-16.293-7.309-16.293-16.29
	c0-8.979,7.315-16.285,16.293-16.285c8.983,0,16.289,7.307,16.289,16.285C139.39,223.329,132.084,230.638,123.101,230.638"/>
<path fill="#FFFFFF" d="M55.858,207.367c-3.846,0-6.98,3.134-6.98,6.98c0,3.849,3.135,6.98,6.98,6.98c3.85,0,6.985-3.132,6.985-6.98
	C62.843,210.501,59.708,207.367,55.858,207.367 M55.858,230.638c-8.978,0-16.289-7.309-16.289-16.29
	c0-8.979,7.311-16.285,16.289-16.285c8.983,0,16.294,7.307,16.294,16.285C72.152,223.329,64.841,230.638,55.858,230.638"/>
<path fill="#FFFFFF" d="M257.59,207.172c-2.57,0-4.652-2.082-4.652-4.652V38.796c0-2.567,2.082-4.653,4.652-4.653
	s4.652,2.086,4.652,4.653V202.52C262.242,205.09,260.16,207.172,257.59,207.172"/>
<path fill="#FFFFFF" d="M170.706,96.771c13.748,3.344,26.538,0.297,40.035-2.914c13.372-3.181,27.146-6.456,42.196-3.398V38.846
	c-15.064-3.779-28.498-0.581-42.66,2.8c-12.682,3.022-25.736,6.136-39.571,3.497V96.771z M183.137,107.531
	c-5.965,0-12.101-0.778-18.479-2.78c-1.94-0.615-3.261-2.412-3.261-4.439V39.176c0-1.475,0.706-2.876,1.901-3.749
	c1.2-0.874,2.734-1.129,4.146-0.69c13.647,4.297,26.78,1.175,40.671-2.145c15.742-3.753,32.011-7.63,50.874-1.697
	c1.938,0.606,3.252,2.403,3.252,4.441v61.125c0,1.488-0.707,2.882-1.902,3.753c-1.191,0.878-2.729,1.137-4.146,0.686
	c-15.002-4.711-28.746-1.451-43.296,2.016C203.292,105.194,193.482,107.531,183.137,107.531"/>
</svg>
