<?xml version="1.0" encoding="UTF-8"?><svg id="Layer_2" xmlns="http://www.w3.org/2000/svg" viewBox="0 0 101.45 99.88"><defs><style>.cls-1{fill:#fff;}</style></defs><g id="Layer_1-2"><path class="cls-1" d="M96.35,14.41c-14.94,6.67-28.14,16.14-39.25,28.15-.28.31-.75.49-1.15.5-2.08-.1-4.13-.01-6.15.26-4.34.58-8.59,1.72-12.62,3.42-3.54,1.53-6.74,3.89-9.26,6.82-.12.14-.23.29-.34.44-1.58,2.26-1.14,5.42,1,7.18l2.84,2.34-3.61-.71c-12.08-2.36-21.34-11.7-23.59-23.8-1.46-7.83.22-15.77,4.72-22.34S20.25,5.68,28.08,4.22c13.97-2.61,27.93,5.08,33.17,18.28l.83,2.08-9.17-3.93c-.46-.2-.96-.2-1.43-.02-.46.19-.82.54-1.02,1-.2.46-.2.96-.02,1.43.19.46.54.82,1,1.02l13.05,5.59c.91.4,2.05-.06,2.45-.98l5.59-13.05c.4-.94-.04-2.04-.98-2.45-.95-.41-2.05.04-2.45.98l-3.71,8.65-.84-2.05C59.36,8.16,47.2,0,33.57,0h-.02c-8.96,0-17.38,3.49-23.72,9.82C3.5,16.15,0,24.58,0,33.54c0,8.96,3.48,17.39,9.82,23.73,6.95,6.95,16.5,10.54,26.32,9.68l.34-.03.49.17.46.32c.73.52.91,1.54.4,2.27l-4.01,5.72c-1.69,2.42-1.11,5.77,1.31,7.46l22.9,16.03c.9.64,1.95.93,3.07.97,1.75,0,3.39-.85,4.39-2.28l4.01-5.72c.52-.73,1.54-.92,2.27-.4l8.52,5.97c.15.11.31.2.47.29,2.59,1.46,5.86.51,7.3-2.07,1.9-3.36,3.02-7.18,3.24-11.05.33-6.51-.65-12.93-2.91-19.06-.17-.4-.12-.9.13-1.3,2.43-4.75,4.6-9.79,6.4-14.91h0c3.55-10.12,5.74-20.67,6.52-31.38.04-.6-.06-1.21-.31-1.76-.82-1.82-2.95-2.63-4.79-1.81ZM97.59,19.47c-.86,9.76-2.93,19.4-6.17,28.64-1.74,4.95-3.84,9.84-6.25,14.53h0c-.54,1.04-.71,2.2-.51,3.32.07.37.17.74.32,1.1,2.03,5.61,2.9,11.43,2.6,17.35-.19,3.3-1.16,6.57-2.79,9.45-.21.4-.6.7-1.06.8-.43.11-.93.02-1.33-.28l-8.49-5.95c-2.42-1.69-5.77-1.09-7.47,1.31l-4.01,5.73c-.25.36-.63.59-1.05.67-.09.02-.19.03-.29.03-.33,0-.66-.1-.93-.29l-22.9-16.03c-.69-.58-.84-1.48-.45-2.19l4.06-5.81c1.69-2.42,1.1-5.77-1.32-7.46l-8.52-5.96c-.38-.26-.64-.68-.69-1.15-.06-.46.09-.92.4-1.27,2.14-2.5,4.88-4.52,7.91-5.83,3.74-1.56,7.65-2.61,11.65-3.14,1.27-.17,2.57-.26,3.86-.26.47,0,1.05.01,1.6.03,1.57.12,3.01-.56,4.06-1.69,10.35-11.19,22.61-20.12,36.43-26.54l1.46-.68-.14,1.61Z"/><path class="cls-1" d="M56.93,72.33c2.84,2.84,6.88,4.12,10.9,3.44,3.2-.56,6.11-2.41,7.97-5.08,1.45-2.09,2.22-4.53,2.23-7.07.01-6.81-5.52-12.36-12.33-12.37h-.02c-6.8,0-12.34,5.53-12.35,12.33,0,3.3,1.27,6.4,3.6,8.74ZM65.68,55h.01c1.78,0,3.49.54,4.94,1.56,1.89,1.31,3.14,3.29,3.54,5.56.4,2.27-.11,4.55-1.43,6.44-1.61,2.3-4.25,3.68-7.06,3.68h-.01c-2.3,0-4.47-.9-6.09-2.53-1.62-1.63-2.52-3.8-2.52-6.1,0-4.75,3.87-8.6,8.61-8.6Z"/><path class="cls-1" d="M35.4,33.55v-14.91c0-1.03-.84-1.86-1.86-1.86s-1.86.84-1.86,1.86v14.14l-8.77,8.77c-.35.35-.55.82-.55,1.32,0,1.03.84,1.86,1.86,1.86.5,0,.96-.19,1.32-.55l9.32-9.32c.35-.35.55-.83.55-1.32Z"/></g></svg>