<?xml version="1.0" encoding="UTF-8"?>
<svg id="Layer_2" data-name="Layer 2" xmlns="http://www.w3.org/2000/svg" viewBox="0 0 44.98 42.8">
  <defs>
    <style>
      .cls-1 {
        fill: #fff;
        stroke-width: 0px;
      }
    </style>
  </defs>
  <g id="Layer_1-2" data-name="Layer 1">
    <g>
      <path class="cls-1" d="m43.43,39.68H.73c-.4,0-.73-.32-.73-.73s.33-.73.73-.73h42.71c.4,0,.73.33.73.73s-.33.73-.73.73Z"/>
      <path class="cls-1" d="m21,39.67C10.16,39.67,1.34,30.77,1.34,19.83S10.16,0,21,0c8.67,0,16.22,5.61,18.78,13.97.12.38-.1.79-.48.91-.38.12-.79-.1-.91-.48C36.02,6.65,29.03,1.45,21,1.45,10.96,1.45,2.79,9.7,2.79,19.83s8.17,18.38,18.21,18.38,18.21-8.25,18.21-18.38c0-.4.32-.73.73-.73s.73.32.73.73c0,10.94-8.82,19.83-19.66,19.83Z"/>
      <path class="cls-1" d="m39.61,15.22c-.07,0-.15-.01-.22-.04l-5.83-1.87c-.38-.12-.59-.53-.47-.91.12-.38.53-.59.91-.47l4.88,1.57v-5.22c0-.4.32-.73.73-.73s.73.33.73.73v6.22c0,.23-.11.45-.3.59-.13.09-.28.14-.43.14Z"/>
      <path class="cls-1" d="m39.09,42.8c-.24,0-.47-.12-.61-.34-.22-.34-.12-.79.22-1l4.34-2.77-3.97-3.36c-.31-.26-.34-.72-.08-1.02.26-.31.72-.34,1.02-.08l4.72,4c.18.15.27.37.26.6-.02.23-.14.44-.33.56l-5.17,3.3c-.12.08-.26.11-.39.11Z"/>
      <path class="cls-1" d="m10.11,19.29h2.58c.15-1.76.83-3.42,1.96-4.77l-1.83-1.84c-1.61,1.85-2.56,4.16-2.71,6.62Zm3.27,1.45h-4.02c-.4,0-.73-.33-.73-.73,0-3.36,1.3-6.52,3.65-8.9.14-.14.32-.21.52-.21s.38.08.52.22l2.84,2.87c.28.28.28.74,0,1.02-1.32,1.34-2.05,3.12-2.05,5.01,0,.4-.32.73-.73.73Z"/>
      <path class="cls-1" d="m13.84,11.64l1.83,1.85c1.34-1.14,2.97-1.82,4.72-1.97v-2.62c-2.44.16-4.72,1.11-6.55,2.74Zm1.81,3.58c-.19,0-.38-.08-.52-.22l-2.84-2.87c-.28-.28-.28-.74,0-1.02,2.36-2.38,5.49-3.69,8.83-3.69.4,0,.73.32.73.73v4.06c0,.4-.32.73-.73.73-1.87,0-3.63.74-4.95,2.07-.14.14-.32.22-.52.22Z"/>
      <path class="cls-1" d="m21.84,28.51v2.62c5.74-.38,10.3-5.22,10.3-11.11s-4.56-10.74-10.3-11.11v2.62c4.33.37,7.73,4.04,7.73,8.5s-3.41,8.13-7.73,8.5Zm-.73,4.09c-.4,0-.73-.33-.73-.73v-4.06c0-.4.33-.73.73-.73,3.86,0,7.01-3.18,7.01-7.08s-3.14-7.08-7.01-7.08c-.4,0-.73-.33-.73-.73v-4.06c0-.4.33-.73.73-.73,6.88,0,12.48,5.65,12.48,12.59s-5.6,12.59-12.48,12.59Z"/>
      <path class="cls-1" d="m13.84,28.39c1.83,1.63,4.11,2.58,6.55,2.74v-2.62c-1.75-.15-3.38-.83-4.72-1.97l-1.83,1.85Zm7.27,4.22c-3.33,0-6.47-1.31-8.83-3.69-.28-.28-.28-.74,0-1.02l2.84-2.87c.27-.28.76-.28,1.03,0,1.32,1.34,3.08,2.07,4.95,2.07.4,0,.73.33.73.73v4.06c0,.4-.33.73-.73.73Z"/>
      <path class="cls-1" d="m10.11,20.74c.16,2.46,1.1,4.76,2.71,6.62l1.83-1.84c-1.13-1.35-1.81-3.01-1.96-4.77h-2.58Zm2.69,8.39c-.19,0-.38-.08-.52-.22-2.36-2.38-3.65-5.54-3.65-8.9,0-.4.33-.73.73-.73h4.02c.4,0,.73.32.73.73,0,1.89.73,3.67,2.05,5.01.28.28.28.74,0,1.02l-2.84,2.87c-.14.14-.32.22-.52.22Z"/>
    </g>
  </g>
</svg>