<?xml version="1.0" encoding="UTF-8"?>
<svg id="Layer_2" data-name="Layer 2" xmlns="http://www.w3.org/2000/svg" viewBox="0 0 45.66 36.83">
  <defs>
    <style>
      .cls-1 {
        fill: #fff;
        stroke-width: 0px;
      }
    </style>
  </defs>
  <g id="Layer_1-2" data-name="Layer 1">
    <path class="cls-1" d="m1.91,35.35h39.36l2.83-5.84-2.83-5.84H1.91l2.68,5.52c.1.2.1.44,0,.64l-2.68,5.52Zm39.82,1.47H.74c-.25,0-.49-.13-.62-.35-.13-.22-.15-.48-.04-.71l3.04-6.25L.07,23.26c-.11-.23-.1-.5.04-.71.13-.22.37-.35.62-.35h41c.28,0,.54.16.66.41l3.19,6.58c.1.2.1.44,0,.64l-3.19,6.58c-.12.25-.38.41-.66.41Z"/>
    <path class="cls-1" d="m21.44,36.83c-.12,0-.25-.03-.36-.1-.35-.2-.48-.65-.28-1l3.51-6.21-3.51-6.17c-.07-.12-.1-.24-.1-.36,0-.26.13-.5.37-.64.35-.2.8-.08,1,.28l3.72,6.54s0,0,0,0c0,0,0,0,0,0h0c.09.16.11.34.08.51,0,.04-.02.07-.03.11-.02.04-.04.08-.06.12l-3.71,6.56c-.14.24-.39.37-.64.37Z"/>
    <path class="cls-1" d="m41.73,23.67h-9.44c-.41,0-.74-.33-.74-.74s.33-.74.74-.74h9.44c.41,0,.74.33.74.74s-.33.74-.74.74Z"/>
    <path class="cls-1" d="m32.08,36.83c-.12,0-.25-.03-.36-.1-.24-.14-.37-.38-.37-.64,0-.12.03-.25.1-.36l3.51-6.21-3.51-6.17c-.07-.12-.1-.24-.1-.36,0-.26.13-.5.37-.64.35-.2.8-.08,1,.28l3.72,6.54c.06.11.1.24.1.36s-.03.25-.1.36l-3.72,6.58c-.14.24-.38.37-.64.37Z"/>
    <path class="cls-1" d="m10.8,36.83c-.12,0-.25-.03-.36-.1-.24-.14-.37-.38-.37-.64,0-.12.03-.25.1-.36l3.51-6.21-3.51-6.17c-.07-.12-.1-.24-.1-.36,0-.26.13-.51.37-.64.35-.2.8-.08,1,.28l3.71,6.54c.06.11.1.24.1.36s-.03.25-.1.36l-3.71,6.58c-.14.24-.38.37-.64.37Z"/>
    <path class="cls-1" d="m39.86,28.41c-.61,0-1.1.5-1.1,1.1s.5,1.1,1.1,1.1,1.1-.5,1.1-1.1-.5-1.1-1.1-1.1Zm0,3.68c-1.42,0-2.58-1.16-2.58-2.58s1.16-2.58,2.58-2.58,2.58,1.16,2.58,2.58-1.16,2.58-2.58,2.58Z"/>
    <path class="cls-1" d="m29.22,28.41c-.61,0-1.1.5-1.1,1.1s.5,1.1,1.1,1.1,1.1-.5,1.1-1.1-.5-1.1-1.1-1.1Zm0,3.68c-1.42,0-2.58-1.16-2.58-2.58s1.16-2.58,2.58-2.58,2.58,1.16,2.58,2.58-1.16,2.58-2.58,2.58Z"/>
    <path class="cls-1" d="m18.57,28.41c-.61,0-1.1.5-1.1,1.1s.5,1.1,1.1,1.1,1.1-.5,1.1-1.1-.5-1.1-1.1-1.1Zm0,3.68c-1.42,0-2.58-1.16-2.58-2.58s1.16-2.58,2.58-2.58,2.58,1.16,2.58,2.58-1.16,2.58-2.58,2.58Z"/>
    <path class="cls-1" d="m7.93,28.41c-.61,0-1.1.5-1.1,1.1s.5,1.1,1.1,1.1,1.1-.5,1.1-1.1-.5-1.1-1.1-1.1Zm0,3.68c-1.42,0-2.58-1.16-2.58-2.58s1.16-2.58,2.58-2.58,2.58,1.16,2.58,2.58-1.16,2.58-2.58,2.58Z"/>
    <path class="cls-1" d="m39.86,28.38c-.41,0-.74-.33-.74-.74V1.73c0-.41.33-.74.74-.74s.74.33.74.74v25.91c0,.41-.33.74-.74.74Z"/>
    <path class="cls-1" d="m26.11,10.91c2.18.53,4.2.05,6.34-.46,2.12-.5,4.3-1.02,6.68-.54V1.74c-2.38-.6-4.51-.09-6.75.44-2.01.48-4.07.97-6.26.55v8.17Zm1.97,1.7c-.94,0-1.92-.12-2.92-.44-.31-.1-.52-.38-.52-.7V1.79c0-.23.11-.45.3-.59.19-.14.43-.18.66-.11,2.16.68,4.24.18,6.44-.34,2.49-.59,5.06-1.21,8.05-.27.31.1.52.38.52.7v9.67c0,.23-.11.46-.3.59-.19.14-.43.18-.66.11-2.37-.75-4.55-.23-6.85.32-1.52.36-3.07.73-4.71.73Z"/>
  </g>
</svg>