<svg width="40" height="33" viewBox="0 0 40 33" fill="none" xmlns="http://www.w3.org/2000/svg">
<g clip-path="url(#clip0_29_7690)">
<path d="M28.75 4.43V2C28.75 1.17 28.08 0.5 27.25 0.5H2C1.17 0.5 0.5 1.17 0.5 2V8.08C0.5 8.91 1.17 9.58 2 9.58" stroke="white" stroke-linecap="round" stroke-linejoin="round"/>
<path d="M5.55 6.54C6.40604 6.54 7.1 5.84604 7.1 4.99C7.1 4.13396 6.40604 3.44 5.55 3.44C4.69396 3.44 4 4.13396 4 4.99C4 5.84604 4.69396 6.54 5.55 6.54Z" stroke="white" stroke-linecap="round" stroke-linejoin="round"/>
<path d="M11 5.03998H18.89" stroke="white" stroke-linecap="round" stroke-linejoin="round"/>
<path d="M14.92 9.58002H2C1.17 9.58002 0.5 10.25 0.5 11.08V17.31C0.5 18.14 1.17 18.88 2 18.88" stroke="white" stroke-linecap="round" stroke-linejoin="round"/>
<path d="M5.55 15.69C6.40604 15.69 7.1 14.9961 7.1 14.14C7.1 13.284 6.40604 12.59 5.55 12.59C4.69396 12.59 4 13.284 4 14.14C4 14.9961 4.69396 15.69 5.55 15.69Z" stroke="white" stroke-linecap="round" stroke-linejoin="round"/>
<path d="M10.98 14.33H14.92" stroke="white" stroke-linecap="round" stroke-linejoin="round"/>
<path d="M14.92 18.88H2C1.17 18.88 0.5 19.55 0.5 20.38V26.47C0.5 27.3 1.17 27.97 2 27.97H14.92" stroke="white" stroke-linecap="round" stroke-linejoin="round"/>
<path d="M5.55 24.85C6.40604 24.85 7.1 24.156 7.1 23.3C7.1 22.444 6.40604 21.75 5.55 21.75C4.69396 21.75 4 22.444 4 23.3C4 24.156 4.69396 24.85 5.55 24.85Z" stroke="white" stroke-linecap="round" stroke-linejoin="round"/>
<path d="M10.98 23.43H14.92" stroke="white" stroke-linecap="round" stroke-linejoin="round"/>
<path d="M16.8101 28.86V9.40002" stroke="white" stroke-linecap="round" stroke-linejoin="round"/>
<path d="M39.1702 28.86V9.40002" stroke="white" stroke-linecap="round" stroke-linejoin="round"/>
<path d="M16.8101 9.40001C16.8101 7.70001 21.8001 6.32001 27.9501 6.32001C34.1001 6.32001 39.1701 7.70001 39.1701 9.40001C39.1701 11.1 34.1101 12.48 27.9501 12.48C21.7901 12.48 16.8101 11.1 16.8101 9.40001Z" stroke="white" stroke-linecap="round" stroke-linejoin="round"/>
<path d="M39.1701 15.92C39.1701 17.62 34.1601 19 27.9901 19C21.8201 19 16.8101 17.62 16.8101 15.92" stroke="white" stroke-linecap="round" stroke-linejoin="round"/>
<path d="M39.1701 22.48C39.1701 24.18 34.1601 25.56 27.9901 25.56C21.8201 25.56 16.8101 24.18 16.8101 22.48" stroke="white" stroke-linecap="round" stroke-linejoin="round"/>
<path d="M39.1701 28.86C39.1701 30.56 34.1101 31.94 27.9501 31.94C21.7901 31.94 16.8101 30.56 16.8101 28.86" stroke="white" stroke-linecap="round" stroke-linejoin="round"/>
</g>
<defs>
<clipPath id="clip0_29_7690">
<rect width="39.67" height="32.45" fill="white"/>
</clipPath>
</defs>
</svg>
