<?xml version="1.0" encoding="UTF-8"?>
<svg id="Layer_2" data-name="Layer 2" xmlns="http://www.w3.org/2000/svg" xmlns:xlink="http://www.w3.org/1999/xlink" viewBox="0 0 47.96 47.96">
  <defs>
    <style>
      .cls-1 {
        mask: url(#mask);
      }

      .cls-2 {
        fill: #1b2080;
      }

      .cls-2, .cls-3 {
        stroke-width: 0px;
      }

      .cls-3 {
        fill: #fff;
      }
    </style>
    <mask id="mask" x="0" y="0" width="47.96" height="47.96" maskUnits="userSpaceOnUse">
      <g id="custom">
        <rect id="bg" class="cls-3" y="0" width="47.96" height="47.96"/>
      </g>
    </mask>
  </defs>
  <g id="Layer_1-2" data-name="Layer 1">
    <g class="cls-1">
      <g id="g441">
        <g id="g443">
          <path class="cls-2" d="m20.69,32.14c-.48,0-.96-.18-1.32-.55l-5.98-5.98c-.73-.73-.73-1.92,0-2.65.73-.73,1.92-.73,2.65,0l4.66,4.66,11.24-11.24c.73-.73,1.92-.73,2.65,0,.73.73.73,1.92,0,2.65l-12.57,12.57c-.37.37-.85.55-1.32.55Z"/>
        </g>
        <g id="g447">
          <g id="g449">
            <g id="g455">
              <path class="cls-2" d="m23.98,47.96c-3.24,0-6.38-.63-9.34-1.89-2.86-1.21-5.42-2.94-7.62-5.14-2.2-2.2-3.93-4.77-5.14-7.62-1.25-2.96-1.89-6.1-1.89-9.34s.63-6.38,1.89-9.34c1.21-2.86,2.94-5.42,5.14-7.62,2.2-2.2,4.77-3.93,7.62-5.14,2.96-1.25,6.1-1.89,9.34-1.89s6.38.63,9.34,1.89c2.86,1.21,5.42,2.94,7.62,5.14,2.2,2.2,3.93,4.77,5.14,7.62,1.25,2.96,1.89,6.1,1.89,9.34s-.63,6.38-1.89,9.34c-1.21,2.86-2.94,5.42-5.14,7.62-2.2,2.2-4.77,3.93-7.62,5.14-2.96,1.25-6.1,1.89-9.34,1.89Zm0-44.22c-5.4,0-10.49,2.1-14.31,5.93-3.82,3.82-5.93,8.9-5.93,14.31s2.1,10.49,5.93,14.31c3.82,3.82,8.9,5.93,14.31,5.93s10.49-2.1,14.31-5.93c3.82-3.82,5.93-8.9,5.93-14.31s-2.1-10.49-5.93-14.31c-3.82-3.82-8.9-5.93-14.31-5.93Z"/>
            </g>
          </g>
        </g>
      </g>
    </g>
  </g>
</svg>