<?xml version="1.0" encoding="UTF-8"?>
<svg xmlns="http://www.w3.org/2000/svg" xmlns:xlink="http://www.w3.org/1999/xlink" viewBox="0 0 1351.54 751.34">
  <defs>
    <style>
    a:hover text { text-decoration: underline;}
    a:hover { cursor: pointer;}
      .cls-1 {
        stroke-dasharray: 0 0 0 3.73;
      }

      .cls-1, .cls-2, .cls-3, .cls-4, .cls-5, .cls-6, .cls-7, .cls-8, .cls-9 {
        fill: none;
        stroke: #a9a9a9;
        stroke-linecap: round;
        stroke-linejoin: round;
      }

      .cls-1, .cls-5, .cls-6 {
        stroke-width: 1.38px;
      }

      .cls-10, .cls-11, .cls-12, .cls-13 {
        mix-blend-mode: multiply;
      }

      .cls-10, .cls-11, .cls-12, .cls-14, .cls-15, .cls-16, .cls-17, .cls-18, .cls-19, .cls-20, .cls-21, .cls-22 {
        stroke-width: 0px;
      }

      .cls-10, .cls-14 {
        fill: #f7f7f7;
      }

      .cls-11, .cls-22 {
        fill: #e4e4e5;
      }

      .cls-2 {
        stroke-dasharray: 0 0 0 3.7;
      }

      .cls-2, .cls-4, .cls-8 {
        stroke-width: 1.35px;
      }

      .cls-23, .cls-24, .cls-25, .cls-26 {
        font-family: OpenSans-Bold, 'Open Sans';
        font-weight: 700;
      }

      .cls-23, .cls-27 {
        font-size: 9.29px;
      }

      .cls-23, .cls-27, .cls-21 {
        fill: #fff;
      }

      .cls-3, .cls-7, .cls-9 {
        stroke-width: 1.39px;
      }

      .cls-4 {
        stroke-dasharray: 0 0 0 3.73;
      }

      .cls-24 {
        letter-spacing: -.03em;
      }

      .cls-24, .cls-25 {
        font-size: 9.21px;
      }

      .cls-12 {
        fill: url(#linear-gradient);
      }

      .cls-6 {
        stroke-dasharray: 0 0 0 3.72;
      }

      .cls-7 {
        stroke-dasharray: 0 0 0 3.59;
      }

      .cls-25 {
        letter-spacing: -.02em;
      }

      .cls-27, .cls-28 {
        font-family: OpenSans-Semibold, 'Open Sans';
        font-weight: 600;
      }

      .cls-29 {
        isolation: isolate;
      }

      .cls-9 {
        stroke-dasharray: 0 0 0 3.58;
      }

      .cls-30 {
        font-size: 25.12px;
        letter-spacing: -.03em;
      }

      .cls-30, .cls-18 {
        fill: #0f0f0f;
      }

      .cls-13 {
        opacity: .69;
      }

      .cls-15 {
        fill: #f98200;
      }

      .cls-16 {
        fill: #1b2087;
      }

      .cls-17 {
        fill: #1c208b;
      }

      .cls-19 {
        fill: #cad3e1;
      }

      .cls-20 {
        fill: #7c7c7c;
      }
    </style>
    <linearGradient id="linear-gradient" x1="675.77" y1="645.83" x2="675.77" y2="676.76" gradientUnits="userSpaceOnUse">
      <stop offset="0" stop-color="#fff"/>
      <stop offset=".28" stop-color="#fbfbfc"/>
      <stop offset=".55" stop-color="#eff1f6"/>
      <stop offset=".82" stop-color="#dbe1ea"/>
      <stop offset="1" stop-color="#cad3e1"/>
    </linearGradient>
  </defs>
  <g class="cls-29">
    <g id="Layer_2" data-name="Layer 2">
      <g id="Layer_1-2" data-name="Layer 1">
        <g id="Laptop">
          <g>
            <path class="cls-21" d="m9.19,677.13c-5.08,0-9.19,4.05-9.19,9.05v31.06c0,3.53,2.1,6.76,5.38,8.22,37.92,17.06,79.11,25.88,120.79,25.88h1099.21c41.68,0,82.88-8.82,120.8-25.88,3.27-1.46,5.37-4.69,5.37-8.22v-31.06c0-5.01-4.11-9.05-9.19-9.05H9.19Z"/>
            <path class="cls-21" d="m1187.32,0H164.22c-13.54,0-24.51,10.81-24.51,24.15v652.97h1072.13V24.15c0-13.34-10.97-24.15-24.51-24.15Z"/>
          </g>
          <rect class="cls-16" x="179.39" y="48.94" width="992.76" height="579.25"/>
          <path class="cls-19" d="m126.17,751.34h1099.21c38.28,0,76.13-7.46,111.44-21.88H14.72c35.3,14.42,73.17,21.88,111.45,21.88Z"/>
          <path class="cls-19" d="m842.42,677.13v13.46c0,5-4.11,9.05-9.19,9.05h-314.95c-5.07,0-9.19-4.05-9.19-9.05v-13.46h333.33Z"/>
          <path class="cls-21" d="m687.07,23.64c0,6.14-5.07,11.13-11.31,11.13s-11.3-4.98-11.3-11.13,5.05-11.15,11.3-11.15,11.31,4.98,11.31,11.15Z"/>
          <rect class="cls-12" x="139.71" y="628.19" width="1072.13" height="48.94"/>
        </g>
        <g class="cls-13">
          <g id="Laptop-2" data-name="Laptop">
            <g>
              <path class="cls-22" d="m9.19,677.13c-5.08,0-9.19,4.05-9.19,9.05v31.06c0,3.53,2.1,6.76,5.38,8.22,37.92,17.06,79.11,25.88,120.79,25.88h1099.21c41.68,0,82.88-8.82,120.8-25.88,3.27-1.46,5.37-4.69,5.37-8.22v-31.06c0-5.01-4.11-9.05-9.19-9.05H9.19Z"/>
              <path class="cls-22" d="m1187.32,0H164.22c-13.54,0-24.51,10.81-24.51,24.15v652.97h1072.13V24.15c0-13.34-10.97-24.15-24.51-24.15Z"/>
            </g>
            <rect class="cls-22" x="179.39" y="48.94" width="992.76" height="579.25"/>
            <path class="cls-22" d="m126.17,751.34h1099.21c38.28,0,76.13-7.46,111.44-21.88H14.72c35.3,14.42,73.17,21.88,111.45,21.88Z"/>
            <path class="cls-22" d="m842.42,677.13v13.46c0,5-4.11,9.05-9.19,9.05h-314.95c-5.07,0-9.19-4.05-9.19-9.05v-13.46h333.33Z"/>
            <path class="cls-22" d="m687.07,23.64c0,6.14-5.07,11.13-11.31,11.13s-11.3-4.98-11.3-11.13,5.05-11.15,11.3-11.15,11.31,4.98,11.31,11.15Z"/>
            <rect class="cls-11" x="139.71" y="628.19" width="1072.13" height="48.94"/>
          </g>
        </g>
        <polygon class="cls-14" points="1176.77 628.25 178.23 628.25 178.23 35.87 1173.14 35.83 1176.77 628.25"/>
        <g>
          <rect class="cls-10" x="298.72" y="59.4" width="760.39" height="511.97"/>
          <rect class="cls-10" x="494.87" y="145.87" width="564.24" height="425.5"/>
          <rect class="cls-10" x="852.46" y="185.73" width="206.65" height="385.64"/>
          <a xlink:href="https://jakarta.ee/specifications/platform/11/">
            <text class="cls-30" transform="translate(544.68 110.94)"><tspan class="cls-26" x="0" y="0">Jakarta EE 11 </tspan><tspan class="cls-28" x="159.34" y="0">Platform</tspan></text>
          </a>
          <a xlink:href="https://jakarta.ee/specifications/coreprofile/11/">
            <g>
              <path class="cls-18" d="m888.83,224.27c-.51,0-.95-.05-1.33-.16v-1.87c.39.1.74.15,1.06.15.49,0,.85-.15,1.06-.46s.32-.79.32-1.44v-9.94h2.25v9.93c0,1.24-.28,2.18-.85,2.83-.57.65-1.4.97-2.51.97Z"/>
              <path class="cls-18" d="m899.47,221.15l-.43-1.1h-.06c-.37.47-.76.79-1.15.98-.39.18-.91.27-1.54.27-.78,0-1.39-.22-1.84-.67-.45-.45-.67-1.08-.67-1.9s.3-1.5.9-1.91c.6-.41,1.51-.64,2.73-.68l1.41-.04v-.36c0-.82-.42-1.23-1.26-1.23-.65,0-1.41.2-2.29.59l-.73-1.5c.93-.49,1.97-.73,3.11-.73s1.92.24,2.5.71c.58.47.87,1.2.87,2.16v5.41h-1.55Zm-.65-3.76l-.86.03c-.64.02-1.12.14-1.44.35-.31.21-.47.54-.47.97,0,.62.36.94,1.07.94.51,0,.92-.15,1.23-.44.31-.3.46-.69.46-1.18v-.67Z"/>
              <path class="cls-18" d="m905.05,216.74l.97-1.23,2.27-2.47h2.5l-3.22,3.52,3.42,4.59h-2.56l-2.34-3.29-.95.76v2.53h-2.21v-11.29h2.21v5.04l-.12,1.84h.03Z"/>
              <path class="cls-18" d="m916.92,221.15l-.43-1.1h-.06c-.37.47-.76.79-1.15.98-.39.18-.91.27-1.54.27-.78,0-1.39-.22-1.84-.67-.45-.45-.67-1.08-.67-1.9s.3-1.5.9-1.91c.6-.41,1.51-.64,2.73-.68l1.41-.04v-.36c0-.82-.42-1.23-1.26-1.23-.65,0-1.41.2-2.29.59l-.73-1.5c.93-.49,1.97-.73,3.11-.73s1.92.24,2.5.71c.58.47.87,1.2.87,2.16v5.41h-1.55Zm-.65-3.76l-.86.03c-.64.02-1.12.14-1.44.35-.31.21-.47.54-.47.97,0,.62.36.94,1.07.94.51,0,.92-.15,1.23-.44.31-.3.46-.69.46-1.18v-.67Z"/>
              <path class="cls-18" d="m924.9,212.88c.3,0,.55.02.75.07l-.17,2.08c-.18-.05-.4-.07-.65-.07-.71,0-1.26.18-1.65.54s-.59.87-.59,1.52v4.13h-2.21v-8.12h1.68l.33,1.36h.11c.25-.45.59-.82,1.02-1.1s.89-.42,1.4-.42Z"/>
              <path class="cls-18" d="m930.17,219.53c.39,0,.85-.08,1.39-.25v1.65c-.55.25-1.23.37-2.03.37-.89,0-1.53-.22-1.93-.67-.4-.45-.61-1.12-.61-2.01v-3.91h-1.06v-.94l1.22-.74.64-1.71h1.42v1.73h2.27v1.66h-2.27v3.91c0,.31.09.55.27.7.18.15.41.23.7.23Z"/>
              <path class="cls-18" d="m937.99,221.15l-.43-1.1h-.06c-.37.47-.76.79-1.15.98-.39.18-.91.27-1.54.27-.78,0-1.39-.22-1.84-.67-.45-.45-.67-1.08-.67-1.9s.3-1.5.9-1.91c.6-.41,1.51-.64,2.73-.68l1.41-.04v-.36c0-.82-.42-1.23-1.26-1.23-.65,0-1.41.2-2.29.59l-.73-1.5c.93-.49,1.97-.73,3.11-.73s1.92.24,2.5.71c.58.47.87,1.2.87,2.16v5.41h-1.55Zm-.65-3.76l-.86.03c-.64.02-1.12.14-1.44.35-.31.21-.47.54-.47.97,0,.62.36.94,1.07.94.51,0,.92-.15,1.23-.44.31-.3.46-.69.46-1.18v-.67Z"/>
              <path class="cls-18" d="m951.22,221.15h-6.11v-10.61h6.11v1.84h-3.86v2.33h3.59v1.84h-3.59v2.74h3.86v1.86Z"/>
              <path class="cls-18" d="m959.17,221.15h-6.11v-10.61h6.11v1.84h-3.86v2.33h3.59v1.84h-3.59v2.74h3.86v1.86Z"/>
              <path class="cls-18" d="m969.31,221.15h-2.24v-6.14l.02-1.01.04-1.1c-.37.37-.63.62-.78.73l-1.22.98-1.08-1.35,3.42-2.72h1.84v10.61Z"/>
              <path class="cls-18" d="m977.42,221.15h-2.24v-6.14l.02-1.01.04-1.1c-.37.37-.63.62-.78.73l-1.22.98-1.08-1.35,3.42-2.72h1.84v10.61Z"/>
              <path class="cls-18" d="m894.52,229.71c-1,0-1.78.35-2.35,1.06-.57.71-.86,1.68-.86,2.93s.27,2.29.82,2.95c.55.67,1.34,1,2.38,1,.45,0,.89-.04,1.31-.13.42-.09.86-.2,1.31-.34v1.49c-.83.31-1.78.47-2.83.47-1.55,0-2.75-.47-3.58-1.41-.83-.94-1.25-2.29-1.25-4.04,0-1.1.2-2.07.61-2.9.4-.83.99-1.46,1.75-1.9.76-.44,1.66-.66,2.69-.66,1.08,0,2.09.23,3,.68l-.62,1.44c-.36-.17-.74-.32-1.14-.45-.4-.13-.82-.19-1.26-.19Z"/>
              <path class="cls-18" d="m905.99,234.96c0,1.31-.34,2.33-1.01,3.07-.67.74-1.61,1.1-2.81,1.1-.75,0-1.41-.17-1.99-.51s-1.02-.83-1.33-1.46c-.31-.63-.46-1.37-.46-2.21,0-1.3.33-2.32,1-3.05.67-.73,1.61-1.1,2.82-1.1s2.08.37,2.76,1.12c.68.75,1.02,1.76,1.02,3.02Zm-5.84,0c0,1.85.68,2.78,2.05,2.78s2.03-.93,2.03-2.78-.68-2.75-2.05-2.75c-.72,0-1.24.24-1.56.71-.32.47-.48,1.15-.48,2.04Z"/>
              <path class="cls-18" d="m911.65,230.82c.34,0,.63.02.85.07l-.17,1.59c-.24-.06-.49-.09-.75-.09-.68,0-1.23.22-1.66.67-.42.45-.63,1.02-.63,1.73v4.2h-1.71v-8.03h1.34l.22,1.42h.09c.27-.48.61-.86,1.04-1.14s.89-.42,1.38-.42Z"/>
              <path class="cls-18" d="m917.12,239.13c-1.25,0-2.22-.36-2.93-1.09-.7-.73-1.06-1.73-1.06-3.01s.33-2.34.98-3.09,1.55-1.12,2.69-1.12c1.06,0,1.9.32,2.51.97.61.64.92,1.53.92,2.66v.92h-5.35c.02.78.23,1.38.63,1.8.4.42.96.63,1.68.63.47,0,.92-.04,1.32-.13.41-.09.85-.24,1.32-.45v1.39c-.42.2-.84.34-1.26.42-.43.08-.91.12-1.46.12Zm-.31-7.03c-.54,0-.98.17-1.3.52-.33.34-.52.84-.58,1.5h3.64c0-.66-.17-1.17-.48-1.51-.31-.34-.74-.51-1.28-.51Z"/>
              <path class="cls-18" d="m932.51,231.59c0,1.11-.36,1.96-1.09,2.55-.73.59-1.76.89-3.1.89h-1.1v3.97h-1.73v-10.61h3.06c1.33,0,2.32.27,2.98.81.66.54.99,1.34.99,2.4Zm-5.29,1.97h.92c.89,0,1.54-.15,1.96-.46.42-.31.62-.79.62-1.45,0-.61-.19-1.06-.56-1.36-.37-.3-.95-.45-1.74-.45h-1.21v3.73Z"/>
              <path class="cls-18" d="m938.15,230.82c.34,0,.63.02.85.07l-.17,1.59c-.24-.06-.49-.09-.75-.09-.68,0-1.23.22-1.66.67-.42.45-.63,1.02-.63,1.73v4.2h-1.71v-8.03h1.34l.22,1.42h.09c.27-.48.61-.86,1.04-1.14s.89-.42,1.38-.42Z"/>
              <path class="cls-18" d="m947.23,234.96c0,1.31-.34,2.33-1.01,3.07-.67.74-1.61,1.1-2.81,1.1-.75,0-1.41-.17-1.99-.51s-1.02-.83-1.33-1.46c-.31-.63-.46-1.37-.46-2.21,0-1.3.33-2.32,1-3.05.67-.73,1.61-1.1,2.82-1.1s2.08.37,2.76,1.12c.68.75,1.02,1.76,1.02,3.02Zm-5.84,0c0,1.85.68,2.78,2.05,2.78s2.03-.93,2.03-2.78-.68-2.75-2.05-2.75c-.72,0-1.24.24-1.56.71-.32.47-.48,1.15-.48,2.04Z"/>
              <path class="cls-18" d="m952.85,232.25h-1.96v6.74h-1.71v-6.74h-1.32v-.8l1.32-.52v-.52c0-.95.22-1.65.67-2.11.45-.46,1.13-.69,2.04-.69.6,0,1.19.1,1.77.3l-.45,1.29c-.42-.14-.82-.2-1.21-.2s-.67.12-.85.36c-.18.24-.27.6-.27,1.08v.52h1.96v1.29Zm1.26-3.42c0-.3.08-.54.25-.7.17-.16.41-.25.71-.25s.53.08.7.25c.17.16.25.4.25.7s-.08.52-.25.69-.4.25-.7.25-.55-.08-.71-.25-.25-.4-.25-.69Zm1.81,10.15h-1.71v-8.03h1.71v8.03Z"/>
              <path class="cls-18" d="m959.7,238.99h-1.71v-11.29h1.71v11.29Z"/>
              <path class="cls-18" d="m965.27,239.13c-1.25,0-2.22-.36-2.93-1.09-.7-.73-1.06-1.73-1.06-3.01s.33-2.34.98-3.09,1.55-1.12,2.69-1.12c1.06,0,1.9.32,2.51.97.61.64.92,1.53.92,2.66v.92h-5.35c.02.78.23,1.38.63,1.8.4.42.96.63,1.68.63.47,0,.92-.04,1.32-.13.41-.09.85-.24,1.32-.45v1.39c-.42.2-.84.34-1.26.42-.43.08-.91.12-1.46.12Zm-.31-7.03c-.54,0-.98.17-1.3.52-.33.34-.52.84-.58,1.5h3.64c0-.66-.17-1.17-.48-1.51-.31-.34-.74-.51-1.28-.51Z"/>
            </g>
          </a>
          <a xlink:href="https://jakarta.ee/specifications/webprofile/11/">
            <g>
              <path class="cls-18" d="m529.3,182.11c-.51,0-.95-.05-1.33-.16v-1.87c.39.1.74.15,1.06.15.49,0,.85-.15,1.06-.46s.32-.79.32-1.44v-9.94h2.25v9.93c0,1.24-.28,2.18-.85,2.83-.57.65-1.4.97-2.51.97Z"/>
              <path class="cls-18" d="m539.94,178.99l-.43-1.1h-.06c-.37.47-.76.79-1.15.98-.39.18-.91.27-1.54.27-.78,0-1.39-.22-1.84-.67-.45-.45-.67-1.08-.67-1.9s.3-1.5.9-1.91c.6-.41,1.51-.64,2.73-.68l1.41-.04v-.36c0-.82-.42-1.23-1.26-1.23-.65,0-1.41.2-2.29.59l-.73-1.5c.93-.49,1.97-.73,3.11-.73s1.92.24,2.5.71c.58.47.87,1.2.87,2.16v5.41h-1.55Zm-.65-3.76l-.86.03c-.64.02-1.12.14-1.44.35-.31.21-.47.54-.47.97,0,.62.36.94,1.07.94.51,0,.92-.15,1.23-.44.31-.3.46-.69.46-1.18v-.67Z"/>
              <path class="cls-18" d="m545.52,174.58l.97-1.23,2.27-2.47h2.5l-3.22,3.52,3.42,4.59h-2.56l-2.34-3.29-.95.76v2.53h-2.21v-11.29h2.21v5.04l-.12,1.84h.03Z"/>
              <path class="cls-18" d="m557.39,178.99l-.43-1.1h-.06c-.37.47-.76.79-1.15.98-.39.18-.91.27-1.54.27-.78,0-1.39-.22-1.84-.67-.45-.45-.67-1.08-.67-1.9s.3-1.5.9-1.91c.6-.41,1.51-.64,2.73-.68l1.41-.04v-.36c0-.82-.42-1.23-1.26-1.23-.65,0-1.41.2-2.29.59l-.73-1.5c.93-.49,1.97-.73,3.11-.73s1.92.24,2.5.71c.58.47.87,1.2.87,2.16v5.41h-1.55Zm-.65-3.76l-.86.03c-.64.02-1.12.14-1.44.35-.31.21-.47.54-.47.97,0,.62.36.94,1.07.94.51,0,.92-.15,1.23-.44.31-.3.46-.69.46-1.18v-.67Z"/>
              <path class="cls-18" d="m565.38,170.72c.3,0,.55.02.75.07l-.17,2.08c-.18-.05-.4-.07-.65-.07-.71,0-1.26.18-1.65.54s-.59.87-.59,1.52v4.13h-2.21v-8.12h1.68l.33,1.36h.11c.25-.45.59-.82,1.02-1.1s.89-.42,1.4-.42Z"/>
              <path class="cls-18" d="m570.64,177.37c.39,0,.85-.08,1.39-.25v1.65c-.55.25-1.23.37-2.03.37-.89,0-1.53-.22-1.93-.67-.4-.45-.61-1.12-.61-2.01v-3.91h-1.06v-.94l1.22-.74.64-1.71h1.42v1.73h2.27v1.66h-2.27v3.91c0,.31.09.55.27.7.18.15.41.23.7.23Z"/>
              <path class="cls-18" d="m578.46,178.99l-.43-1.1h-.06c-.37.47-.76.79-1.15.98-.39.18-.91.27-1.54.27-.78,0-1.39-.22-1.84-.67-.45-.45-.67-1.08-.67-1.9s.3-1.5.9-1.91c.6-.41,1.51-.64,2.73-.68l1.41-.04v-.36c0-.82-.42-1.23-1.26-1.23-.65,0-1.41.2-2.29.59l-.73-1.5c.93-.49,1.97-.73,3.11-.73s1.92.24,2.5.71c.58.47.87,1.2.87,2.16v5.41h-1.55Zm-.65-3.76l-.86.03c-.64.02-1.12.14-1.44.35-.31.21-.47.54-.47.97,0,.62.36.94,1.07.94.51,0,.92-.15,1.23-.44.31-.3.46-.69.46-1.18v-.67Z"/>
              <path class="cls-18" d="m591.69,178.99h-6.11v-10.61h6.11v1.84h-3.86v2.33h3.59v1.84h-3.59v2.74h3.86v1.86Z"/>
              <path class="cls-18" d="m599.64,178.99h-6.11v-10.61h6.11v1.84h-3.86v2.33h3.59v1.84h-3.59v2.74h3.86v1.86Z"/>
              <path class="cls-18" d="m609.78,178.99h-2.24v-6.14l.02-1.01.04-1.1c-.37.37-.63.62-.78.73l-1.22.98-1.08-1.35,3.42-2.72h1.84v10.61Z"/>
              <path class="cls-18" d="m617.89,178.99h-2.24v-6.14l.02-1.01.04-1.1c-.37.37-.63.62-.78.73l-1.22.98-1.08-1.35,3.42-2.72h1.84v10.61Z"/>
              <path class="cls-18" d="m540.27,196.83h-1.89l-1.8-6.33c-.08-.28-.17-.67-.29-1.19s-.19-.88-.21-1.08c-.05.31-.13.71-.24,1.2s-.2.86-.27,1.1l-1.76,6.3h-1.89l-1.37-5.31-1.39-5.3h1.77l1.52,6.18c.24.99.41,1.87.51,2.63.05-.41.13-.87.24-1.38.11-.51.2-.92.29-1.23l1.73-6.2h1.72l1.77,6.23c.17.58.35,1.44.54,2.58.07-.69.25-1.57.52-2.64l1.51-6.17h1.76l-2.77,10.61Z"/>
              <path class="cls-18" d="m547.49,196.97c-1.25,0-2.22-.36-2.93-1.09-.7-.73-1.06-1.73-1.06-3.01s.33-2.34.98-3.09,1.55-1.12,2.69-1.12c1.06,0,1.9.32,2.51.97.61.64.92,1.53.92,2.66v.92h-5.35c.02.78.23,1.38.63,1.8.4.42.96.63,1.68.63.47,0,.92-.04,1.32-.13.41-.09.85-.24,1.32-.45v1.39c-.42.2-.84.34-1.26.42-.43.08-.91.12-1.46.12Zm-.31-7.03c-.54,0-.98.17-1.3.52-.33.34-.52.84-.58,1.5h3.64c0-.66-.17-1.17-.48-1.51-.31-.34-.74-.51-1.28-.51Z"/>
              <path class="cls-18" d="m556.28,188.66c1,0,1.78.36,2.34,1.09.56.73.84,1.74.84,3.06s-.28,2.34-.85,3.07c-.57.73-1.35,1.1-2.36,1.1s-1.81-.37-2.37-1.1h-.12l-.31.95h-1.28v-11.29h1.71v2.69c0,.2,0,.49-.03.89-.02.39-.03.64-.04.75h.07c.54-.8,1.34-1.2,2.4-1.2Zm-.44,1.39c-.69,0-1.18.2-1.48.61-.3.4-.46,1.08-.47,2.03v.12c0,.98.15,1.69.46,2.12s.82.66,1.52.66c.6,0,1.06-.24,1.38-.72.31-.48.47-1.17.47-2.08,0-1.82-.62-2.74-1.87-2.74Z"/>
              <path class="cls-18" d="m571.76,189.42c0,1.11-.36,1.96-1.09,2.55-.73.59-1.76.89-3.1.89h-1.1v3.97h-1.73v-10.61h3.06c1.33,0,2.32.27,2.98.81.66.54.99,1.34.99,2.4Zm-5.29,1.97h.92c.89,0,1.54-.15,1.96-.46.42-.31.62-.79.62-1.45,0-.61-.19-1.06-.56-1.36-.37-.3-.95-.45-1.74-.45h-1.21v3.73Z"/>
              <path class="cls-18" d="m577.4,188.66c.34,0,.63.02.85.07l-.17,1.59c-.24-.06-.49-.09-.75-.09-.68,0-1.23.22-1.66.67-.42.45-.63,1.02-.63,1.73v4.2h-1.71v-8.03h1.34l.22,1.42h.09c.27-.48.61-.86,1.04-1.14s.89-.42,1.38-.42Z"/>
              <path class="cls-18" d="m586.49,192.8c0,1.31-.34,2.33-1.01,3.07-.67.74-1.61,1.1-2.81,1.1-.75,0-1.41-.17-1.99-.51s-1.02-.83-1.33-1.46c-.31-.63-.46-1.37-.46-2.21,0-1.3.33-2.32,1-3.05.67-.73,1.61-1.1,2.82-1.1s2.08.37,2.76,1.12c.68.75,1.02,1.76,1.02,3.02Zm-5.84,0c0,1.85.68,2.78,2.05,2.78s2.03-.93,2.03-2.78-.68-2.75-2.05-2.75c-.72,0-1.24.24-1.56.71-.32.47-.48,1.15-.48,2.04Z"/>
              <path class="cls-18" d="m592.1,190.09h-1.96v6.74h-1.71v-6.74h-1.32v-.8l1.32-.52v-.52c0-.95.22-1.65.67-2.11.45-.46,1.13-.69,2.04-.69.6,0,1.19.1,1.77.3l-.45,1.29c-.42-.14-.82-.2-1.21-.2s-.67.12-.85.36c-.18.24-.27.6-.27,1.08v.52h1.96v1.29Zm1.26-3.42c0-.3.08-.54.25-.7.17-.16.41-.25.71-.25s.53.08.7.25c.17.16.25.4.25.7s-.08.52-.25.69-.4.25-.7.25-.55-.08-.71-.25-.25-.4-.25-.69Zm1.81,10.15h-1.71v-8.03h1.71v8.03Z"/>
              <path class="cls-18" d="m598.96,196.83h-1.71v-11.29h1.71v11.29Z"/>
              <path class="cls-18" d="m604.53,196.97c-1.25,0-2.22-.36-2.93-1.09-.7-.73-1.06-1.73-1.06-3.01s.33-2.34.98-3.09,1.55-1.12,2.69-1.12c1.06,0,1.9.32,2.51.97.61.64.92,1.53.92,2.66v.92h-5.35c.02.78.23,1.38.63,1.8.4.42.96.63,1.68.63.47,0,.92-.04,1.32-.13.41-.09.85-.24,1.32-.45v1.39c-.42.2-.84.34-1.26.42-.43.08-.91.12-1.46.12Zm-.31-7.03c-.54,0-.98.17-1.3.52-.33.34-.52.84-.58,1.5h3.64c0-.66-.17-1.17-.48-1.51-.31-.34-.74-.51-1.28-.51Z"/>
            </g>
          </a>
          <rect class="cls-17" x="324.82" y="260.39" width="142.15" height="33.45" rx="10.01" ry="10.01"/>
          <a xlink:href="https://jakarta.ee/specifications/authorization/3.0/">
            <text class="cls-27" transform="translate(357.36 280.64)"><tspan x="0" y="0">Authorization 3.0</tspan></text>
          </a>
          <rect class="cls-20" x="324.82" y="302.2" width="142.15" height="33.45" rx="10.01" ry="10.01"/>
          <a xlink:href="https://jakarta.ee/specifications/activation/2.1/">
            <text class="cls-27" transform="translate(365.53 322.45)"><tspan x="0" y="0">Activation 2.1</tspan></text>
          </a>
          <rect class="cls-20" x="324.82" y="344" width="142.15" height="33.45" rx="10.01" ry="10.01"/>
          <a xlink:href="https://jakarta.ee/specifications/batch/2.1/">
            <text class="cls-27" transform="translate(375.28 364.26)"><tspan x="0" y="0">Batch 2.1</tspan></text>
          </a>
          <rect class="cls-20" x="324.82" y="385.81" width="142.15" height="33.45" rx="10.01" ry="10.01"/>
          <a xlink:href="https://jakarta.ee/specifications/connectors/2.1/">
            <text class="cls-27" transform="translate(362.53 406.07)"><tspan x="0" y="0">Connectors 2.1</tspan></text>
          </a>
          <rect class="cls-20" x="324.82" y="427.62" width="142.15" height="33.45" rx="10.01" ry="10.01"/>
          <a xlink:href="https://jakarta.ee/specifications/mail/2.1/">
            <text class="cls-27" transform="translate(378.54 447.88)"><tspan x="0" y="0">Mail 2.1</tspan></text>
          </a>
          <rect class="cls-20" x="324.82" y="469.43" width="142.15" height="33.45" rx="10.01" ry="10.01"/>
          <a xlink:href="https://jakarta.ee/specifications/messaging/3.1/">
            <text class="cls-27" transform="translate(364.52 489.68)"><tspan x="0" y="0">Messaging 3.1</tspan></text>
          </a>
          <rect class="cls-20" x="324.82" y="511.24" width="142.15" height="33.45" rx="10.01" ry="10.01"/>
          <a xlink:href="https://jakarta.ee/specifications/enterprise-beans/4.0/">
            <text class="cls-27" transform="translate(349.55 531.49)"><tspan x="0" y="0">Enterprise Beans 4.0</tspan></text>
          </a>
          <rect class="cls-17" x="524.5" y="217.96" width="142.15" height="33.45" rx="10.01" ry="10.01"/>
          <a xlink:href="https://jakarta.ee/specifications/authentication/3.1/">
            <text class="cls-27" transform="translate(554.23 238.22)"><tspan x="0" y="0">Authentication 3.1</tspan></text>
          </a>
          <rect class="cls-17" x="524.5" y="259.77" width="142.15" height="33.45" rx="10.01" ry="10.01"/>
          <a xlink:href="https://jakarta.ee/specifications/concurrency/3.1/">
            <text class="cls-27" transform="translate(559.45 280.03)"><tspan x="0" y="0">Concurrency 3.1</tspan></text>
          </a>
          <rect class="cls-17" x="524.5" y="301.58" width="142.15" height="33.45" rx="10.01" ry="10.01"/>
          <a xlink:href="https://jakarta.ee/specifications/cdi/4.1/">
            <text class="cls-27" transform="translate(580.01 321.84)"><tspan x="0" y="0">CDI 4.1</tspan></text>
          </a>
          <a xlink:href="https://jakarta.ee/specifications/expression-language/6.0/">
            <rect class="cls-17" x="524.5" y="343.39" width="142.15" height="33.45" rx="10.01" ry="10.01"/>
          </a>
          <text class="cls-27" transform="translate(540.67 363.64)"><tspan x="0" y="0">Expression Language 6.0</tspan></text>
          <rect class="cls-17" x="524.5" y="385.2" width="142.15" height="33.45" rx="10.01" ry="10.01"/>
          <a xlink:href="https://jakarta.ee/specifications/faces/4.1/">
            <text class="cls-27" transform="translate(575.37 405.45)"><tspan x="0" y="0">Faces 4.1</tspan></text>
          </a>
          <rect class="cls-17" x="524.5" y="427.01" width="142.15" height="33.45" rx="10.01" ry="10.01"/>
          <a xlink:href="https://jakarta.ee/specifications/security/4.0/">
            <text class="cls-27" transform="translate(569.58 447.26)"><tspan x="0" y="0">Security 4.0</tspan></text>
          </a>
          <rect class="cls-17" x="524.5" y="468.82" width="142.15" height="33.45" rx="10.01" ry="10.01"/>
          <a xlink:href="https://jakarta.ee/specifications/servlet/6.1/">
            <text class="cls-27" transform="translate(572.15 489.07)"><tspan x="0" y="0">Servlet 6.1</tspan></text>
          </a>
          <rect class="cls-20" x="524.5" y="510.63" width="142.15" height="33.45" rx="10.01" ry="10.01"/>
          <a xlink:href="https://jakarta.ee/specifications/tags/3.0/">
            <text class="cls-27" transform="translate(540.94 530.88)"><tspan x="0" y="0">Standard Tag Library 3.0</tspan></text>
          </a>
          <rect class="cls-15" x="679.55" y="217.96" width="142.15" height="33.45" rx="10.01" ry="10.01"/>
          <a xlink:href="https://jakarta.ee/specifications/data/1.0/">
            <text class="cls-23" transform="translate(731.6 238.22)"><tspan x="0" y="0">Data 1.0</tspan></text>
          </a>
          <rect class="cls-17" x="679.55" y="259.77" width="142.15" height="33.45" rx="10.01" ry="10.01"/>
          <a xlink:href="https://jakarta.ee/specifications/persistence/3.2/">
            <text class="cls-27" transform="translate(717.11 280.03)"><tspan x="0" y="0">Persistence 3.2</tspan></text>
          </a>
          <rect class="cls-17" x="679.55" y="301.58" width="142.15" height="33.45" rx="10.01" ry="10.01"/>
          <a xlink:href="https://jakarta.ee/specifications/pages/4.0/">
            <text class="cls-27" transform="translate(729.75 321.84)"><tspan x="0" y="0">Pages 4.0</tspan></text>
          </a>
          <rect class="cls-17" x="679.55" y="343.39" width="142.15" height="33.45" rx="10.01" ry="10.01"/>
          <a xlink:href="https://jakarta.ee/specifications/websocket/2.2/">
            <text class="cls-27" transform="translate(718.08 363.64)"><tspan x="0" y="0">WebSocket 2.2</tspan></text>
          </a>
          <rect class="cls-17" x="679.55" y="385.2" width="142.15" height="33.45" rx="10.01" ry="10.01"/>
          <a xlink:href="https://jakarta.ee/specifications/bean-validation/3.1/">
            <text class="cls-27" transform="translate(720.15 405.45)"><tspan x="0" y="0">Validation 3.1</tspan></text>
          </a>
          <rect class="cls-20" x="679.55" y="427.01" width="142.15" height="33.45" rx="10.01" ry="10.01"/>
          <a xlink:href="https://jakarta.ee/specifications/debugging/2.0/">
            <text class="cls-27" transform="translate(699.63 447.26)"><tspan x="0" y="0">Debugging Support 2.0</tspan></text>
          </a>
          <rect class="cls-20" x="679.55" y="468.82" width="142.15" height="33.45" rx="10.01" ry="10.01"/>
          <a xlink:href="https://jakarta.ee/specifications/enterprise-beans/4.0/">
            <text class="cls-27" transform="translate(695.16 489.07)"><tspan x="0" y="0">Enterprise Beans Lite 4.0</tspan></text>
          </a>
          <rect class="cls-20" x="679.55" y="510.63" width="142.15" height="33.45" rx="10.01" ry="10.01"/>
          <a xlink:href="https://jakarta.ee/specifications/transactions/2.0/">
            <text class="cls-27" transform="translate(714.02 530.88)"><tspan x="0" y="0">Transactions 2.0</tspan></text>
          </a>
          <rect class="cls-17" x="884.4" y="259.77" width="142.15" height="33.45" rx="10.01" ry="10.01"/>
          <a xlink:href="https://jakarta.ee/specifications/restful-ws/4.0/">
            <text class="cls-27" transform="translate(900.44 280.03)"><tspan x="0" y="0">RESTful Web Services 4.0</tspan></text>
          </a>
          <rect class="cls-20" x="884.4" y="301.58" width="142.15" height="33.45" rx="10.01" ry="10.01"/>
          <a xlink:href="https://jakarta.ee/specifications/jsonp/2.1/">
            <text class="cls-27" transform="translate(911.2 321.84)"><tspan x="0" y="0">JSON Processing 2.1</tspan></text>
          </a>
          <rect class="cls-20" x="884.4" y="343.39" width="142.15" height="33.45" rx="10.01" ry="10.01"/>
          <a xlink:href="https://jakarta.ee/specifications/jsonb/3.0/">
            <text class="cls-27" transform="translate(918.27 363.64)"><tspan x="0" y="0">JSON Binding 3.0</tspan></text>
          </a>
          <rect class="cls-17" x="884.4" y="385.2" width="142.15" height="33.45" rx="10.01" ry="10.01"/>
          <a xlink:href="https://jakarta.ee/specifications/annotations/3.0/">
            <text class="cls-27" transform="translate(920.17 405.45)"><tspan x="0" y="0">Annotations 3.0</tspan></text>
          </a>
          <rect class="cls-17" x="884.4" y="427.01" width="142.15" height="33.45" rx="10.01" ry="10.01"/>
          <a xlink:href="https://jakarta.ee/specifications/interceptors/2.2/">
            <text class="cls-27" transform="translate(919.89 447.26)"><tspan x="0" y="0">Interceptors 2.2</tspan></text>
          </a>
          <rect class="cls-20" x="884.4" y="468.82" width="142.15" height="33.45" rx="10.01" ry="10.01"/>
          <a xlink:href="https://jakarta.ee/specifications/dependency-injection/2.0/">
            <text class="cls-27" transform="translate(898.9 489.07)"><tspan x="0" y="0">Dependency Injection 2.0</tspan></text>
          </a>
          <rect class="cls-17" x="884.4" y="510.63" width="142.15" height="33.45" rx="10.01" ry="10.01"/>
          <a xlink:href="https://jakarta.ee/specifications/cdi/4.1/">
            <text class="cls-27" transform="translate(930.27 530.88)"><tspan x="0" y="0">CDI Lite 4.1</tspan></text>
          </a>
          <g>
            <line class="cls-3" x1="1057.63" y1="59.4" x2="1057.63" y2="59.4"/>
            <line class="cls-9" x1="1054.04" y1="59.4" x2="299.89" y2="59.4"/>
            <line class="cls-3" x1="298.1" y1="59.4" x2="298.1" y2="59.4"/>
            <line class="cls-7" x1="298.1" y1="63" x2="298.1" y2="567.81"/>
            <line class="cls-3" x1="298.1" y1="569.61" x2="298.1" y2="569.61"/>
          </g>
          <g>
            <line class="cls-5" x1="494.33" y1="569.61" x2="494.33" y2="569.61"/>
            <line class="cls-6" x1="494.33" y1="565.89" x2="494.33" y2="147.94"/>
            <line class="cls-5" x1="494.33" y1="146.09" x2="494.33" y2="146.09"/>
            <line class="cls-1" x1="498.06" y1="146.09" x2="1055.76" y2="146.09"/>
            <line class="cls-5" x1="1057.63" y1="146.09" x2="1057.63" y2="146.09"/>
          </g>
          <g>
            <line class="cls-8" x1="852.45" y1="569.61" x2="852.45" y2="569.61"/>
            <line class="cls-2" x1="852.45" y1="565.91" x2="852.45" y2="186.96"/>
            <line class="cls-8" x1="852.45" y1="185.12" x2="852.45" y2="185.12"/>
            <line class="cls-4" x1="856.19" y1="185.12" x2="1055.76" y2="185.12"/>
            <line class="cls-8" x1="1057.63" y1="185.12" x2="1057.63" y2="185.12"/>
          </g>
          <rect class="cls-17" x="839.34" y="588.96" width="17.63" height="17.63" rx="5.86" ry="5.86"/>
          <text class="cls-24" transform="translate(862.45 601.07)"><tspan x="0" y="0">Updated</tspan></text>
          <rect class="cls-20" x="920.12" y="588.96" width="17.63" height="17.63" rx="5.86" ry="5.86"/>
          <text class="cls-25" transform="translate(943.22 601.07)"><tspan x="0" y="0">Not Updated</tspan></text>
          <rect class="cls-15" x="1012.44" y="588.96" width="17.63" height="17.63" rx="5.86" ry="5.86"/>
          <text class="cls-25" transform="translate(1035.54 601.07)"><tspan x="0" y="0">New</tspan></text>
        </g>
      </g>
    </g>
  </g>
</svg>