<?xml version="1.0" encoding="UTF-8"?>
<svg id="Layer_2" data-name="Layer 2" xmlns="http://www.w3.org/2000/svg" viewBox="0 0 48.43 46.71">
  <defs>
    <style>
      .cls-1 {
        fill: #fff;
      }

      .cls-1, .cls-2 {
        stroke: #1b2080;
        stroke-miterlimit: 10;
        stroke-width: .5px;
      }

      .cls-2 {
        fill: none;
      }
    </style>
  </defs>
  <g id="Layer_1-2" data-name="Layer 1">
    <g>
      <path class="cls-2" d="m22.55,8.32s-.06-.01-.09-.02L7.18,3.71c-.26-.08-.53-.12-.8-.12-1.54,0-2.79,1.25-2.79,2.79v28.59c0,1.24.8,2.33,1.99,2.68l16.96,5.09V8.32Zm-3.39,25.92c-.18.75-.86,1.27-1.62,1.27-.14,0-.27-.02-.41-.05l-8.92-2.23c-.9-.22-1.44-1.13-1.22-2.03.22-.9,1.13-1.44,2.03-1.22l8.92,2.23c.9.22,1.44,1.13,1.22,2.02Zm0-6.69c-.18.75-.86,1.27-1.62,1.27-.14,0-.27-.02-.41-.05l-8.92-2.23c-.9-.22-1.44-1.13-1.22-2.03.22-.9,1.13-1.44,2.03-1.22l8.92,2.23c.9.22,1.44,1.13,1.22,2.02Zm0-6.69c-.18.75-.86,1.27-1.62,1.27-.14,0-.27-.02-.41-.05l-8.92-2.23c-.9-.22-1.44-1.13-1.22-2.03.22-.9,1.13-1.44,2.03-1.22l8.92,2.23c.9.22,1.44,1.13,1.22,2.02Zm0-6.69c-.18.75-.86,1.27-1.62,1.27-.14,0-.27-.02-.41-.05l-8.92-2.23c-.9-.22-1.44-1.13-1.22-2.03.22-.9,1.13-1.44,2.03-1.22l8.92,2.23c.9.22,1.44,1.13,1.22,2.02Z"/>
      <polygon class="cls-2" points="38.16 13.68 32.58 15.07 32.58 18.32 38.16 16.92 38.16 13.68"/>
      <path class="cls-2" d="m42.06,3.59c-.27,0-.55.04-.81.12l-15.28,4.59s-.06.01-.09.02v34.42l16.96-5.09c1.19-.35,2-1.44,1.99-2.68V6.38c0-1.54-1.24-2.79-2.78-2.79Zm-12.82,11.05c0-1.28.87-2.4,2.11-2.7l6.69-1.67c1.49-.37,3,.54,3.37,2.03.05.22.08.45.08.67v4.39c0,1.28-.87,2.4-2.11,2.7l-6.69,1.67c-.22.06-.45.08-.68.08-1.54,0-2.78-1.25-2.78-2.79v-4.39Zm10.99,18.59l-8.92,2.23c-.13.03-.27.05-.41.05-.92,0-1.67-.75-1.67-1.67,0-.77.52-1.44,1.27-1.62l8.92-2.23c.9-.22,1.8.32,2.03,1.22s-.32,1.8-1.22,2.03Zm0-6.69l-8.92,2.23c-.13.03-.27.05-.41.05-.92,0-1.67-.75-1.67-1.67,0-.77.52-1.44,1.27-1.62l8.92-2.23c.9-.22,1.8.32,2.03,1.22s-.32,1.8-1.22,2.03Z"/>
      <path class="cls-1" d="m47.93,4.62c-.97-3.24-4.39-5.08-7.63-4.11l-15.28,4.58c-.25.08-.51.11-.77.12,0,0-.02,0-.03,0s-.02,0-.03,0c-.26,0-.52-.04-.77-.12L8.14.51c-.57-.17-1.17-.26-1.77-.26C2.99.25.25,3,.25,6.38v28.59c-.01,2.71,1.77,5.1,4.37,5.87l17.84,5.35c.57.17,1.16.26,1.76.26.6,0,1.19-.09,1.76-.26l17.84-5.35c2.6-.77,4.38-3.16,4.37-5.87V6.38c0-.6-.09-1.19-.26-1.77ZM5.58,37.65c-1.19-.35-2-1.44-1.99-2.68V6.38c0-1.54,1.25-2.79,2.79-2.79.27,0,.54.04.8.12l15.28,4.58s.06.01.09.02v34.42l-16.96-5.09Zm39.26-2.68c0,1.24-.8,2.33-1.99,2.68l-16.96,5.09V8.32s.06-.01.09-.02l15.28-4.59c.26-.08.53-.12.81-.12,1.54,0,2.78,1.26,2.78,2.79v28.59Z"/>
      <path class="cls-1" d="m32.02,21.82c.23,0,.45-.03.68-.08l6.69-1.67c1.24-.31,2.11-1.42,2.11-2.7v-4.39c0-.23-.03-.45-.08-.67-.37-1.49-1.88-2.4-3.37-2.03l-6.69,1.67c-1.24.31-2.11,1.42-2.11,2.7v4.39c0,1.54,1.24,2.79,2.78,2.79Zm.56-6.74l5.57-1.39v3.24l-5.57,1.39v-3.24Z"/>
      <path class="cls-1" d="m39.42,23.29l-8.92,2.23c-.75.19-1.27.86-1.27,1.62,0,.92.75,1.67,1.67,1.67.14,0,.27-.02.41-.05l8.92-2.23c.9-.22,1.44-1.13,1.22-2.03s-1.13-1.44-2.03-1.22Z"/>
      <path class="cls-1" d="m39.42,29.98l-8.92,2.23c-.75.19-1.27.86-1.27,1.62,0,.92.75,1.67,1.67,1.67.14,0,.27-.02.41-.05l8.92-2.23c.9-.22,1.44-1.13,1.22-2.03s-1.13-1.44-2.03-1.22Z"/>
      <path class="cls-1" d="m17.93,25.52l-8.92-2.23c-.9-.22-1.8.32-2.03,1.22-.22.9.32,1.8,1.22,2.03l8.92,2.23c.13.03.27.05.41.05.77,0,1.44-.52,1.62-1.27.22-.9-.32-1.8-1.22-2.02Z"/>
      <path class="cls-1" d="m17.93,32.21l-8.92-2.23c-.9-.22-1.8.32-2.03,1.22-.22.9.32,1.8,1.22,2.03l8.92,2.23c.13.03.27.05.41.05.77,0,1.44-.52,1.62-1.27.22-.9-.32-1.8-1.22-2.02Z"/>
      <path class="cls-1" d="m17.93,12.14l-8.92-2.23c-.9-.22-1.8.32-2.03,1.22-.22.9.32,1.8,1.22,2.03l8.92,2.23c.13.03.27.05.41.05.77,0,1.44-.52,1.62-1.27.22-.9-.32-1.8-1.22-2.02Z"/>
      <path class="cls-1" d="m17.93,18.83l-8.92-2.23c-.9-.22-1.8.32-2.03,1.22-.22.9.32,1.8,1.22,2.03l8.92,2.23c.13.03.27.05.41.05.77,0,1.44-.52,1.62-1.27.22-.9-.32-1.8-1.22-2.02Z"/>
    </g>
  </g>
</svg>