<?xml version="1.0" encoding="UTF-8"?>
<svg id="Layer_2" data-name="Layer 2" xmlns="http://www.w3.org/2000/svg" viewBox="0 0 51.6 51.6">
  <defs>
    <style>
      .cls-1 {
        fill: #1b2080;
        stroke-width: 0px;
      }
    </style>
  </defs>
  <g id="Layer_1-2" data-name="Layer 1">
    <path class="cls-1" d="m46.07,0H5.53C2.48,0,0,2.48,0,5.53v25.8c0,3.05,2.48,5.53,5.53,5.53h40.55c3.05,0,5.53-2.48,5.53-5.53V5.53c0-3.05-2.48-5.53-5.53-5.53Zm1.84,31.33c0,1.02-.83,1.84-1.84,1.84H5.53c-1.02,0-1.84-.83-1.84-1.84V5.53c0-1.02.83-1.84,1.84-1.84h40.55c1.02,0,1.84.83,1.84,1.84v25.8Zm1.84,12.9H14.4c-.76-2.14-2.79-3.69-5.19-3.69s-4.43,1.55-5.19,3.69H1.84c-1.02,0-1.84.82-1.84,1.84s.83,1.84,1.84,1.84h2.18c.76,2.14,2.79,3.69,5.19,3.69s4.43-1.55,5.19-3.69h35.36c1.02,0,1.84-.82,1.84-1.84s-.83-1.84-1.84-1.84Zm-40.55,3.69c-1.02,0-1.84-.83-1.84-1.84s.83-1.84,1.84-1.84,1.84.83,1.84,1.84-.83,1.84-1.84,1.84Zm12.9-20.17c-.62,0-1.23-.15-1.79-.46-1.17-.65-1.89-1.88-1.89-3.22v-11.26c0-1.34.73-2.57,1.89-3.22,1.17-.65,2.6-.62,3.73.08l9.1,5.63c1.09.68,1.75,1.85,1.75,3.13s-.65,2.46-1.75,3.13l-9.1,5.63c-.59.37-1.27.55-1.94.55h0Zm0-14.95v11.27s9.11-5.63,9.11-5.63l-9.11-5.64Z"/>
  </g>
</svg>