<?xml version="1.0" encoding="UTF-8"?><svg id="uuid-6a468446-d558-4219-a1ae-2aa5e835e36c" xmlns="http://www.w3.org/2000/svg" viewBox="0 0 94.14 24.19"><g id="uuid-d13c7031-b989-4c1d-866a-3d3954f572ca"><g id="uuid-faf4f69b-76e9-4762-994e-228d42988826"><g id="uuid-8a34a066-9ac7-44ea-bbf8-3e5fc2a3b394"><path id="uuid-324f8b84-1aab-49ec-b43a-1e98f6e8adea" d="M31.01,16.82c-.29-.16-.51-.49-.51-.93,0-.6,.47-1.09,1.09-1.09,.22,0,.42,.07,.58,.15,1.13,.76,2.31,1.13,3.38,1.13,1.16,0,1.82-.49,1.82-1.27v-.04c0-.91-1.24-1.22-2.62-1.64-1.73-.49-3.67-1.2-3.67-3.44v-.05c0-2.22,1.84-3.58,4.18-3.58,1.24,0,2.56,.36,3.69,.96,.38,.2,.64,.56,.64,1.02,0,.62-.49,1.09-1.11,1.09-.22,0-.36-.04-.53-.13-.96-.49-1.93-.8-2.76-.8-1.05,0-1.65,.49-1.65,1.16v.04c0,.87,1.27,1.22,2.64,1.67,1.71,.53,3.64,1.31,3.64,3.42v.05c0,2.47-1.91,3.69-4.36,3.69-1.49,0-3.11-.47-4.47-1.4"/><path id="uuid-d7d651a8-1adb-4c47-84a2-ff69a2895316" d="M50.25,12.16v-.05c0-2.27-1.53-3.75-3.36-3.75s-3.42,1.51-3.42,3.75v.05c0,2.24,1.6,3.76,3.42,3.76s3.36-1.45,3.36-3.76m-9.4-4.73c0-.75,.58-1.36,1.33-1.36s1.36,.6,1.36,1.36v.8c.87-1.22,2.09-2.2,4-2.2,2.76,0,5.44,2.18,5.44,6.09v.05c0,3.89-2.67,6.09-5.44,6.09-1.96,0-3.18-.98-4-2.07v4.15c0,.76-.6,1.34-1.36,1.34s-1.33-.58-1.33-1.34V7.42"/><path id="uuid-375c12b4-95f2-406e-aa05-300fc2c60ece" d="M54,7.42c0-.75,.58-1.36,1.33-1.36s1.36,.6,1.36,1.36v.65c.13-1.01,1.78-2,2.96-2,.84,0,1.33,.56,1.33,1.33,0,.71-.47,1.18-1.07,1.29-1.91,.33-3.22,2.01-3.22,4.32v3.88c0,.73-.6,1.33-1.36,1.33s-1.33-.58-1.33-1.33V7.42"/><path id="uuid-dc259ab7-73f4-4a51-88a5-366cee95cc19" d="M62,7.43c0-.76,.58-1.36,1.33-1.36s1.36,.6,1.36,1.36v9.46c0,.75-.6,1.33-1.36,1.33s-1.33-.58-1.33-1.33V7.43"/><path id="uuid-a1a99024-4e2a-4de9-aec3-b49e6c16692c" d="M66.04,7.43c0-.76,.58-1.35,1.33-1.35s1.36,.6,1.36,1.35v.55c.76-1.09,1.84-1.91,3.67-1.91,2.64,0,4.18,1.78,4.18,4.49v6.32c0,.76-.58,1.33-1.33,1.33s-1.36-.58-1.36-1.33v-5.5c0-1.82-.91-2.87-2.51-2.87s-2.64,1.09-2.64,2.91v5.46c0,.76-.6,1.33-1.36,1.33s-1.33-.58-1.33-1.33V7.43"/><path id="uuid-e5f31fe4-f231-4147-acf5-989f241134ac" d="M83.68,15.89c-1.85,0-3.36-1.44-3.36-3.76v-.04c0-2.27,1.53-3.76,3.36-3.76s3.42,1.51,3.42,3.76v.04c0,2.25-1.6,3.76-3.42,3.76m4.71-9.84c-.75,0-1.35,.6-1.35,1.36v.8c-.87-1.22-2.09-2.2-4-2.2-2.76,0-5.45,2.18-5.45,6.09v.04c0,3.89,2.67,6.09,5.45,6.09,1.94,0,3.16-.97,3.99-2.05-.13,2.11-1.43,3.23-3.7,3.23-1.35,0-2.53-.33-3.6-.94-.13-.07-.29-.11-.49-.11-.62,0-1.13,.51-1.13,1.11,0,.51,.29,.89,.76,1.07,1.42,.69,2.89,1.04,4.53,1.04,2.11,0,3.76-.51,4.82-1.58,.98-.98,1.51-2.44,1.51-4.42V7.4c0-.75-.58-1.36-1.33-1.36"/><path id="uuid-884e54a9-0597-4ac7-90a9-826499f34966" d="M64.7,2.84c0,.75-.61,1.36-1.36,1.36s-1.36-.61-1.36-1.36,.61-1.36,1.36-1.36,1.36,.61,1.36,1.36"/><path id="uuid-e6fa6f00-3336-4c1c-997d-bd4e9b039a80" d="M21.99,17.42c-2.98,3.97-9.35,2.63-13.43,2.82,0,0-.72,.04-1.45,.16,0,0,.28-.12,.63-.24,2.87-.99,4.22-1.19,5.96-2.09,3.27-1.68,6.53-5.33,7.19-9.12-1.25,3.65-5.04,6.79-8.49,8.07-2.36,.87-6.63,1.72-6.63,1.72,0,0-.17-.09-.17-.09-2.9-1.41-2.99-7.7,2.29-9.73,2.31-.89,4.53-.4,7.03-1,2.67-.63,5.76-2.63,7.01-5.25,1.41,4.17,3.1,10.71,.06,14.75Zm.05-16.04c-.35,.84-.79,1.6-1.29,2.28C18.55,1.41,15.49,0,12.09,0,5.43,0,0,5.43,0,12.09c0,3.5,1.49,6.65,3.87,8.86l.26,.23c-.44-.36-.51-1.01-.15-1.45,.36-.44,1.01-.51,1.45-.15,.44,.36,.51,1.01,.15,1.45-.36,.44-1.01,.51-1.45,.15l.18,.16c2.1,1.77,4.82,2.84,7.78,2.84,6.37,0,11.61-4.96,12.06-11.22,.33-3.07-.57-6.96-2.11-11.59"/><path id="uuid-8b5cb023-0739-45da-a9fa-aa1ea9a0664a" d="M92.87,6.89h-.42v.56h.42c.14,0,.29-.11,.29-.27,0-.18-.15-.29-.29-.29Zm.26,1.38l-.41-.62h-.27v.62h-.22v-1.58h.64c.27,0,.51,.19,.51,.48,0,.35-.31,.47-.4,.47l.42,.63h-.27Zm-.38-1.96c-.65,0-1.17,.52-1.17,1.17s.52,1.17,1.17,1.17,1.17-.53,1.17-1.17-.53-1.17-1.17-1.17Zm0,2.55c-.76,0-1.38-.62-1.38-1.38s.62-1.38,1.38-1.38,1.38,.61,1.38,1.38-.61,1.38-1.38,1.38"/></g></g></g></svg>