<?xml version="1.0" encoding="UTF-8"?><svg id="uuid-e3dc0274-9d90-473c-8541-d970549ca5be" xmlns="http://www.w3.org/2000/svg" viewBox="0 0 45.07 37.06"><g id="uuid-0e77f518-371e-46c2-8355-3b96940b99a6"><g><path d="M0,35.5s.05-.06,.06-.09c.17-.62,.45-1.19,.73-1.76,.8-1.6,1.71-3.14,2.67-4.64,.65-1.02,1.32-2.02,2.03-2.99,.56-.76,1.14-1.5,1.71-2.25,.04-.05,.07-.1,.11-.15-.14-.23-.28-.45-.42-.67-.84-1.4-1.54-2.86-1.97-4.44-.29-1.05-.45-2.12-.43-3.21,.04-1.61,.45-3.11,1.33-4.47,.45-.7,1-1.31,1.68-1.79,.36-.25,.76-.46,1.17-.61,.88-.33,1.78-.43,2.71-.36,.39,.03,.78,.11,1.17,.18,.17,.03,.34,.06,.5,.08,.11-.17,.21-.33,.32-.48,.2-.26,.46-.38,.79-.39,.41,0,.81,.1,1.19,.24,.42,.15,.82,.36,1.21,.59,.54,.33,1.04,.71,1.49,1.16,.36,.35,.67,.74,.94,1.16,.01,.02,.02,.04,.04,.08-.12,.06-.23,.12-.35,.17-.36,.14-.72,.24-1.1,.32-.61,.12-1.22,.13-1.83,.12-.58-.02-1.14-.12-1.69-.31-.24-.08-.46-.21-.68-.34-.35-.21-.5-.55-.52-.94-.01-.17,0-.35,0-.54-.35-.05-.68-.12-1.02-.15-.55-.06-1.11-.07-1.67,0-.46,.05-.9,.16-1.32,.33-1.24,.49-2.07,1.4-2.69,2.54-.48,.88-.75,1.82-.84,2.82-.13,1.35,.07,2.67,.47,3.96,.41,1.33,1.01,2.58,1.73,3.77,.11,.18,.21,.35,.33,.54,.18-.21,.35-.4,.51-.59,.62-.7,1.27-1.38,1.97-2,.65-.58,1.29-1.15,1.97-1.7,.62-.5,1.26-.96,1.9-1.42,.5-.36,1-.69,1.52-1.02,.48-.31,.98-.59,1.48-.88,.45-.26,.9-.5,1.36-.75,.31-.16,.62-.31,.94-.46,.47-.22,.94-.43,1.42-.63,.41-.17,.82-.32,1.24-.47,.43-.15,.87-.28,1.3-.42,.02,0,.03-.02,.05-.03-.08-.4-.17-.81-.23-1.21-.12-.8-.23-1.61-.32-2.42-.07-.62-.1-1.23-.12-1.85-.04-.99-.01-1.99,.07-2.98,.07-.85,.17-1.69,.35-2.52,.1-.46,.22-.92,.41-1.36,.03-.07,.06-.14,.1-.23,.13,.07,.25,.12,.36,.2,.46,.31,.94,.6,1.38,.93,.84,.63,1.58,1.36,2.11,2.28,.21,.37,.38,.76,.48,1.18,0,.03,.02,.06,.04,.11,1.38-.26,2.77-.41,4.17-.43,1.4-.03,2.79,.09,4.18,.31,.01-.02,.03-.04,.04-.07,.22-.71,.62-1.32,1.09-1.88,.68-.81,1.48-1.5,2.38-2.07,.27-.17,.56-.32,.84-.48,.01,0,.04,0,.08-.01,.06,.19,.13,.37,.16,.57,.11,.63,.23,1.26,.3,1.89,.09,.76,.16,1.53,.22,2.3,.07,.94,.11,1.89,.07,2.83-.03,.76-.07,1.53-.14,2.28-.18,1.83-.56,3.62-1.14,5.36-.13,.39-.27,.77-.41,1.15-.02,.06-.04,.13-.07,.21h1.58c.02,.22,.01,.42,0,.64h-1.85c-.14,.3-.27,.6-.42,.92h2.26v.66c-.29,0-.57,0-.86,0-.29,0-.59,0-.88,0s-.57,0-.87,0c-1.27,2.38-2.91,4.46-5.01,6.18,.13,.16,.25,.31,.37,.46,.94,1.16,1.89,2.32,2.83,3.49,1.03,1.28,2.05,2.57,3.07,3.85,.07,.09,.15,.18,.21,.28,.06,.09,.12,.12,.23,.12,.64-.02,1.26,.1,1.86,.3,.65,.22,1.25,.55,1.72,1.05,.32,.33,.56,.72,.73,1.15,.17,.42,.16,.85,.06,1.3-.07,0-.13,0-.19,0-1.48,0-2.95,0-4.43,0-.2,0-.34-.12-.49-.2-.59-.34-1.18-.7-1.77-1.05-.67-.39-1.33-.78-2.01-1.16-.61-.35-1.23-.68-1.85-1.02-.55-.3-1.1-.59-1.65-.88-.59-.3-1.19-.6-1.79-.89-.67-.32-1.35-.64-2.03-.95-.52-.24-1.05-.46-1.58-.68-.49-.2-.98-.4-1.47-.59-.44-.17-.89-.33-1.34-.48-.48-.16-.96-.33-1.44-.48-.4-.13-.81-.24-1.22-.35-.58-.16-1.17-.31-1.76-.45-.33-.08-.67-.14-1.01-.21-.4-.08-.8-.16-1.2-.22-.52-.08-1.05-.14-1.58-.21-.12-.02-.24-.03-.39-.05,.03,.78,.15,1.51,.38,2.23,.21,.67,.51,1.29,.94,1.85,.13-.03,.26-.06,.38-.1,.37-.12,.74-.13,1.11-.06,.7,.13,1.28,.54,1.42,1.32,.01,.08,.02,.16,.02,.24,0,.16,0,.31,0,.48-.08,0-.14,.01-.2,.01-1.11,0-2.23,0-3.34,0-.12,0-.22-.04-.31-.11-.88-.76-1.76-1.51-2.62-2.29-.83-.74-1.62-1.52-2.38-2.33-.33-.35-.66-.71-.99-1.07-.02-.02-.02-.04-.03-.05-.74,.21-1.41,.52-2.02,.93-.76,.52-1.39,1.16-1.9,1.92-.78,1.16-1.24,2.43-1.38,3.82-.06,.59-.03,1.19,.08,1.78,.02,.09,.03,.18,.05,.29-.05,0-.09,.01-.14,.01-1.6,0-3.2,0-4.81,0-.02,0-.05,0-.07,0,0-.19,0-.38,0-.56Zm33.37-10.03c-.06,.04-.1,.06-.13,.08-.21,.15-.43,.3-.64,.46-.07,.05-.11,.05-.18,0-.39-.29-.78-.57-1.17-.87-1.02-.79-1.95-1.67-2.8-2.64-.94-1.07-1.76-2.22-2.45-3.46-.08-.14-.16-.19-.32-.19-.78,0-1.56,0-2.35,0-.07,0-.15,0-.22,0v-.63h2.42c-.15-.32-.29-.62-.43-.91-.67-.01-1.33,0-1.99,0v-.63h1.71c-.43-1.05-.78-2.11-1.07-3.18-.97,.24-3.52,1.23-3.81,1.48,.4,1.39,.81,2.77,1.21,4.16l-.03,.02c-1.24-.96-2.47-1.92-3.72-2.89-.37,.23-.74,.45-1.12,.67,.21,.43,.42,.84,.62,1.25,.2,.41,.42,.82,.6,1.24-.15-.07-.28-.16-.41-.24-.7-.41-1.4-.82-2.09-1.23-.1-.06-.18-.06-.27,0-.49,.36-.98,.73-1.48,1.09-.08,.06-.1,.12-.07,.22,.18,.72,.35,1.44,.52,2.16,0,.04,0,.08,0,.14-.61-.49-1.2-.96-1.79-1.43-1.28,1.1-2.47,2.28-3.54,3.57,.4,.64,1.69,2.28,2.06,2.64,.09-.01,.18-.02,.27-.05,.49-.12,1-.15,1.5-.17,.51-.02,1.02,.02,1.53,.03,.22,0,.44,.02,.65,.03,.2,0,.39,0,.61,0,.04-1.55,.28-3.09,.64-4.61,.26,.08,.5,.15,.75,.23-.34,1.49-.58,2.97-.61,4.48,.35,.05,.68,.09,1.01,.13,.42,.06,.84,.12,1.26,.18,.14,.02,.28,.04,.43,.07,.34,.07,.68,.13,1.02,.2,.3,.06,.6,.12,.9,.19,.45,.11,.89,.22,1.34,.34,.39,.1,.78,.21,1.17,.33,.41,.12,.81,.25,1.21,.38,.32,.11,.65,.23,.97,.34,.28,.1,.55,.2,.82,.3,.29,.11,.59,.21,.87,.33,.43,.17,.85,.35,1.28,.53,.23,.1,.46,.19,.69,.29,.37,.17,.74,.33,1.1,.5,.34,.16,.69,.32,1.03,.49,.38,.18,.76,.37,1.14,.56,.49,.25,.98,.49,1.46,.74,.63,.33,1.25,.68,1.87,1.02,.45,.25,.91,.49,1.36,.75,.58,.33,1.15,.67,1.72,1.01,.6,.36,1.2,.72,1.8,1.08,.13,.08,.27,.13,.44,.13,1.12,0,2.24,0,3.36,0,.07,0,.13,0,.23,0-.04-.1-.07-.18-.11-.25-.55-1.01-1.42-1.6-2.54-1.82-.39-.08-.79-.05-1.18-.02-.11,.01-.17-.02-.24-.1-.27-.34-.55-.68-.82-1.02-.71-.88-1.41-1.77-2.12-2.65-.18-.22-.36-.44-.53-.66-.85,.24-1.68,.51-2.53,.73,.29-.29,.6-.55,.9-.82,.3-.27,.62-.53,.91-.83-.39-.48-.75-.95-1.14-1.41-.64,.34-1.27,.67-1.89,1,0,0-.02-.02-.03-.03,.37-.66,.74-1.32,1.11-1.99-.23-.28-.45-.56-.68-.85Zm.2-20.25c-.15,.59-.28,1.15-.43,1.71-.14,.56-.27,1.12-.43,1.68-.01,0-.02,0-.04,0-.44-1.12-.88-2.24-1.32-3.36-.09,0-.17,.02-.25,.03-.71,.04-1.42,.14-2.12,.27-.68,.12-1.35,.28-2,.49-.18,.06-.31,.04-.45-.05-.09-.06-.18-.11-.27-.17-.57-.4-.99-.93-1.3-1.54-.45-.89-.67-1.84-.83-2.81,0-.03-.02-.06-.05-.13-.04,.19-.07,.32-.1,.47-.19,1.06-.3,2.14-.34,3.22-.03,1.03-.04,2.06,.06,3.09,.07,.73,.16,1.45,.23,2.18,.01,.14,.07,.23,.19,.3,.48,.29,.96,.58,1.44,.87,.17,.11,.34,.22,.55,.35-.65,.06-1.25,.11-1.88,.16,.11,.45,.21,.89,.32,1.32,.01,.06,.08,.11,.14,.14,.24,.12,.49,.22,.73,.34,.12,.05,.23,.11,.37,.18-.34,.11-.65,.22-.96,.32,.25,.82,.54,1.61,.87,2.4h1.91c.01,.21,.02,.41,0,.62h-1.63c.14,.29,.27,.54,.39,.8,.05,.11,.12,.14,.23,.14,.28,0,.56,0,.84,0,.05,0,.11,0,.16,.01v.63h-.81c.03,.07,.05,.11,.07,.14,.14,.23,.28,.47,.43,.7,.55,.86,1.17,1.68,1.87,2.42,.47,.5,.97,.98,1.51,1.41,.56,.45,1.15,.87,1.77,1.24,.08,.05,.13,.05,.2,0,.32-.24,.64-.47,.96-.71,.77-.58,1.46-1.26,2.11-1.98,.32-.34,.62-.7,.89-1.08,.41-.57,.8-1.16,1.19-1.75,.08-.12,.14-.25,.22-.4h-1.08c0-.22-.01-.42,0-.64,.09,0,.16,0,.23,0,.36,0,.71,0,1.07,0,.07,0,.13,0,.17-.08,.13-.27,.27-.55,.42-.85-.65,0-1.26,0-1.88,0v-.62h2.15c.22-.54,.43-1.07,.59-1.63-.34-.14-.66-.28-.99-.41,.2-.1,.39-.16,.58-.23,.19-.06,.37-.14,.56-.2,.09-.03,.13-.08,.15-.17,.1-.43,.21-.86,.31-1.29,.01-.05,0-.1,0-.15-.43-.07-.84-.15-1.29-.22,.07-.05,.1-.08,.13-.09,.41-.2,.82-.4,1.23-.6,.08-.04,.14-.09,.15-.19,.15-1.01,.26-2.02,.27-3.04,.01-1.2,0-2.4-.03-3.6-.02-.72-.06-1.45-.12-2.17-.03-.42-.1-.84-.15-1.25-.01,0-.03,0-.04,0-.02,.1-.05,.2-.07,.3-.19,.9-.45,1.77-.88,2.58-.34,.64-.77,1.21-1.33,1.68-.76-.23-1.52-.41-2.3-.53-.78-.12-1.56-.19-2.37-.23ZM4.1,35.15c0-.06,0-.12,0-.17,0-.36,0-.71,.03-1.07,.07-.97,.33-1.89,.7-2.78,.34-.8,.78-1.54,1.35-2.21,.32-.38,.67-.74,1.06-1.05,.37-.29,.74-.57,1.16-.77,.27-.13,.54-.26,.81-.38,.1-.05,.2-.09,.3-.13-.57-.74-1.13-1.47-1.69-2.2-.03,.04-.06,.07-.09,.1-.31,.39-.62,.78-.92,1.18-.86,1.13-1.69,2.29-2.46,3.49-.5,.77-.99,1.55-1.46,2.33-.66,1.1-1.28,2.22-1.81,3.38-.04,.09-.07,.18-.11,.28h3.12Z"/><path d="M31.98,17.79c-.98-.72-1.93-1.41-2.88-2.11,.41-.81,.71-1.66,.95-2.53,.03-.12,.06-.24,.09-.39-.73-.02-1.44,0-2.17-.02v-.55h2.29c.04-.17,.08-.31,.1-.47,.06-.44,.11-.88,.14-1.32,.02-.37,0-.73-.06-1.1-.04-.29-.12-.57-.33-.8-.12-.13-.28-.21-.46-.21-.43,0-.8,.16-1.12,.45-.33,.3-.55,.67-.73,1.07-.02,.05-.05,.1-.07,.16-.15-.07-.3-.13-.45-.2,.05-.24,.17-.44,.28-.64,.23-.42,.53-.79,.93-1.06,.4-.28,.84-.4,1.33-.34,.3,.03,.53,.2,.71,.44,.22,.28,.33,.62,.39,.96,.08,.44,.1,.88,.08,1.32-.03,.54-.09,1.08-.2,1.61,0,.02,0,.05,0,.07,.14,.05,3.48,.07,4.03,.03,.04-.11,.08-.23,.13-.36,.17-.47,.4-.9,.72-1.28,.31-.36,.69-.62,1.14-.79,.45-.18,.91-.25,1.39-.26,.05,0,.1,0,.15,.01v.55c-.17,.01-.33,.02-.49,.03-.32,.03-.62,.09-.92,.21-.52,.2-.9,.55-1.19,1.01-.16,.27-.29,.55-.39,.86,.19,.04,.37,.02,.54,.02,.18,0,.36,0,.54,0h1.09v.56h-2.36c-.24,.8-.18,1.68,.51,2.91-.94,.71-1.88,1.42-2.85,2.15,.61,.44,1.2,.86,1.81,1.3-.04,.08-.08,.16-.12,.24-.04,.08-.09,.15-.14,.25-.66-.48-1.29-.98-1.96-1.47-.6,.46-1.2,.91-1.81,1.38-.09-.17-.18-.32-.27-.48,.54-.42,1.07-.82,1.62-1.24Zm2.66-5.02h-3.99c-.2,.87-.47,1.7-.82,2.54h2.58c.43,0,.86,0,1.29,0,.42,0,.84,.02,1.27-.01-.38-.84-.51-1.58-.34-2.53Zm-2.21,4.66c.24-.18,.47-.35,.69-.52,.22-.17,.44-.33,.65-.5,.21-.17,.45-.31,.67-.54-1.34,0-2.64,0-3.94,0-.04,0-.07,0-.11,0,0,0-.01,0-.01,.01,0,0,0,.01,0,.03,.68,.5,1.37,1,2.06,1.51Z"/></g></g></svg>