<?xml version="1.0" encoding="UTF-8" standalone="no"?>
<svg
   xmlns:dc="http://purl.org/dc/elements/1.1/"
   xmlns:cc="http://creativecommons.org/ns#"
   xmlns:rdf="http://www.w3.org/1999/02/22-rdf-syntax-ns#"
   xmlns:svg="http://www.w3.org/2000/svg"
   xmlns="http://www.w3.org/2000/svg"
   xmlns:sodipodi="http://sodipodi.sourceforge.net/DTD/sodipodi-0.dtd"
   xmlns:inkscape="http://www.inkscape.org/namespaces/inkscape"
   height="512pt"
   viewBox="0 0 512 512"
   width="512pt"
   version="1.1"
   id="svg72"
   sodipodi:docname="blocks.svg"
   inkscape:version="0.92.4 5da689c313, 2019-01-14">
  <metadata
     id="metadata78">
    <rdf:RDF>
      <cc:Work
         rdf:about="">
        <dc:format>image/svg+xml</dc:format>
        <dc:type
           rdf:resource="http://purl.org/dc/dcmitype/StillImage" />
      </cc:Work>
    </rdf:RDF>
  </metadata>
  <defs
     id="defs76" />
  <sodipodi:namedview
     pagecolor="#ffffff"
     bordercolor="#666666"
     borderopacity="1"
     objecttolerance="10"
     gridtolerance="10"
     guidetolerance="10"
     inkscape:pageopacity="0"
     inkscape:pageshadow="2"
     inkscape:window-width="1920"
     inkscape:window-height="1027"
     id="namedview74"
     showgrid="false"
     inkscape:zoom="1.2128906"
     inkscape:cx="188.39291"
     inkscape:cy="341.33333"
     inkscape:window-x="0"
     inkscape:window-y="0"
     inkscape:window-maximized="1"
     inkscape:current-layer="svg72" />
  <path
     d="m60 301v151h151v-151zm121 121h-91v-91h91zm0 0"
     id="path64"
     style="fill:#1c218b;fill-opacity:1" />
  <path
     d="m452 452v-151h-151v151zm-121-121h91v91h-91zm0 0"
     id="path66"
     style="fill:#1c218b;fill-opacity:1" />
  <path
     d="m391.5 241v-241h-271v241h-120.5v271h512v-271zm-241-211h211v211h-211zm-120.5 241h211v211h-211zm452 211h-211v-211h211zm0 0"
     id="path68"
     style="fill:#1c218b;fill-opacity:1" />
  <path
     d="m180.5 60v151h151v-151zm121 121h-91v-91h91zm0 0"
     id="path70"
     style="fill:#1c218b;fill-opacity:1" />
</svg>
