<?xml version="1.0" encoding="utf-8"?>
<!-- Generator: Adobe Illustrator 16.0.4, SVG Export Plug-In . SVG Version: 6.00 Build 0)  -->
<!DOCTYPE svg PUBLIC "-//W3C//DTD SVG 1.1//EN" "http://www.w3.org/Graphics/SVG/1.1/DTD/svg11.dtd">
<svg version="1.1" id="Capa_1" xmlns="http://www.w3.org/2000/svg" xmlns:xlink="http://www.w3.org/1999/xlink" x="0px" y="0px"
	 width="438.549px" height="438.549px" viewBox="0 0 438.549 438.549" enable-background="new 0 0 438.549 438.549"
	 xml:space="preserve">
<g>
	<path fill="#FFFFFF" d="M409.132,114.573c-19.607-33.596-46.205-60.194-79.798-79.8C295.735,15.166,259.058,5.365,219.271,5.365
		c-39.781,0-76.472,9.804-110.063,29.408c-33.596,19.605-60.192,46.204-79.8,79.8C9.803,148.168,0,184.854,0,224.63
		c0,47.78,13.94,90.745,41.827,128.906c27.884,38.164,63.906,64.572,108.063,79.227c5.14,0.954,8.945,0.283,11.419-1.996
		c2.475-2.281,3.711-5.14,3.711-8.562c0-0.571-0.049-5.708-0.144-15.417c-0.098-9.709-0.144-18.179-0.144-25.406l-6.567,1.136
		c-4.187,0.768-9.469,1.093-15.846,1c-6.374-0.089-12.991-0.757-19.842-1.999c-6.854-1.23-13.229-4.086-19.13-8.559
		c-5.898-4.473-10.085-10.328-12.56-17.556l-2.855-6.57c-1.903-4.374-4.899-9.233-8.992-14.559
		c-4.093-5.331-8.232-8.945-12.419-10.849l-1.999-1.431c-1.332-0.951-2.568-2.098-3.711-3.429c-1.142-1.331-1.997-2.663-2.568-3.997
		c-0.572-1.335-0.098-2.431,1.427-3.289c1.525-0.859,4.281-1.276,8.28-1.276l5.708,0.854c3.807,0.763,8.516,3.042,14.133,6.851
		c5.614,3.806,10.229,8.754,13.846,14.842c4.38,7.807,9.657,13.754,15.846,17.848c6.184,4.093,12.419,6.136,18.699,6.136
		c6.28,0,11.704-0.477,16.274-1.423c4.565-0.952,8.848-2.384,12.847-4.285c1.713-12.758,6.377-22.56,13.988-29.41
		c-10.848-1.14-20.601-2.857-29.264-5.14c-8.658-2.286-17.605-5.996-26.835-11.141c-9.235-5.137-16.896-11.516-22.985-19.126
		c-6.09-7.614-11.088-17.61-14.987-29.979c-3.901-12.373-5.852-26.647-5.852-42.825c0-23.035,7.52-42.637,22.557-58.817
		c-7.044-17.318-6.379-36.732,1.997-58.24c5.52-1.715,13.706-0.428,24.554,3.853c10.85,4.283,18.794,7.952,23.84,10.994
		c5.046,3.041,9.089,5.618,12.135,7.708c17.705-4.947,35.976-7.421,54.818-7.421c18.841,0,37.117,2.474,54.823,7.421l10.849-6.849
		c7.42-4.57,16.181-8.758,26.263-12.565c10.088-3.805,17.802-4.853,23.134-3.138c8.562,21.509,9.325,40.922,2.279,58.24
		c15.035,16.18,22.559,35.787,22.559,58.817c0,16.178-1.958,30.497-5.853,42.966c-3.9,12.472-8.941,22.457-15.125,29.979
		c-6.191,7.521-13.901,13.85-23.132,18.985c-9.231,5.141-18.182,8.851-26.84,11.137c-8.662,2.285-18.414,4.004-29.263,5.146
		c9.894,8.562,14.843,22.077,14.843,40.539v60.237c0,3.422,1.189,6.278,3.571,8.562c2.379,2.279,6.136,2.95,11.276,1.995
		c44.162-14.653,80.185-41.062,108.067-79.226c27.88-38.161,41.825-81.127,41.825-128.906
		C438.536,184.851,428.728,148.168,409.132,114.573z"/>
</g>
</svg>
