<?xml version="1.0" encoding="iso-8859-1"?>
<!-- Generator: Adobe Illustrator 19.0.0, SVG Export Plug-In . SVG Version: 6.00 Build 0)  -->
<svg version="1.1" id="Capa_1" xmlns="http://www.w3.org/2000/svg" xmlns:xlink="http://www.w3.org/1999/xlink" x="0px" y="0px"
	 viewBox="0 0 512 512" style="enable-background:new 0 0 512 512;" xml:space="preserve">
<g>
	<g>
		<path d="M488,8H24C10.745,8,0,18.745,0,32v352c0,4.418,3.582,8,8,8h182.24l-12.8,64H160c-4.418,0-8,3.582-8,8v24h-16v16h240v-16
			h-16v-24c0-4.418-3.582-8-8-8h-17.453l-12.8-64H504c4.418,0,8-3.582,8-8V32C512,18.745,501.255,8,488,8z M328,472h16v16H168v-16
			h16H328z M193.76,456l12.788-64h98.892l12.8,64H193.76z M496,376H16v-72h112h48h48h48h48h64h112V376z M384,80h-64
			c-4.418,0-8,3.582-8,8v72h16V96h48v32h-32v16h32v40h-32v16h32v40h-32v16h32v32h-48v-64h-16v64h-32v-40
			c0-32.648,39.648-39.824,41.312-40.112c0.986-0.165,1.932-0.513,2.79-1.027c3.791-2.27,5.024-7.183,2.754-10.973l-72-120
			c-0.58-0.846-1.311-1.577-2.157-2.157c-3.786-2.595-8.96-1.63-11.555,2.157l-72,120c-0.511,0.852-0.859,1.792-1.025,2.772
			c-0.741,4.356,2.189,8.487,6.545,9.228C176.352,208.176,216,215.352,216,248v40h-32v-64h-16v64h-8V144h8v16h16v-24
			c0.002-1.084-0.218-2.157-0.648-3.152l-24-56c-0.809-1.886-2.312-3.389-4.198-4.198c-4.06-1.742-8.764,0.138-10.506,4.198l-24,56
			c-0.43,0.995-0.65,2.068-0.648,3.152v152H56V64h400v224h-64V88C392,83.582,388.418,80,384,80z M232,264v-8h32v8H232z M264,280v8
			h-32v-8H264z M231.416,240c-3.832-25.44-25.616-39.2-43.04-45.08L240,108.885V176h16v-67.115l51.624,86.035
			c-17.44,5.84-39.208,19.64-43.04,45.08H231.416z M140.115,128L152,100.272L163.885,128H140.115z M144,144v144h-8V144H144z
			 M496,288h-24V56c0-4.418-3.582-8-8-8H48c-4.418,0-8,3.582-8,8v232H16V32c0-4.418,3.582-8,8-8h464c4.418,0,8,3.582,8,8V288z"/>
	</g>
</g>
<g>
	<g>
		<path d="M256,312c-13.255,0-24,10.745-24,24s10.745,24,24,24s24-10.745,24-24S269.255,312,256,312z M256,344c-4.418,0-8-3.582-8-8
			c0-4.418,3.582-8,8-8c4.418,0,8,3.582,8,8C264,340.418,260.418,344,256,344z"/>
	</g>
</g>
<g>
</g>
<g>
</g>
<g>
</g>
<g>
</g>
<g>
</g>
<g>
</g>
<g>
</g>
<g>
</g>
<g>
</g>
<g>
</g>
<g>
</g>
<g>
</g>
<g>
</g>
<g>
</g>
<g>
</g>
</svg>
