<?xml version="1.0" encoding="utf-8"?>
<!-- Generator: Adobe Illustrator 16.0.4, SVG Export Plug-In . SVG Version: 6.00 Build 0)  -->
<!DOCTYPE svg PUBLIC "-//W3C//DTD SVG 1.1//EN" "http://www.w3.org/Graphics/SVG/1.1/DTD/svg11.dtd">
<svg version="1.1" id="Capa_1" xmlns="http://www.w3.org/2000/svg" xmlns:xlink="http://www.w3.org/1999/xlink" x="0px" y="0px"
	 width="932.179px" height="932.179px" viewBox="0 0 932.179 932.179" enable-background="new 0 0 932.179 932.179"
	 xml:space="preserve">
<g>
	<path fill="#FFFFFF" d="M61.2,341.538c4.9,16.8,11.7,33,20.3,48.2L57,420.638c-8,10.101-7.1,24.5,1.9,33.601l42.2,42.201
		c9.1,9.1,23.5,9.898,33.6,1.898l30.7-24.301c15.8,9.102,32.6,16.201,50.1,21.201l4.6,39.5c1.5,12.799,12.3,22.398,25.1,22.398h59.7
		c12.8,0,23.6-9.6,25.1-22.398l4.4-38.102c18.8-4.898,36.8-12.199,53.7-21.699l29.7,23.5c10.101,8,24.5,7.1,33.601-1.9l42.199-42.2
		c9.102-9.1,9.9-23.5,1.9-33.6l-23.1-29.3c9.6-16.602,17.1-34.301,22.1-52.801l35.6-4.1c12.803-1.5,22.4-12.3,22.4-25.1v-59.701
		c0-12.8-9.6-23.6-22.4-25.1l-35.1-4.1c-4.801-18.3-12-35.8-21.199-52.2l21.602-27.3c8-10.1,7.1-24.5-1.9-33.6l-42.1-42.1
		c-9.101-9.1-23.5-9.9-33.601-1.9l-26.5,21c-17.2-10.1-35.601-17.8-54.9-23l-4-34.3c-1.5-12.8-12.3-22.4-25.1-22.4h-59.7
		c-12.8,0-23.6,9.6-25.1,22.4l-4,34.3c-19.8,5.3-38.7,13.3-56.3,23.8l-27.5-21.8c-10.1-8-24.5-7.1-33.6,1.9l-42.2,42.2
		c-9.1,9.1-9.9,23.5-1.9,33.6l23,29.1c-9.2,16.6-16.2,34.3-20.8,52.7l-36.8,4.2c-12.8,1.5-22.4,12.3-22.4,25.1v59.701
		c0,12.8,9.6,23.6,22.4,25.1L61.2,341.538z M277.5,180.038c54.4,0,98.7,44.3,98.7,98.7s-44.3,98.7-98.7,98.7
		c-54.399,0-98.7-44.3-98.7-98.7S223.1,180.038,277.5,180.038z"/>
	<path fill="#FFFFFF" d="M867.699,356.238l-31.5-26.601c-9.699-8.2-24-7.8-33.199,0.9l-17.4,16.3c-14.697-7.1-30.299-12.1-46.398-15
		l-4.898-24c-2.5-12.4-14-21-26.602-20l-41.102,3.5c-12.6,1.1-22.5,11.4-22.898,24.1l-0.799,24.4
		c-15.803,5.7-30.701,13.5-44.303,23.3l-20.799-13.8c-10.602-7-24.701-5-32.9,4.7l-26.6,31.7c-8.201,9.7-7.801,24,0.898,33.2
		l18.201,19.398c-6.301,14.2-10.801,29.102-13.4,44.401l-26,5.299c-12.4,2.5-21,14-20,26.602l3.5,41.1c1.1,12.6,11.4,22.5,24.1,22.9
		l28.102,0.898c5.102,13.4,11.801,26.102,19.898,38l-15.697,23.701c-7,10.6-5,24.699,4.697,32.898l31.5,26.602
		c9.701,8.199,24,7.799,33.201-0.9l20.6-19.301c13.5,6.301,27.699,11,42.301,13.801l5.699,28.199c2.5,12.4,14,21,26.602,20l41.1-3.5
		c12.6-1.1,22.5-11.398,22.9-24.1l0.898-27.602c15-5.299,29.199-12.5,42.301-21.398l22.699,15c10.602,7,24.699,5,32.9-4.699
		l26.6-31.5c8.199-9.701,7.801-24-0.898-33.201l-18.301-19.398c6.699-14.201,11.602-29.201,14.398-44.602l25-5.1
		c12.4-2.5,21-14,20-26.602l-3.5-41.1c-1.1-12.6-11.398-22.5-24.1-22.9l-25.1-0.8c-5.201-14.601-12.201-28.399-20.9-41.2
		l13.699-20.6C879.4,378.638,877.4,364.438,867.699,356.238z M712.8,593.837c-44.398,3.801-83.602-29.301-87.301-73.699
		c-3.801-44.4,29.301-83.601,73.699-87.301c44.4-3.8,83.602,29.301,87.301,73.7C790.3,550.937,757.199,590.138,712.8,593.837z"/>
	<path fill="#FFFFFF" d="M205,704.437c-12.6,1.301-22.3,11.9-22.4,24.602l-0.3,25.299c-0.2,12.701,9.2,23.5,21.8,25.102l18.6,2.398
		c3.1,11.301,7.5,22.102,13.2,32.301l-12,14.801c-8,9.898-7.4,24.1,1.5,33.199l17.7,18.102c8.9,9.1,23.1,10.1,33.2,2.299
		l14.899-11.5c10.5,6.201,21.601,11.102,33.2,14.5l2,19.201c1.3,12.6,11.9,22.299,24.6,22.398l25.301,0.301
		c12.699,0.199,23.5-9.199,25.101-21.801l2.3-18.199c12.601-3.102,24.601-7.801,36-14l14,11.301c9.899,8,24.1,7.398,33.202-1.5
		l18.1-17.701c9.1-8.898,10.1-23.1,2.301-33.199l-10.703-13.902c6.602-11,11.701-22.699,15.201-35l16.602-1.699
		c12.6-1.301,22.299-11.9,22.398-24.6l0.299-25.301c0.201-12.699-9.197-23.5-21.799-25.1l-16.201-2.102
		c-3.1-12.199-7.697-24-13.697-35l10.1-12.398c8-9.9,7.4-24.102-1.5-33.201l-17.699-18.1c-8.9-9.102-23.102-10.102-33.202-2.301
		L445,612.937c-11.399-6.9-23.6-12.199-36.399-15.801L407,581.437c-1.3-12.602-11.899-22.301-24.6-22.4l-25.3-0.299
		c-12.7-0.201-23.5,9.199-25.101,21.799l-2,15.602c-13.199,3.398-25.899,8.6-37.699,15.398l-12.5-10.199
		c-9.9-8-24.101-7.4-33.201,1.5l-18.2,17.801c-9.1,8.898-10.1,23.1-2.3,33.199l10.7,13.801c-6.2,11-11.1,22.699-14.3,35L205,704.437
		z M368.3,675.837c36.3,0.4,65.399,30.301,65,66.6c-0.399,36.301-30.301,65.4-66.601,65c-36.3-0.398-65.399-30.299-65-66.6
		C302.1,704.539,332,675.437,368.3,675.837z"/>
</g>
</svg>
