<svg width="30" height="42" viewBox="0 0 30 42" fill="none" xmlns="http://www.w3.org/2000/svg">
<path d="M15.1383 8.89062C11.3061 8.89062 8.18872 11.9969 8.18872 15.8136C8.18872 19.6303 11.3069 22.7366 15.1383 22.7366C18.9697 22.7366 22.0879 19.6303 22.0879 15.8136C22.0879 11.9969 18.9697 8.89062 15.1383 8.89062Z" fill="white"/>
<path d="M13.5395 32.4942L12.6547 31.6959L10.5707 29.8176L8.3047 30.0605L6.91796 30.2085L6.58915 30.2441L5.53043 30.3572L2.19702 37.4147L7.35956 37.4827L10.7017 41.4023L14.5005 33.3606L13.5768 32.5283L13.5395 32.4942Z" fill="white"/>
<path d="M23.6875 30.2441L23.3587 30.2093L21.972 30.0605L19.7068 29.8176L17.6227 31.6959L16.7371 32.4942L16.6998 32.5283L15.7761 33.3606L19.5758 41.4023L22.9171 37.4827L28.0804 37.4147L24.7462 30.3572L23.6875 30.2441Z" fill="white"/>
<path d="M29.3828 11.2032L24.9851 8.68715L23.9423 3.74296L18.8997 4.28256L15.1382 0.893066L11.3767 4.28256L6.33408 3.74296L5.29124 8.68715L0.893555 11.2032L2.96731 15.8135L0.893555 20.4246L5.29124 22.9406L6.33408 27.8848L6.71849 27.8436L8.10602 27.6949L9.49276 27.5469L9.86446 27.5074L11.3767 27.3452L12.514 28.3698L13.7141 29.4513L14.0882 29.7884L14.6378 30.2837L15.1382 30.7347L15.6386 30.2837L16.1882 29.7884L16.5623 29.4513L17.4955 28.6111H17.4963L18.8997 27.3452L21.3507 27.6071H21.3515L21.6009 27.634L22.1712 27.6949H22.172L23.5587 27.8436L23.9431 27.8848L24.9859 22.9406L29.3836 20.4246L27.3099 15.8143L29.3836 11.204L29.3828 11.2032ZM15.1382 25.11C9.99313 25.11 5.80591 20.9404 5.80591 15.8135C5.80591 10.6865 9.99233 6.5169 15.1382 6.5169C20.284 6.5169 24.4705 10.6873 24.4705 15.8135C24.4705 20.9396 20.284 25.11 15.1382 25.11Z" fill="white"/>
</svg>
