<svg width="38" height="41" viewBox="0 0 38 41" fill="none" xmlns="http://www.w3.org/2000/svg">
<g clip-path="url(#clip0_36_286)">
<path d="M13.6719 18.8711C13.6719 21.7007 15.8984 24.0036 18.6341 24.0036C21.3699 24.0036 23.5964 21.7007 23.5964 18.8711C23.5964 16.0415 21.3699 13.7386 18.6341 13.7386C15.8984 13.7386 13.6719 16.0415 13.6719 18.8711ZM18.6341 15.6254C20.3671 15.6254 21.7722 17.0787 21.7722 18.8711C21.7722 20.6636 20.3671 22.1169 18.6341 22.1169C16.9011 22.1169 15.496 20.6636 15.496 18.8711C15.496 17.0787 16.9011 15.6254 18.6341 15.6254Z" fill="white"/>
<path d="M21.9441 25.5295L15.297 25.5078H15.2918C11.655 25.5078 8.69922 28.565 8.69922 32.3266V38.7519C8.69922 39.7175 9.45571 40.5 10.3893 40.5H26.832C27.7813 40.5 28.522 39.7403 28.522 38.7693V32.3439C28.522 28.5877 25.5715 25.5306 21.9452 25.5306L21.9441 25.5295ZM15.2929 27.3946L21.9347 27.4162H21.9399C24.5635 27.4162 26.6979 29.6249 26.6979 32.3439V38.6143H24.6757V32.3721C24.6757 31.9451 24.3372 31.5951 23.9244 31.5951C23.5116 31.5951 23.1732 31.9451 23.1732 32.3721V38.6143H14.0481V32.3721C14.0481 31.9451 13.7097 31.5951 13.2968 31.5951C12.884 31.5951 12.5456 31.9451 12.5456 32.3721V38.6143H10.5234V32.3222C10.5234 29.6032 12.664 27.3946 15.2929 27.3946Z" fill="white"/>
<path d="M10.0245 10.765C12.7602 10.765 14.9868 8.46207 14.9868 5.63248C14.9868 2.8029 12.7602 0.5 10.0245 0.5C7.28877 0.5 5.06226 2.8029 5.06226 5.63248C5.06226 8.46207 7.28877 10.765 10.0245 10.765ZM10.0245 2.38675C11.7575 2.38675 13.1626 3.84002 13.1626 5.63248C13.1626 7.42495 11.7575 8.87822 10.0245 8.87822C8.29149 8.87822 6.88643 7.42495 6.88643 5.63248C6.88643 3.84002 8.29149 2.38675 10.0245 2.38675Z" fill="white"/>
<path d="M9.68095 26.1571C9.68095 25.6358 9.27337 25.2142 8.76939 25.2142H5.45948V18.9774C5.45948 18.5505 5.12105 18.2004 4.70822 18.2004C4.2954 18.2004 3.95697 18.5505 3.95697 18.9774V25.2197H1.93477V18.933C1.93477 16.214 4.07537 13.9999 6.70423 13.9999H13.3565C13.7054 13.9999 14.0376 14.0389 14.3813 14.117C14.4452 14.1332 14.5154 14.1386 14.5793 14.1386C14.9974 14.1386 15.3735 13.8395 15.4699 13.4006C15.5768 12.8902 15.2719 12.3906 14.7784 12.2746C14.3058 12.1641 13.8396 12.1143 13.3565 12.1143H6.70423C3.06636 12.1132 0.110596 15.1703 0.110596 18.933V25.3584C0.110596 26.324 0.867088 27.1064 1.80065 27.1064H8.76939C9.27337 27.101 9.68095 26.6794 9.68095 26.1571Z" fill="white"/>
<path d="M27.2228 10.765C29.9585 10.765 32.185 8.46207 32.185 5.63248C32.185 2.8029 29.9595 0.5 27.2228 0.5C24.486 0.5 22.2605 2.8029 22.2605 5.63248C22.2605 8.46207 24.487 10.765 27.2228 10.765ZM27.2228 2.38675C28.9558 2.38675 30.3608 3.84002 30.3608 5.63248C30.3608 7.42495 28.9558 8.87822 27.2228 8.87822C25.4897 8.87822 24.0847 7.42495 24.0847 5.63248C24.0847 3.84002 25.4897 2.38675 27.2228 2.38675Z" fill="white"/>
<path d="M37.1107 18.9275C37.1107 17.108 36.4244 15.3989 35.1797 14.1061C33.9349 12.8186 32.2773 12.1088 30.5234 12.1088L23.8763 12.1142C23.3985 12.1142 22.9375 12.164 22.4712 12.2746C21.9777 12.3851 21.6718 12.8901 21.7797 13.4006C21.8761 13.8384 22.2522 14.1386 22.6703 14.1386C22.7342 14.1386 22.8044 14.1331 22.8683 14.1169C23.2068 14.0389 23.5284 13.9999 23.8773 13.9999L30.5244 13.9944C31.7954 13.9944 32.9919 14.5103 33.893 15.4423C34.7941 16.3743 35.2928 17.6119 35.2928 18.9264V25.2131H33.2706V18.9763C33.2706 18.5493 32.9322 18.1993 32.5194 18.1993C32.1065 18.1993 31.7681 18.5493 31.7681 18.9763V25.2185H28.4582C27.9542 25.2185 27.5466 25.6401 27.5466 26.1613C27.5466 26.6826 27.9542 27.1042 28.4582 27.1042H35.4217C36.3553 27.1042 37.1118 26.3217 37.1118 25.3561V18.9253C37.1118 18.929 37.1118 18.929 37.1118 18.9253L37.1107 18.9275Z" fill="white"/>
</g>
<defs>
<clipPath id="clip0_36_286">
<rect width="37" height="40" fill="white" transform="translate(0.110596 0.5)"/>
</clipPath>
</defs>
</svg>
