<svg width="36" height="37" viewBox="0 0 36 37" fill="none" xmlns="http://www.w3.org/2000/svg">
<g clip-path="url(#clip0_36_235)">
<path d="M15.0852 17.8691C15.9488 18.5976 16.8413 19.3513 17.79 20.1733C17.9883 20.3448 18.2345 20.4306 18.4806 20.4306C18.7267 20.4306 18.9729 20.3448 19.1712 20.1733C20.1199 19.3513 21.0124 18.5976 21.876 17.8691C23.3768 16.6028 24.6722 15.5095 25.7968 14.4484C27.9804 12.389 30.0003 10.0511 30.0003 6.91867C30.0003 5.13836 29.3891 3.47055 28.2786 2.2232C27.1105 0.909062 25.4887 0.185547 23.7144 0.185547C21.7333 0.185547 20.0166 1.12211 18.7485 2.89328C18.6536 3.02617 18.5643 3.15906 18.4813 3.29055C18.3983 3.15906 18.309 3.02617 18.2141 2.89328C16.946 1.12211 15.2294 0.185547 13.2482 0.185547C11.4739 0.185547 9.8521 0.909062 8.68256 2.22391C7.57279 3.47125 6.96094 5.13906 6.96094 6.91937C6.96094 8.85437 7.71204 10.6396 9.32394 12.5387C10.7305 14.1953 12.7489 15.8983 15.0852 17.8698V17.8691ZM13.2482 2.29422C14.5205 2.29422 15.6028 2.89328 16.465 4.07453C17.1725 5.04414 17.463 6.04891 17.4644 6.05523C17.591 6.51227 18.0066 6.82797 18.4806 6.82797C18.9546 6.82797 19.3702 6.51156 19.4968 6.05523C19.5074 6.01797 20.575 2.29422 23.713 2.29422C26.095 2.29422 27.8911 4.28266 27.8911 6.91867C27.8911 8.82906 26.8981 10.5102 24.3494 12.9142C23.2671 13.9352 21.9921 15.0109 20.5152 16.2569C19.8583 16.8109 19.1846 17.3798 18.4799 17.9837C17.7752 17.3798 17.1015 16.8109 16.4446 16.2569C11.8452 12.3756 9.06936 10.0328 9.06936 6.91867C9.06936 4.28195 10.8655 2.29422 13.2475 2.29422H13.2482Z" fill="white"/>
<path d="M36 24.5868C36 22.8423 34.5808 21.4234 32.836 21.4234C31.9611 21.4234 31.1172 21.7905 30.5208 22.431L27.4207 25.7582C27.0199 24.4701 25.8173 23.5328 24.3988 23.5328H19.5265C18.8443 23.5328 18.1867 23.2846 17.6747 22.8339C14.9207 20.4109 10.7805 20.3891 8.00047 22.7671C7.4273 21.9557 6.4821 21.4241 5.41523 21.4241H1.05491C0.472602 21.4241 0 21.8959 0 22.4788V35.1323C0 35.7144 0.471898 36.187 1.05491 36.187H5.41452C6.36184 36.187 7.2121 35.7679 7.793 35.107L8.41751 35.2827C10.5541 35.8832 12.7624 36.1877 14.9819 36.1877H24.3995C26.7111 36.1877 28.9187 35.0837 30.3056 33.2352L35.3692 26.4852C35.782 25.9347 36.0007 25.2787 36.0007 24.5889L36 24.5868ZM5.41382 34.0769H2.10912V23.5321H5.41382C5.99543 23.5321 6.46873 24.0053 6.46873 24.5868V33.0222C6.46873 33.6037 5.99543 34.0769 5.41382 34.0769ZM28.617 31.9675C27.6261 33.288 26.0493 34.0762 24.3981 34.0762H14.9805C12.9543 34.0762 10.9381 33.7984 8.98717 33.25L8.57505 33.134C8.57645 33.0967 8.57786 33.0595 8.57786 33.0215V25.0628L9.31278 24.4159C11.2988 22.6687 14.2941 22.6687 16.2801 24.4159C17.1775 25.2055 18.3302 25.6401 19.5258 25.6401H24.3981C24.9797 25.6401 25.453 26.1133 25.453 26.6948C25.453 27.2762 24.9797 27.7494 24.3981 27.7494H16.9025C16.3202 27.7494 15.8476 28.2212 15.8476 28.8041C15.8476 29.387 16.3195 29.8588 16.9025 29.8588H25.1048C25.9797 29.8588 26.8237 29.4918 27.42 28.852L32.0631 23.8682C32.2649 23.6516 32.5392 23.5321 32.8353 23.5321C33.4169 23.5321 33.8902 24.0053 33.8902 24.5868C33.8902 24.8167 33.8177 25.0354 33.6806 25.2182L28.617 31.9682V31.9675Z" fill="white"/>
</g>
<defs>
<clipPath id="clip0_36_235">
<rect width="36" height="36" fill="white" transform="translate(0 0.185547)"/>
</clipPath>
</defs>
</svg>
