<svg width="40" height="40" viewBox="0 0 40 40" fill="none" xmlns="http://www.w3.org/2000/svg">
<g clip-path="url(#clip0_49_113)">
<path d="M7.82059 18.0725L1.07959 24.8135C0.641616 25.2515 0.612474 25.9328 1.01452 26.3348L4.70647 30.0268C5.10852 30.4288 5.79046 30.4003 6.22843 29.9623C7.27904 28.9117 8.91944 28.8409 9.88387 29.8053C10.8483 30.7698 10.7782 32.4095 9.72689 33.4608C9.28892 33.8988 9.25978 34.5801 9.66182 34.9821L13.3538 38.6741C13.7558 39.0761 14.4372 39.047 14.8751 38.609L21.6161 31.868L7.82059 18.0725Z" fill="white"/>
<path d="M29.8562 6.33337C30.2941 5.89539 30.3233 5.21406 29.9206 4.81141L26.2293 1.12006C25.8272 0.718014 25.1459 0.747155 24.7079 1.18513L9.40771 16.4854L23.2039 30.2815L38.5041 14.9813C38.9421 14.5433 38.9712 13.862 38.5691 13.4599L34.8772 9.76797C34.4752 9.36592 33.7932 9.39446 33.3552 9.83243C32.3046 10.883 30.6642 10.9538 29.6998 9.98941C28.7354 9.02498 28.8055 7.38524 29.8568 6.33397L29.8562 6.33337Z" fill="white"/>
</g>
<defs>
<clipPath id="clip0_49_113">
<rect width="35.659" height="19.5107" fill="white" transform="translate(0.286377 25.6067) rotate(-45)"/>
</clipPath>
</defs>
</svg>
