<?xml version="1.0" encoding="utf-8"?>
<!-- Generator: Adobe Illustrator 26.5.0, SVG Export Plug-In . SVG Version: 6.00 Build 0)  -->
<svg version="1.1" id="Layer_1" xmlns="http://www.w3.org/2000/svg" xmlns:xlink="http://www.w3.org/1999/xlink" x="0px" y="0px"
	 viewBox="0 0 96.8 102.9" style="enable-background:new 0 0 96.8 102.9;" xml:space="preserve">
<style type="text/css">
	.st0{fill:#1B2082;}
</style>
<path class="st0" d="M94.5,10.9L94.5,10.9c-2.1-2.1-5.3-2.3-7.7-0.7L85,11.5c-0.6-0.2-1.3-0.3-1.9-0.3H7.8c-4,0-7.4,3.4-7.4,7.4
	v53.3c0,4,3.4,7.4,7.4,7.4h30.3v0.1c-5.9,1.3-9.4,4-9.4,7.4c0,5.6,8.7,8.2,16.8,8.2s16.8-2.6,16.8-8.2c0-3.4-3.5-6.1-9.4-7.4v-0.1
	h30.3c4,0,7.4-3.4,7.4-7.4V23.6l4-4c1.2-1.2,1.8-2.7,1.8-4.3S95.7,12.1,94.5,10.9z M45.5,89.6c-7.3,0-11-2.3-11.4-2.8
	c0.3-0.3,1.6-1.4,4.8-2.2c0.8,1.4,2,2.6,3.4,3.3c1.8,0.8,3.7,0.9,5.6,0.3c1.7-0.6,3.2-1.9,4-3.5c3.3,0.8,4.5,1.8,4.8,2.2
	C56.3,87.4,52.7,89.6,45.5,89.6z M47.6,81.3c0,1.1-0.9,2-2.1,2c-1.1,0-2-0.9-2-2v-2h4V81.3z M85.1,71.9c0,1.1-0.9,2-2.1,2H7.9
	c-1.1,0-2-0.9-2.1-2H85.1z M60.9,43.6c0.3,2-0.4,4.1-2,5.4c-1.2,1.1-5.4,1.6-10.4,1.3c0.4-3.4,1.2-9.1,4.1-10.8
	c1.2-0.7,2.8-0.8,4.6-0.2C57.5,41.4,58.9,43,60.9,43.6z M63.1,38.6c-0.2,0.2-0.5,0.1-0.7-0.1c-0.2-0.2-0.1-0.5,0-0.6l0.4-0.3
	l0.6,0.7L63.1,38.6z M62.5,27.3c-1.8,1.3-2.8,3.4-2.4,5.7c-0.5,0.4-0.9,0.8-1.3,1.2c-4.9-1.8-10.4,0.3-13,4.9C44,43.6,43,48.2,43,53
	c-4,5.7-11,8.1-17.8,6c-6.9-2.1-11.4-8.2-11.4-15.4c0-8.9,7.2-16.2,16.2-16.2c4.5,0,8.9,2,11.9,5.3c0.5,0.5,1.2,0.8,1.9,0.8
	c0.7,0,1.4-0.2,2-0.7c1.1-1,1.1-2.7,0.2-3.7c-3.8-4.2-9.2-6.7-14.9-7c-5.7-0.3-11.2,1.7-15.5,5.6c-4.6,4.1-7.2,9.9-7.2,16
	c0.1,9.8,6.2,17.8,15.6,20.6c9.2,2.6,18.4-0.8,23.8-8.6c5,0.3,11.5,0.2,14.7-2.5c3-2.5,4.4-6.4,3.8-10.3c0.5-0.3,1-0.7,1.4-1.1
	c2.1,0.7,4.4,0.2,6-1.4L85.1,29v37.7H5.9v-48c0-1.1,0.9-2.1,2.1-2.1h69.8L62.5,27.3z M69.5,36.8c-0.2,0-0.3-0.1-0.4-0.2l-3.6-4.3
	c-0.1-0.1-0.1-0.2-0.1-0.3c0-0.1,0-0.2,0.2-0.3c0.9-0.6,7.7-5.4,13.9-9.8c5.2-3.6,10.1-7,10.3-7.3c0.1-0.1,0.3-0.1,0.4-0.1h0.1
	c0.2,0,0.4,0.2,0.5,0.3c0.2,0.3,0.2,0.7-0.1,0.9l-20.9,21C69.7,36.7,69.6,36.8,69.5,36.8z"/>
</svg>
