<?xml version="1.0" encoding="utf-8"?>
<!-- Generator: Adobe Illustrator 26.5.0, SVG Export Plug-In . SVG Version: 6.00 Build 0)  -->
<svg version="1.1" id="Layer_1" xmlns="http://www.w3.org/2000/svg" xmlns:xlink="http://www.w3.org/1999/xlink" x="0px" y="0px"
	 viewBox="0 0 200 200" style="enable-background:new 0 0 200 200;" xml:space="preserve">
<style type="text/css">
	.st0{fill:#1B2082;}
</style>
<g>
	<path class="st0" d="M182.1,18.1l-4.6,3.2c-1.4-0.5-2.8-0.7-4.3-0.8h-156c-7.2,0-13,5.8-13,13V144c0,7.2,5.8,13,13,13h65v4.4
		c-12.1,2.2-19.5,7.3-19.5,13.5c0,9.6,16.4,14.6,32.5,14.6s32.5-5,32.5-14.6c0-6.2-7.4-11.3-19.5-13.5V157h65c7.2,0,13-5.8,13-13V43
		l9.1-9.1c4-4.1,3.9-10.6-0.2-14.6C191.6,15.8,186.2,15.3,182.1,18.1L182.1,18.1z M121.2,174.9c0,2.8-9.2,8.1-26,8.1s-26-5.4-26-8.1
		c0-2,4.8-5.3,13.8-7c2.4,6.7,9.9,10.2,16.6,7.8c3.6-1.3,6.4-4.2,7.8-7.8C116.4,169.6,121.2,172.9,121.2,174.9z M101.7,163.5
		c0,3.6-3,6.5-6.6,6.4c-3.5,0-6.4-2.9-6.4-6.4V157h13V163.5z M173.2,150.5c-44.2,0-112.6,0-156,0c-3.6,0-6.5-2.9-6.5-6.5v-2.2h169
		v2.2C179.7,147.6,176.8,150.5,173.2,150.5z M179.7,135.4h-169V33.5c0-3.6,2.9-6.5,6.5-6.5h152.1l-37.5,26.3
		c-3.4,2.4-4.9,6.8-3.7,10.8c-1.7,1.3-3.3,2.7-4.7,4.3C114,64.2,103,67.9,98,76.9c-3.9,9.1-5.9,18.8-5.8,28.7
		c-19.7,28.9-65.1,15-65.2-20c0-19.7,16-35.7,35.7-35.8c10.1,0,19.7,4.2,26.4,11.7c1.2,1.3,3.3,1.4,4.6,0.1c1.3-1.2,1.4-3.2,0.2-4.5
		c-15.7-17.3-42.4-18.5-59.7-2.8c-8.8,8-13.8,19.3-13.8,31.2c0.4,42.3,55.3,58.1,78,22.4c9.2,0.7,23.9,0.8,30.2-4.5
		c5.9-5,8.6-12.9,6.9-20.5c1.8-1.1,3.5-2.4,5.1-3.8c3.8,1.9,8.3,1.2,11.3-1.8l27.8-27.8L179.7,135.4z M124.5,98.5
		c-4,3.4-15.9,3.7-25.8,3c1.4-12.5,3.8-34,22.8-26.7c0.2,4.3,3.3,8,7.5,8.9C130.5,89.1,128.7,94.8,124.5,98.5z M133.3,76.7
		c-1.4,1.1-3.4,0.9-4.6-0.5c-1.1-1.4-0.9-3.4,0.4-4.5l2.5-2.1l4.2,5L133.3,76.7z M190.8,29.3l-43.5,43.4c-1.3,1.3-3.3,1.3-4.6,0
		c-0.1-0.1-0.1-0.1-0.2-0.2l-3.8-4.5l-3.8-4.5c-1.2-1.4-1-3.4,0.4-4.6c0.1-0.1,0.1-0.1,0.2-0.2c3.3-2.3,48.7-34.2,50.3-35.3
		c1.8-1.2,4.2-0.7,5.3,1C192.2,25.9,192,27.9,190.8,29.3L190.8,29.3z"/>
	<path class="st0" d="M95.2,190c-16.4,0-33-5.2-33-15.1c0-6.4,7.3-11.6,19.5-13.9v-3.5H17.2c-7.4,0-13.5-6.1-13.5-13.5V33.5
		C3.7,26.1,9.8,20,17.2,20h156c1.4,0,2.9,0.2,4.2,0.7l4.4-3.1c4.3-2.9,10-2.4,13.7,1.2c4.3,4.2,4.4,11.1,0.2,15.3l-9,9V144
		c0,7.4-6.1,13.5-13.5,13.5h-64.5v3.5c12.2,2.3,19.5,7.5,19.5,13.9C128.2,184.9,111.6,190,95.2,190z M17.2,21
		c-6.9,0-12.5,5.6-12.5,12.5V144c0,6.9,5.6,12.5,12.5,12.5h65.5v5.3l-0.4,0.1c-11.9,2.2-19.1,7-19.1,13c0,7,11,14.1,32,14.1
		c21,0,32-7.1,32-14.1c0-6-7.1-10.8-19.1-13l-0.4-0.1v-5.3h65.5c6.9,0,12.5-5.6,12.5-12.5V42.8l9.3-9.3c3.8-3.9,3.7-10.1-0.2-13.9
		c-3.3-3.3-8.6-3.7-12.4-1.1l-4.8,3.4l-0.2-0.1c-1.3-0.5-2.7-0.7-4.1-0.7H17.2z M95.2,183.5c-16.2,0-26.5-5.1-26.5-8.6
		c0-2.3,5-5.7,14.2-7.5l0.4-0.1l0.1,0.4c1.1,3.1,3.4,5.6,6.4,7c3,1.4,6.4,1.6,9.5,0.4c3.5-1.3,6.2-4,7.5-7.5l0.1-0.4l0.4,0.1
		c9.2,1.8,14.2,5.2,14.2,7.5C121.7,178.4,111.4,183.5,95.2,183.5z M82.7,168.5c-9.2,1.8-13,5.1-13,6.4c0,2.3,8.7,7.6,25.5,7.6
		c16.8,0,25.5-5.3,25.5-7.6c0-1.4-3.8-4.6-13-6.4c-1.4,3.6-4.3,6.3-7.9,7.7C93,178.6,85.4,175.2,82.7,168.5z M95.2,170.5
		C95.2,170.5,95.1,170.5,95.2,170.5c-3.9,0-7-3.1-7-6.9v-7h14v7c0,1.9-0.8,3.6-2.1,4.9C98.8,169.8,97,170.5,95.2,170.5z M89.2,157.5
		v6c0,3.2,2.7,5.9,5.9,5.9c1.6,0,3.1-0.6,4.3-1.7c1.1-1.1,1.8-2.6,1.8-4.2v-6H89.2z M173.2,151h-156c-3.9,0-7-3.1-7-7v-2.7h170v2.7
		C180.2,147.9,177.1,151,173.2,151z M11.2,142.4v1.7c0,3.3,2.7,6,6,6h156c3.3,0,6-2.7,6-6v-1.7H11.2z M180.2,135.9h-170V33.5
		c0-3.9,3.1-7,7-7h153.7l-38.8,27.2c-3.3,2.3-4.7,6.4-3.5,10.2l0.1,0.3l-0.3,0.2c-1.7,1.3-3.2,2.7-4.6,4.2l-0.2,0.3l-0.3-0.2
		c-9.1-4.1-19.9-0.4-24.7,8.3c-3.9,9-5.8,18.6-5.8,28.4l0,0.2l-0.1,0.1c-9.1,13.3-25,18.9-40.5,14.2c-15.5-4.8-25.6-18.3-25.7-34.5
		c0-20,16.3-36.2,36.2-36.3c0,0,0,0,0,0c10.2,0,19.9,4.3,26.8,11.8c1,1.1,2.8,1.1,3.9,0.1c1.1-1,1.2-2.7,0.2-3.8
		c-15.5-17-42-18.2-59-2.7C25.9,62.6,20.9,73.8,21,85.5c0.2,19.1,12.1,34.7,30.3,40c18.2,5.2,36.6-1.8,46.8-17.8l0.2-0.3l0.3,0
		c8.4,0.6,23.5,0.9,29.8-4.4c5.8-4.9,8.4-12.6,6.7-20l-0.1-0.3l0.3-0.2c1.8-1.1,3.5-2.4,5-3.8l0.3-0.2l0.3,0.2
		c3.6,1.8,7.9,1.1,10.7-1.7l28.7-28.7V135.9z M11.2,134.9h168V50.7l-27,27c-3.1,3-7.7,3.8-11.5,2c-1.4,1.3-3,2.5-4.6,3.5
		c1.6,7.7-1.1,15.6-7.1,20.7c-6.5,5.5-21.6,5.3-30.2,4.7c-10.5,16.3-29.2,23.3-47.8,18c-18.7-5.4-30.9-21.4-31-40.9
		c0-12,5.1-23.5,14-31.6c17.4-15.9,44.5-14.6,60.4,2.8c1.3,1.5,1.2,3.8-0.2,5.2c-1.5,1.4-3.9,1.4-5.3-0.1
		c-6.7-7.3-16.2-11.5-26.1-11.5c0,0,0,0,0,0c-19.4,0-35.2,15.8-35.2,35.3c0.1,15.8,9.9,28.9,25,33.5c15,4.6,30.4-0.8,39.3-13.7
		c-0.1-9.9,1.9-19.6,5.9-28.7c5-9.1,16.2-12.9,25.7-8.9c1.3-1.4,2.7-2.7,4.2-3.9c-1.1-4.1,0.5-8.5,4-11l36.2-25.4H17.2
		c-3.3,0-6,2.7-6,6V134.9z M107.1,102.3c-3.6,0-6.7-0.2-8.4-0.3l-0.5,0l0.1-0.7c1-8.8,2.5-22.2,10.1-26.8c3.5-2.1,8-2.2,13.3-0.2
		l0.3,0.1l0,0.3c0.2,4.1,3.1,7.6,7.1,8.5l0.3,0.1l0.1,0.3c1.5,5.6-0.3,11.6-4.7,15.3l0,0C121.5,101.6,113.6,102.3,107.1,102.3z
		 M99.3,101c9.6,0.7,21.1,0.3,24.9-2.9l0,0c4-3.4,5.8-8.9,4.5-14c-4.2-1.1-7.2-4.7-7.6-9c-4.9-1.8-9-1.7-12.2,0.2
		C101.8,79.6,100.3,92.4,99.3,101z M131.3,77.9c-1.1,0-2.2-0.5-2.9-1.4c-1.3-1.6-1.1-3.9,0.5-5.2l2.9-2.4l4.8,5.7l-2.9,2.4
		C132.9,77.6,132.1,77.9,131.3,77.9z M131.6,70.3l-2.1,1.8c-1.1,1-1.3,2.7-0.3,3.8c0.5,0.6,1.1,0.9,1.9,1c0.7,0.1,1.4-0.1,2-0.6
		l2.1-1.8L131.6,70.3z M145,74.1c-1,0-1.9-0.4-2.7-1.1c-0.1-0.1-0.1-0.1-0.2-0.2l-7.6-9.1c-0.6-0.8-0.9-1.8-0.9-2.8
		c0.1-1,0.6-1.9,1.3-2.5c0.1-0.1,0.2-0.1,0.2-0.2c1.8-1.2,15.3-10.7,27.9-19.6c11.2-7.9,21.7-15.2,22.4-15.7c1-0.7,2.1-0.9,3.3-0.7
		c1.1,0.2,2.1,0.9,2.8,1.8c1.1,1.7,0.9,4-0.5,5.5L147.6,73C146.9,73.8,145.9,74.1,145,74.1z M188,23.2c-0.7,0-1.3,0.2-1.9,0.6
		c-0.7,0.5-11.2,7.8-22.4,15.7c-12.6,8.8-26.1,18.3-27.9,19.6c-0.1,0-0.1,0.1-0.2,0.1c-1.2,1-1.3,2.7-0.4,3.9l7.6,9.1
		c0,0.1,0.1,0.1,0.1,0.2c1.1,1.1,2.8,1.1,3.9,0l43.5-43.4c1.1-1.1,1.2-2.9,0.4-4.2c-0.5-0.7-1.3-1.2-2.1-1.4
		C188.4,23.2,188.2,23.2,188,23.2z"/>
</g>
</svg>
