<?xml version="1.0" encoding="utf-8"?>
<!-- Generator: Adobe Illustrator 25.4.1, SVG Export Plug-In . SVG Version: 6.00 Build 0)  -->
<svg version="1.1" id="Layer_1" xmlns="http://www.w3.org/2000/svg" xmlns:xlink="http://www.w3.org/1999/xlink" x="0px" y="0px"
	 viewBox="0 0 97.1 69.3" style="enable-background:new 0 0 97.1 69.3;" xml:space="preserve">
<style type="text/css">
	.st0{fill:#2D307B;}
</style>
<g>
	<g>
		<path class="st0" d="M83.3,1.3h-43c-1.2,0-2.3,0.5-3.1,1.3c-0.8,0.8-1.3,2-1.3,3.1v16.7H13.8c-2.5,0-4.4,2-4.4,4.4v28.2
			c0,2.5,2,4.4,4.4,4.4h8.5L22,66.5c0,0.5,0.3,1.1,0.7,1.3c0.5,0.2,1.1,0.2,1.5,0l15-8.3h17.8c1.2,0,2.3-0.5,3.1-1.3
			c0.8-0.8,1.3-2,1.3-3.1V41.8h2.6l11.9,8.4c0.5,0.3,1.1,0.3,1.6,0.1c0.5-0.2,0.9-0.8,0.9-1.4v-7.1h4.9c1.2,0,2.3-0.5,3.1-1.3
			c0.8-0.8,1.3-2,1.3-3.1V5.7c0-1.2-0.5-2.3-1.3-3.2C85.6,1.7,84.5,1.3,83.3,1.3L83.3,1.3z M58.4,55.1c0,0.4-0.1,0.7-0.4,1
			c-0.3,0.3-0.6,0.4-1,0.4H38.8c-0.3,0-0.5,0.1-0.7,0.2l-13,7.2l0.2-5.8c0-0.4-0.2-0.8-0.5-1.1c-0.3-0.3-0.7-0.5-1.1-0.5h-10
			c-0.4,0-0.7-0.1-1-0.4c-0.3-0.3-0.4-0.6-0.4-1V26.9c0-0.8,0.6-1.4,1.4-1.4h22.1v11.9c0,2.5,2,4.4,4.4,4.4h18.1V55.1z M84.7,37.3
			c0,0.4-0.1,0.7-0.4,1s-0.6,0.4-1,0.4h-6.5c-0.8,0-1.5,0.7-1.5,1.5v5.7L65.4,39c-0.3-0.2-0.6-0.3-0.9-0.3H40.3
			c-0.4,0-0.7-0.1-1-0.4s-0.4-0.6-0.4-1V5.7c0-0.4,0.1-0.7,0.4-1c0.3-0.3,0.6-0.4,1-0.4h43c0.4,0,0.7,0.1,1,0.4s0.4,0.6,0.4,1V37.3z
			 M84.7,37.3"/>
	</g>
	<path class="st0" d="M50.2,13.4H47c-1,0-1.8,0.8-1.8,1.8s0.8,1.8,1.8,1.8h3.2c1,0,1.8-0.8,1.8-1.8S51.2,13.4,50.2,13.4z"/>
	<path class="st0" d="M62.9,13.4h-3.2c-1,0-1.8,0.8-1.8,1.8s0.8,1.8,1.8,1.8h3.2c1,0,1.8-0.8,1.8-1.8S63.9,13.4,62.9,13.4L62.9,13.4
		z"/>
	<path class="st0" d="M75.8,13.4h-3.2c-1,0-1.8,0.8-1.8,1.8s0.8,1.8,1.8,1.8h3.2c1,0,1.8-0.8,1.8-1.8S76.8,13.4,75.8,13.4L75.8,13.4
		z"/>
	<path class="st0" d="M50.2,24.7H47c-1,0-1.8,0.8-1.8,1.8s0.8,1.8,1.8,1.8h3.2c1,0,1.8-0.8,1.8-1.8S51.2,24.7,50.2,24.7z"/>
	<path class="st0" d="M62.9,24.7h-3.2c-1,0-1.8,0.8-1.8,1.8s0.8,1.8,1.8,1.8h3.2c1,0,1.8-0.8,1.8-1.8S63.9,24.7,62.9,24.7L62.9,24.7
		z"/>
	<path class="st0" d="M75.8,24.7h-3.2c-1,0-1.8,0.8-1.8,1.8s0.8,1.8,1.8,1.8h3.2c1,0,1.8-0.8,1.8-1.8S76.8,24.7,75.8,24.7L75.8,24.7
		z"/>
</g>
</svg>
