<?xml version="1.0" encoding="utf-8"?>
<!-- Generator: Adobe Illustrator 25.4.1, SVG Export Plug-In . SVG Version: 6.00 Build 0)  -->
<svg version="1.1" id="Layer_1" xmlns="http://www.w3.org/2000/svg" xmlns:xlink="http://www.w3.org/1999/xlink" x="0px" y="0px"
	 viewBox="0 0 97.1 69.3" style="enable-background:new 0 0 97.1 69.3;" xml:space="preserve">
<style type="text/css">
	.st0{fill:#2C307C;}
</style>
<g>
	<path class="st0" d="M80.5,7.5h-4.6V3.8c0-1.1-0.9-1.9-1.9-1.9S72,2.7,72,3.8v3.7H53.1V3.8c0-1.1-0.9-1.9-1.9-1.9s-1.9,0.9-1.9,1.9
		v3.7H30.2V3.8c0-1.1-0.9-1.9-1.9-1.9c-1.1,0-1.9,0.9-1.9,1.9v3.7h-4.4c-4.2,0-7.7,3.6-7.7,7.8V60c0,4.3,3.4,7.7,7.7,7.7l0,0h58.5
		c4.3,0,7.7-3.4,7.7-7.7l0,0V15.3C88.2,11,84.7,7.5,80.5,7.5z M84.3,60c0,2.1-1.7,3.8-3.8,3.8h0H21.9c-2.1,0-3.8-1.7-3.8-3.8v0V15.3
		c0-2.1,1.7-3.9,3.8-3.9h4.4v2.8c0,1.1,0.9,1.9,1.9,1.9c1.1,0,1.9-0.9,1.9-1.9v-2.8h19.1v2.8c0,1.1,0.9,1.9,1.9,1.9s1.9-0.9,1.9-1.9
		v-2.8H72v2.8c0,1.1,0.9,1.9,1.9,1.9s1.9-0.9,1.9-1.9v-2.8h4.6c2.1,0,3.8,1.8,3.8,3.9V60z"/>
	<path class="st0" d="M46.1,23.8h-3.4c-1.1,0-1.9,0.9-1.9,1.9s0.9,1.9,1.9,1.9h3.4c1.1,0,1.9-0.9,1.9-1.9S47.2,23.8,46.1,23.8z"/>
	<path class="st0" d="M59.5,23.8h-3.4c-1.1,0-1.9,0.9-1.9,1.9s0.9,1.9,1.9,1.9h3.4c1.1,0,1.9-0.9,1.9-1.9S60.6,23.8,59.5,23.8
		L59.5,23.8z"/>
	<path class="st0" d="M73,23.8h-3.4c-1.1,0-1.9,0.9-1.9,1.9s0.9,1.9,1.9,1.9H73c1.1,0,1.9-0.9,1.9-1.9S74.1,23.8,73,23.8L73,23.8z"
		/>
	<path class="st0" d="M46.1,37.1h-3.4c-1.1,0-1.9,0.9-1.9,1.9s0.9,1.9,1.9,1.9h3.4c1.1,0,1.9-0.9,1.9-1.9S47.2,37.1,46.1,37.1z"/>
	<path class="st0" d="M32.6,37.1h-3.4c-1.1,0-1.9,0.9-1.9,1.9s0.9,1.9,1.9,1.9h3.4c1.1,0,1.9-0.9,1.9-1.9S33.7,37.1,32.6,37.1z"/>
	<path class="st0" d="M59.5,37.1h-3.4c-1.1,0-1.9,0.9-1.9,1.9s0.9,1.9,1.9,1.9h3.4c1.1,0,1.9-0.9,1.9-1.9S60.6,37.1,59.5,37.1
		L59.5,37.1z"/>
	<path class="st0" d="M73,37.1h-3.4c-1.1,0-1.9,0.9-1.9,1.9s0.9,1.9,1.9,1.9H73c1.1,0,1.9-0.9,1.9-1.9S74.1,37.1,73,37.1L73,37.1z"
		/>
	<path class="st0" d="M46.1,50.2h-3.4c-1.1,0-1.9,0.9-1.9,1.9c0,1.1,0.9,1.9,1.9,1.9h3.4c1.1,0,1.9-0.9,1.9-1.9
		C48.1,51.1,47.2,50.2,46.1,50.2z"/>
	<path class="st0" d="M32.6,50.2h-3.4c-1.1,0-1.9,0.9-1.9,1.9c0,1.1,0.9,1.9,1.9,1.9h3.4c1.1,0,1.9-0.9,1.9-1.9
		C34.5,51.1,33.7,50.2,32.6,50.2z"/>
	<path class="st0" d="M59.5,50.2h-3.4c-1.1,0-1.9,0.9-1.9,1.9c0,1.1,0.9,1.9,1.9,1.9h3.4c1.1,0,1.9-0.9,1.9-1.9
		C61.5,51.1,60.6,50.2,59.5,50.2L59.5,50.2z"/>
</g>
</svg>
