<?xml version="1.0" encoding="utf-8"?>
<!-- Generator: Adobe Illustrator 26.0.1, SVG Export Plug-In . SVG Version: 6.00 Build 0)  -->
<svg version="1.1" id="Layer_1" xmlns="http://www.w3.org/2000/svg" xmlns:xlink="http://www.w3.org/1999/xlink" x="0px" y="0px"
	 viewBox="0 0 200 200" style="enable-background:new 0 0 200 200;" xml:space="preserve">
<style type="text/css">
	.st0{fill:none;stroke:#2E3192;stroke-width:7;stroke-linecap:round;stroke-linejoin:round;stroke-miterlimit:10;}
	.st1{fill:none;stroke:#2E3192;stroke-width:7;stroke-linecap:round;stroke-linejoin:round;stroke-miterlimit:9.9999;}
</style>
<path class="st0" d="M178,149.4H21.5c-9.6,0-17.3-7.7-17.3-17.3V33.2c0-9.6,7.8-17.3,17.3-17.3H178c9.6,0,17.3,7.7,17.3,17.3v98.9
	C195.3,141.6,187.5,149.4,178,149.4z"/>
<line class="st0" x1="94.4" y1="137.8" x2="105.2" y2="137.8"/>
<line class="st0" x1="4.2" y1="127.1" x2="195.3" y2="127.1"/>
<line class="st0" x1="81.4" y1="170.8" x2="83.4" y2="149.3"/>
<line class="st0" x1="116.1" y1="149.3" x2="118.1" y2="170.8"/>
<line class="st0" x1="62.5" y1="170.8" x2="137" y2="170.8"/>
<line class="st0" x1="185.2" y1="43.6" x2="169" y2="27.4"/>
<line class="st0" x1="183.1" y1="60.1" x2="152.6" y2="29.8"/>
<polyline class="st0" points="118.7,113.4 118.7,81.4 133.7,81.4 133.7,113.4 "/>
<polyline class="st0" points="133.7,113.4 133.7,57.1 148.6,57.1 148.6,113.4 "/>
<polyline class="st0" points="148.6,113.4 148.6,71.1 163.5,71.1 163.5,113.4 "/>
<polyline class="st0" points="103.5,113.4 103.5,97.5 118.4,97.5 118.4,113.4 "/>
<polyline class="st0" points="24.8,78.7 24.8,111.4 76.9,111.4 "/>
<polyline class="st0" points="35.1,102.1 43,83.4 55,91.4 63.9,78.2 74.1,102.1 "/>
<ellipse class="st1" cx="45.5" cy="47.2" rx="18.1" ry="18.1"/>
<polyline class="st0" points="45.5,29.1 45.5,47.2 63.6,47.2 "/>
<line class="st0" x1="81.5" y1="36.3" x2="117.1" y2="36.3"/>
<line class="st0" x1="81.5" y1="60.1" x2="107.9" y2="60.1"/>
<line class="st0" x1="81.5" y1="48.3" x2="117.1" y2="48.3"/>
</svg>
