<?xml version="1.0" encoding="utf-8"?>
<!-- Generator: Adobe Illustrator 26.0.1, SVG Export Plug-In . SVG Version: 6.00 Build 0)  -->
<svg version="1.1" id="Layer_1" xmlns="http://www.w3.org/2000/svg" xmlns:xlink="http://www.w3.org/1999/xlink" x="0px" y="0px"
	 viewBox="0 0 200 200" style="enable-background:new 0 0 200 200;" xml:space="preserve">
<style type="text/css">
	.st0{fill:none;stroke:#2E3192;stroke-width:2.5;stroke-linecap:round;stroke-linejoin:round;stroke-miterlimit:10;}
	
		.st1{fill:none;stroke:#2E3192;stroke-width:2.5;stroke-linecap:round;stroke-linejoin:round;stroke-miterlimit:10;stroke-dasharray:0.7302,3.651;}
</style>
<path class="st0" d="M178.9,150.1H20.6c-9.7,0-17.5-7.8-17.5-17.5V32.5C3.1,22.8,11,15,20.6,15h158.3c9.7,0,17.5,7.8,17.5,17.5
	v100.1C196.4,142.2,188.6,150.1,178.9,150.1z"/>
<line class="st0" x1="94.3" y1="138.3" x2="105.3" y2="138.3"/>
<line class="st0" x1="3.1" y1="127.5" x2="196.4" y2="127.5"/>
<line class="st0" x1="81.2" y1="171.7" x2="83.2" y2="150"/>
<line class="st0" x1="116.3" y1="150" x2="118.3" y2="171.7"/>
<line class="st0" x1="62.1" y1="171.7" x2="137.4" y2="171.7"/>
<line class="st0" x1="185.2" y1="44.2" x2="168.8" y2="27.8"/>
<line class="st0" x1="168.6" y1="44.3" x2="153.2" y2="29"/>
<line class="st1" x1="184" y1="59.7" x2="168.6" y2="44.3"/>
<polyline class="st0" points="123.8,113.6 123.8,81.3 137.3,81.3 137.3,113.6 "/>
<polyline class="st0" points="137.3,113.6 137.3,56.7 150.8,56.7 150.8,113.6 "/>
<polyline class="st0" points="150.8,113.6 150.8,70.8 164.3,70.8 164.3,113.6 "/>
<polyline class="st0" points="110,113.6 110,97.6 123.5,97.6 123.5,113.6 "/>
<polyline class="st0" points="33.5,79 33.5,113.6 88.7,113.6 "/>
<polyline class="st0" points="44.4,103.8 52.8,84 58.6,95.2 63.8,87.2 69.5,91 74.9,78.5 85.7,103.8 "/>
<ellipse transform="matrix(0.7071 -0.7071 0.7071 0.7071 -19.6997 51.2003)" class="st0" cx="52" cy="49.4" rx="18.3" ry="18.3"/>
<polyline class="st0" points="52,31.1 52,49.4 70.3,49.4 "/>
<line class="st0" x1="101.5" y1="37.3" x2="119.7" y2="37.3"/>
<line class="st0" x1="101.5" y1="61.4" x2="110.4" y2="61.4"/>
<line class="st0" x1="101.5" y1="49.4" x2="119.7" y2="49.4"/>
<line class="st0" x1="87.5" y1="37.3" x2="90.6" y2="37.3"/>
<line class="st0" x1="87.5" y1="61.4" x2="90.6" y2="61.4"/>
<line class="st0" x1="87.5" y1="49.4" x2="90.6" y2="49.4"/>
</svg>
