<?xml version="1.0" encoding="utf-8"?>
<!-- Generator: Adobe Illustrator 26.0.1, SVG Export Plug-In . SVG Version: 6.00 Build 0)  -->
<svg version="1.1" id="Layer_1" xmlns="http://www.w3.org/2000/svg" xmlns:xlink="http://www.w3.org/1999/xlink" x="0px" y="0px"
	 viewBox="0 0 200 200" style="enable-background:new 0 0 200 200;" xml:space="preserve">
<style type="text/css">
	.st0{fill:none;stroke:#2E3192;stroke-width:2.5;stroke-linecap:round;stroke-linejoin:round;stroke-miterlimit:10;}
</style>
<path class="st0" d="M176.1,136c10.8-13.3,17.3-30.3,17.3-48.7c0-42.7-34.6-77.2-77.2-77.2c-42.7,0-77.2,34.6-77.2,77.2
	s34.6,77.2,77.2,77.2c14.3,0,27.6-3.9,39.1-10.6c18.3,10,35.9,10.6,35.9,10.6S179.9,151.7,176.1,136z"/>
<path class="st0" d="M131.1,174.7c-12.9,9.6-28.9,15.3-46.2,15.3c-14.3,0-27.6-3.9-39.1-10.6C27.4,189.4,9.9,190,9.9,190
	s11.2-12.8,15.1-28.5c-10.8-13.3-17.3-30.3-17.3-48.7c0-22.8,9.9-43.3,25.6-57.5"/>
<line class="st0" x1="96.3" y1="96.1" x2="116.2" y2="115"/>
<line class="st0" x1="162.6" y1="59.4" x2="116.2" y2="115"/>
</svg>
