<?xml version="1.0" encoding="utf-8"?>
<!-- Generator: Adobe Illustrator 26.0.1, SVG Export Plug-In . SVG Version: 6.00 Build 0)  -->
<svg version="1.1" id="Layer_1" xmlns="http://www.w3.org/2000/svg" xmlns:xlink="http://www.w3.org/1999/xlink" x="0px" y="0px"
	 viewBox="0 0 200 200" style="enable-background:new 0 0 200 200;" xml:space="preserve">
<style type="text/css">
	.st0{fill:none;stroke:#2E3192;stroke-width:2.5;stroke-linecap:round;stroke-linejoin:round;stroke-miterlimit:10;}
</style>
<path class="st0" d="M60,2h104.4c4.9,0,8.8,3.9,8.8,8.8v177.5c0,4.9-3.9,8.8-8.8,8.8H37c-4.9,0-8.8-3.9-8.8-8.8V33.8
	c0-2.3,0.9-4.6,2.6-6.2l23-23C55.4,2.9,57.7,2,60,2z"/>
<path class="st0" d="M30.2,30.2h24.5c2.1,0,3.7-1.7,3.7-3.7V2.2"/>
<line class="st0" x1="105.3" y1="52" x2="147.6" y2="52"/>
<line class="st0" x1="53.8" y1="52" x2="81" y2="52"/>
<line class="st0" x1="134.9" y1="71.4" x2="147.6" y2="71.4"/>
<line class="st0" x1="53.8" y1="71.4" x2="111.7" y2="71.4"/>
<line class="st0" x1="53.8" y1="129.5" x2="115" y2="129.5"/>
<line class="st0" x1="93" y1="110.2" x2="147.6" y2="110.2"/>
<line class="st0" x1="53.8" y1="110.2" x2="69.8" y2="110.2"/>
<line class="st0" x1="53.8" y1="90.8" x2="147.6" y2="90.8"/>
</svg>
