<?xml version="1.0" encoding="utf-8"?>
<!-- Generator: Adobe Illustrator 25.4.1, SVG Export Plug-In . SVG Version: 6.00 Build 0)  -->
<svg version="1.1" id="Layer_1" xmlns="http://www.w3.org/2000/svg" xmlns:xlink="http://www.w3.org/1999/xlink" x="0px" y="0px"
	 viewBox="0 0 96.8 102.9" style="enable-background:new 0 0 96.8 102.9;" xml:space="preserve">
<style type="text/css">
	.st0{fill:#1B2082;}
</style>
<g>
	<path class="st0" d="M78.7,3H29.4c-5.5,0-9.9,4.2-9.9,9.4v3.1h-6.8c-3.7,0-6.8,3-6.8,6.8v73.9c0,3.7,3,6.8,6.8,6.8h55.6
		c3.7,0,6.8-3,6.8-6.8v-5.7h3.7c5.5,0,9.9-4.2,9.9-9.4V12.4C88.6,7.2,84.2,3,78.7,3L78.7,3z M68.8,96.1c0,0.3-0.2,0.5-0.5,0.5H12.6
		c-0.3,0-0.5-0.2-0.5-0.5V22.3c0-0.3,0.2-0.5,0.5-0.5h55.6c0.3,0,0.5,0.2,0.5,0.5V96.1z M82.4,81.1c0,1.7-1.6,3.1-3.7,3.1H75V22.3
		c0-3.7-3-6.8-6.8-6.8H25.7v-3.1c0-1.7,1.6-3.1,3.7-3.1h49.3c2,0,3.7,1.4,3.7,3.1V81.1z M82.4,81.1"/>
	<path class="st0" d="M55.8,45.2H26.1c-1.7,0-3.1-1.4-3.1-3.1c0-1.7,1.4-3.1,3.1-3.1h29.7c1.7,0,3.1,1.4,3.1,3.1
		C58.9,43.8,57.5,45.2,55.8,45.2L55.8,45.2z M55.8,45.2"/>
	<path class="st0" d="M55.8,57.6H26.1c-1.7,0-3.1-1.4-3.1-3.1c0-1.7,1.4-3.1,3.1-3.1h29.7c1.7,0,3.1,1.4,3.1,3.1
		C58.9,56.2,57.5,57.6,55.8,57.6L55.8,57.6z M55.8,57.6"/>
	<path class="st0" d="M55.8,70.1H26.1c-1.7,0-3.1-1.4-3.1-3.1c0-1.7,1.4-3.1,3.1-3.1h29.7c1.7,0,3.1,1.4,3.1,3.1
		C58.9,68.7,57.5,70.1,55.8,70.1L55.8,70.1z M55.8,70.1"/>
</g>
</svg>
