<?xml version="1.0" encoding="utf-8"?>
<!-- Generator: Adobe Illustrator 26.0.1, SVG Export Plug-In . SVG Version: 6.00 Build 0)  -->
<svg version="1.1" id="Layer_1" xmlns="http://www.w3.org/2000/svg" xmlns:xlink="http://www.w3.org/1999/xlink" x="0px" y="0px"
	 viewBox="0 0 200 200" style="enable-background:new 0 0 200 200;" xml:space="preserve">
<style type="text/css">
	.st0{fill:none;stroke:#2E3192;stroke-width:7;stroke-linecap:round;stroke-linejoin:round;stroke-miterlimit:10;}
</style>
<path class="st0" d="M61.4,5.4h100.7c4.7,0,8.5,3.8,8.5,8.5v171.3c0,4.7-3.8,8.5-8.5,8.5H39.2c-4.7,0-8.5-3.8-8.5-8.5V36.1
	c0-2.2,0.9-4.4,2.5-6L55.4,7.9C57,6.3,59.2,5.4,61.4,5.4z"/>
<path class="st0" d="M32.7,32.6h23.6c2,0,3.6-1.6,3.6-3.6V5.6"/>
<line class="st0" x1="105.1" y1="53.7" x2="146" y2="53.7"/>
<line class="st0" x1="55.4" y1="53.7" x2="81.7" y2="53.7"/>
<line class="st0" x1="133.7" y1="72.4" x2="146" y2="72.4"/>
<line class="st0" x1="55.4" y1="72.4" x2="111.3" y2="72.4"/>
<line class="st0" x1="55.4" y1="128.4" x2="114.5" y2="128.4"/>
<line class="st0" x1="93.3" y1="109.8" x2="146" y2="109.8"/>
<line class="st0" x1="55.4" y1="109.8" x2="70.9" y2="109.8"/>
<line class="st0" x1="55.4" y1="91.1" x2="146" y2="91.1"/>
</svg>
