<?xml version="1.0" encoding="utf-8"?>
<!-- Generator: Adobe Illustrator 25.4.1, SVG Export Plug-In . SVG Version: 6.00 Build 0)  -->
<svg version="1.1" id="Layer_1" xmlns="http://www.w3.org/2000/svg" xmlns:xlink="http://www.w3.org/1999/xlink" x="0px" y="0px"
	 viewBox="0 0 96.8 102.9" style="enable-background:new 0 0 96.8 102.9;" xml:space="preserve">
<style type="text/css">
	.st0{fill:#1B2082;}
</style>
<g>
	<path class="st0" d="M77.1,96.5H25.3c-4.6,0-8.4-3.8-8.4-8.4V11.3c0-4.6,3.8-8.4,8.4-8.4h23.8c2.1,0,4.2,0.8,5.8,2.2l27.8,25
		c1.8,1.7,2.9,4,2.9,6.5v51.5C85.5,92.7,81.8,96.5,77.1,96.5L77.1,96.5z M25.3,9.2c-1.2,0-2.2,1-2.2,2.2v76.8c0,1.2,1,2.2,2.2,2.2
		h51.9c0.6,0,1.1-0.2,1.5-0.6c0.4-0.4,0.6-1,0.6-1.5V36.4c0-0.7-0.3-1.3-0.8-1.8l-27.8-25c-0.5-0.4-1.1-0.5-1.7-0.5H25.3z M25.3,9.2
		"/>
	<path class="st0" d="M82.4,37H54.9c-3.8,0-6.8-3.1-6.8-6.8V7.8h6.2v22.4c0,0.3,0.3,0.6,0.6,0.6h27.5V37z M82.4,37"/>
	<path class="st0" d="M39.8,74.7h25c1.7,0,3.1,1.4,3.1,3.1c0,1.7-1.4,3.1-3.1,3.1h-25c-1.7,0-3.1-1.4-3.1-3.1
		C36.6,76,38,74.7,39.8,74.7L39.8,74.7z M39.8,74.7"/>
	<path class="st0" d="M39.8,61.2H46c1.7,0,3.1,1.4,3.1,3.1c0,1.7-1.4,3.1-3.1,3.1h-6.2c-1.7,0-3.1-1.4-3.1-3.1
		C36.6,62.6,38,61.2,39.8,61.2L39.8,61.2z M39.8,61.2"/>
	<path class="st0" d="M11.7,83c-4.3-0.1-7.7-3.5-7.8-7.8V24.3c0-2.3,1.1-4.6,2.9-6c1.8-1.5,4.2-2.1,6.5-1.6l6.7,1.1l-1,6.2l-6.8-1.2
		c-0.5-0.1-1,0-1.4,0.3c-0.4,0.3-0.6,0.7-0.6,1.2v50.8c0,0.5,0.2,0.9,0.6,1.2c0.4,0.3,0.8,0.4,1.3,0.3l7-0.9l0.8,6.2l-6.8,0.9
		C12.6,82.9,12.1,83,11.7,83L11.7,83z M11.7,83"/>
</g>
</svg>
