<?xml version="1.0" encoding="utf-8"?>
<!-- Generator: Adobe Illustrator 26.0.1, SVG Export Plug-In . SVG Version: 6.00 Build 0)  -->
<svg version="1.1" id="Layer_1" xmlns="http://www.w3.org/2000/svg" xmlns:xlink="http://www.w3.org/1999/xlink" x="0px" y="0px"
	 viewBox="0 0 200 200" style="enable-background:new 0 0 200 200;" xml:space="preserve">
<style type="text/css">
	.st0{fill:none;stroke:#2E3192;stroke-width:7;stroke-linecap:round;stroke-linejoin:round;stroke-miterlimit:10;}
</style>
<path class="st0" d="M170,136.7V50.8c0-7-5.7-12.6-12.6-12.6l0,0c-7,0-12.6,5.7-12.6,12.6v84.9c0,13.4,4.6,26.4,13,36.9l0,0l0.3-0.4
	C165.8,162,170,149.5,170,136.7z"/>
<line class="st0" x1="144.7" y1="130.7" x2="170" y2="130.7"/>
<path class="st0" d="M144.7,58.6h27.4h4.5c2.9,0,5.1,2.2,5.1,4.7v33.2"/>
<path class="st0" d="M163.6,38.8v-9.6c0-2.6-2.7-4.6-6.2-4.6l0,0c-3.5,0-6.2,2-6.2,4.6v9.6"/>
<line class="st0" x1="144.7" y1="119.3" x2="170" y2="119.3"/>
<path class="st0" d="M21,31.2h23.3c2,0,3.5-1.6,3.5-3.5V4.5"/>
<line class="st0" x1="87.5" y1="52.1" x2="129.6" y2="52.1"/>
<line class="st0" x1="42.1" y1="52.1" x2="68.9" y2="52.1"/>
<line class="st0" x1="117.1" y1="71.9" x2="129.6" y2="71.9"/>
<line class="st0" x1="42.1" y1="71.9" x2="99.5" y2="71.9"/>
<line class="st0" x1="42.1" y1="131.1" x2="102.2" y2="131.1"/>
<line class="st0" x1="75.4" y1="111.3" x2="129.6" y2="111.3"/>
<line class="st0" x1="42.1" y1="111.3" x2="57.8" y2="111.3"/>
<line class="st0" x1="42.1" y1="91.5" x2="129.6" y2="91.5"/>
<path class="st0" d="M157.4,12.8c0-4.6-3.7-8.4-8.4-8.4H49.4c-2.3,0-4.3,0.9-6,2.4L21.5,28.8c-1.6,1.6-2.4,3.7-2.4,6v152.1
	c0,4.6,3.7,8.4,8.4,8.4H149c4.6,0,8.4-3.7,8.4-8.4"/>
</svg>
