<?xml version="1.0" encoding="utf-8"?>
<!-- Generator: Adobe Illustrator 25.4.1, SVG Export Plug-In . SVG Version: 6.00 Build 0)  -->
<svg version="1.1" id="Layer_1" xmlns="http://www.w3.org/2000/svg" xmlns:xlink="http://www.w3.org/1999/xlink" x="0px" y="0px"
	 viewBox="0 0 97.1 69.3" style="enable-background:new 0 0 97.1 69.3;" xml:space="preserve">
<style type="text/css">
	.st0{fill:#2C307C;}
</style>
<g>
	<g>
		<path class="st0" d="M91.2,26.9c-1.6-2.2-4.1-3.5-6.8-3.5h-2.1v-5.5c0-4.7-3.8-8.5-8.5-8.5H49.1c-1.4,0-2.8-0.6-3.8-1.6L41.4,4
			c-1.6-1.6-3.7-2.5-6-2.5H16.1c-4.7,0-8.5,3.8-8.5,8.5v49.3c-0.1,1.9,0.5,3.8,1.7,5.3c1.6,2.2,4.1,3.5,6.9,3.5h59.5
			c3.7,0,7-2.4,8.1-6l8.7-27.8C93.3,31.8,92.8,29.1,91.2,26.9L91.2,26.9z M10.7,10c0-3,2.4-5.4,5.3-5.4h19.3c1.4,0,2.8,0.6,3.8,1.6
			l3.9,3.9c1.6,1.6,3.7,2.5,6,2.5h24.8c3,0,5.4,2.4,5.4,5.3v5.5H24.8c-3.7,0-7,2.4-8.1,5.9l-6,19L10.7,10L10.7,10z M89.5,33.5
			l-8.7,27.8C80.1,63.5,78,65,75.7,65H16.2c-1.8,0-3.3-0.8-4.4-2.2c-1-1.4-1.3-3.2-0.8-4.9l8.7-27.7c0.7-2.3,2.8-3.8,5.1-3.8h59.6
			c1.7,0,3.3,0.8,4.3,2.2C89.7,30.1,90,31.8,89.5,33.5L89.5,33.5z M89.5,33.5"/>
	</g>
</g>
</svg>
