<?xml version="1.0" encoding="utf-8"?>
<!-- Generator: Adobe Illustrator 26.0.1, SVG Export Plug-In . SVG Version: 6.00 Build 0)  -->
<svg version="1.1" id="Layer_1" xmlns="http://www.w3.org/2000/svg" xmlns:xlink="http://www.w3.org/1999/xlink" x="0px" y="0px"
	 viewBox="0 0 200 200" style="enable-background:new 0 0 200 200;" xml:space="preserve">
<style type="text/css">
	.st0{fill:none;stroke:#2E3192;stroke-width:2.5;stroke-linecap:round;stroke-linejoin:round;stroke-miterlimit:10;}
</style>
<path class="st0" d="M173.2,137.4l0-87.7c0-7.1-5.8-12.9-12.9-12.9l0,0c-7.1,0-12.9,5.8-12.9,12.9v86.7c0,13.7,4.7,27,13.3,37.7l0,0
	l0.3-0.4C168.9,163.2,173.2,150.5,173.2,137.4z"/>
<line class="st0" x1="147.3" y1="131.3" x2="173.2" y2="131.3"/>
<path class="st0" d="M147.3,57.7h25.8h4.2c2.7,0,4.8,2.2,4.8,4.8v33.9"/>
<path class="st0" d="M164.4,37.4l0-8.6c0-2.3-1.8-4.1-4.1-4.1l0,0c-2.3,0-4.1,1.8-4.1,4.1v8.6"/>
<line class="st0" x1="147.3" y1="119.6" x2="173.2" y2="119.6"/>
<path class="st0" d="M21,29.7h23.8c2,0,3.6-1.6,3.6-3.6V2.4"/>
<line class="st0" x1="88.9" y1="51" x2="131.9" y2="51"/>
<line class="st0" x1="42.6" y1="51" x2="69.9" y2="51"/>
<line class="st0" x1="119.2" y1="71.2" x2="131.9" y2="71.2"/>
<line class="st0" x1="42.6" y1="71.2" x2="101.2" y2="71.2"/>
<line class="st0" x1="42.6" y1="131.7" x2="104" y2="131.7"/>
<line class="st0" x1="76.6" y1="111.5" x2="131.9" y2="111.5"/>
<line class="st0" x1="42.6" y1="111.5" x2="58.6" y2="111.5"/>
<line class="st0" x1="42.6" y1="91.3" x2="131.9" y2="91.3"/>
<path class="st0" d="M160.3,13.7v-2.8c0-4.7-3.8-8.6-8.6-8.6H50c-2.3,0-4.4,0.9-6.1,2.5L21.6,27.2c-1.6,1.6-2.5,3.8-2.5,6.1v155.3
	c0,4.7,3.8,8.6,8.6,8.6h124c4.7,0,8.6-3.8,8.6-8.6v-2.6"/>
</svg>
