<?xml version="1.0" encoding="utf-8"?>
<!-- Generator: Adobe Illustrator 26.0.1, SVG Export Plug-In . SVG Version: 6.00 Build 0)  -->
<svg version="1.1" id="Layer_1" xmlns="http://www.w3.org/2000/svg" xmlns:xlink="http://www.w3.org/1999/xlink" x="0px" y="0px"
	 viewBox="0 0 200 200" style="enable-background:new 0 0 200 200;" xml:space="preserve">
<style type="text/css">
	.st0{fill:none;stroke:#2E3192;stroke-width:7;stroke-linecap:round;stroke-linejoin:round;stroke-miterlimit:10;}
</style>
<line class="st0" x1="31.1" y1="85.7" x2="31.1" y2="54.7"/>
<path class="st0" d="M31,31.7c0.9-6.6,8.3-8.8,14.8-8.8h133c8.1,0,14.8,6.5,14.8,14.8v84.1c0,8.1-6.5,14.8-14.8,14.8h-68.7"/>
<line class="st0" x1="97.9" y1="117.5" x2="193.6" y2="117.5"/>
<line class="st0" x1="126.3" y1="136.4" x2="128" y2="154.6"/>
<line class="st0" x1="111.6" y1="154.6" x2="144" y2="154.6"/>
<line class="st0" x1="182.1" y1="50.5" x2="165.5" y2="33.9"/>
<line class="st0" x1="181.3" y1="66.8" x2="149.5" y2="35"/>
<path class="st0" d="M90.4,171.3L90.4,171.3c-12.4,12.4-32.4,12.4-44.8,0l-22.9-22.9c-12.4-12.4-12.4-32.4,0-44.8l0,0
	c12.4-12.4,32.4-12.4,44.8,0l22.9,22.9C102.8,138.9,102.8,159,90.4,171.3z"/>
<path class="st0" d="M84.8,138.2c3.9,6.5,3.9,14.8,0,21.4"/>
<line class="st0" x1="60.2" y1="115.8" x2="70" y2="106.1"/>
<line class="st0" x1="25.2" y1="150.9" x2="36.1" y2="139.9"/>
<path class="st0" d="M23.2,103.1L15.1,95C3,82.9,3,63.2,15.1,51l0,0c12.1-12.1,31.8-12.1,44,0l30.6,30.6c12.1,12.1,31.8,12.1,44,0
	l0.9-0.9"/>
<path class="st0" d="M57.1,137L57.1,137c-2.2,2.2-5.8,2.2-7.9,0l-9.2-9.2c-2.2-2.2-2.2-5.8,0-7.9l0,0c2.2-2.2,5.8-2.2,7.9,0l9.2,9.2
	C59.4,131.3,59.4,134.9,57.1,137z"/>
<path class="st0" d="M149,75.1l-5,5c-2.7,2.7-7.1,2.7-9.8,0l0,0c-2.7-2.7-2.7-7.1,0-9.8l5-5L149,75.1z"/>
<line class="st0" x1="33" y1="112.9" x2="23.2" y2="103.1"/>
</svg>
