<?xml version="1.0" encoding="utf-8"?>
<!-- Generator: Adobe Illustrator 26.0.1, SVG Export Plug-In . SVG Version: 6.00 Build 0)  -->
<svg version="1.1" id="Layer_1" xmlns="http://www.w3.org/2000/svg" xmlns:xlink="http://www.w3.org/1999/xlink" x="0px" y="0px"
	 viewBox="0 0 200 200" style="enable-background:new 0 0 200 200;" xml:space="preserve">
<style type="text/css">
	.st0{fill:none;stroke:#2E3192;stroke-width:2.5;stroke-linecap:round;stroke-linejoin:round;stroke-miterlimit:10;}
	
		.st1{fill:none;stroke:#2E3192;stroke-width:2.5;stroke-linecap:round;stroke-linejoin:round;stroke-miterlimit:10;stroke-dasharray:0.7622,3.8108;}
</style>
<line class="st0" x1="29.7" y1="87.2" x2="29.7" y2="52"/>
<path class="st0" d="M30.4,31.5c2-6,7.6-10.3,14.3-10.3h136.2c8.3,0,15.1,6.7,15.1,15.1v86.1c0,8.3-6.7,15.1-15.1,15.1h-72.8"/>
<line class="st0" x1="108.1" y1="127.3" x2="117.6" y2="127.3"/>
<line class="st0" x1="96.1" y1="118" x2="196" y2="118"/>
<line class="st0" x1="127.1" y1="137.4" x2="128.8" y2="156"/>
<line class="st0" x1="109.6" y1="156" x2="145.2" y2="156"/>
<line class="st0" x1="182.8" y1="50.6" x2="165.8" y2="33.6"/>
<line class="st0" x1="166.9" y1="49.6" x2="150.9" y2="33.6"/>
<line class="st1" x1="182.8" y1="65.5" x2="166.9" y2="49.6"/>
<path class="st0" d="M90.4,173.1L90.4,173.1c-12.7,12.7-33.2,12.7-45.9,0l-23.4-23.4c-12.7-12.7-12.7-33.2,0-45.9l0,0
	c12.7-12.7,33.2-12.7,45.9,0l23.4,23.4C103.1,139.9,103.1,160.5,90.4,173.1z"/>
<path class="st0" d="M86,139.2c4,6.7,4,15.2,0,21.9"/>
<line class="st0" x1="56.9" y1="118.9" x2="69.5" y2="106.4"/>
<line class="st0" x1="23.6" y1="152.2" x2="37.2" y2="138.6"/>
<path class="st0" d="M21.6,103.3L13.3,95c-12.4-12.4-12.4-32.6,0-45l0,0c12.4-12.4,32.6-12.4,45,0l31.3,31.3
	c12.4,12.4,32.6,12.4,45,0l0.9-0.9"/>
<path class="st0" d="M55.2,136.9L55.2,136.9c-2,2-5.2,2-7.1,0l-8.2-8.2c-2-2-2-5.2,0-7.1l0,0c2-2,5.2-2,7.1,0l8.2,8.2
	C57.2,131.8,57.2,135,55.2,136.9z"/>
<path class="st0" d="M145.8,77l-3.5,3.5c-1.9,1.9-5,1.9-6.9,0l0,0c-1.9-1.9-1.9-5,0-6.9l3.5-3.5L145.8,77z"/>
<line class="st0" x1="33.7" y1="115.4" x2="21.6" y2="103.3"/>
</svg>
