<?xml version="1.0" encoding="utf-8"?>
<!-- Generator: Adobe Illustrator 25.4.1, SVG Export Plug-In . SVG Version: 6.00 Build 0)  -->
<svg version="1.1" id="Layer_1" xmlns="http://www.w3.org/2000/svg" xmlns:xlink="http://www.w3.org/1999/xlink" x="0px" y="0px"
	 viewBox="0 0 97.1 69.3" style="enable-background:new 0 0 97.1 69.3;" xml:space="preserve">
<style type="text/css">
	.st0{fill:#2C307C;}
</style>
<path class="st0" d="M86.4,10.1H14.5c-2.3,0-4.1,1.8-4.1,4.1v45.2c0,2.3,1.8,4.1,4.1,4.1h71.9c2.3,0,4.1-1.8,4.1-4.1V14.2
	C90.5,12,88.7,10.1,86.4,10.1z M87.4,58.3L70.1,36.9c-0.5-0.7-1.5-0.8-2.2-0.2c-0.7,0.5-0.8,1.5-0.2,2.2l17.5,21.6c0,0,0,0,0.1,0.1
	H15.6c0,0,0,0,0.1-0.1l17.5-21.6c0.5-0.7,0.4-1.6-0.2-2.2c-0.7-0.5-1.6-0.4-2.2,0.2L13.4,58.3V15.1l32.8,24.6
	c1.2,0.9,2.7,1.3,4.2,1.3c1.5,0,3-0.4,4.2-1.3l32.8-24.6L87.4,58.3L87.4,58.3z M16,13.2h68.9L52.8,37.3c-0.6,0.4-1.5,0.7-2.4,0.7
	c-0.9,0-1.8-0.3-2.4-0.7L16,13.2z"/>
</svg>
