<?xml version="1.0" encoding="utf-8"?>
<!-- Generator: Adobe Illustrator 25.4.1, SVG Export Plug-In . SVG Version: 6.00 Build 0)  -->
<svg version="1.1" id="Layer_1" xmlns="http://www.w3.org/2000/svg" xmlns:xlink="http://www.w3.org/1999/xlink" x="0px" y="0px"
	 viewBox="0 0 97.1 69.3" style="enable-background:new 0 0 97.1 69.3;" xml:space="preserve">
<style type="text/css">
	.st0{fill:#2C307C;}
	.st1{fill-rule:evenodd;clip-rule:evenodd;fill:#FFFFFF;stroke:#FFFFFF;stroke-miterlimit:10;}
	.st2{fill-rule:evenodd;clip-rule:evenodd;fill:#2C307C;}
	.st3{fill:#FFFFFF;}
</style>
<path class="st0" d="M65,0h-52c-1.6,0-3,1.3-3,3v32.7c0,1.6,1.3,3,3,3h52c1.6,0,3-1.3,3-3V3C68,1.3,66.7,0,65,0z M65.8,34.8
	L53.3,19.3c-0.4-0.5-1.1-0.6-1.6-0.2c-0.5,0.4-0.6,1.1-0.2,1.6l12.6,15.6c0,0,0,0,0,0H13.9c0,0,0,0,0,0l12.6-15.6
	c0.4-0.5,0.3-1.2-0.2-1.6c-0.5-0.4-1.2-0.3-1.6,0.2L12.3,34.8V3.6L36,21.4c0.9,0.7,2,1,3,1c1.1,0,2.2-0.3,3-1L65.8,3.6L65.8,34.8
	L65.8,34.8z M14.2,2.2h49.8L40.8,19.6c-0.4,0.3-1.1,0.5-1.7,0.5c-0.7,0-1.3-0.2-1.7-0.5L14.2,2.2z"/>
<g>
	<rect x="29.5" y="34.1" class="st1" width="7.7" height="17.6"/>
	<rect x="48" y="39.5" class="st1" width="7.7" height="17.6"/>
	<rect x="67" y="32.6" class="st1" width="7.7" height="17.6"/>
	<g>
		<g>
			<path class="st2" d="M39.9,67.5c-1.5,0-3-0.7-4-1.8c-1-1.2-1.5-2.7-1.2-4.2c0-0.4,0.1-0.7,0.2-1.1H20.8c-1.5,0-3-0.7-4-1.8
				c-1-1.2-1.5-2.7-1.2-4.2c0.7-4.9,4-9.1,9-11.4c-1.1-1.9-1.6-4-1.6-6.3c0-6.4,4.6-11.5,10.2-11.5s10.2,5.2,10.2,11.5
				c0,0.6,0,1.3-0.1,1.9c1.7-3.7,5.1-6.3,9.1-6.3c4,0,7.4,2.6,9.1,6.3c-0.1-0.6-0.1-1.3-0.1-1.9c0-6.4,4.6-11.5,10.2-11.5
				s10.2,5.2,10.2,11.5c0,2.2-0.6,4.4-1.6,6.3c4.9,2.3,8.3,6.5,9,11.4c0.2,1.5-0.2,3-1.2,4.2c-1,1.2-2.5,1.8-4,1.8l-14.1,0
				c0.1,0.4,0.1,0.7,0.2,1.1c0.2,1.5-0.2,3-1.2,4.2c-1,1.2-2.5,1.8-4,1.8C60.1,67.5,44.3,67.5,39.9,67.5z M52.2,38.3
				c-2.3,0-4.2,2.5-4.2,5.5c0,1.8,0.7,3.4,1.8,4.5l0.2,0.2c0.1,0.1,0.2,0.2,0.3,0.3c0.3,0.3,0.6,0.8,0.7,1.3l0,0.1l0,0.6l0,0.1
				c-0.1,1.9-1.3,3.5-3.1,4c-3.7,1.2-6.3,3.7-7.1,6.7l22.8,0c-0.8-3-3.4-5.5-7.1-6.7c-1.8-0.6-3-2.2-3.1-4l0-0.1l0-0.6l0-0.1
				c0.1-0.5,0.4-1,0.7-1.3c0,0,0.1-0.1,0.2-0.2l0.2-0.2c1.1-1,1.8-2.7,1.8-4.5C56.4,40.7,54.5,38.3,52.2,38.3z M82.8,54.4
				c-0.8-3-3.4-5.5-7.1-6.7c-1.8-0.6-3-2.2-3.1-4l0-0.1l0-0.6l0-0.1c0.1-0.5,0.4-0.9,0.7-1.3c0.1-0.1,0.1-0.1,0.3-0.2l0.2-0.2
				c1.1-1,1.8-2.7,1.8-4.5c0-3-1.9-5.5-4.2-5.5c-2.3,0-4.2,2.5-4.2,5.5c0,1.8,0.7,3.4,1.8,4.5l0.2,0.2c0.1,0.1,0.2,0.2,0.2,0.2
				c0.4,0.4,0.6,0.8,0.7,1.3l0,0.1l0,0.6l0,0.1c-0.1,1.9-1.3,3.5-3.1,4c-2,0.6-3.7,1.7-5,3c1.7,1,3.2,2.2,4.4,3.7H82.8z M37.9,54.4
				c1.2-1.4,2.7-2.7,4.4-3.7c-1.3-1.3-3-2.4-5-3c-1.8-0.6-3-2.2-3.1-4l0-0.1l0-0.6l0-0.1c0.1-0.5,0.4-1,0.7-1.3c0,0,0.1-0.1,0.3-0.2
				l0.2-0.2c1.1-1,1.8-2.7,1.8-4.5c0-3-1.9-5.5-4.2-5.5s-4.2,2.5-4.2,5.5c0,1.8,0.7,3.4,1.8,4.5l0.2,0.2c0.1,0.1,0.3,0.2,0.3,0.3
				c0.3,0.4,0.6,0.8,0.7,1.3l0,0.1l0,0.6l0,0.1c-0.1,1.9-1.3,3.5-3.1,4c-3.7,1.2-6.3,3.7-7.1,6.7H37.9z M42,43.2
				c0-0.4,0.1-0.9,0.1-1.3c-0.2,0.4-0.3,0.7-0.5,1.1C41.7,43,41.9,43.1,42,43.2z M62.3,41.9c0.1,0.4,0.1,0.8,0.1,1.3
				c0.1-0.1,0.3-0.1,0.4-0.2C62.6,42.6,62.4,42.3,62.3,41.9z"/>
			<path class="st3" d="M71.3,26.9c4.5,0,8.4,4.2,8.4,9.7c0,2.8-1,5.3-2.6,7.1c5.4,1.8,9.3,6,10,10.9c0.1,1-0.2,2-0.8,2.8
				c-0.7,0.8-1.6,1.2-2.7,1.2c-2.8,0-10.4,0-16.6,0c0.4,1,0.7,2,0.9,3.1c0.1,1-0.2,2-0.8,2.8c-0.7,0.8-1.6,1.2-2.7,1.2
				c-4.4,0-20.2,0-24.5,0c-1,0-2-0.4-2.7-1.2c-0.7-0.8-1-1.8-0.8-2.8c0.1-1.1,0.4-2.1,0.9-3.1c-6.2,0-13.7,0-16.6,0
				c-1,0-2-0.4-2.7-1.2c-0.7-0.8-1-1.8-0.8-2.8c0.7-4.9,4.5-9.1,10-10.9c-1.6-1.7-2.6-4.3-2.6-7.1c0-5.5,3.9-9.7,8.4-9.7
				c4.5,0,8.4,4.2,8.4,9.7c0,2.8-1,5.3-2.6,7.1c2,0.7,3.8,1.7,5.3,2.9c-0.2-0.9-0.4-1.9-0.4-2.9c0-5.5,3.9-9.7,8.4-9.7
				c4.5,0,8.4,4.2,8.4,9.7c0,1-0.1,2-0.4,2.9c1.5-1.2,3.3-2.2,5.3-2.9c-1.6-1.7-2.6-4.3-2.6-7.1C62.9,31.2,66.8,26.9,71.3,26.9
				 M65.6,56.2c6.4,0,15,0,18,0c0.3,0,0.6-0.1,0.8-0.4c0.2-0.2,0.3-0.5,0.2-0.8c-0.6-4.1-3.9-7.5-8.5-8.9c-1.1-0.3-1.8-1.3-1.9-2.4
				l0-0.4c0-0.2,0.1-0.3,0.3-0.5c0,0,0.3-0.2,0.4-0.3c1.4-1.3,2.3-3.4,2.3-5.8c0-4-2.7-7.3-6-7.3c-3.3,0-6,3.3-6,7.3
				c0,2.3,0.9,4.4,2.3,5.8c0.1,0.1,0.3,0.3,0.4,0.3c0.1,0.1,0.2,0.3,0.3,0.5l0,0.4c-0.1,1.1-0.8,2.1-1.9,2.4c-3.1,1-5.7,2.9-7.2,5.3
				C61.9,52.5,64.1,54.2,65.6,56.2 M20.8,56.2c3,0,11.6,0,18,0c1.5-2,3.7-3.7,6.3-4.8c-1.5-2.4-4-4.3-7.2-5.3
				c-1.1-0.3-1.8-1.3-1.9-2.4l0-0.4c0-0.2,0.1-0.3,0.3-0.5c0,0,0.3-0.2,0.4-0.3c1.4-1.3,2.3-3.4,2.3-5.8c0-4-2.7-7.3-6-7.3
				c-3.3,0-6,3.3-6,7.3c0,2.3,0.9,4.4,2.3,5.8c0.1,0.1,0.3,0.3,0.4,0.3c0.1,0.1,0.2,0.3,0.3,0.5l0,0.4c-0.1,1.1-0.8,2.1-1.9,2.4
				c-4.6,1.4-7.9,4.8-8.5,8.9c0,0.3,0,0.6,0.2,0.8C20.2,56.1,20.4,56.2,20.8,56.2 M39.9,63.3c4.4,0,20.2,0,24.5,0
				c0.3,0,0.6-0.1,0.8-0.4c0.2-0.2,0.3-0.5,0.2-0.8c-0.6-4.1-3.9-7.5-8.5-8.9c-1.1-0.3-1.8-1.3-1.9-2.4l0-0.4c0-0.2,0.1-0.3,0.3-0.5
				c0,0,0.3-0.2,0.4-0.3c1.4-1.3,2.3-3.4,2.3-5.8c0-4-2.7-7.3-6-7.3s-6,3.3-6,7.3c0,2.4,0.9,4.4,2.3,5.8c0.1,0.1,0.3,0.3,0.4,0.3
				c0.1,0.1,0.2,0.3,0.3,0.5l0,0.4c-0.1,1.1-0.8,2.1-1.9,2.4c-4.6,1.4-7.9,4.8-8.5,8.9c0,0.3,0,0.6,0.2,0.8
				C39.3,63.2,39.6,63.3,39.9,63.3 M71.3,23.4c-5.6,0-10.3,4.3-11.6,10.1c-2.1-1.9-4.7-3-7.5-3c-2.9,0-5.5,1.1-7.5,3
				c-1.3-5.8-6-10.1-11.6-10.1c-6.6,0-12,6-12,13.3c0,1.9,0.4,3.8,1.1,5.5c-4.6,2.7-7.7,7-8.4,12c-0.3,2,0.3,4,1.7,5.6
				c1.3,1.5,3.3,2.4,5.3,2.4h12.1c0,1.7,0.6,3.4,1.7,4.7c1.3,1.5,3.3,2.4,5.3,2.4c4.4,0,20.2,0,24.5,0c2,0,4-0.9,5.3-2.4
				c1.1-1.3,1.7-3,1.7-4.7l12.1,0c2,0,4-0.9,5.3-2.4c1.3-1.5,1.9-3.6,1.7-5.6c-0.7-4.9-3.8-9.3-8.4-12c0.7-1.7,1.1-3.6,1.1-5.5
				C83.3,29.4,78,23.4,71.3,23.4L71.3,23.4z M71.3,41.3c-0.2-0.3-0.4-0.7-0.7-1c0,0-0.2-0.2-0.4-0.4l-0.1-0.1
				c-0.7-0.7-1.2-1.9-1.2-3.2c0-2.2,1.3-3.7,2.4-3.7c1.1,0,2.4,1.5,2.4,3.7c0,1.3-0.5,2.5-1.2,3.2L72.4,40c-0.2,0.1-0.3,0.2-0.3,0.3
				l0,0l0,0C71.8,40.6,71.5,41,71.3,41.3L71.3,41.3z M32.3,40.3c-0.1-0.1-0.2-0.2-0.4-0.4l-0.1-0.1c-0.8-0.7-1.2-1.9-1.2-3.2
				c0-2.2,1.3-3.7,2.4-3.7c1.1,0,2.4,1.5,2.4,3.7c0,1.3-0.5,2.5-1.2,3.2L34.1,40c-0.2,0.2-0.3,0.3-0.3,0.3c-0.3,0.3-0.5,0.6-0.7,1
				C32.8,41,32.6,40.6,32.3,40.3L32.3,40.3L32.3,40.3z M52.2,48.4c-0.2-0.4-0.4-0.7-0.7-1c0,0-0.2-0.2-0.4-0.3L51,47
				c-0.8-0.7-1.2-1.9-1.2-3.2c0-2.2,1.3-3.7,2.4-3.7c1.1,0,2.4,1.5,2.4,3.7c0,1.3-0.5,2.5-1.2,3.2l-0.2,0.1
				c-0.1,0.1-0.3,0.2-0.3,0.3l0,0l0,0C52.6,47.7,52.4,48,52.2,48.4L52.2,48.4z M65,50.6c0.8-0.5,1.6-0.9,2.5-1.2
				c1.7-0.5,3.1-1.8,3.8-3.4c0.7,1.6,2.1,2.8,3.8,3.4c2,0.6,3.7,1.8,4.8,3.2H67.3C66.6,51.9,65.8,51.2,65,50.6L65,50.6z M24.4,52.6
				c1.1-1.4,2.7-2.6,4.8-3.2c1.7-0.5,3.1-1.8,3.8-3.4c0.7,1.6,2.1,2.8,3.8,3.4c0.9,0.3,1.8,0.7,2.5,1.2c-0.8,0.6-1.6,1.3-2.2,2H24.4
				L24.4,52.6z M43.6,59.7c1.1-1.4,2.7-2.6,4.8-3.2c1.7-0.5,3.1-1.8,3.8-3.4c0.7,1.6,2.1,2.8,3.8,3.4c2,0.6,3.7,1.8,4.8,3.2
				L43.6,59.7L43.6,59.7z"/>
		</g>
	</g>
</g>
</svg>
