<?xml version="1.0" encoding="utf-8"?>
<!-- Generator: Adobe Illustrator 26.0.1, SVG Export Plug-In . SVG Version: 6.00 Build 0)  -->
<svg version="1.1" id="Layer_1" xmlns="http://www.w3.org/2000/svg" xmlns:xlink="http://www.w3.org/1999/xlink" x="0px" y="0px"
	 viewBox="0 0 200 200" style="enable-background:new 0 0 200 200;" xml:space="preserve">
<style type="text/css">
	.st0{fill:none;stroke:#2E3192;stroke-width:2.5;stroke-linecap:round;stroke-linejoin:round;stroke-miterlimit:10;}
</style>
<line class="st0" x1="129.6" y1="142.7" x2="153.3" y2="142.7"/>
<path class="st0" d="M62.2,3.3h98.4c4.6,0,8.3,3.7,8.3,8.3v176.8c0,4.6-3.7,8.3-8.3,8.3H40.5c-4.6,0-8.3-3.7-8.3-8.3V33.3
	c0-2.2,0.9-4.3,2.4-5.9L56.3,5.7C57.9,4.2,60,3.3,62.2,3.3z"/>
<line class="st0" x1="129.6" y1="166.9" x2="141.3" y2="166.9"/>
<path class="st0" d="M34.1,29.8h23.1c1.9,0,3.5-1.6,3.5-3.5V3.5"/>
<line class="st0" x1="129.6" y1="154.8" x2="153.3" y2="154.8"/>
<line class="st0" x1="113" y1="142.7" x2="117.1" y2="142.7"/>
<line class="st0" x1="113" y1="166.9" x2="117.1" y2="166.9"/>
<line class="st0" x1="113" y1="154.8" x2="117.1" y2="154.8"/>
<polyline class="st0" points="60.9,180.3 60.9,152.1 72.6,152.1 72.6,180.3 "/>
<polyline class="st0" points="72.6,180.3 72.6,130.6 84.4,130.6 84.4,180.3 "/>
<polyline class="st0" points="84.4,180.3 84.4,143 96.2,143 96.2,180.3 "/>
<polyline class="st0" points="48.8,180.3 48.8,166.4 60.6,166.4 60.6,180.3 "/>
<line class="st0" x1="48.8" y1="44.4" x2="153.3" y2="44.4"/>
<line class="st0" x1="48.8" y1="58.9" x2="105" y2="58.9"/>
<line class="st0" x1="73" y1="29.8" x2="153.3" y2="29.8"/>
<polyline class="st0" points="98.1,75.2 98.1,115.1 153.3,115.1 "/>
<polyline class="st0" points="109,103.8 117.4,80.9 123.2,93.9 128.4,84.7 134.1,89.1 139.5,74.6 150.3,103.8 "/>
<circle class="st0" cx="66.7" cy="95.2" r="18.3"/>
<polyline class="st0" points="66.7,76.9 66.7,95.2 85,95.2 "/>
</svg>
