<?xml version="1.0" encoding="utf-8"?>
<!-- Generator: Adobe Illustrator 26.0.1, SVG Export Plug-In . SVG Version: 6.00 Build 0)  -->
<svg version="1.1" id="Layer_1" xmlns="http://www.w3.org/2000/svg" xmlns:xlink="http://www.w3.org/1999/xlink" x="0px" y="0px"
	 viewBox="0 0 200 200" style="enable-background:new 0 0 200 200;" xml:space="preserve">
<style type="text/css">
	.st0{fill:none;stroke:#2E3192;stroke-width:7;stroke-linecap:round;stroke-linejoin:round;stroke-miterlimit:10;}
</style>
<line class="st0" x1="129" y1="141.8" x2="152.2" y2="141.8"/>
<path class="st0" d="M63,5.4h96.3c4.5,0,8.1,3.6,8.1,8.1v173c0,4.5-3.6,8.1-8.1,8.1H41.8c-4.5,0-8.1-3.6-8.1-8.1V34.7
	c0-2.2,0.9-4.2,2.3-5.8L57.3,7.7C58.8,6.3,60.9,5.4,63,5.4z"/>
<line class="st0" x1="129" y1="165.5" x2="140.4" y2="165.5"/>
<path class="st0" d="M35.5,31.3h22.6c1.9,0,3.4-1.6,3.4-3.4V5.6"/>
<line class="st0" x1="129" y1="153.6" x2="152.2" y2="153.6"/>
<polyline class="st0" points="65.8,178.6 65.8,151 81.2,151 81.2,178.6 "/>
<polyline class="st0" points="81.2,178.6 81.2,129.9 96.8,129.9 96.8,178.6 "/>
<polyline class="st0" points="96.8,178.6 96.8,142.1 112.3,142.1 112.3,178.6 "/>
<polyline class="st0" points="49.9,178.6 49.9,165 65.4,165 65.4,178.6 "/>
<line class="st0" x1="49.9" y1="45.6" x2="152.2" y2="45.6"/>
<line class="st0" x1="49.9" y1="59.8" x2="104.9" y2="59.8"/>
<line class="st0" x1="73.6" y1="31.3" x2="152.2" y2="31.3"/>
<polyline class="st0" points="107.6,75.7 107.6,114.8 152.2,114.8 "/>
<polyline class="st0" points="116.4,103.7 123.2,81.3 134.7,86 142.7,67.3 149.7,103.7 "/>
<circle class="st0" cx="70.6" cy="94.6" r="20.8"/>
<polyline class="st0" points="70.6,73.8 70.6,94.6 91.4,94.6 "/>
</svg>
