<?xml version="1.0" encoding="utf-8"?>
<!-- Generator: Adobe Illustrator 26.0.3, SVG Export Plug-In . SVG Version: 6.00 Build 0)  -->
<svg version="1.1" id="Layer_1" xmlns="http://www.w3.org/2000/svg" xmlns:xlink="http://www.w3.org/1999/xlink" x="0px" y="0px"
	 viewBox="0 0 200 200" style="enable-background:new 0 0 200 200;" xml:space="preserve">
<style type="text/css">
	.st0{fill:none;stroke:#2E3192;stroke-width:5;stroke-miterlimit:10;}
</style>
<path class="st0" d="M99.8,48.4c-35.2,0-63.7,28.5-63.7,63.7c0,13.4,4.1,25.8,11.2,36l5.4,2.1c3.9,1.5,8.2,1.5,12.1,0
	c5-2,10.5-2,15.5,0c3.9,1.5,8.2,1.5,12.1,0c5-2,10.5-2,15.5,0c3.9,1.5,8.2,1.5,12.1,0c5-2,10.5-2,15.5,0c3.9,1.5,8.2,1.5,12.1,0
	l4.7-1.9c7.1-10.3,11.3-22.8,11.3-36.2C163.5,76.9,135,48.4,99.8,48.4z M111.8,76.6c0,0,0,0.1,0,0.2c0,0.1,0,0.2,0.1,0.3
	c0,0.1,0,0.1,0,0.2c0.7,4.7,3.8,30.1-13.4,52.3l-28.7-7.2L111.8,76.6z M106.1,134.3c-10.8,0-20.5,3.3-26.9,8.4
	C67,124.5,57,121.2,57,121.2l54,13.3C109.3,134.4,107.7,134.3,106.1,134.3z M115.1,133.6l-14.3-3.6c4.2-5.6,7.5-11.8,9.8-18.4
	c1.9-5.6,3.2-11.5,3.8-17.6c0.3-2.9,0.3-5.5,0.3-7.8l16.9-18.5C131.6,67.8,142.7,107.7,115.1,133.6z"/>
</svg>
