<?xml version="1.0" encoding="utf-8"?>
<!-- Generator: Adobe Illustrator 25.4.1, SVG Export Plug-In . SVG Version: 6.00 Build 0)  -->
<svg version="1.1" id="Layer_1" xmlns="http://www.w3.org/2000/svg" xmlns:xlink="http://www.w3.org/1999/xlink" x="0px" y="0px"
	 viewBox="0 0 96.8 102.9" style="enable-background:new 0 0 96.8 102.9;" xml:space="preserve">
<style type="text/css">
	.st0{clip-path:url(#SVGID_00000056408459003615047620000012765056764093234862_);fill:#1B2082;}
</style>
<g>
	<g>
		<defs>
			<rect id="SVGID_1_" x="0.9" y="3.2" width="94.7" height="94.7"/>
		</defs>
		<clipPath id="SVGID_00000122680201045508540660000003432895732053205908_">
			<use xlink:href="#SVGID_1_"  style="overflow:visible;"/>
		</clipPath>
		<path style="clip-path:url(#SVGID_00000122680201045508540660000003432895732053205908_);fill:#1B2082;" d="M93.8,47.3l-15.2-7.6
			l15.2-7.6c2.7-1.4,2.7-5.3,0-6.6L50.1,3.6c-1-0.5-2.3-0.5-3.3,0L3.2,25.4c-2.7,1.4-2.7,5.3,0,6.6l15.2,7.6L3.2,47.3
			c-2.7,1.4-2.7,5.3,0,6.6l15.2,7.6L3.2,69.1c-2.7,1.4-2.7,5.3,0,6.6l43.7,21.8c1,0.5,2.3,0.5,3.3,0l43.7-21.8
			c2.7-1.4,2.7-5.3,0-6.6l-15.2-7.6l15.2-7.6C96.5,52.5,96.5,48.6,93.8,47.3L93.8,47.3z M48.5,11.1l35.4,17.7L48.5,46.4L13.1,28.8
			L48.5,11.1z M83.9,72.4L48.5,90.1L13.1,72.4l13.6-6.8l20.2,10.1c1,0.5,2.3,0.5,3.3,0l20.2-10.1L83.9,72.4z M48.5,68.3L13.1,50.6
			l13.6-6.8l20.2,10.1c1,0.5,2.3,0.5,3.3,0l20.2-10.1l13.6,6.8L48.5,68.3z M48.5,68.3"/>
	</g>
</g>
</svg>
