<?xml version="1.0" encoding="utf-8"?>
<!-- Generator: Adobe Illustrator 26.0.1, SVG Export Plug-In . SVG Version: 6.00 Build 0)  -->
<svg version="1.1" id="Layer_1" xmlns="http://www.w3.org/2000/svg" xmlns:xlink="http://www.w3.org/1999/xlink" x="0px" y="0px"
	 viewBox="0 0 200 200" style="enable-background:new 0 0 200 200;" xml:space="preserve">
<style type="text/css">
	.st0{fill:none;stroke:#2E3192;stroke-width:7;stroke-linecap:round;stroke-linejoin:round;stroke-miterlimit:10;}
</style>
<g>
	<path class="st0" d="M146.8,125c-1.8,0-3.6-0.7-5.1-2c-2.9-2.8-3-7.4-0.2-10.4c4.7-4.9,7.3-11.4,7.3-18.3c0-6.8-2.6-13.3-7.3-18.3
		c-2.8-2.9-2.7-7.6,0.2-10.4c2.9-2.8,7.6-2.7,10.4,0.2c7.3,7.7,11.4,17.8,11.4,28.4s-4,20.7-11.4,28.4
		C150.7,124.3,148.8,125,146.8,125z"/>
</g>
<g>
	<path class="st0" d="M168.8,143.7c-1.8,0-3.6-0.7-5.1-2c-2.9-2.8-3-7.4-0.2-10.4c9.5-10,14.8-23.1,14.8-37c0-13.8-5.3-27-14.8-37
		c-2.8-2.9-2.7-7.6,0.2-10.4c2.9-2.8,7.6-2.7,10.4,0.2C186.3,60,193,76.7,193,94.3s-6.7,34.3-18.9,47.1
		C172.7,142.9,170.8,143.7,168.8,143.7z"/>
</g>
<g>
	<path class="st0" d="M52.2,63.7c1.8,0,3.6,0.7,5.1,2c2.9,2.8,3,7.4,0.2,10.4c-4.7,4.9-7.3,11.4-7.3,18.3c0,6.8,2.6,13.3,7.3,18.3
		c2.8,2.9,2.7,7.6-0.2,10.4s-7.6,2.7-10.4-0.2C39.5,115,35.5,105,35.5,94.3c0-10.6,4-20.7,11.4-28.4C48.3,64.4,50.2,63.7,52.2,63.7z
		"/>
</g>
<g>
	<path class="st0" d="M30.2,45c1.8,0,3.6,0.7,5.1,2c2.9,2.8,3,7.4,0.2,10.4c-9.5,10-14.8,23.1-14.8,37c0,13.8,5.3,27,14.8,37
		c2.8,2.9,2.7,7.6-0.2,10.4c-2.9,2.8-7.6,2.7-10.4-0.2C12.7,128.7,6,112,6,94.3C6,76.7,12.7,60,24.9,47.2C26.3,45.7,28.2,45,30.2,45
		z"/>
</g>
<circle class="st0" cx="100.1" cy="94.3" r="23.8"/>
</svg>
