<?xml version="1.0" encoding="utf-8"?>
<!-- Generator: Adobe Illustrator 25.4.1, SVG Export Plug-In . SVG Version: 6.00 Build 0)  -->
<svg version="1.1" id="Layer_1" xmlns="http://www.w3.org/2000/svg" xmlns:xlink="http://www.w3.org/1999/xlink" x="0px" y="0px"
	 viewBox="0 0 96.8 102.9" style="enable-background:new 0 0 96.8 102.9;" xml:space="preserve">
<style type="text/css">
	.st0{clip-path:url(#SVGID_00000073713477204345037000000011394621401530352548_);fill:#1B2082;}
	.st1{fill:#1B2082;}
	.st2{clip-path:url(#SVGID_00000036209471201072785700000012062571848371449482_);fill:#1B2082;}
</style>
<g>
	<g>
		<defs>
			<rect id="SVGID_1_" x="1.5" y="13.8" width="93.9" height="75.4"/>
		</defs>
		<clipPath id="SVGID_00000131331261059062147310000015665394987993268403_">
			<use xlink:href="#SVGID_1_"  style="overflow:visible;"/>
		</clipPath>
		<path style="clip-path:url(#SVGID_00000131331261059062147310000015665394987993268403_);fill:#1B2082;" d="M10.8,51.6
			c0-10.9,3.8-21.5,10.8-29.9c1.7-2,1.4-5-0.6-6.6c-2-1.7-5-1.4-6.6,0.6c-17.2,20.8-17.2,50.9,0,71.7c0.9,1.1,2.2,1.7,3.6,1.7
			c1.1,0,2.2-0.4,3-1.1c1-0.8,1.6-1.9,1.7-3.2c0.1-1.2-0.3-2.5-1.1-3.4C14.7,73.1,10.9,62.5,10.8,51.6L10.8,51.6z M10.8,51.6"/>
	</g>
	<path class="st1" d="M57.8,51.6c0,5.2-4.2,9.4-9.4,9.4S39,56.8,39,51.6c0-5.2,4.2-9.4,9.4-9.4S57.8,46.4,57.8,51.6L57.8,51.6z
		 M57.8,51.6"/>
	<path class="st1" d="M72.1,35.1c-0.5-1.2-1.6-2.1-2.8-2.5c-1.3-0.4-2.6-0.3-3.8,0.4c-1.1,0.7-2,1.8-2.2,3.1c-0.3,1.3,0,2.7,0.8,3.7
		c4.2,7.3,4.2,16.2,0,23.5c-0.7,1.1-0.9,2.4-0.6,3.6c0.3,1.2,1.1,2.3,2.1,2.9c0.7,0.4,1.6,0.6,2.4,0.7c1.6,0,3.2-0.8,4-2.3
		c5.8-10.2,5.8-22.7,0-32.9V35.1z M72.1,35.1"/>
	<g>
		<defs>
			<rect id="SVGID_00000046334578442798437950000017213218573143983259_" x="1.5" y="13.8" width="93.9" height="75.4"/>
		</defs>
		<clipPath id="SVGID_00000119097628786893463350000011275187751073749691_">
			<use xlink:href="#SVGID_00000046334578442798437950000017213218573143983259_"  style="overflow:visible;"/>
		</clipPath>
		<path style="clip-path:url(#SVGID_00000119097628786893463350000011275187751073749691_);fill:#1B2082;" d="M31.1,33.5
			c-1.1-0.7-2.4-0.9-3.6-0.6c-1.2,0.3-2.3,1.1-2.9,2.1c-5.8,10.2-5.8,22.7,0,32.9c0.8,1.5,2.4,2.4,4,2.4c0.9,0,1.7-0.2,2.4-0.7
			c1.1-0.6,1.8-1.7,2.1-2.9c0.3-1.2,0.1-2.5-0.6-3.6c-4.2-7.3-4.2-16.2,0-23.5C34,37.6,33.2,34.8,31.1,33.5L31.1,33.5z M31.1,33.5"
			/>
		<path style="clip-path:url(#SVGID_00000119097628786893463350000011275187751073749691_);fill:#1B2082;" d="M82.4,15.7
			c-1.7-2-4.6-2.3-6.6-0.6c-1,0.8-1.6,1.9-1.7,3.2c-0.1,1.2,0.3,2.5,1.1,3.4c14.3,17.3,14.3,42.4,0,59.7c-0.8,1-1.2,2.2-1.1,3.4
			c0.1,1.2,0.7,2.4,1.7,3.2c0.8,0.7,1.9,1.1,3,1.1c1.4,0,2.7-0.6,3.6-1.7C99.6,66.7,99.6,36.6,82.4,15.7L82.4,15.7z M82.4,15.7"/>
	</g>
</g>
</svg>
