<?xml version="1.0" encoding="utf-8"?>
<!-- Generator: Adobe Illustrator 26.0.1, SVG Export Plug-In . SVG Version: 6.00 Build 0)  -->
<svg version="1.1" id="Layer_1" xmlns="http://www.w3.org/2000/svg" xmlns:xlink="http://www.w3.org/1999/xlink" x="0px" y="0px"
	 viewBox="0 0 200 200" style="enable-background:new 0 0 200 200;" xml:space="preserve">
<style type="text/css">
	.st0{fill:none;stroke:#2E3192;stroke-width:2.5;stroke-linecap:round;stroke-linejoin:round;stroke-miterlimit:10;}
	
		.st1{fill:none;stroke:#2E3192;stroke-width:2.5;stroke-linecap:round;stroke-linejoin:round;stroke-miterlimit:10;stroke-dasharray:0.8797,4.3987;}
</style>
<path class="st0" d="M89.5,50h75.2c7.9,0,14.3,6.4,14.3,14.3v82.4"/>
<line class="st0" x1="21.3" y1="146.7" x2="21.3" y2="102.6"/>
<path class="st0" d="M4,146.7l192.3,0c0.7,0,1.3,0.6,1.3,1.3v3.8c0,5.1-4.2,9.3-9.3,9.3H11.9c-5.1,0-9.3-4.2-9.3-9.3l0-3.8
	C2.6,147.3,3.2,146.7,4,146.7z"/>
<line class="st0" x1="97.2" y1="59.7" x2="103.1" y2="59.7"/>
<line class="st0" x1="88.5" y1="69" x2="179" y2="69"/>
<line class="st0" x1="163.5" y1="102.5" x2="143.6" y2="82.6"/>
<line class="st0" x1="144.8" y1="101.3" x2="126.1" y2="82.6"/>
<line class="st1" x1="163.5" y1="120" x2="144.8" y2="101.3"/>
<path class="st0" d="M6.4,49.2C2.7,63,7.6,78.2,19.9,87.1c15.9,11.6,38.2,8,49.8-7.9c11.6-15.9,8-38.2-7.9-49.8
	c-15.9-11.6-38.2-8-49.8,7.9c-0.1,0.2-0.3,0.4-0.4,0.6"/>
<polyline class="st0" points="23.8,37.1 11.5,38 10.8,25.8 "/>
</svg>
