<?xml version="1.0" encoding="utf-8"?>
<!-- Generator: Adobe Illustrator 25.4.1, SVG Export Plug-In . SVG Version: 6.00 Build 0)  -->
<svg version="1.1" id="Layer_1" xmlns="http://www.w3.org/2000/svg" xmlns:xlink="http://www.w3.org/1999/xlink" x="0px" y="0px"
	 viewBox="0 0 96.8 102.9" style="enable-background:new 0 0 96.8 102.9;" xml:space="preserve">
<style type="text/css">
	.st0{fill:#1B2082;}
	.st1{clip-path:url(#SVGID_00000179636605285858053190000008890196304556172450_);fill:#1B2082;}
</style>
<g>
	<path class="st0" d="M89.5,23.6H7.3c-3.9,0-7-3.1-7-7v-4c0-3.9,3.1-7,7-7h82.2c3.9,0,7,3.1,7,7v4C96.5,20.4,93.3,23.6,89.5,23.6
		L89.5,23.6z M7.3,11.6c-0.6,0-1,0.4-1,1v4c0,0.6,0.4,1,1,1h82.2c0.6,0,1-0.4,1-1v-4c0-0.6-0.4-1-1-1H7.3z M7.3,11.6"/>
	<path class="st0" d="M89.5,77.7H7.3c-1.7,0-3-1.3-3-3c0-1.7,1.3-3,3-3h82.2c1.7,0,3,1.3,3,3C92.5,76.4,91.1,77.7,89.5,77.7
		L89.5,77.7z M89.5,77.7"/>
	<g>
		<defs>
			<rect id="SVGID_1_" x="0.3" y="5.6" width="96.2" height="96.2"/>
		</defs>
		<clipPath id="SVGID_00000132779729601678870550000002251745440196697277_">
			<use xlink:href="#SVGID_1_"  style="overflow:visible;"/>
		</clipPath>
		<path style="clip-path:url(#SVGID_00000132779729601678870550000002251745440196697277_);fill:#1B2082;" d="M48.4,101.8
			c-1.7,0-3-1.3-3-3v-23c0-1.7,1.3-3,3-3s3,1.3,3,3v23C51.4,100.4,50.1,101.8,48.4,101.8L48.4,101.8z M48.4,101.8"/>
		<path style="clip-path:url(#SVGID_00000132779729601678870550000002251745440196697277_);fill:#1B2082;" d="M65.4,101.8
			c-0.9,0-1.8-0.4-2.4-1.2L48.4,80.8l-14.6,19.8c-1,1.3-2.9,1.6-4.2,0.6c-1.3-1-1.6-2.9-0.6-4.2l17-23c1.1-1.5,3.7-1.5,4.8,0l17,23
			c1,1.3,0.7,3.2-0.6,4.2C66.7,101.6,66,101.8,65.4,101.8L65.4,101.8z M65.4,101.8"/>
	</g>
	<path class="st0" d="M85.5,77.7c-1.7,0-3-1.3-3-3V20.6c0-1.7,1.3-3,3-3c1.7,0,3,1.3,3,3v54.1C88.5,76.4,87.1,77.7,85.5,77.7
		L85.5,77.7z M85.5,77.7"/>
	<path class="st0" d="M11.3,77.7c-1.7,0-3-1.3-3-3V20.6c0-1.7,1.3-3,3-3c1.7,0,3,1.3,3,3v54.1C14.3,76.4,13,77.7,11.3,77.7
		L11.3,77.7z M11.3,77.7"/>
</g>
</svg>
