<?xml version="1.0" encoding="utf-8"?>
<!-- Generator: Adobe Illustrator 26.0.1, SVG Export Plug-In . SVG Version: 6.00 Build 0)  -->
<svg version="1.1" id="Layer_1" xmlns="http://www.w3.org/2000/svg" xmlns:xlink="http://www.w3.org/1999/xlink" x="0px" y="0px"
	 viewBox="0 0 200 200" style="enable-background:new 0 0 200 200;" xml:space="preserve">
<style type="text/css">
	.st0{fill:none;stroke:#2E3192;stroke-width:7;stroke-linecap:round;stroke-linejoin:round;stroke-miterlimit:10;}
</style>
<path class="st0" d="M89,51.7h73.2c7.6,0,13.7,6.1,13.7,13.7v79.1"/>
<line class="st0" x1="24.4" y1="144.5" x2="24.4" y2="102.2"/>
<path class="st0" d="M7.8,144.5h184.7c0.7,0,1.2,0.6,1.2,1.2v3.6c0,4.9-4,8.9-8.9,8.9H15.4c-4.9,0-8.9-4-8.9-8.9v-3.6
	C6.5,145.1,7,144.5,7.8,144.5z"/>
<line class="st0" x1="89" y1="69.9" x2="175.9" y2="69.9"/>
<line class="st0" x1="161" y1="102.1" x2="141.9" y2="83"/>
<line class="st0" x1="161.4" y1="119.3" x2="125.1" y2="83"/>
<path class="st0" d="M11.9,51.4C8.6,63.9,13,77.7,24.2,85.8c14.4,10.5,34.7,7.3,45.2-7.2s7.3-34.7-7.2-45.2S27.5,26.1,17,40.6
	c-0.1,0.2-0.3,0.4-0.4,0.5"/>
<polyline class="st0" points="27.7,40.4 16.6,41.2 15.9,30.1 "/>
</svg>
