<?xml version="1.0" encoding="utf-8"?>
<!-- Generator: Adobe Illustrator 25.4.1, SVG Export Plug-In . SVG Version: 6.00 Build 0)  -->
<svg version="1.1" id="Layer_1" xmlns="http://www.w3.org/2000/svg" xmlns:xlink="http://www.w3.org/1999/xlink" x="0px" y="0px"
	 viewBox="0 0 97.1 69.3" style="enable-background:new 0 0 97.1 69.3;" xml:space="preserve">
<style type="text/css">
	.st0{fill:#2C307C;}
</style>
<g>
	<path class="st0" d="M56.2,33.7L56.2,33.7c3.6,0,6.5-2.9,6.5-6.5V8.4c0-3.6-2.9-6.5-6.5-6.5c-3.6,0-6.5,2.9-6.5,6.5v18.8
		C49.7,30.8,52.6,33.7,56.2,33.7L56.2,33.7z M52.3,8.4c0-2.1,1.7-3.9,3.9-3.9c2.1,0,3.9,1.7,3.9,3.9v18.8c0,2.1-1.7,3.9-3.9,3.9h0
		c-2.1,0-3.9-1.7-3.9-3.9V8.4z M52.3,8.4"/>
	<path class="st0" d="M40.9,35.6L40.9,35.6c-3.6,0-6.5,2.9-6.5,6.5v18.8c0,3.6,2.9,6.5,6.5,6.5c3.6,0,6.5-2.9,6.5-6.5V42.1
		C47.4,38.5,44.5,35.6,40.9,35.6L40.9,35.6z M44.8,60.9c0,2.1-1.7,3.9-3.9,3.9c-2.1,0-3.9-1.7-3.9-3.9V42.1c0-2.1,1.7-3.9,3.9-3.9h0
		c2.1,0,3.9,1.7,3.9,3.9V60.9z M44.8,60.9"/>
	<path class="st0" d="M40.9,20.5H22c-3.6,0-6.5,2.9-6.5,6.5c0,3.6,2.9,6.5,6.5,6.5h18.9c3.6,0,6.5-2.9,6.5-6.5v0
		C47.4,23.4,44.5,20.5,40.9,20.5L40.9,20.5z M44.8,27c0,2.1-1.7,3.9-3.9,3.9H22c-2.1,0-3.9-1.7-3.9-3.9c0-2.1,1.7-3.9,3.9-3.9h18.9
		C43.1,23.1,44.8,24.8,44.8,27L44.8,27z M44.8,27"/>
	<path class="st0" d="M67.2,33.4h5.6c3.8,0,6.8-3.1,6.8-6.8v-1.3c0-3.8-3.1-6.8-6.9-6.8c-3.8,0-6.8,3.1-6.8,6.8v6.8
		C65.9,32.8,66.5,33.4,67.2,33.4L67.2,33.4z M68.5,25.3c0-2.4,1.9-4.3,4.3-4.3c2.4,0,4.3,1.9,4.3,4.3v1.3c0,2.4-1.9,4.3-4.3,4.3
		h-4.3V25.3z M68.5,25.3"/>
	<path class="st0" d="M29.9,35.9h-5.6c-3.8,0-6.8,3.1-6.8,6.8V44c0,3.8,3.1,6.8,6.9,6.8c3.8,0,6.8-3.1,6.8-6.8v-6.8
		C31.2,36.5,30.6,35.9,29.9,35.9L29.9,35.9z M28.6,44c0,2.4-1.9,4.3-4.3,4.3c-2.4,0-4.3-1.9-4.3-4.3v-1.3c0-2.4,1.9-4.3,4.3-4.3h4.3
		V44z M28.6,44"/>
	<path class="st0" d="M39.5,18h5.6c0.7,0,1.3-0.6,1.3-1.3V9.9c0-3.8-3.1-6.8-6.9-6.8c-3.8,0-6.8,3.1-6.8,6.8v1.3
		C32.7,15,35.8,18,39.5,18L39.5,18z M35.3,9.9c0-2.4,1.9-4.3,4.3-4.3c2.4,0,4.3,1.9,4.3,4.3v5.5h-4.3c-2.4,0-4.3-1.9-4.3-4.3V9.9z
		 M35.3,9.9"/>
	<path class="st0" d="M57.5,51.3H52c-0.7,0-1.3,0.6-1.3,1.3v6.8c0,3.8,3.1,6.8,6.9,6.8c3.8,0,6.8-3.1,6.8-6.8v-1.3
		C64.4,54.3,61.3,51.3,57.5,51.3L57.5,51.3z M61.8,59.4c0,2.4-1.9,4.3-4.3,4.3c-2.4,0-4.3-1.9-4.3-4.3v-5.5h4.3
		c2.4,0,4.3,1.9,4.3,4.3V59.4z M61.8,59.4"/>
	<path class="st0" d="M75.1,35.9H56.2c-3.6,0-6.5,2.9-6.5,6.5c0,3.6,2.9,6.5,6.5,6.5H60c0.7,0,1.3-0.6,1.3-1.3
		c0-0.7-0.6-1.3-1.3-1.3h-3.8c-2.1,0-3.9-1.7-3.9-3.9c0-2.1,1.7-3.9,3.9-3.9h18.9c2.1,0,3.9,1.7,3.9,3.9c0,2.1-1.7,3.9-3.9,3.9h-3.4
		c-0.7,0-1.3,0.6-1.3,1.3c0,0.7,0.6,1.3,1.3,1.3h3.4c3.6,0,6.5-2.9,6.5-6.5C81.5,38.8,78.6,35.9,75.1,35.9L75.1,35.9z M75.1,35.9"/>
	<path class="st0" d="M66.6,46.4c-0.5-0.3-1.1-0.3-1.5,0.1c-0.4,0.3-0.6,0.9-0.4,1.4c0.2,0.5,0.7,0.9,1.2,0.9c0.5,0,1-0.3,1.2-0.8
		C67.3,47.4,67.1,46.7,66.6,46.4L66.6,46.4z M66.6,46.4"/>
</g>
</svg>
