<?xml version="1.0" encoding="utf-8"?>
<!-- Generator: Adobe Illustrator 26.0.1, SVG Export Plug-In . SVG Version: 6.00 Build 0)  -->
<svg version="1.1" id="Layer_1" xmlns="http://www.w3.org/2000/svg" xmlns:xlink="http://www.w3.org/1999/xlink" x="0px" y="0px"
	 viewBox="0 0 200 200" style="enable-background:new 0 0 200 200;" xml:space="preserve">
<style type="text/css">
	.st0{fill:none;stroke:#2E3192;stroke-width:7;stroke-linecap:round;stroke-linejoin:round;stroke-miterlimit:10;}
	.st1{fill:none;stroke:#2E3192;stroke-width:7;stroke-linecap:round;stroke-linejoin:round;stroke-miterlimit:9.9999;}
</style>
<g>
	<path class="st0" d="M79.4,73.8c-19,0-34.5-15.5-34.5-34.5C44.9,20.2,60.3,4.8,79.4,4.8c19,0,34.5,15.5,34.5,34.5
		C113.9,58.4,98.5,73.8,79.4,73.8z"/>
</g>
<path class="st0" d="M95.2,112.1c-5.2,0-9.6,3.4-11,8.3l-10,35.3l-5.6,19.7l-2.1,7.4C65,188,68.8,193,74.2,193h84.9
	c5.2,0,9.6-3.4,11-8.3l3.4-11.7l5.2-18.1l9.2-32.6c1.5-5.2-2.4-10.2-7.7-10.2C180.1,112.1,95.2,112.1,95.2,112.1z"/>
<path class="st0" d="M77.6,143.9H52.9c-2.1,0-3.8-1.7-3.8-3.8v-13.8"/>
<path class="st0" d="M127.6,99c-6.2-5.8-14.8-9.5-24.1-9.5l0,0H55.3l0,0c-19.4,0-35.2,15.8-35.2,35.2V147
	c0,14.2,11.5,25.7,25.7,25.7h23.6"/>
<line class="st0" x1="78.2" y1="193.1" x2="7.2" y2="193.1"/>
<path class="st0" d="M140.6,152.6c0,6-4.8,10.7-10.7,10.7c-6,0-10.7-4.8-10.7-10.7c0-6,4.8-10.7,10.7-10.7
	C135.7,141.9,140.6,146.6,140.6,152.6z"/>
<path class="st0" d="M170.7,59.7l-20.4-11.8c-1.2-0.7-2.6,0.2-2.6,1.5V73c0,1.3,1.4,2.2,2.6,1.5l20.4-11.8
	C171.9,62,171.9,60.4,170.7,59.7z"/>
<ellipse class="st1" cx="157.1" cy="61.2" rx="29.6" ry="29.6"/>
</svg>
