<?xml version="1.0" encoding="utf-8"?>
<!-- Generator: Adobe Illustrator 26.0.1, SVG Export Plug-In . SVG Version: 6.00 Build 0)  -->
<svg version="1.1" id="Layer_1" xmlns="http://www.w3.org/2000/svg" xmlns:xlink="http://www.w3.org/1999/xlink" x="0px" y="0px"
	 viewBox="0 0 200 200" style="enable-background:new 0 0 200 200;" xml:space="preserve">
<style type="text/css">
	.st0{fill:none;stroke:#2E3192;stroke-width:2.5;stroke-linecap:round;stroke-linejoin:round;stroke-miterlimit:10;}
</style>
<g>
	<path class="st0" d="M80.7,72.1c-19.2,0-34.8-15.6-34.8-34.8C45.8,18,61.4,2.4,80.7,2.4c19.2,0,34.8,15.6,34.8,34.8
		C115.5,56.5,99.9,72.1,80.7,72.1z"/>
</g>
<path class="st0" d="M96.6,110.7c-5.2,0-9.7,3.4-11.1,8.4l-10.1,35.6l-5.7,19.9l-2.1,7.5c-1.5,5.2,2.4,10.3,7.8,10.3h85.7
	c5.2,0,9.7-3.4,11.1-8.4l3.4-11.8l5.2-18.3l9.3-32.9c1.5-5.2-2.4-10.3-7.8-10.3H96.6z"/>
<path class="st0" d="M78.8,142.8H53.9c-2.1,0-3.8-1.7-3.8-3.8v-13.9"/>
<path class="st0" d="M129.3,97.5c-6.3-5.9-14.9-9.6-24.3-9.6l0,0H56.3l0,0c-19.6,0-35.5,15.9-35.5,35.5V146
	c0,14.3,11.6,25.9,25.9,25.9h23.8"/>
<line class="st0" x1="79.5" y1="192.5" x2="7.8" y2="192.5"/>
<path class="st0" d="M138.4,151.6c0,5.3-4.3,9.5-9.5,9.5c-5.3,0-9.5-4.3-9.5-9.5c0-5.3,4.3-9.5,9.5-9.5
	C134.1,142.1,138.4,146.3,138.4,151.6z"/>
<path class="st0" d="M171.7,58l-18.6-10.8c-1.1-0.6-2.4,0.2-2.4,1.4v21.5c0,1.2,1.3,2,2.4,1.4l18.6-10.8
	C172.8,60.1,172.8,58.6,171.7,58z"/>
<ellipse transform="matrix(0.7071 -0.7071 0.7071 0.7071 4.5964 129.8071)" class="st0" cx="159" cy="59.4" rx="26.2" ry="26.2"/>
</svg>
