<?xml version="1.0" encoding="utf-8"?>
<!-- Generator: Adobe Illustrator 26.0.1, SVG Export Plug-In . SVG Version: 6.00 Build 0)  -->
<svg version="1.1" id="Layer_1" xmlns="http://www.w3.org/2000/svg" xmlns:xlink="http://www.w3.org/1999/xlink" x="0px" y="0px"
	 viewBox="0 0 200 200" style="enable-background:new 0 0 200 200;" xml:space="preserve">
<style type="text/css">
	.st0{fill:none;stroke:#2E3192;stroke-width:7;stroke-linecap:round;stroke-linejoin:round;stroke-miterlimit:10;}
</style>
<line class="st0" x1="74" y1="52.8" x2="147.4" y2="52.8"/>
<path class="st0" d="M61.8,4.8h100.3c4.7,0,8.5,3.8,8.5,8.4v173.7c0,4.7-3.8,8.4-8.5,8.4H39.8c-4.7,0-8.5-3.8-8.5-8.4V35
	c0-2.2,0.9-4.4,2.4-5.9L55.9,7.2C57.5,5.7,59.6,4.8,61.8,4.8z"/>
<line class="st0" x1="74" y1="87" x2="125.2" y2="87"/>
<path class="st0" d="M33.3,31.6h23.5c1.9,0,3.6-1.6,3.6-3.6V4.9"/>
<line class="st0" x1="74" y1="69.9" x2="147.4" y2="69.9"/>
<line class="st0" x1="54.6" y1="52.8" x2="58.7" y2="52.8"/>
<line class="st0" x1="54.6" y1="87" x2="58.7" y2="87"/>
<line class="st0" x1="54.6" y1="69.9" x2="58.7" y2="69.9"/>
<path class="st0" d="M144.6,181.2c4.2-7.3,6.7-15.9,6.7-24.9c0-27.7-22.7-50.2-50.7-50.2S50,128.5,50,156.2c0,9.1,2.4,17.6,6.7,24.9
	"/>
<path class="st0" d="M130.5,145.9l-3.1-7.5c-0.3-0.7-1-1-1.6-0.8l-6.8,2.3c-0.5,0.2-1.1,0-1.5-0.5c-0.7-0.8-1.5-1.5-2.1-2.1
	c-0.5-0.3-0.7-1-0.5-1.5l2.3-6.8c0.2-0.7-0.2-1.5-0.8-1.6l-7.5-3.1c-0.7-0.3-1.5,0-1.8,0.7l-3.3,6.5c-0.3,0.5-0.8,0.8-1.3,0.8
	c-1,0-2.1,0-3.1,0c-0.5,0-1.1-0.2-1.3-0.8l-3.3-6.5c-0.3-0.7-1.1-1-1.8-0.7l-7.5,3.1c-0.7,0.3-1,1-0.8,1.6l2.3,6.8
	c0.2,0.5,0,1.1-0.5,1.5c-0.8,0.7-1.5,1.5-2.1,2.1c-0.3,0.5-1,0.7-1.5,0.5l-6.8-2.3c-0.7-0.2-1.5,0.2-1.6,0.8l-3.1,7.5
	c-0.3,0.7,0,1.5,0.7,1.8l6.5,3.3c0.5,0.3,0.8,0.8,0.8,1.3c0,1,0,2.1,0,3.1c0,0.5-0.2,1.1-0.8,1.3l-6.5,3.3c-0.7,0.3-1,1.1-0.7,1.8
	l3.1,7.5c0.3,0.7,1,1,1.6,0.8l6.8-2.3c0.5-0.2,1.1,0,1.5,0.5c0.7,0.8,1.5,1.5,2.1,2.1c0.5,0.3,0.7,1,0.5,1.5l-2.3,6.8
	c-0.2,0.7,0.2,1.5,0.8,1.6l7.5,3.1c0.7,0.3,1.5,0,1.8-0.7l3.3-6.5c0.3-0.5,0.8-0.8,1.3-0.8c1,0,2.1,0,3.1,0c0.5,0,1.1,0.2,1.3,0.8
	l3.3,6.5c0.3,0.7,1.1,1,1.8,0.7l7.5-3.1c0.7-0.3,1-1,0.8-1.6l-2.3-6.8c-0.2-0.5,0-1.1,0.5-1.5c0.8-0.7,1.5-1.5,2.1-2.1
	c0.3-0.5,1-0.7,1.5-0.5l6.8,2.3c0.7,0.2,1.5-0.2,1.6-0.8l3.1-7.5c0.3-0.7,0-1.5-0.7-1.8l-6.5-3.3c-0.5-0.3-0.8-0.8-0.8-1.3
	c0-1,0-2.1,0-3.1c0-0.5,0.2-1.1,0.8-1.3l6.5-3.3C130.5,147.4,130.9,146.6,130.5,145.9z"/>
<path class="st0" d="M108.5,150.7c1.7,4.1-0.3,8.8-4.4,10.5c-4.1,1.7-8.8-0.3-10.5-4.4s0.3-8.8,4.4-10.5
	C102.1,144.7,106.8,146.6,108.5,150.7z"/>
</svg>
