<?xml version="1.0" encoding="utf-8"?>
<!-- Generator: Adobe Illustrator 26.0.1, SVG Export Plug-In . SVG Version: 6.00 Build 0)  -->
<svg version="1.1" id="Layer_1" xmlns="http://www.w3.org/2000/svg" xmlns:xlink="http://www.w3.org/1999/xlink" x="0px" y="0px"
	 viewBox="0 0 200 200" style="enable-background:new 0 0 200 200;" xml:space="preserve">
<style type="text/css">
	.st0{fill:none;stroke:#2E3192;stroke-width:2.5;stroke-linecap:round;stroke-linejoin:round;stroke-miterlimit:10;}
</style>
<line class="st0" x1="73.3" y1="52.3" x2="148.8" y2="52.3"/>
<path class="st0" d="M60.8,2.9H164c4.8,0,8.7,3.9,8.7,8.6v178.8c0,4.8-3.9,8.6-8.7,8.6H38.1c-4.8,0-8.7-3.9-8.7-8.6V34
	c0-2.3,0.9-4.5,2.5-6.1L54.7,5.4C56.3,3.8,58.5,2.9,60.8,2.9z"/>
<line class="st0" x1="73.3" y1="87.5" x2="126" y2="87.5"/>
<path class="st0" d="M31.4,30.5h24.2c2,0,3.7-1.6,3.7-3.7V3"/>
<line class="st0" x1="73.3" y1="69.9" x2="148.8" y2="69.9"/>
<line class="st0" x1="53.3" y1="52.3" x2="57.6" y2="52.3"/>
<line class="st0" x1="53.3" y1="87.5" x2="57.6" y2="87.5"/>
<line class="st0" x1="53.3" y1="69.9" x2="57.6" y2="69.9"/>
<path class="st0" d="M142.5,182.5c4-6.9,6.3-15,6.3-23.5c0-26.1-21.4-47.3-47.8-47.3S53.3,132.8,53.3,159c0,8.6,2.3,16.6,6.3,23.5"
	/>
<path class="st0" d="M120.9,150.1l-1.9-4.6c-0.2-0.4-0.6-0.6-1-0.5l-4.2,1.4c-0.3,0.1-0.7,0-0.9-0.3c-0.4-0.5-0.9-0.9-1.3-1.3
	c-0.3-0.2-0.4-0.6-0.3-0.9l1.4-4.2c0.1-0.4-0.1-0.9-0.5-1l-4.6-1.9c-0.4-0.2-0.9,0-1.1,0.4l-2,4c-0.2,0.3-0.5,0.5-0.8,0.5
	c-0.6,0-1.3,0-1.9,0c-0.3,0-0.7-0.1-0.8-0.5l-2-4c-0.2-0.4-0.7-0.6-1.1-0.4l-4.6,1.9c-0.4,0.2-0.6,0.6-0.5,1l1.4,4.2
	c0.1,0.3,0,0.7-0.3,0.9c-0.5,0.4-0.9,0.9-1.3,1.3c-0.2,0.3-0.6,0.4-0.9,0.3l-4.2-1.4c-0.4-0.1-0.9,0.1-1,0.5l-1.9,4.6
	c-0.2,0.4,0,0.9,0.4,1.1l4,2c0.3,0.2,0.5,0.5,0.5,0.8c0,0.6,0,1.3,0,1.9c0,0.3-0.1,0.7-0.5,0.8l-4,2c-0.4,0.2-0.6,0.7-0.4,1.1
	l1.9,4.6c0.2,0.4,0.6,0.6,1,0.5l4.2-1.4c0.3-0.1,0.7,0,0.9,0.3c0.4,0.5,0.9,0.9,1.3,1.3c0.3,0.2,0.4,0.6,0.3,0.9l-1.4,4.2
	c-0.1,0.4,0.1,0.9,0.5,1l4.6,1.9c0.4,0.2,0.9,0,1.1-0.4l2-4c0.2-0.3,0.5-0.5,0.8-0.5c0.6,0,1.3,0,1.9,0c0.3,0,0.7,0.1,0.8,0.5l2,4
	c0.2,0.4,0.7,0.6,1.1,0.4l4.6-1.9c0.4-0.2,0.6-0.6,0.5-1l-1.4-4.2c-0.1-0.3,0-0.7,0.3-0.9c0.5-0.4,0.9-0.9,1.3-1.3
	c0.2-0.3,0.6-0.4,0.9-0.3l4.2,1.4c0.4,0.1,0.9-0.1,1-0.5l1.9-4.6c0.2-0.4,0-0.9-0.4-1.1l-4-2c-0.3-0.2-0.5-0.5-0.5-0.8
	c0-0.6,0-1.3,0-1.9c0-0.3,0.1-0.7,0.5-0.8l4-2C120.9,151,121.1,150.5,120.9,150.1z"/>
<path class="st0" d="M108.4,152.6c1.3,3.1-0.2,6.6-3.3,7.9c-3.1,1.3-6.6-0.2-7.9-3.3c-1.3-3.1,0.2-6.6,3.3-7.9
	C103.6,148.1,107.1,149.5,108.4,152.6z"/>
</svg>
