<?xml version="1.0" encoding="utf-8"?>
<!-- Generator: Adobe Illustrator 26.0.1, SVG Export Plug-In . SVG Version: 6.00 Build 0)  -->
<svg version="1.1" id="Layer_1" xmlns="http://www.w3.org/2000/svg" xmlns:xlink="http://www.w3.org/1999/xlink" x="0px" y="0px"
	 viewBox="0 0 200 200" style="enable-background:new 0 0 200 200;" xml:space="preserve">
<style type="text/css">
	.st0{fill:none;stroke:#2E3192;stroke-width:7;stroke-linecap:round;stroke-linejoin:round;stroke-miterlimit:10;}
</style>
<path class="st0" d="M143.2,68.2c-3.5,12.7-13.4,25.5-25.2,25.5S96.3,80.9,92.8,68.1"/>
<line class="st0" x1="93.4" y1="136.2" x2="93.4" y2="159.2"/>
<path class="st0" d="M156.5,159.2c4.2,0,7.6-3.4,7.6-7.6v-8.7c0-21.5-9.8-32.5-32.5-37.2l-13.7,9.5l-13.5-9.6
	c-22.6,4.8-32.5,15.7-32.5,37.2v8.7c0,4.2,3.4,7.6,7.6,7.6L156.5,159.2L156.5,159.2z"/>
<line class="st0" x1="142.7" y1="136.2" x2="142.7" y2="159.2"/>
<path class="st0" d="M104.4,105.6c3.5-2.8,3.5-15.1,3.5-15.1"/>
<path class="st0" d="M131.7,105.6c-3.5-2.8-3.5-15.1-3.5-15.1"/>
<path class="st0" d="M117.2,21.3c25.1,0,35.7,9.3,27.7,45.9c-0.3,1.5-2.3,1.5-2.8,0.1c-1.5-5.4-3.5-16.2-3.5-16.2
	c-0.1-1.3-1.2-2.2-2.6-2.2c-8.8-0.1-18.6-5.7-18.6-5.7c-1.3-0.3-2.4,0.7-2.1,2l3.6,9.8l-16.3-8.6c-1.6-0.8-3.5-0.5-4.7,0.8
	l-4.3,20.1c-0.4,1.5-2.4,1.4-2.8-0.1c-7.9-36.4,2.5-45.7,27.6-45.7"/>
<path class="st0" d="M148.6,90.4c0,0,0,10.3,2.8,12.6c18.8,3.9,26.9,13,26.9,30.9v7.2c0,3.5-0.5,4.8-3.1,6.4"/>
<path class="st0" d="M140.1,93c9.4,0,20-14.5,22.4-22c5.9-18.8,2.5-29.9-7-34.8"/>
<path class="st0" d="M171,90.4c0,0,0,7.9,2.2,9.8l0,0c14.6,3.1,20.9,10.1,20.9,24v5.6c0,2.2-0.2,1.9-1.4,4.5"/>
<path class="st0" d="M164.5,92.4c7.3,0,15.5-11.3,17.4-17.1c4.1-13.2,2.4-21.5-3.5-25.8"/>
<path class="st0" d="M54.3,102.2c3.5,0,6.3,2.8,6.3,6.3v40.6c0,3.5-2.8,6.3-6.3,6.3H13.7c-3.5,0-6.3-2.8-6.3-6.3v-40.6
	c0-3.5,2.8-6.3,6.3-6.3L54.3,102.2z"/>
<line class="st0" x1="24.6" y1="119.4" x2="43.5" y2="138.2"/>
<line class="st0" x1="24.6" y1="138.2" x2="43.5" y2="119.4"/>
<path class="st0" d="M54.3,33.9c3.5,0,6.3,2.8,6.3,6.3v40.6c0,3.5-2.8,6.3-6.3,6.3H13.7c-3.5,0-6.3-2.8-6.3-6.3V40.2
	c0-3.5,2.8-6.3,6.3-6.3H54.3z"/>
<polyline class="st0" points="45.4,53.5 31.3,67.6 22.7,59 "/>
</svg>
