<?xml version="1.0" encoding="utf-8"?>
<!-- Generator: Adobe Illustrator 26.0.1, SVG Export Plug-In . SVG Version: 6.00 Build 0)  -->
<svg version="1.1" id="Layer_1" xmlns="http://www.w3.org/2000/svg" xmlns:xlink="http://www.w3.org/1999/xlink" x="0px" y="0px"
	 viewBox="0 0 200 200" style="enable-background:new 0 0 200 200;" xml:space="preserve">
<style type="text/css">
	.st0{fill:none;stroke:#2E3192;stroke-width:2.5;stroke-linecap:round;stroke-linejoin:round;stroke-miterlimit:10;}
</style>
<path class="st0" d="M148.6,71.1c-3.8,13.6-14.4,27.3-27,27.3c-12.6,0-23.3-13.7-27-27.4"/>
<line class="st0" x1="95.2" y1="140.9" x2="95.2" y2="168.6"/>
<path class="st0" d="M162.9,168.6c4.5,0,8.1-3.6,8.1-8.1v-9.3c0-23.1-10.5-34.8-34.8-39.9l-14.7,10.2L107,111.2
	c-24.2,5.1-34.8,16.8-34.8,39.9v9.3c0,4.5,3.6,8.1,8.1,8.1H162.9z"/>
<line class="st0" x1="148.1" y1="140.9" x2="148.1" y2="168.6"/>
<path class="st0" d="M107,111.2c3.7-3,3.7-16.2,3.7-16.2"/>
<path class="st0" d="M136.3,111.2c-3.7-3-3.7-16.2-3.7-16.2"/>
<path class="st0" d="M120.8,20.8c26.9,0,38.3,10,29.7,49.2c-0.3,1.6-2.5,1.6-3,0.1c-1.6-5.8-3.8-17.4-3.8-17.4
	c-0.1-1.4-1.3-2.4-2.8-2.4c-9.4-0.1-19.9-6.1-19.9-6.1c-1.4-0.3-2.6,0.8-2.3,2.1l3.9,10.5l-17.5-9.2c-1.7-0.9-3.8-0.5-5,0.9
	l-4.6,21.5c-0.4,1.6-2.6,1.5-3-0.1c-8.5-39,2.7-49,29.6-49"/>
<path class="st0" d="M154.6,94.9c0,0,0,11,3,13.5c20.1,4.2,28.8,13.9,28.8,33.1v7.7c0,3.7-3,6.7-6.7,6.7"/>
<path class="st0" d="M145.4,97.7c10.1,0,21.4-15.5,24-23.6c6.3-20.1,2.7-32-7.5-37.3"/>
<path class="st0" d="M173.3,94.9c0,0,0,8.5,2.4,10.5l0,0c15.6,3.3,22.4,10.8,22.4,25.7v6c0,2.4-1.6,4.5-3.9,5.1"/>
<path class="st0" d="M166.3,97c7.8,0,16.6-12.1,18.6-18.3c4.4-14.2,2.6-23-3.7-27.7"/>
<path class="st0" d="M49.1,102.2c3.5,0,6.3,2.8,6.3,6.3v40.6c0,3.5-2.8,6.3-6.3,6.3H8.5c-3.5,0-6.3-2.8-6.3-6.3v-40.6
	c0-3.5,2.8-6.3,6.3-6.3L49.1,102.2z"/>
<line class="st0" x1="18.6" y1="118.6" x2="39.1" y2="139"/>
<line class="st0" x1="18.6" y1="139" x2="39.1" y2="118.6"/>
<path class="st0" d="M49.1,33.9c3.5,0,6.3,2.8,6.3,6.3v40.6c0,3.5-2.8,6.3-6.3,6.3H8.5c-3.5,0-6.3-2.8-6.3-6.3V40.2
	c0-3.5,2.8-6.3,6.3-6.3L49.1,33.9z"/>
<polyline class="st0" points="41.7,52.6 25.7,68.5 16,58.8 "/>
</svg>
