<?xml version="1.0" encoding="utf-8"?>
<!-- Generator: Adobe Illustrator 25.4.1, SVG Export Plug-In . SVG Version: 6.00 Build 0)  -->
<svg version="1.1" id="Layer_1" xmlns="http://www.w3.org/2000/svg" xmlns:xlink="http://www.w3.org/1999/xlink" x="0px" y="0px"
	 viewBox="0 0 96.8 102.9" style="enable-background:new 0 0 96.8 102.9;" xml:space="preserve">
<style type="text/css">
	.st0{fill:#1B2082;}
</style>
<g>
	<g>
		<path class="st0" d="M48.7,5.3C29.9,5.3,13,16.6,5.8,34c-7.2,17.4-3.2,37.4,10.1,50.7s33.3,17.3,50.7,10.1
			c17.4-7.2,28.7-24.1,28.7-43C95.2,26.1,74.4,5.3,48.7,5.3L48.7,5.3z M48.7,89.8c-15.4,0-29.3-9.3-35.1-23.5
			C7.7,52.1,11,35.7,21.8,24.9C32.7,14,49.1,10.7,63.3,16.6c14.2,5.9,23.5,19.8,23.5,35.1C86.7,72.8,69.7,89.8,48.7,89.8L48.7,89.8z
			 M48.7,89.8"/>
	</g>
	<path class="st0" d="M67,38.1L44.6,58.6l-9.8-9.8c-0.8-0.8-1.9-1.3-3-1.3c-1.1,0-2.2,0.4-3,1.2c-0.8,0.8-1.2,1.9-1.2,3
		c0,1.1,0.5,2.2,1.3,3l12.7,12.7c1.6,1.6,4.2,1.7,5.8,0.1l25.4-23.2c0.8-0.8,1.3-1.8,1.4-2.9c0-1.1-0.3-2.2-1.1-3
		C72.2,37.5,71.2,37,70,37C68.9,36.9,67.8,37.3,67,38.1L67,38.1z M67,38.1"/>
</g>
</svg>
