<?xml version="1.0" encoding="utf-8"?>
<!-- Generator: Adobe Illustrator 25.4.1, SVG Export Plug-In . SVG Version: 6.00 Build 0)  -->
<svg version="1.1" id="Layer_1" xmlns="http://www.w3.org/2000/svg" xmlns:xlink="http://www.w3.org/1999/xlink" x="0px" y="0px"
	 viewBox="0 0 97.1 69.3" style="enable-background:new 0 0 97.1 69.3;" xml:space="preserve">
<style type="text/css">
	.st0{fill:#1B2082;stroke:#F4F4F5;stroke-miterlimit:10;}
</style>
<g>
	<g>
		<path class="st0" d="M81.4,7.4c-1.4-0.3-2.7,0.6-3,1.9l-1.8,8.6C70.7,7.9,59.9,1.7,48.2,1.7c-18.1,0-32.9,14.7-32.9,32.9
			c0,1.4,1.1,2.5,2.5,2.5c1.4,0,2.5-1.1,2.5-2.5c0-15.3,12.5-27.8,27.8-27.8c10,0,19.1,5.3,24,13.8l-8.4-1.8c-1.4-0.3-2.7,0.6-3,1.9
			c-0.3,1.4,0.6,2.7,1.9,3l14.5,3.1c0.2,0.1,0.5,0.1,0.7,0c0.4,0,0.8-0.2,1.2-0.4c0.6-0.4,1-0.9,1.1-1.6l3.1-14.5
			C83.6,9,82.7,7.7,81.4,7.4L81.4,7.4z M81.4,7.4"/>
		<path class="st0" d="M78.8,31.2c-1.4,0-2.5,1.2-2.4,2.6c0.2,7.4-2.4,14.5-7.5,19.9c-5.1,5.4-12,8.5-19.4,8.8c-0.3,0-0.6,0-0.9,0
			c-9.7,0-18.6-5-23.6-13.2l8.8,2.4c1.3,0.4,2.7-0.4,3.1-1.8c0.4-1.3-0.4-2.7-1.8-3.1L20.7,43c-0.6-0.2-1.3-0.1-1.9,0.3
			c-0.6,0.3-1,0.9-1.2,1.5l-3.8,14.3c-0.4,1.3,0.4,2.7,1.8,3.1c0.2,0.1,0.4,0.1,0.7,0.1c1.1,0,2.1-0.7,2.4-1.9l2.2-8
			c6,9.4,16.4,15.2,27.7,15.2c0.4,0,0.7,0,1.1,0c8.8-0.3,16.9-4,22.9-10.4c6-6.4,9.1-14.8,8.9-23.5C81.4,32.3,80.2,31.2,78.8,31.2
			L78.8,31.2z M78.8,31.2"/>
	</g>
</g>
</svg>
