<?xml version="1.0" encoding="utf-8"?>
<!-- Generator: Adobe Illustrator 25.4.1, SVG Export Plug-In . SVG Version: 6.00 Build 0)  -->
<svg version="1.1" id="Layer_1" xmlns="http://www.w3.org/2000/svg" xmlns:xlink="http://www.w3.org/1999/xlink" x="0px" y="0px"
	 viewBox="0 0 97.1 69.3" style="enable-background:new 0 0 97.1 69.3;" xml:space="preserve">
<style type="text/css">
	.st0{fill-rule:evenodd;clip-rule:evenodd;fill:#FFFFFF;}
	.st1{fill-rule:evenodd;clip-rule:evenodd;fill:#1B2082;}
</style>
<g>
	<rect x="19.3" y="18.3" class="st0" width="9.9" height="22.7"/>
	<rect x="43.2" y="25.3" class="st0" width="9.9" height="22.7"/>
	<rect x="67.7" y="16.5" class="st0" width="9.9" height="22.7"/>
	<g>
		<g>
			<path class="st1" d="M59,34.6c1.9-1.6,4.3-2.9,6.9-3.7c-2.1-2.3-3.4-5.5-3.4-9.2c0-7.1,5.1-12.6,10.9-12.6
				c5.8,0,10.9,5.5,10.9,12.6c0,3.6-1.3,6.9-3.4,9.2c7,2.3,12,7.7,12.9,14c0.2,1.3-0.2,2.6-1.1,3.6c-0.9,1-2.1,1.6-3.4,1.6
				c-3.6,0-13.4,0-21.4,0c0.6,1.3,0.9,2.6,1.1,4c0.2,1.3-0.2,2.6-1.1,3.6c-0.9,1-2.1,1.6-3.4,1.6c-5.6,0-26,0-31.7,0
				c-1.3,0-2.6-0.6-3.4-1.6c-0.9-1-1.3-2.3-1.1-3.6c0.2-1.4,0.6-2.7,1.1-4c-8,0-17.7,0-21.4,0c-1.3,0-2.6-0.6-3.4-1.6
				c-0.9-1-1.3-2.3-1.1-3.6c0.9-6.3,5.9-11.7,12.9-14c-2.1-2.3-3.4-5.5-3.4-9.2c0-7.1,5.1-12.6,10.9-12.6s10.9,5.5,10.9,12.6
				c0,3.6-1.3,6.9-3.4,9.2c2.6,0.9,4.9,2.1,6.9,3.7c-0.3-1.2-0.5-2.4-0.5-3.7c0-7.1,5.1-12.6,10.9-12.6c5.8,0,10.9,5.5,10.9,12.6
				C59.5,32.2,59.3,33.4,59,34.6z M44.8,39.8l0-0.5c-0.1-0.2-0.2-0.4-0.3-0.6c0,0-0.4-0.3-0.5-0.4c-1.8-1.7-3-4.4-3-7.4
				c0-5.2,3.5-9.4,7.7-9.4s7.7,4.2,7.7,9.4c0,3-1.2,5.7-3,7.4c-0.1,0.1-0.4,0.4-0.5,0.4c-0.2,0.2-0.3,0.4-0.3,0.6l0,0.5
				c0.1,1.4,1,2.7,2.4,3.1c5.9,1.9,10.2,6.2,10.9,11.5c0.1,0.4-0.1,0.8-0.3,1.1c-0.3,0.3-0.6,0.5-1,0.5c-5.6,0-26,0-31.7,0
				c-0.4,0-0.8-0.2-1-0.5c-0.3-0.3-0.4-0.7-0.3-1.1c0.7-5.3,5-9.7,10.9-11.5C43.7,42.5,44.7,41.3,44.8,39.8z M39.4,40.7
				c-1.9-3.1-5.2-5.6-9.2-6.9c-1.4-0.4-2.4-1.7-2.4-3.1l0-0.5c0.1-0.2,0.2-0.4,0.3-0.6c0,0,0.4-0.3,0.5-0.4c1.8-1.7,3-4.4,3-7.5
				c0-5.2-3.5-9.4-7.7-9.4s-7.7,4.2-7.7,9.4c0,3,1.2,5.7,3,7.5c0.1,0.1,0.4,0.4,0.5,0.4c0.2,0.2,0.3,0.4,0.3,0.6l0,0.5
				c-0.1,1.4-1,2.7-2.4,3.1c-5.9,1.9-10.2,6.2-10.9,11.5c-0.1,0.4,0.1,0.8,0.3,1.1c0.3,0.3,0.6,0.5,1,0.5c3.9,0,15,0,23.2,0
				C33.3,44.3,36.1,42.1,39.4,40.7z M65.9,46.9c8.3,0,19.3,0,23.2,0c0.4,0,0.8-0.2,1-0.5c0.3-0.3,0.4-0.7,0.3-1.1
				c-0.7-5.3-5-9.7-10.9-11.5c-1.4-0.4-2.4-1.7-2.4-3.1l0-0.5c0.1-0.2,0.2-0.4,0.3-0.6c0,0,0.4-0.3,0.5-0.4c1.8-1.7,3-4.4,3-7.5
				c0-5.2-3.5-9.4-7.7-9.4c-4.3,0-7.7,4.2-7.7,9.4c0,3,1.2,5.7,3,7.5c0.1,0.1,0.4,0.4,0.5,0.4c0.2,0.2,0.3,0.4,0.3,0.6l0,0.5
				c-0.1,1.4-1,2.7-2.4,3.1c-4,1.3-7.3,3.7-9.2,6.9C61.2,42.1,64,44.3,65.9,46.9z"/>
		</g>
	</g>
</g>
</svg>
