<?xml version="1.0" encoding="utf-8"?>
<!-- Generator: Adobe Illustrator 26.0.1, SVG Export Plug-In . SVG Version: 6.00 Build 0)  -->
<svg version="1.1" id="Layer_1" xmlns="http://www.w3.org/2000/svg" xmlns:xlink="http://www.w3.org/1999/xlink" x="0px" y="0px"
	 viewBox="0 0 200 200" style="enable-background:new 0 0 200 200;" xml:space="preserve">
<style type="text/css">
	.st0{fill:none;stroke:#2E3192;stroke-width:7;stroke-linecap:round;stroke-linejoin:round;stroke-miterlimit:10;}
</style>
<line class="st0" x1="57.9" y1="39.3" x2="143.5" y2="39.3"/>
<path class="st0" d="M43.7,64.3V51.5h103.2c8.9,0,15.9,7.2,15.9,15.9v111.3c0,8.9-7.2,15.9-15.9,15.9H59.7
	c-8.9,0-15.9-7.2-15.9-15.9V64.3z"/>
<path class="st0" d="M124.7,26.5V13.9c0-5.6-5.2-9.6-10.6-8.4L55.9,25.2c-7.2,2.5-12.1,9.3-12.1,16.8v9.4"/>
<path class="st0" d="M75.4,165.7c16.2,0,39.6,0,55.8,0"/>
<path class="st0" d="M105.1,176.4c8.5,0,19.2,0,26.2,0"/>
<path class="st0" d="M75.4,176.4c5.8,0,10.1,0,17.1,0"/>
</svg>
