<?xml version="1.0" encoding="utf-8"?>
<!-- Generator: Adobe Illustrator 25.4.2, SVG Export Plug-In . SVG Version: 6.00 Build 0)  -->
<svg version="1.1" id="Layer_1" xmlns="http://www.w3.org/2000/svg" xmlns:xlink="http://www.w3.org/1999/xlink" x="0px" y="0px"
	 viewBox="0 0 200 200" style="enable-background:new 0 0 200 200;" xml:space="preserve">
<style type="text/css">
	.st0{fill:none;stroke:#2E3192;stroke-width:2.5;stroke-linecap:round;stroke-linejoin:round;stroke-miterlimit:10;}
</style>
<line class="st0" x1="57.2" y1="39.7" x2="144.1" y2="39.7"/>
<path class="st0" d="M42.8,63.7v-13h104.8c9,0,16.2,7.3,16.2,16.2V180c0,9-7.3,16.2-16.2,16.2H59c-9,0-16.2-7.3-16.2-16.2V63.7z"/>
<path class="st0" d="M125,28.1V12.5c0-5.7-5.3-9.8-10.8-8.5L55.1,24c-7.3,2.5-12.3,9.4-12.3,17.1v9.6"/>
<path class="st0" d="M75,166.7c16.5,0,40.2,0,56.7,0"/>
<path class="st0" d="M105.1,177.6c8.6,0,19.5,0,26.6,0"/>
<path class="st0" d="M75,177.6c5.9,0,10.3,0,17.4,0"/>
</svg>
