<?xml version="1.0" encoding="utf-8"?>
<!-- Generator: Adobe Illustrator 16.0.4, SVG Export Plug-In . SVG Version: 6.00 Build 0)  -->
<!DOCTYPE svg PUBLIC "-//W3C//DTD SVG 1.1//EN" "http://www.w3.org/Graphics/SVG/1.1/DTD/svg11.dtd">
<svg version="1.1" id="Layer_1" xmlns="http://www.w3.org/2000/svg" xmlns:xlink="http://www.w3.org/1999/xlink" x="0px" y="0px"
	 width="319.14px" height="125.061px" viewBox="81.422 32.317 319.14 125.061"
	 enable-background="new 81.422 32.317 319.14 125.061" xml:space="preserve">
<polygon fill="#FFFFFF" points="148.605,111.638 111.69,111.638 111.69,54.634 147.799,54.634 147.799,64.732 122.41,64.732 
	122.41,76.866 142.077,76.866 142.077,86.963 122.41,86.963 122.41,101.54 148.605,101.54 "/>
<g>
	<path fill="#FFFFFF" d="M181.168,112.776c-8.168,0-14.844-2.735-20.029-8.209c-5.186-5.476-7.778-12.619-7.778-21.433
		c0-8.812,2.592-15.956,7.778-21.429c5.185-5.474,11.861-8.212,20.029-8.212c6.179,0,11.526,1.122,16.04,3.365l-1.128,9.976
		c-5.429-2.162-10.398-3.244-14.912-3.244c-5.319,0-9.404,1.786-12.251,5.353c-2.849,3.568-4.272,8.299-4.272,14.191
		c0,5.894,1.423,10.625,4.272,14.193c2.847,3.568,6.932,5.351,12.251,5.351c4.514,0,9.483-1.08,14.912-3.243l1.128,9.976
		C192.694,111.655,187.347,112.776,181.168,112.776"/>
	<polygon fill="#FFFFFF" points="239.362,111.638 205.833,111.638 205.833,54.634 216.149,54.634 216.149,101.54 239.362,101.54 	
		"/>
	<rect x="246.132" y="54.634" fill="#FFFFFF" width="10.318" height="57.004"/>
	<path fill="#FFFFFF" d="M289.201,92.909H279.18v18.729h-10.317V54.634h15.896c4.228,0,7.693,0.218,10.396,0.651
		c2.703,0.436,5.164,1.277,7.386,2.525c2.223,1.25,3.828,3.082,4.816,5.497c0.99,2.416,1.484,5.552,1.484,9.405
		c0,3.856-0.627,7.181-1.885,9.977c-1.256,2.796-2.927,4.899-5.011,6.31c-2.084,1.412-4.169,2.416-6.253,3.013
		C293.608,92.611,291.444,92.909,289.201,92.909 M287.643,63.348h-8.463v19.788h8.704c3.814,0,6.541-0.773,8.182-2.32
		c1.639-1.548,2.458-4.221,2.458-8.022c0-3.365-0.765-5.782-2.297-7.248C294.695,64.08,291.833,63.348,287.643,63.348"/>
	<path fill="#FFFFFF" d="M333.138,112.776c-4.006,0-7.666-0.409-10.977-1.229c-3.312-0.821-5.85-1.807-7.611-2.956l1.191-11.9
		c1.709,1.674,4.102,3.09,7.176,4.25s6.562,1.74,10.465,1.74c6.744,0,10.117-2.056,10.117-6.172c0-1.137-0.266-2.166-0.797-3.085
		c-0.531-0.92-1.102-1.678-1.711-2.274c-0.611-0.596-1.633-1.231-3.066-1.908c-1.432-0.678-2.553-1.165-3.357-1.462
		c-0.809-0.298-2.17-0.8-4.084-1.507c-1.639-0.558-2.771-0.977-3.404-1.257l-3.326-1.228c-1.506-0.592-2.605-1.115-3.305-1.573
		s-1.561-1.103-2.58-1.938c-1.021-0.833-1.773-1.681-2.256-2.542c-0.484-0.86-0.914-1.895-1.291-3.107
		c-0.375-1.21-0.564-2.514-0.564-3.913c0-4.482,1.656-8.472,4.967-11.971c3.312-3.5,8.414-5.249,15.309-5.249
		c3.619,0,7.115,0.47,10.494,1.407c3.377,0.939,5.9,1.959,7.576,3.063l-1.055,10.726c-6.213-3.398-11.752-5.099-16.613-5.099
		c-2.754,0-5.168,0.454-7.242,1.357c-2.078,0.903-3.117,2.419-3.117,4.546c0,2.02,0.957,3.577,2.873,4.666
		c1.916,1.091,4.814,2.221,8.703,3.389c1.969,0.742,3.471,1.306,4.508,1.696c1.035,0.388,2.473,0.931,4.316,1.623
		c1.844,0.693,3.271,1.462,4.289,2.307c1.018,0.845,2.072,1.879,3.17,3.105c1.1,1.225,1.9,2.668,2.408,4.33
		c0.51,1.661,0.766,3.499,0.766,5.515c0,1.523-0.139,2.951-0.406,4.285c-0.271,1.333-0.879,2.79-1.824,4.367
		c-0.945,1.578-2.188,2.926-3.729,4.041c-1.541,1.117-3.678,2.056-6.404,2.815C340.015,112.396,336.814,112.776,333.138,112.776"/>
	<polygon fill="#FFFFFF" points="400.562,111.638 363.648,111.638 363.648,54.634 399.757,54.634 399.757,64.732 374.369,64.732 
		374.369,76.866 394.035,76.866 394.035,86.963 374.369,86.963 374.369,101.54 400.562,101.54 	"/>
	<polygon fill="#FFFFFF" points="130.097,131.601 116.858,131.601 116.858,138.108 127.082,138.108 127.082,143.526 
		116.858,143.526 116.858,156.767 111.266,156.767 111.266,126.183 130.097,126.183 	"/>
	<path fill="#FFFFFF" d="M160.266,152.972c-2.811,2.938-6.43,4.406-10.857,4.406c-4.428,0-8.047-1.469-10.857-4.406
		c-2.812-2.937-4.216-6.77-4.216-11.498c0-4.728,1.404-8.561,4.216-11.498c2.81-2.937,6.429-4.404,10.857-4.404
		c4.427,0,8.046,1.469,10.857,4.404c2.811,2.938,4.217,6.771,4.217,11.498C164.483,146.202,163.077,150.035,160.266,152.972
		 M156.05,133.858c-1.544-1.914-3.757-2.871-6.641-2.871c-2.883,0-5.097,0.957-6.641,2.871s-2.316,4.453-2.316,7.615
		c0,3.161,0.772,5.699,2.316,7.614s3.758,2.872,6.641,2.872c2.884,0,5.097-0.957,6.641-2.872c1.544-1.915,2.316-4.453,2.316-7.614
		C158.366,138.312,157.594,135.772,156.05,133.858"/>
	<path fill="#FFFFFF" d="M193.363,153.729c-2.127,2.433-5.287,3.646-9.481,3.646c-4.195,0-7.355-1.215-9.481-3.646
		c-2.127-2.434-3.19-5.789-3.19-10.071v-17.478h5.593v15.571c0,3.228,0.502,5.735,1.507,7.524s2.862,2.683,5.571,2.683
		s4.565-0.894,5.57-2.683c1.005-1.789,1.508-4.297,1.508-7.524v-15.571h5.592v17.478
		C196.552,147.94,195.488,151.297,193.363,153.729"/>
	<polygon fill="#FFFFFF" points="229.277,156.767 224.689,156.767 210.708,135.794 210.708,156.767 205.115,156.767 
		205.115,126.183 210.707,126.183 223.684,145.806 223.684,126.183 229.277,126.183 	"/>
	<path fill="#FFFFFF" d="M249.636,156.767H238.19v-30.584h11.446c4.457,0,8.082,1.373,10.88,4.123
		c2.796,2.748,4.192,6.471,4.192,11.168c0,4.698-1.396,8.422-4.192,11.17C257.718,155.392,254.093,156.767,249.636,156.767
		 M249.636,131.601h-5.854v19.748h5.854c2.912,0,5.135-0.869,6.662-2.609c1.529-1.74,2.295-4.16,2.295-7.266
		c0-3.103-0.766-5.522-2.295-7.265C254.771,132.47,252.548,131.601,249.636,131.601"/>
	<path fill="#FFFFFF" d="M295.058,156.767h-5.751l-2.604-7.385h-10.248l-2.629,7.385h-5.752l10.891-30.584h5.275L295.058,156.767z
		 M284.789,143.964l-3.188-9.033l-3.219,9.033H284.789z"/>
	<polygon fill="#FFFFFF" points="318.667,131.601 310.017,131.601 310.017,156.767 304.423,156.767 304.423,131.601 
		295.772,131.601 295.772,126.183 318.667,126.183 	"/>
	<rect x="324.873" y="126.183" fill="#FFFFFF" width="5.592" height="30.584"/>
	<path fill="#FFFFFF" d="M363.472,152.972c-2.811,2.938-6.43,4.406-10.855,4.406c-4.43,0-8.047-1.469-10.857-4.406
		c-2.812-2.937-4.217-6.77-4.217-11.498c0-4.728,1.404-8.561,4.217-11.498c2.811-2.937,6.43-4.404,10.857-4.404
		c4.426,0,8.045,1.469,10.855,4.404c2.812,2.938,4.219,6.771,4.219,11.498C367.691,146.202,366.283,150.035,363.472,152.972
		 M359.255,133.858c-1.543-1.914-3.756-2.871-6.641-2.871c-2.883,0-5.098,0.957-6.641,2.871c-1.545,1.914-2.316,4.453-2.316,7.615
		c0,3.161,0.771,5.699,2.316,7.614c1.543,1.915,3.758,2.872,6.641,2.872c2.885,0,5.098-0.957,6.641-2.872
		c1.545-1.915,2.316-4.453,2.316-7.614C361.572,138.312,360.8,135.772,359.255,133.858"/>
	<polygon fill="#FFFFFF" points="398.927,156.767 394.339,156.767 380.359,135.794 380.359,156.767 374.767,156.767 
		374.767,126.183 380.359,126.183 393.335,145.806 393.335,126.183 398.927,126.183 	"/>
	<path fill="#FFFFFF" d="M97.91,47.091c14.11-13.069,35.65-13.331,50.48-1.454c-0.304-0.355-0.608-0.71-0.928-1.056
		c-14.329-15.47-38.448-16.434-53.869-2.151c-15.421,14.283-16.307,38.404-1.977,53.876c0.321,0.347,0.653,0.678,0.983,1.009
		C81.89,81.616,83.8,60.16,97.91,47.091"/>
</g>
</svg>
