<?xml version="1.0" encoding="utf-8"?>
<!-- Generator: Adobe Illustrator 24.0.1, SVG Export Plug-In . SVG Version: 6.00 Build 0)  -->
<svg version="1.1" id="Layer_1" xmlns="http://www.w3.org/2000/svg" xmlns:xlink="http://www.w3.org/1999/xlink" x="0px" y="0px"
	 viewBox="0 0 500 150" style="enable-background:new 0 0 500 150;" xml:space="preserve">
<style type="text/css">
	.st0{fill:#FFFFFF;}
</style>
<path class="st0" d="M169.24,113.63c0,6.3-4.48,8.44-7.98,8.44c-2.79,0-4.93-1.36-6.16-3.11l-5.65,4.09c2.6,3.57,6.68,6.03,12,6.03
	c7.46,0,14.8-5.52,14.8-14.73V82.48h-7.01L169.24,113.63L169.24,113.63z"/>
<path class="st0" d="M197.46,82.48l-16.81,46.2h7.4l3.57-10.32h17.52l3.57,10.32h7.4l-16.81-46.2
	C203.3,82.48,197.46,82.48,197.46,82.48z M193.64,112.14l6.68-20.18h0.13l6.68,20.18H193.64z"/>
<polygon class="st0" points="259.51,82.48 251.2,82.48 232.19,106.3 232.06,106.3 232.06,82.48 225.05,82.48 225.05,128.68 
	232.06,128.68 232.06,114.6 240.17,106.1 252.76,128.68 261.06,128.68 244.71,100.72 "/>
<path class="st0" d="M277.94,82.48l-16.81,46.2h7.4l3.57-10.32h17.52l3.57,10.32h7.4l-16.81-46.2
	C283.78,82.48,277.94,82.48,277.94,82.48z M274.11,112.14l6.68-20.18h0.13l6.68,20.18H274.11z"/>
<path class="st0" d="M337.58,95.39c0-4.15-2.01-7.66-4.61-9.86c-2.47-2.14-5.52-3.05-9.41-3.05h-18.04v46.2h7.01v-19.73h8.96
	l9.54,19.73h8.31l-10.71-20.51C334.2,106.23,337.58,101.36,337.58,95.39z M312.53,102.73V88.71h10.97c2.4,0,3.83,0.45,5.13,1.43
	c1.43,1.04,2.34,2.85,2.34,5.26c0,3.89-2.6,7.33-7.85,7.33H312.53z"/>
<polygon class="st0" points="371.47,82.48 339.15,82.48 339.15,88.71 351.8,88.71 351.8,128.68 358.81,128.68 358.81,88.71 
	371.47,88.71 "/>
<path class="st0" d="M383.6,82.48l-16.81,46.2h7.4l3.57-10.32h17.52l3.57,10.32h7.4l-16.81-46.2
	C389.44,82.48,383.6,82.48,383.6,82.48z M379.78,112.14l6.68-20.18h0.13l6.68,20.18H379.78z"/>
<polygon class="st0" points="426.76,128.68 456.29,128.68 456.29,122.07 433.77,122.07 433.77,108.5 452.98,108.5 452.98,102.27 
	433.77,102.27 433.77,89.1 456.29,89.1 456.29,82.48 426.76,82.48 "/>
<polygon class="st0" points="492.37,89.1 492.37,82.48 462.85,82.48 462.85,128.68 492.37,128.68 492.37,122.07 469.85,122.07 
	469.85,108.5 489.06,108.5 489.06,102.27 469.85,102.27 469.85,89.1 "/>
<path class="st0" d="M139.98,6.29l-30.53,33.43c0,1.09,0,2.21-0.03,3.38c-0.41,19.1-5.04,47.16-24.54,73.03l26.03,6.5
	C159.63,76.78,139.98,6.29,139.98,6.29z"/>
<path class="st0" d="M105.02,21.79l-74.04,81.06l50.63,12.65c0.04-0.05,0.08-0.1,0.12-0.16c19.76-25.63,24.29-53.68,24.69-72.31
	C106.71,30.17,105.02,21.79,105.02,21.79z"/>
<path class="st0" d="M47.28,138.61c11.35-9.06,28.47-14.83,47.62-14.83c2.93,0,5.81,0.14,8.64,0.4l-95.5-23.56
	C8.03,100.61,25.81,106.5,47.28,138.61z"/>
<g>
	<path class="st0" d="M403.93,90.59c-0.71-0.41-1.26-0.97-1.67-1.67c-0.41-0.7-0.62-1.47-0.62-2.3s0.21-1.6,0.62-2.31
		c0.41-0.71,0.97-1.26,1.67-1.67c0.71-0.41,1.48-0.62,2.31-0.62c0.82,0,1.58,0.21,2.29,0.62c0.71,0.41,1.26,0.97,1.67,1.67
		c0.41,0.71,0.62,1.48,0.62,2.31s-0.21,1.6-0.62,2.3c-0.41,0.7-0.97,1.25-1.67,1.67c-0.7,0.41-1.47,0.62-2.3,0.62
		S404.63,91,403.93,90.59z M408.88,89.33c0.67-0.67,1.01-1.58,1.01-2.7c0-0.74-0.15-1.4-0.46-1.96c-0.31-0.56-0.74-1-1.29-1.31
		s-1.19-0.46-1.91-0.46c-1.1,0-1.99,0.34-2.67,1.02c-0.67,0.68-1.01,1.58-1.01,2.71s0.34,2.03,1.01,2.7s1.56,1.01,2.67,1.01
		C407.33,90.34,408.21,90,408.88,89.33z M407.94,88.9c-0.02,0.03-0.04,0.04-0.07,0.04h-0.67c-0.04,0-0.07-0.03-0.1-0.08l-0.73-1.96
		c0-0.01,0-0.03-0.01-0.05c-0.01-0.02-0.05-0.03-0.12-0.03h-0.89c-0.05,0-0.08,0.03-0.08,0.08v1.92c0,0.08-0.03,0.12-0.1,0.12h-0.6
		c-0.06,0-0.1-0.03-0.1-0.1v-4.37c0-0.06,0.02-0.1,0.06-0.1h1.98c0.49,0,0.87,0.1,1.14,0.3c0.27,0.2,0.4,0.48,0.4,0.86
		c0,0.59-0.3,0.99-0.9,1.19c-0.03,0-0.03,0.02-0.02,0.06l0.81,2.02C407.96,88.84,407.96,88.87,407.94,88.9z M407.24,85.6
		c0-0.4-0.3-0.6-0.89-0.6h-0.98c-0.01,0-0.03,0-0.05,0c-0.02,0-0.03,0.01-0.04,0.02s-0.01,0.03-0.01,0.06v1.02
		c0,0.05,0.03,0.08,0.08,0.08h1.06C406.96,86.18,407.24,85.99,407.24,85.6z"/>
</g>
</svg>
