<?xml version="1.0" encoding="utf-8"?>
<!-- Generator: Adobe Illustrator 24.0.1, SVG Export Plug-In . SVG Version: 6.00 Build 0)  -->
<svg version="1.1" id="Layer_1" xmlns="http://www.w3.org/2000/svg" xmlns:xlink="http://www.w3.org/1999/xlink" x="0px" y="0px"
	 viewBox="0 0 500 150" style="enable-background:new 0 0 500 150;" xml:space="preserve">
<style type="text/css">
	.st0{fill:#FFFFFF;}
</style>
<path class="st0" d="M169.24,113.63c0,6.3-4.48,8.44-7.98,8.44c-2.79,0-4.93-1.36-6.16-3.11l-5.65,4.09c2.6,3.57,6.68,6.03,12,6.03
	c7.46,0,14.8-5.52,14.8-14.73V82.48h-7.01V113.63z"/>
<path class="st0" d="M197.46,82.48l-16.81,46.2h7.4l3.57-10.32h17.52l3.57,10.32h7.4l-16.81-46.2H197.46z M193.64,112.14l6.68-20.18
	h0.13l6.68,20.18H193.64z"/>
<polygon class="st0" points="259.51,82.48 251.2,82.48 232.19,106.3 232.06,106.3 232.06,82.48 225.05,82.48 225.05,128.68 
	232.06,128.68 232.06,114.6 240.17,106.1 252.76,128.68 261.06,128.68 244.71,100.72 "/>
<path class="st0" d="M277.94,82.48l-16.81,46.2h7.4l3.57-10.32h17.52l3.57,10.32h7.4l-16.81-46.2H277.94z M274.11,112.14l6.68-20.18
	h0.13l6.68,20.18H274.11z"/>
<path class="st0" d="M337.58,95.39c0-4.15-2.01-7.66-4.61-9.86c-2.47-2.14-5.52-3.05-9.41-3.05h-18.04v46.2h7.01v-19.73h8.96
	l9.54,19.73h8.31l-10.71-20.51C334.2,106.23,337.58,101.36,337.58,95.39z M312.53,102.73V88.71h10.97c2.4,0,3.83,0.45,5.13,1.43
	c1.43,1.04,2.34,2.85,2.34,5.26c0,3.89-2.6,7.33-7.85,7.33H312.53z"/>
<polygon class="st0" points="371.47,82.48 339.15,82.48 339.15,88.71 351.8,88.71 351.8,128.68 358.81,128.68 358.81,88.71 
	371.47,88.71 "/>
<path class="st0" d="M383.6,82.48l-16.81,46.2h7.4l3.57-10.32h17.52l3.57,10.32h7.4l-16.81-46.2H383.6z M379.78,112.14l6.68-20.18
	h0.13l6.68,20.18H379.78z"/>
<polygon class="st0" points="426.76,128.68 456.29,128.68 456.29,122.07 433.77,122.07 433.77,108.5 452.98,108.5 452.98,102.27 
	433.77,102.27 433.77,89.1 456.29,89.1 456.29,82.48 426.76,82.48 "/>
<polygon class="st0" points="492.37,89.1 492.37,82.48 462.85,82.48 462.85,128.68 492.37,128.68 492.37,122.07 469.85,122.07 
	469.85,108.5 489.06,108.5 489.06,102.27 469.85,102.27 469.85,89.1 "/>
<path class="st0" d="M139.98,6.29l-30.53,33.43c0,1.09,0,2.21-0.03,3.38c-0.41,19.1-5.04,47.16-24.54,73.03l26.03,6.5
	C159.63,76.78,139.98,6.29,139.98,6.29z"/>
<path class="st0" d="M105.02,21.79l-74.04,81.06l50.63,12.65c0.04-0.05,0.08-0.1,0.12-0.16c19.76-25.63,24.29-53.68,24.69-72.31
	C106.71,30.17,105.02,21.79,105.02,21.79z"/>
<path class="st0" d="M47.28,138.61c11.35-9.06,28.47-14.83,47.62-14.83c2.93,0,5.81,0.14,8.64,0.4l-95.5-23.56
	C8.03,100.61,25.81,106.5,47.28,138.61z"/>
<g>
	<path class="st0" d="M400.59,82.58c0-0.1,0.05-0.15,0.15-0.15h5.36c0.11,0,0.17,0.05,0.17,0.15v0.75c0,0.09-0.05,0.14-0.15,0.14
		h-1.83c-0.07,0-0.11,0.03-0.11,0.09v5.79c0,0.11-0.05,0.17-0.14,0.17h-1.15c-0.08,0-0.12-0.05-0.12-0.15v-5.79
		c0-0.07-0.04-0.11-0.11-0.11h-1.93c-0.1,0-0.15-0.05-0.15-0.14V82.58z M407.29,89.46c-0.04-0.04-0.05-0.08-0.05-0.15v-6.72
		c0-0.11,0.05-0.17,0.15-0.17h1.62c0.06,0,0.11,0.01,0.14,0.03c0.03,0.02,0.05,0.06,0.06,0.11l1.68,4.51
		c0.04,0.1,0.09,0.1,0.14-0.02l1.63-4.45c0.03-0.12,0.09-0.18,0.18-0.18h1.68c0.08,0,0.12,0.05,0.12,0.15v6.74
		c0,0.07-0.02,0.12-0.05,0.15c-0.03,0.03-0.08,0.05-0.15,0.05h-1.02c-0.07,0-0.12-0.01-0.15-0.04s-0.04-0.07-0.04-0.13v-5
		c0-0.04-0.01-0.06-0.02-0.06c-0.02,0-0.03,0.02-0.05,0.06l-1.82,5.03c-0.03,0.09-0.09,0.14-0.18,0.14h-0.69
		c-0.1,0-0.17-0.05-0.2-0.14l-1.8-4.97c-0.01-0.04-0.03-0.06-0.05-0.06c-0.02,0-0.03,0.03-0.03,0.08v4.93
		c0,0.05-0.01,0.09-0.03,0.11c-0.02,0.03-0.07,0.04-0.14,0.04h-0.81C407.37,89.52,407.32,89.5,407.29,89.46z"/>
</g>
</svg>
