<?xml version="1.0" encoding="utf-8"?>
<!-- Generator: Adobe Illustrator 24.0.3, SVG Export Plug-In . SVG Version: 6.00 Build 0)  -->
<svg version="1.1" id="Layer_1" xmlns="http://www.w3.org/2000/svg" xmlns:xlink="http://www.w3.org/1999/xlink" x="0px" y="0px"
	 viewBox="0 0 500 150" style="enable-background:new 0 0 500 150;" xml:space="preserve">
<style type="text/css">
	.st0{fill:#FDB940;}
	.st1{fill:#FEB322;}
	.st2{fill:#F98200;}
	.st3{fill:#1B208B;}
</style>
<g>
	<g>
		<path class="st0" d="M155.1,119c1.2,1.8,3.4,3.1,6.2,3.1c3.5,0,8-2.1,8-8.4V82.5h7v31.9c0,9.2-7.3,14.7-14.8,14.7
			c-5.3,0-9.4-2.5-12-6L155.1,119z"/>
		<path class="st0" d="M209.1,118.4h-17.5l-3.6,10.3h-7.4l16.8-46.2h5.8l16.8,46.2h-7.4L209.1,118.4z M207.1,112.1L200.5,92h-0.1
			l-6.7,20.2H207.1z"/>
		<path class="st0" d="M225,82.5h7v23.8h0.1l19-23.8h8.3l-14.8,18.2l16.4,28h-8.3l-12.6-22.6l-8.1,8.5v14.1h-7V82.5z"/>
		<path class="st0" d="M289.6,118.4h-17.5l-3.6,10.3h-7.4l16.8-46.2h5.8l16.8,46.2h-7.4L289.6,118.4z M287.6,112.1L280.9,92h-0.1
			l-6.7,20.2H287.6z"/>
		<path class="st0" d="M305.5,82.5h18c3.9,0,6.9,0.9,9.4,3.1c2.6,2.2,4.6,5.7,4.6,9.9c0,6-3.4,10.8-9,12.8l10.7,20.5H331l-9.5-19.7
			h-9v19.7h-7V82.5z M312.5,102.7h10.6c5.3,0,7.9-3.4,7.9-7.3c0-2.4-0.9-4.2-2.3-5.3c-1.3-1-2.7-1.4-5.1-1.4h-11V102.7z"/>
		<path class="st0" d="M351.8,88.7h-12.7v-6.2h32.3v6.2h-12.7v40h-7V88.7z"/>
		<path class="st0" d="M395.3,118.4h-17.5l-3.6,10.3h-7.4l16.8-46.2h5.8l16.8,46.2h-7.4L395.3,118.4z M393.3,112.1L386.6,92h-0.1
			l-6.7,20.2H393.3z"/>
		<path class="st0" d="M426.8,82.5h29.5v6.6h-22.5v13.2H453v6.2h-19.2v13.6h22.5v6.6h-29.5V82.5z"/>
		<path class="st0" d="M462.8,82.5h29.5v6.6h-22.5v13.2h19.2v6.2h-19.2v13.6h22.5v6.6h-29.5V82.5z"/>
	</g>
	<path class="st0" d="M140,6.3L106.4,43c-0.4,18.6-4.9,46.7-24.7,72.3l29.2,7.3C159.6,76.8,140,6.3,140,6.3z"/>
	<path class="st1" d="M106.4,43c0.3-12.9-1.4-21.2-1.4-21.2l-74,81.1l50.6,12.6c0-0.1,0.1-0.1,0.1-0.2l-33.7-8.4L106.4,43z"/>
	<path class="st2" d="M48.1,106.9l33.7,8.4C101.5,89.7,106,61.7,106.4,43L48.1,106.9z"/>
	<path class="st3" d="M94.9,123.8c2.9,0,5.8,0.1,8.6,0.4L8,100.6c0,0,17.8,5.9,39.2,38C58.6,129.5,75.7,123.8,94.9,123.8z"/>
</g>
<g>
	<path class="st0" d="M402,90.7c-0.7-0.4-1.3-1-1.7-1.7s-0.6-1.5-0.6-2.3s0.2-1.6,0.6-2.3s1-1.3,1.7-1.7c0.7-0.4,1.5-0.6,2.3-0.6
		c0.8,0,1.6,0.2,2.3,0.6c0.7,0.4,1.3,1,1.7,1.7c0.4,0.7,0.6,1.5,0.6,2.3s-0.2,1.6-0.6,2.3c-0.4,0.7-1,1.2-1.7,1.7
		c-0.7,0.4-1.5,0.6-2.3,0.6S402.7,91.1,402,90.7z M406.9,89.4c0.7-0.7,1-1.6,1-2.7c0-0.7-0.1-1.4-0.5-2s-0.7-1-1.3-1.3
		S405,83,404.3,83c-1.1,0-2,0.3-2.7,1c-0.7,0.7-1,1.6-1,2.7s0.3,2,1,2.7s1.6,1,2.7,1C405.4,90.4,406.2,90.1,406.9,89.4z M406,89
		C405.9,89,405.9,89,406,89l-0.7,0c0,0-0.1,0-0.1-0.1l-0.7-2c0,0,0,0,0-0.1c0,0,0,0-0.1,0h-0.9c0,0-0.1,0-0.1,0.1v1.9
		c0,0.1,0,0.1-0.1,0.1h-0.6c-0.1,0-0.1,0-0.1-0.1v-4.4c0-0.1,0-0.1,0.1-0.1h2c0.5,0,0.9,0.1,1.1,0.3c0.3,0.2,0.4,0.5,0.4,0.9
		c0,0.6-0.3,1-0.9,1.2c0,0,0,0,0,0.1L406,89C406,88.9,406,89,406,89z M405.3,85.7c0-0.4-0.3-0.6-0.9-0.6h-1c0,0,0,0,0,0s0,0,0,0
		s0,0,0,0.1v1c0,0.1,0,0.1,0.1,0.1h1.1C405,86.3,405.3,86.1,405.3,85.7z"/>
</g>
</svg>
