<?xml version="1.0" encoding="utf-8"?>
<!-- Generator: Adobe Illustrator 16.0.4, SVG Export Plug-In . SVG Version: 6.00 Build 0)  -->
<!DOCTYPE svg PUBLIC "-//W3C//DTD SVG 1.1//EN" "http://www.w3.org/Graphics/SVG/1.1/DTD/svg11.dtd">
<svg version="1.1" id="Layer_1" xmlns="http://www.w3.org/2000/svg" xmlns:xlink="http://www.w3.org/1999/xlink" x="0px" y="0px"
	 width="403.856px" height="59.352px" viewBox="0 0 403.856 59.352" enable-background="new 0 0 403.856 59.352"
	 xml:space="preserve">
<path fill="#FFFFFF" d="M9.006,44.895c1.398,2.097,3.961,3.611,7.222,3.611c4.077,0,9.319-2.446,9.319-9.785V2.378h8.154v37.159
	c0,10.716-8.504,17.123-17.24,17.123c-6.173,0-10.949-2.912-13.978-6.989L9.006,44.895z"/>
<path fill="#FFFFFF" d="M71.909,44.196H51.524L47.33,56.194h-8.619L58.28,2.379h6.756l19.57,53.815h-8.62L71.909,44.196z
	 M69.579,36.857l-7.688-23.414h-0.116L53.97,36.975h15.609V36.857z"/>
<polygon fill="#FFFFFF" points="90.43,2.378 98.584,2.378 98.584,30.102 98.7,30.102 120.832,2.378 130.501,2.378 113.261,23.578 
	132.365,56.194 122.696,56.194 108.019,29.868 98.584,39.77 98.584,56.194 90.43,56.194 "/>
<path fill="#FFFFFF" d="M165.679,44.196h-20.384L141.1,56.194h-8.62l19.57-53.815h6.755l19.57,53.815h-8.619L165.679,44.196z
	 M163.349,36.857l-7.804-23.414h-0.116l-7.805,23.531h15.726V36.857z"/>
<path fill="#FFFFFF" d="M184.2,2.378h20.967c4.543,0,8.039,1.049,10.951,3.611c3.027,2.563,5.357,6.64,5.357,11.532
	c0,6.99-3.961,12.581-10.484,14.91l12.465,23.88h-9.553l-11.066-22.948h-10.482v22.948H184.2V2.378z M192.354,25.908h12.348
	c6.174,0,9.201-3.96,9.201-8.503c0-2.796-1.049-4.893-2.68-6.174c-1.514-1.165-3.145-1.631-5.939-1.631H192.47v16.308H192.354z"/>
<polygon fill="#FFFFFF" points="238.132,9.6 223.339,9.6 223.339,2.378 260.964,2.378 260.964,9.6 246.171,9.6 246.171,56.194 
	238.017,56.194 238.017,9.6 "/>
<path fill="#FFFFFF" d="M288.804,44.196h-20.385l-4.193,11.998h-8.621l19.57-53.815h6.756l19.568,53.815h-8.617L288.804,44.196z
	 M286.474,36.857l-7.805-23.414h-0.115l-7.807,23.531h15.727V36.857z"/>
<polygon fill="#FFFFFF" points="325.497,2.378 359.86,2.378 359.86,10.066 333.651,10.066 333.651,25.442 356.015,25.442 
	356.015,32.664 333.651,32.664 333.651,48.506 359.86,48.506 359.86,56.194 325.497,56.194 "/>
<polygon fill="#FFFFFF" points="367.431,2.378 401.794,2.378 401.794,10.066 375.585,10.066 375.585,25.442 397.95,25.442 
	397.95,32.664 375.585,32.664 375.585,48.506 401.794,48.506 401.794,56.194 367.431,56.194 "/>
</svg>
