<?xml version="1.0" encoding="utf-8"?>
<!-- Generator: Adobe Illustrator 24.0.1, SVG Export Plug-In . SVG Version: 6.00 Build 0)  -->
<svg version="1.1" id="Layer_1" xmlns="http://www.w3.org/2000/svg" xmlns:xlink="http://www.w3.org/1999/xlink" x="0px" y="0px"
	 viewBox="0 0 500 150" style="enable-background:new 0 0 500 150;" xml:space="preserve">
<style type="text/css">
	.st0{fill:#FDB940;}
	.st1{fill:#FEB322;}
	.st2{fill:#F98200;}
	.st3{fill:#1B208B;}
</style>
<g>
	<g>
		<path class="st0" d="M155.09,118.95c1.23,1.75,3.37,3.11,6.16,3.11c3.5,0,7.98-2.14,7.98-8.44V82.48h7.01v31.86
			c0,9.21-7.33,14.73-14.8,14.73c-5.32,0-9.41-2.47-12-6.03L155.09,118.95z"/>
		<path class="st0" d="M209.15,118.37h-17.52l-3.57,10.32h-7.4l16.81-46.2h5.84l16.81,46.2h-7.4L209.15,118.37z M207.13,112.14
			l-6.68-20.18h-0.13l-6.68,20.18H207.13z"/>
		<path class="st0" d="M225.05,82.48h7.01v23.82h0.13l19.01-23.82h8.31l-14.8,18.23l16.35,27.97h-8.31l-12.59-22.58l-8.11,8.5v14.08
			h-7.01V82.48z"/>
		<path class="st0" d="M289.62,118.37H272.1l-3.57,10.32h-7.4l16.81-46.2h5.84l16.81,46.2h-7.4L289.62,118.37z M287.61,112.14
			l-6.68-20.18h-0.13l-6.68,20.18H287.61z"/>
		<path class="st0" d="M305.52,82.48h18.04c3.89,0,6.94,0.91,9.41,3.05c2.6,2.21,4.61,5.71,4.61,9.86c0,5.97-3.37,10.84-8.95,12.78
			l10.71,20.51h-8.31l-9.54-19.73h-8.96v19.73h-7.01V82.48z M312.53,102.73h10.58c5.26,0,7.85-3.44,7.85-7.33
			c0-2.4-0.91-4.22-2.34-5.26c-1.3-0.97-2.73-1.43-5.13-1.43h-10.97V102.73z"/>
		<path class="st0" d="M351.8,88.71h-12.65v-6.23h32.32v6.23h-12.65v39.97h-7.01V88.71z"/>
		<path class="st0" d="M395.29,118.37h-17.52l-3.57,10.32h-7.4l16.81-46.2h5.84l16.81,46.2h-7.4L395.29,118.37z M393.27,112.14
			l-6.68-20.18h-0.13l-6.68,20.18H393.27z"/>
		<path class="st0" d="M426.76,82.48h29.53v6.62h-22.52v13.17h19.21v6.23h-19.21v13.56h22.52v6.62h-29.53V82.48z"/>
		<path class="st0" d="M462.85,82.48h29.53v6.62h-22.52v13.17h19.21v6.23h-19.21v13.56h22.52v6.62h-29.53V82.48z"/>
	</g>
	<path class="st0" d="M139.98,6.29l-33.55,36.74c-0.4,18.63-4.93,46.68-24.69,72.31l29.19,7.29
		C159.63,76.78,139.98,6.29,139.98,6.29z"/>
	<path class="st1" d="M106.43,43.03c0.28-12.86-1.41-21.24-1.41-21.24l-74.04,81.06l50.63,12.65c0.04-0.05,0.08-0.1,0.12-0.16
		l-33.67-8.41L106.43,43.03z"/>
	<path class="st2" d="M48.07,106.93l33.67,8.41c19.76-25.63,24.29-53.68,24.69-72.31L48.07,106.93z"/>
	<path class="st3" d="M94.9,123.77c2.93,0,5.81,0.14,8.64,0.4l-95.5-23.56c0,0,17.77,5.89,39.24,38
		C58.63,129.54,75.75,123.77,94.9,123.77z"/>
</g>
<g>
	<path class="st0" d="M400.59,82.58c0-0.1,0.05-0.15,0.15-0.15h5.36c0.11,0,0.17,0.05,0.17,0.15v0.75c0,0.09-0.05,0.14-0.15,0.14
		h-1.83c-0.07,0-0.11,0.03-0.11,0.09v5.79c0,0.11-0.05,0.17-0.14,0.17h-1.15c-0.08,0-0.12-0.05-0.12-0.15v-5.79
		c0-0.07-0.04-0.11-0.11-0.11h-1.93c-0.1,0-0.15-0.05-0.15-0.14V82.58z M407.29,89.46c-0.04-0.04-0.05-0.08-0.05-0.15v-6.72
		c0-0.11,0.05-0.17,0.15-0.17h1.62c0.06,0,0.11,0.01,0.14,0.03c0.03,0.02,0.05,0.06,0.06,0.11l1.68,4.51
		c0.04,0.1,0.09,0.1,0.14-0.02l1.63-4.45c0.03-0.12,0.09-0.18,0.18-0.18h1.68c0.08,0,0.12,0.05,0.12,0.15v6.74
		c0,0.07-0.02,0.12-0.05,0.15c-0.03,0.03-0.08,0.05-0.15,0.05h-1.02c-0.07,0-0.12-0.01-0.15-0.04s-0.04-0.07-0.04-0.13v-5
		c0-0.04-0.01-0.06-0.02-0.06c-0.02,0-0.03,0.02-0.05,0.06l-1.82,5.03c-0.03,0.09-0.09,0.14-0.18,0.14h-0.69
		c-0.1,0-0.17-0.05-0.2-0.14l-1.8-4.97c-0.01-0.04-0.03-0.06-0.05-0.06c-0.02,0-0.03,0.03-0.03,0.08v4.93
		c0,0.05-0.01,0.09-0.03,0.11c-0.02,0.03-0.07,0.04-0.14,0.04h-0.81C407.37,89.52,407.32,89.5,407.29,89.46z"/>
</g>
</svg>
