<?xml version="1.0" encoding="utf-8"?>
<!-- Generator: Adobe Illustrator 24.0.3, SVG Export Plug-In . SVG Version: 6.00 Build 0)  -->
<svg version="1.1" id="Layer_1" xmlns="http://www.w3.org/2000/svg" xmlns:xlink="http://www.w3.org/1999/xlink" x="0px" y="0px"
	 viewBox="0 0 500 380" style="enable-background:new 0 0 500 380;" xml:space="preserve">
<style type="text/css">
	.st0{fill:#58595B;}
	.st1{fill:#FDB940;}
	.st2{fill:#FEB322;}
	.st3{fill:#F98200;}
	.st4{fill:#1B208B;}
</style>
<g>
	<path class="st0" d="M74.9,355.3c1.3,1.8,3.6,3.3,6.5,3.3c3.7,0,8.4-2.3,8.4-8.9v-32.9h7.4v33.6c0,9.7-7.7,15.6-15.6,15.6
		c-5.6,0-9.9-2.6-12.7-6.4L74.9,355.3z"/>
	<path class="st0" d="M132,354.7h-18.5l-3.8,10.9h-7.8l17.7-48.8h6.2l17.7,48.8h-7.8L132,354.7z M129.9,348.1l-7.1-21.3h-0.1
		l-7.1,21.3H129.9z"/>
	<path class="st0" d="M148.8,316.8h7.4v25.1h0.1l20.1-25.1h8.8L169.5,336l17.3,29.5H178l-13.3-23.8l-8.6,9v14.9h-7.4V316.8z"/>
	<path class="st0" d="M217,354.7h-18.5l-3.8,10.9h-7.8l17.7-48.8h6.2l17.7,48.8h-7.8L217,354.7z M214.8,348.1l-7.1-21.3h-0.1
		l-7.1,21.3H214.8z"/>
	<path class="st0" d="M233.8,316.8h19c4.1,0,7.3,1,9.9,3.2c2.7,2.3,4.9,6,4.9,10.4c0,6.3-3.6,11.4-9.5,13.5l11.3,21.7h-8.8
		l-10.1-20.8h-9.5v20.8h-7.4V316.8z M241.2,338.2h11.2c5.6,0,8.3-3.6,8.3-7.7c0-2.5-1-4.5-2.5-5.6c-1.4-1-2.9-1.5-5.4-1.5h-11.6
		V338.2z"/>
	<path class="st0" d="M282.6,323.4h-13.4v-6.6h34.1v6.6H290v42.2h-7.4V323.4z"/>
	<path class="st0" d="M328.5,354.7H310l-3.8,10.9h-7.8l17.7-48.8h6.2l17.7,48.8h-7.8L328.5,354.7z M326.4,348.1l-7.1-21.3h-0.1
		l-7.1,21.3H326.4z"/>
	<path class="st0" d="M361.8,316.8h31.2v7h-23.8v13.9h20.3v6.6h-20.3v14.3h23.8v7h-31.2V316.8z"/>
	<path class="st0" d="M399.9,316.8H431v7h-23.8v13.9h20.3v6.6h-20.3v14.3H431v7h-31.2V316.8z"/>
</g>
<g>
	<path class="st1" d="M369.5,20.3L307,88.7c-0.8,34.7-9.2,86.9-46,134.7l54.4,13.6C406.1,151.6,369.5,20.3,369.5,20.3z"/>
	<path class="st2" d="M307,88.7c0.5-24-2.6-39.6-2.6-39.6l-137.9,151l94.3,23.6c0.1-0.1,0.1-0.2,0.2-0.3l-62.7-15.7L307,88.7z"/>
	<path class="st3" d="M198.4,207.7l62.7,15.7c36.8-47.7,45.2-100,46-134.7L198.4,207.7z"/>
	<path class="st4" d="M285.6,239.1c5.5,0,10.8,0.3,16.1,0.7L123.8,196c0,0,33.1,11,73.1,70.8C218,249.8,249.9,239.1,285.6,239.1z"/>
</g>
<g>
	<path class="st0" d="M335.8,325.4c-0.7-0.4-1.3-1-1.7-1.7c-0.4-0.7-0.6-1.5-0.6-2.3c0-0.8,0.2-1.6,0.6-2.3c0.4-0.7,1-1.3,1.7-1.7
		c0.7-0.4,1.5-0.6,2.3-0.6c0.8,0,1.6,0.2,2.3,0.6c0.7,0.4,1.3,1,1.7,1.7c0.4,0.7,0.6,1.5,0.6,2.3c0,0.8-0.2,1.6-0.6,2.3
		s-1,1.2-1.7,1.7c-0.7,0.4-1.5,0.6-2.3,0.6S336.5,325.8,335.8,325.4z M340.8,324.1c0.7-0.7,1-1.6,1-2.7c0-0.7-0.1-1.4-0.5-2
		s-0.7-1-1.3-1.3s-1.2-0.5-1.9-0.5c-1.1,0-2,0.3-2.7,1c-0.7,0.7-1,1.6-1,2.7c0,1.1,0.3,2,1,2.7c0.7,0.7,1.6,1,2.7,1
		C339.2,325.1,340.1,324.8,340.8,324.1z M339.8,323.7C339.8,323.7,339.8,323.7,339.8,323.7l-0.7,0c0,0-0.1,0-0.1-0.1l-0.7-2
		c0,0,0,0,0-0.1c0,0,0,0-0.1,0h-0.9c0,0-0.1,0-0.1,0.1v1.9c0,0.1,0,0.1-0.1,0.1h-0.6c-0.1,0-0.1,0-0.1-0.1v-4.4c0-0.1,0-0.1,0.1-0.1
		h2c0.5,0,0.9,0.1,1.1,0.3c0.3,0.2,0.4,0.5,0.4,0.9c0,0.6-0.3,1-0.9,1.2c0,0,0,0,0,0.1l0.8,2C339.8,323.6,339.8,323.6,339.8,323.7z
		 M339.1,320.4c0-0.4-0.3-0.6-0.9-0.6h-1c0,0,0,0,0,0s0,0,0,0c0,0,0,0,0,0.1v1c0,0.1,0,0.1,0.1,0.1h1.1
		C338.8,321,339.1,320.8,339.1,320.4z"/>
</g>
</svg>
