<?xml version="1.0" encoding="utf-8"?>
<!-- Generator: Adobe Illustrator 24.0.1, SVG Export Plug-In . SVG Version: 6.00 Build 0)  -->
<svg version="1.1" id="Layer_1" xmlns="http://www.w3.org/2000/svg" xmlns:xlink="http://www.w3.org/1999/xlink" x="0px" y="0px"
	 viewBox="0 0 841.89 418.16" style="enable-background:new 0 0 841.89 418.16;" xml:space="preserve">
<style type="text/css">
	.st0{fill:#F58220;}
	.st1{fill:#FDB940;}
	.st2{fill:#FCB323;}
	.st3{fill:#2D3083;}
	.st4{fill:#FFFFFF;}
</style>
<title>JakartaEE_Logo_compatible</title>
<path class="st0" d="M548.73,273.88l151.95-0.12c0,0-75.35,23.54-112.82,36c-10.92,3.61-22,6.83-32.92,10.35
	c-5.48,1.77-12.22-0.12-10.82-9.3C545.44,302.12,548.73,273.88,548.73,273.88z"/>
<path class="st1" d="M718,145H308.25c1,33.5-3.46,81.31-42.29,118.71h438.47c3.54-0.01,6.41-2.88,6.42-6.42l13.59-105.87
	C724.43,147.87,721.55,145,718,145z"/>
<path class="st1" d="M291,106l-44.06,48.25c-0.53,24.46-6.48,61.29-32.42,94.95l38.33,9.57C316.78,198.55,291,106,291,106z"/>
<path class="st2" d="M246.91,154.24c0.37-16.9-1.85-27.9-1.85-27.9l-97.22,106.45l66.49,16.6l0.16-0.2l-44.21-11L246.91,154.24z"/>
<path class="st0" d="M170.28,238.15l44.21,11c25.94-33.66,31.89-70.49,32.42-94.95L170.28,238.15z"/>
<path class="st3" d="M227.5,264.53c3.85,0,7.63,0.18,11.34,0.52l-125.4-30.94c0,0,23.33,7.74,51.56,49.89
	C179.87,272.11,202.35,264.53,227.5,264.53z"/>
<path class="st3" d="M363.68,186.79c0.02,1.59-0.2,3.17-0.66,4.69c-0.4,1.34-1.08,2.58-2,3.63c-0.93,1.03-2.08,1.83-3.36,2.34
	c-1.52,0.59-3.13,0.88-4.76,0.84c-0.83,0-1.65,0-2.46-0.13c-0.84-0.1-1.68-0.24-2.51-0.42l0.39-4.17c0.04-0.34,0.2-0.66,0.46-0.88
	c0.32-0.25,0.71-0.37,1.11-0.34c0.31,0.01,0.61,0.05,0.91,0.11c0.43,0.09,0.87,0.13,1.31,0.12c0.63,0.02,1.26-0.08,1.86-0.29
	c0.52-0.18,0.98-0.51,1.32-0.95c0.38-0.52,0.65-1.11,0.78-1.74c0.2-0.87,0.29-1.77,0.27-2.66v-19.78h7.35L363.68,186.79z"/>
<path class="st3" d="M406.16,198h-5.7c-0.55,0.03-1.09-0.13-1.55-0.44c-0.39-0.28-0.7-0.67-0.89-1.11l-1.88-5.45h-12.06l-1.87,5.36
	c-0.18,0.43-0.48,0.8-0.86,1.07c-0.44,0.33-0.99,0.5-1.54,0.48h-5.74l12.28-30.79h7.53L406.16,198z M394.47,186.23l-2.94-8.43
	c-0.22-0.54-0.45-1.17-0.7-1.89s-0.49-1.51-0.74-2.36c-0.21,0.86-0.45,1.66-0.7,2.39s-0.47,1.37-0.69,1.9l-2.92,8.39L394.47,186.23z
	"/>
<path class="st3" d="M424.73,179.63h1.18c0.9,0.08,1.78-0.3,2.35-1l7.14-10.06c0.35-0.48,0.82-0.87,1.36-1.11
	c0.58-0.22,1.2-0.33,1.82-0.31H445l-9.41,12.45c-0.56,0.78-1.3,1.41-2.15,1.86c0.54,0.19,1.05,0.47,1.5,0.82
	c0.49,0.39,0.91,0.86,1.26,1.38l9.56,14.34h-6.57c-0.36,0.01-0.72-0.03-1.08-0.09c-0.27-0.04-0.53-0.13-0.77-0.25
	c-0.21-0.11-0.4-0.24-0.57-0.41c-0.17-0.17-0.32-0.36-0.46-0.56l-7.18-10.71c-0.24-0.38-0.59-0.67-1-0.84
	c-0.52-0.18-1.07-0.26-1.62-0.24h-1.79V198h-7.36v-30.84h7.36L424.73,179.63z"/>
<path class="st3" d="M485.3,198h-5.7c-0.55,0.03-1.09-0.13-1.55-0.44c-0.39-0.28-0.7-0.67-0.89-1.11l-1.87-5.45h-12.06l-1.88,5.36
	c-0.18,0.43-0.48,0.8-0.86,1.07c-0.42,0.35-0.94,0.55-1.49,0.57h-5.75l12.28-30.79H473L485.3,198z M473.61,186.23l-2.94-8.43
	c-0.22-0.54-0.45-1.17-0.7-1.89s-0.49-1.51-0.74-2.36c-0.21,0.86-0.44,1.66-0.69,2.39s-0.48,1.37-0.7,1.9l-2.92,8.39L473.61,186.23z
	"/>
<path class="st3" d="M522.46,198h-6.66c-1.07,0.09-2.09-0.44-2.65-1.35l-5.27-8.94c-0.21-0.34-0.49-0.63-0.83-0.84
	c-0.4-0.19-0.85-0.28-1.3-0.26h-1.88V198h-7.36v-30.84h10.32c1.98-0.04,3.95,0.19,5.87,0.69c1.45,0.37,2.81,1.01,4,1.91
	c0.98,0.76,1.75,1.76,2.23,2.9c0.48,1.15,0.71,2.39,0.7,3.63c0.01,0.96-0.13,1.91-0.41,2.83c-0.27,0.88-0.68,1.71-1.22,2.46
	c-0.56,0.77-1.23,1.44-2,2c-0.83,0.62-1.75,1.11-2.73,1.46c0.48,0.25,0.93,0.55,1.34,0.9c0.44,0.37,0.82,0.8,1.14,1.28L522.46,198z
	 M506.83,181.69c0.87,0.02,1.73-0.11,2.56-0.37c0.64-0.2,1.23-0.54,1.73-1c0.45-0.42,0.79-0.95,1-1.53
	c0.21-0.61,0.31-1.25,0.31-1.89c0.06-1.21-0.44-2.38-1.36-3.17c-1.23-0.86-2.72-1.26-4.22-1.14h-3v9.13L506.83,181.69z"/>
<path class="st3" d="M556,172.83h-8.93V198h-7.36v-25.17h-8.91v-5.67H556V172.83z"/>
<path class="st3" d="M593.81,198h-5.7c-0.55,0.03-1.09-0.13-1.55-0.44c-0.39-0.28-0.7-0.67-0.89-1.11L583.8,191h-12.06l-1.88,5.36
	c-0.18,0.43-0.48,0.8-0.86,1.07c-0.44,0.33-0.98,0.5-1.53,0.48h-5.75L574,167.16h7.53L593.81,198z M582.12,186.23l-2.94-8.43
	c-0.22-0.54-0.45-1.17-0.7-1.89s-0.49-1.51-0.74-2.36c-0.21,0.86-0.45,1.66-0.69,2.39s-0.48,1.37-0.7,1.9l-2.92,8.39L582.12,186.23z
	"/>
<path class="st3" d="M629.71,172.66v7.18h10v5.28h-10v7.33h13V198h-20.4v-30.84h20.42v5.5H629.71z"/>
<path class="st3" d="M663.37,172.66v7.18h10v5.28h-10v7.33h13V198H656v-30.84h20.42v5.5H663.37z"/>
<path class="st4" d="M362.81,232.35c0.15,0,0.31,0.03,0.45,0.08c0.16,0.07,0.31,0.16,0.43,0.29l2.49,2.54
	c-1.08,1.37-2.49,2.45-4.1,3.13c-1.85,0.75-3.83,1.11-5.83,1.06c-1.89,0.04-3.77-0.3-5.53-1c-3.17-1.28-5.63-3.86-6.76-7.08
	c-0.62-1.71-0.93-3.53-0.91-5.35c-0.02-1.85,0.32-3.68,1-5.4c1.26-3.22,3.82-5.76,7.05-7c2.67-1.01,5.56-1.26,8.36-0.73
	c0.86,0.16,1.7,0.4,2.52,0.72c0.76,0.29,1.48,0.66,2.16,1.11c0.63,0.41,1.21,0.88,1.74,1.4l-2.11,2.76
	c-0.14,0.18-0.31,0.33-0.49,0.47c-0.23,0.15-0.51,0.21-0.78,0.2c-0.22,0-0.43-0.04-0.63-0.14c-0.22-0.11-0.43-0.22-0.63-0.35
	l-0.74-0.45c-0.31-0.19-0.65-0.34-1-0.45c-0.42-0.16-0.84-0.28-1.28-0.36c-0.57-0.1-1.14-0.15-1.72-0.14
	c-0.98-0.01-1.95,0.18-2.85,0.56c-0.86,0.37-1.63,0.93-2.24,1.63c-0.65,0.78-1.15,1.67-1.45,2.64c-0.36,1.15-0.53,2.35-0.51,3.56
	c-0.02,1.22,0.17,2.44,0.57,3.59c0.34,0.98,0.86,1.88,1.54,2.65c0.63,0.7,1.41,1.26,2.28,1.63c0.88,0.37,1.83,0.56,2.79,0.56
	c0.52,0,1.04-0.03,1.56-0.08c0.45-0.06,0.89-0.15,1.32-0.27c0.4-0.13,0.79-0.3,1.16-0.51c0.39-0.24,0.75-0.5,1.09-0.8
	c0.15-0.12,0.31-0.22,0.48-0.3C362.41,232.42,362.61,232.36,362.81,232.35z"/>
<path class="st4" d="M406.06,226c0.02,1.82-0.32,3.62-1,5.31c-0.65,1.6-1.62,3.05-2.85,4.26c-1.27,1.24-2.78,2.21-4.44,2.85
	c-3.72,1.37-7.8,1.37-11.52,0c-1.66-0.64-3.17-1.61-4.45-2.85c-1.24-1.21-2.22-2.66-2.87-4.26c-1.35-3.41-1.35-7.21,0-10.62
	c0.65-1.6,1.63-3.05,2.87-4.25c1.28-1.24,2.79-2.2,4.45-2.84c1.84-0.69,3.8-1.03,5.77-1c1.96-0.04,3.91,0.3,5.75,1
	c1.65,0.64,3.16,1.61,4.44,2.84c1.23,1.21,2.2,2.66,2.85,4.26C405.74,222.38,406.08,224.18,406.06,226z M399.62,226
	c0.02-1.19-0.16-2.38-0.52-3.51c-0.31-0.97-0.82-1.87-1.5-2.64c-0.66-0.73-1.48-1.3-2.39-1.66c-1.02-0.4-2.11-0.6-3.21-0.58
	c-1.11-0.02-2.22,0.18-3.25,0.58c-0.92,0.36-1.74,0.93-2.4,1.66c-0.68,0.77-1.19,1.67-1.5,2.64c-0.69,2.28-0.69,4.72,0,7
	c0.31,0.97,0.82,1.87,1.5,2.64c0.66,0.73,1.48,1.3,2.4,1.66c1.04,0.39,2.14,0.58,3.25,0.56c1.1,0.02,2.18-0.17,3.21-0.56
	c0.91-0.37,1.73-0.93,2.39-1.66c0.68-0.77,1.19-1.67,1.5-2.64C399.46,228.36,399.63,227.18,399.62,226z"/>
<path class="st4" d="M451.38,212.86v26.3h-5.55V224c0-0.35,0-0.72,0-1.13s0.06-0.83,0.11-1.25l-7.2,13.52c-0.2,0.41-0.51,0.76-0.9,1
	c-0.4,0.22-0.85,0.33-1.3,0.32h-0.85c-0.45,0.01-0.9-0.1-1.3-0.32c-0.39-0.24-0.7-0.59-0.9-1l-7.19-13.55l0.09,1.27
	c0,0.41,0,0.79,0,1.14v15.13h-5.55v-26.3h4.8h0.72c0.19,0.01,0.37,0.05,0.55,0.11c0.16,0.06,0.31,0.16,0.43,0.28
	c0.16,0.15,0.29,0.33,0.39,0.53l7,13.34c0.25,0.46,0.48,0.93,0.72,1.42s0.45,1,0.66,1.52c0.21-0.53,0.43-1.05,0.66-1.55
	s0.47-1,0.73-1.45l7-13.28c0.1-0.2,0.23-0.38,0.38-0.53c0.12-0.12,0.27-0.22,0.43-0.28c0.18-0.06,0.36-0.1,0.55-0.11h0.72
	L451.38,212.86z"/>
<path class="st4" d="M477.34,212.86c1.66-0.03,3.32,0.19,4.92,0.66c1.24,0.37,2.39,0.99,3.38,1.82c0.88,0.73,1.56,1.67,2,2.72
	c0.43,1.08,0.64,2.23,0.63,3.39c0.01,1.23-0.21,2.46-0.65,3.61c-0.43,1.09-1.12,2.05-2,2.82c-1,0.84-2.15,1.46-3.4,1.83
	c-1.58,0.47-3.22,0.69-4.86,0.66h-3.27v8.79h-6.29v-26.3L477.34,212.86z M477.34,225.77c1.28,0.12,2.56-0.29,3.53-1.14
	c0.76-0.88,1.15-2.02,1.08-3.18c0.01-0.56-0.09-1.12-0.28-1.64c-0.17-0.48-0.46-0.92-0.84-1.27c-0.41-0.38-0.9-0.66-1.43-0.82
	c-0.67-0.21-1.36-0.31-2.06-0.29h-3.27v8.34H477.34z"/>
<path class="st4" d="M525,239.16h-4.88c-0.47,0.02-0.93-0.11-1.32-0.37c-0.33-0.24-0.59-0.57-0.76-0.95l-1.6-4.58h-10.3l-1.6,4.58
	c-0.16,0.37-0.41,0.68-0.74,0.91c-0.38,0.28-0.84,0.42-1.31,0.41h-4.91l10.49-26.3h6.44L525,239.16z M515,229.16l-2.51-7.21
	c-0.19-0.45-0.39-1-0.6-1.61s-0.42-1.29-0.63-2c-0.18,0.73-0.38,1.41-0.59,2s-0.41,1.16-0.6,1.62l-2.49,7.17L515,229.16z"/>
<path class="st4" d="M555.13,217.7h-7.62v21.46h-6.29V217.7h-7.62v-4.84h21.53V217.7z"/>
<path class="st4" d="M575.79,239.16h-6.32v-26.3h6.32V239.16z"/>
<path class="st4" d="M602.17,212.86c1.61-0.03,3.21,0.14,4.78,0.51c1.15,0.26,2.24,0.74,3.21,1.42c0.8,0.56,1.44,1.32,1.84,2.21
	c0.39,0.93,0.58,1.93,0.56,2.94c0,0.58-0.08,1.16-0.25,1.71c-0.18,0.55-0.46,1.07-0.82,1.53c-0.41,0.51-0.89,0.95-1.44,1.31
	c-0.65,0.42-1.36,0.76-2.1,1c1.51,0.24,2.9,0.94,4,2c0.88,1,1.35,2.31,1.29,3.65c0,1.08-0.22,2.14-0.67,3.12
	c-0.47,0.98-1.15,1.84-2,2.52c-0.95,0.76-2.03,1.32-3.19,1.67c-1.41,0.43-2.87,0.63-4.34,0.61H592.2v-26.3L602.17,212.86z
	 M598.48,217.43v6.49h3.28c0.63,0.01,1.26-0.04,1.88-0.14c0.5-0.08,0.98-0.24,1.42-0.5c0.39-0.24,0.7-0.59,0.89-1
	c0.22-0.5,0.33-1.04,0.31-1.59c0.01-0.53-0.07-1.06-0.24-1.56c-0.15-0.4-0.41-0.74-0.75-1c-0.38-0.27-0.81-0.45-1.27-0.54
	c-0.6-0.12-1.22-0.17-1.83-0.16L598.48,217.43z M602.91,234.56c0.68,0.02,1.36-0.09,2-0.31c0.47-0.17,0.89-0.44,1.24-0.79
	c0.29-0.32,0.5-0.7,0.61-1.11c0.11-0.4,0.16-0.82,0.16-1.24c0.01-0.44-0.06-0.88-0.19-1.3c-0.13-0.39-0.36-0.74-0.67-1
	c-0.37-0.29-0.8-0.5-1.25-0.61c-0.65-0.16-1.33-0.23-2-0.22h-4.39v6.56L602.91,234.56z"/>
<path class="st4" d="M644.59,234.29v4.87h-16.33v-26.3h6.29v21.43L644.59,234.29z"/>
<path class="st4" d="M665.27,217.55v6.14h8.52v4.51h-8.52v6.27h11.12v4.69H659v-26.3h17.44v4.69H665.27z"/>
<g>
	<path class="st3" d="M593.74,167.47c0-0.1,0.05-0.15,0.15-0.15h5.36c0.11,0,0.17,0.05,0.17,0.15v0.75c0,0.09-0.05,0.14-0.15,0.14
		h-1.83c-0.07,0-0.11,0.03-0.11,0.09v5.79c0,0.11-0.05,0.17-0.14,0.17h-1.15c-0.08,0-0.12-0.05-0.12-0.15v-5.79
		c0-0.07-0.04-0.11-0.11-0.11h-1.93c-0.1,0-0.15-0.05-0.15-0.14V167.47z M600.44,174.35c-0.04-0.04-0.05-0.08-0.05-0.15v-6.72
		c0-0.11,0.05-0.17,0.15-0.17h1.62c0.06,0,0.11,0.01,0.14,0.03c0.03,0.02,0.05,0.06,0.06,0.11l1.68,4.51
		c0.04,0.1,0.09,0.1,0.14-0.02l1.63-4.45c0.03-0.12,0.09-0.18,0.18-0.18h1.68c0.08,0,0.12,0.05,0.12,0.15v6.74
		c0,0.07-0.02,0.12-0.05,0.15c-0.03,0.03-0.08,0.05-0.15,0.05h-1.02c-0.07,0-0.12-0.01-0.15-0.04s-0.04-0.07-0.04-0.13v-5
		c0-0.04-0.01-0.06-0.02-0.06c-0.02,0-0.03,0.02-0.05,0.06l-1.82,5.03c-0.03,0.09-0.09,0.14-0.18,0.14h-0.69
		c-0.1,0-0.17-0.05-0.2-0.14l-1.8-4.97c-0.01-0.04-0.03-0.06-0.05-0.06c-0.02,0-0.03,0.03-0.03,0.08v4.93
		c0,0.05-0.01,0.09-0.03,0.11c-0.02,0.03-0.07,0.04-0.14,0.04h-0.81C600.52,174.41,600.48,174.39,600.44,174.35z"/>
</g>
</svg>
