<?xml version="1.0" encoding="UTF-8"?><svg id="uuid-4d7ded0d-3d13-4f56-9d04-20bb8fcd2859" xmlns="http://www.w3.org/2000/svg" viewBox="0 0 36.94 36.94"><defs><style>.uuid-ad3f40e3-a6e8-4702-889e-f6b5e6f22230{fill:#1b2080;}</style></defs><g id="uuid-31e6f96e-d02d-40d0-a220-673e2af83522"><g><path class="uuid-ad3f40e3-a6e8-4702-889e-f6b5e6f22230" d="M31.96,0H4.98C2.24,.02,.02,2.24,0,4.98V31.96c.02,2.74,2.24,4.97,4.98,4.98H31.96c2.74-.02,4.97-2.24,4.98-4.98V4.98c-.02-2.74-2.24-4.97-4.98-4.98Zm2.64,31.96c-.01,1.45-1.19,2.63-2.64,2.64H4.98c-1.45-.01-2.63-1.19-2.64-2.64V4.98c.01-1.45,1.19-2.63,2.64-2.64H31.96c1.45,.01,2.63,1.19,2.64,2.64V31.96Z"/><rect class="uuid-ad3f40e3-a6e8-4702-889e-f6b5e6f22230" x="6.96" y="8.7" width="2.4" height="2.35"/><rect class="uuid-ad3f40e3-a6e8-4702-889e-f6b5e6f22230" x="12.88" y="8.7" width="17.11" height="2.35"/><rect class="uuid-ad3f40e3-a6e8-4702-889e-f6b5e6f22230" x="6.96" y="17.3" width="2.4" height="2.35"/><rect class="uuid-ad3f40e3-a6e8-4702-889e-f6b5e6f22230" x="12.88" y="17.3" width="17.11" height="2.35"/><rect class="uuid-ad3f40e3-a6e8-4702-889e-f6b5e6f22230" x="6.96" y="25.9" width="2.4" height="2.35"/><rect class="uuid-ad3f40e3-a6e8-4702-889e-f6b5e6f22230" x="12.88" y="25.9" width="17.11" height="2.35"/></g></g></svg>