<?xml version="1.0" encoding="UTF-8"?><svg id="uuid-bef4b629-9508-49fc-b28e-3851968449c9" xmlns="http://www.w3.org/2000/svg" viewBox="0 0 60.45 70.88"><defs><style>.uuid-d3360829-271f-484b-a860-503cfcbbea86{fill:#fff;}.uuid-31be24fb-7b3c-4782-a167-aaa660b57e25{fill:#1b2080;}</style></defs><g id="uuid-034875e8-cf35-4a74-a937-e35ac645c190"><g><polygon class="uuid-31be24fb-7b3c-4782-a167-aaa660b57e25" points="0 0 0 59.6 30.23 70.88 60.45 59.6 60.45 0 0 0"/><g><g><path class="uuid-d3360829-271f-484b-a860-503cfcbbea86" d="M44.57,22.11l-.55,.55-.57,.57c2.29,3.07,3.55,6.97,3.16,11.17-.68,7.55-6.62,13.7-14.15,14.63-4.46,.55-8.59-.74-11.81-3.18h0s1.5,0,1.5,0c.34,0,.67-.2,.78-.53,.17-.54-.23-1.04-.74-1.04h-3.41c-.43,0-.78,.35-.78,.78v3.38c0,.34,.2,.67,.53,.78,.54,.17,1.04-.23,1.04-.74v-1.48s.05,.04,.07,.06c3,2.3,6.74,3.68,10.8,3.68,9.82,0,17.81-7.99,17.81-17.81,0-4.06-1.38-7.8-3.68-10.8Z"/><path class="uuid-d3360829-271f-484b-a860-503cfcbbea86" d="M30.44,16.67c3.63,0,6.97,1.21,9.68,3.23,.1,.07,.18,.16,.28,.24h-1.75c-.43,0-.78,.35-.78,.78s.35,.78,.78,.78h3.41s.05-.01,.07-.01c.4-.04,.71-.36,.71-.77v-3.41c0-.43-.35-.78-.78-.78s-.78,.35-.78,.78v1.29s-.02-.01-.02-.02c-3-2.3-6.74-3.68-10.8-3.68-9.82,0-17.81,7.99-17.81,17.81,0,4.06,1.38,7.8,3.68,10.8l.55-.55,.56-.56c-2.02-2.71-3.23-6.05-3.23-9.68,0-8.96,7.29-16.24,16.24-16.24Z"/></g><g><path class="uuid-d3360829-271f-484b-a860-503cfcbbea86" d="M26.92,36.02l-4.03-3.19,4.03-3.19c.35-.27,.42-.77,.15-1.13-.15-.2-.4-.32-.65-.32-.18,0-.36,.07-.5,.18l-4.82,3.82c-.35,.28-.41,.78-.13,1.13,.04,.05,.08,.09,.13,.13l4.82,3.82c.33,.29,.84,.26,1.13-.08,.29-.33,.26-.84-.08-1.13-.02-.02-.04-.04-.07-.05Z"/><path class="uuid-d3360829-271f-484b-a860-503cfcbbea86" d="M40.3,32.33s-.08-.09-.13-.13l-4.82-3.82c-.15-.12-.33-.18-.52-.18h0c-.44,0-.8,.37-.8,.81,0,.25,.12,.48,.32,.63l4.03,3.19-4.03,3.19c-.36,.26-.45,.76-.19,1.12,.26,.36,.76,.45,1.12,.19,.02-.02,.05-.03,.07-.05l4.82-3.82c.35-.28,.41-.78,.13-1.13Z"/><path class="uuid-d3360829-271f-484b-a860-503cfcbbea86" d="M32.17,27.22c-.09-.02-.18-.03-.26-.03-.35,.02-.65,.26-.74,.6l-2.61,9.65c-.12,.43,.14,.87,.57,.99,.43,.12,.87-.14,.99-.57,0,0,0,0,0,0l2.61-9.65c.12-.43-.13-.87-.55-.99Z"/></g></g></g></g></svg>