<?xml version="1.0" encoding="UTF-8"?><svg id="uuid-48e7aebc-306e-4734-aa1e-a4174017ccd7" xmlns="http://www.w3.org/2000/svg" viewBox="0 0 60.45 70.88"><defs><style>.uuid-73f316d4-8be7-429a-8808-a63e18a01100{fill:#fff;}.uuid-a48bd345-e127-42e5-96be-d07a84e2ef46{fill:#1b2080;}</style></defs><g id="uuid-c088b48a-36a3-4e7a-a41a-6e0c7b6dca6a"><g><polygon class="uuid-a48bd345-e127-42e5-96be-d07a84e2ef46" points="0 0 0 59.6 30.23 70.88 60.45 59.6 60.45 0 0 0"/><g><path class="uuid-73f316d4-8be7-429a-8808-a63e18a01100" d="M47.04,38.61s0,0,0,0l-2.62-1.89c.1-.68,.15-1.36,.15-2.03s-.05-1.36-.15-2.03l2.62-1.89c1.15-.84,1.49-2.4,.77-3.62l-1.98-3.44c-.72-1.23-2.23-1.72-3.53-1.14l-2.94,1.33c-1.07-.85-2.25-1.54-3.52-2.04l-.33-3.21c-.15-1.42-1.33-2.48-2.75-2.48h-3.97c-1.42,0-2.6,1.07-2.75,2.48l-.33,3.21c-1.27,.5-2.45,1.18-3.52,2.04l-2.94-1.33c-1.3-.58-2.81-.09-3.53,1.14l-1.98,3.44c-.71,1.23-.38,2.79,.77,3.63l2.62,1.89c-.1,.68-.15,1.36-.15,2.03s.05,1.36,.15,2.03l-2.62,1.89c-1.15,.84-1.49,2.4-.77,3.62l1.98,3.44c.72,1.23,2.23,1.72,3.53,1.14l2.94-1.33c1.07,.85,2.25,1.54,3.52,2.04l.33,3.21c.15,1.42,1.33,2.48,2.75,2.48h3.97c1.42,0,2.6-1.07,2.75-2.48l.33-3.21c1.27-.5,2.45-1.18,3.52-2.04l2.94,1.33c1.3,.58,2.81,.09,3.53-1.14l1.98-3.44c.71-1.23,.38-2.79-.77-3.63Zm-.76,2.74l-1.98,3.44c-.26,.45-.81,.63-1.28,.42l-3.45-1.55c-.31-.14-.68-.09-.94,.14-1.16,1-2.48,1.77-3.92,2.27-.32,.11-.55,.4-.59,.74l-.38,3.76c-.05,.51-.48,.9-.99,.9h-3.97c-.51,0-.94-.39-.99-.9l-.38-3.76c-.03-.34-.26-.63-.59-.74-1.44-.5-2.76-1.26-3.92-2.27-.16-.14-.37-.22-.58-.22-.12,0-.25,.03-.36,.08l-3.44,1.55c-.47,.21-1.02,.03-1.28-.41l-1.98-3.44c-.26-.44-.14-1.01,.28-1.31l3.06-2.21c.28-.2,.41-.54,.35-.88-.14-.75-.22-1.51-.22-2.26s.07-1.51,.22-2.26c.06-.34-.07-.68-.35-.88l-3.06-2.21c-.42-.3-.54-.87-.28-1.31l1.98-3.44c.26-.45,.81-.63,1.28-.42l3.45,1.55c.31,.14,.68,.09,.94-.14,1.16-1,2.48-1.77,3.92-2.27,.32-.11,.55-.4,.59-.74l.38-3.76c.05-.51,.48-.9,.99-.9h3.97c.51,0,.94,.39,.99,.9l.38,3.76c.03,.34,.26,.63,.59,.74,1.44,.5,2.76,1.26,3.92,2.27,.26,.23,.63,.28,.94,.14l3.44-1.55c.47-.21,1.02-.03,1.28,.41l1.98,3.44c.26,.44,.14,1.01-.28,1.31l-3.06,2.21c-.28,.2-.41,.54-.35,.88,.14,.75,.22,1.51,.22,2.26s-.07,1.51-.22,2.26c-.06,.34,.07,.68,.35,.88l3.06,2.21c.42,.3,.54,.87,.28,1.31Z"/><path class="uuid-73f316d4-8be7-429a-8808-a63e18a01100" d="M36.98,34.17h-5.18v-6.9l-6.9,8.63h5.18v6.9l6.9-8.63Z"/></g></g></g></svg>