<?xml version="1.0" encoding="UTF-8"?><svg id="uuid-66cb644c-6e84-4d64-bb71-d06e02e2237d" xmlns="http://www.w3.org/2000/svg" viewBox="0 0 47.14 48.56"><defs><style>.uuid-cf1296e6-367a-4a7f-8640-0881fe78c9d1{fill:#1b2080;}</style></defs><g id="uuid-03caddd6-a8c6-48b7-91d2-f300a60eb0ca"><g><path class="uuid-cf1296e6-367a-4a7f-8640-0881fe78c9d1" d="M29.29,15.73c.26-.54,.88-.8,1.45-.6l.13,.05,10.49,5.08c.59,.28,.83,.99,.55,1.57-.26,.54-.89,.8-1.45,.6l-.12-.05-10.49-5.08c-.59-.28-.83-.99-.55-1.57h0Z"/><path class="uuid-cf1296e6-367a-4a7f-8640-0881fe78c9d1" d="M16.37,15.11c.59-.28,1.29-.03,1.57,.55,.26,.54,.07,1.18-.43,1.5l-.12,.07-10.53,5.06c-.59,.28-1.29,.03-1.57-.55-.26-.54-.07-1.18,.43-1.5l.12-.07,10.53-5.06Z"/><path class="uuid-cf1296e6-367a-4a7f-8640-0881fe78c9d1" d="M40.15,20.27c.58-.3,1.29-.08,1.59,.5,.28,.54,.1,1.21-.41,1.54l-.12,.07-17.1,8.57c-.28,.14-.61,.16-.91,.06l-.14-.06L5.96,22.46c-.58-.29-.82-1-.53-1.58,.27-.53,.89-.78,1.45-.58l.13,.05,16.57,8.23,16.58-8.31Z"/><path class="uuid-cf1296e6-367a-4a7f-8640-0881fe78c9d1" d="M40.92,29.65c.6,0,1.1,.45,1.17,1.04v.14s0,7.99,0,7.99c0,.4-.2,.76-.53,.98l-.13,.07-17.34,8.57c-.28,.14-.6,.16-.89,.06l-.14-.06L5.72,39.88c-.35-.18-.6-.52-.65-.91v-.15s0-7.95,0-7.95c0-.65,.53-1.18,1.18-1.18,.6,0,1.1,.45,1.17,1.04v.14s0,7.21,0,7.21l16.16,7.98,16.16-7.99v-7.26c0-.6,.45-1.1,1.04-1.17h.14Z"/><path class="uuid-cf1296e6-367a-4a7f-8640-0881fe78c9d1" d="M40.04,20.48c.47-.37,1.13-.33,1.56,.09l.1,.11,5.2,6.61c.4,.51,.31,1.25-.2,1.65-.02,.01-.03,.03-.05,.04l-.12,.08-16.04,8.51c-.41,.22-.9,.18-1.27-.11l-.12-.1-4.33-4.33v13.99c0,.6-.45,1.1-1.04,1.17h-.14c-.6,0-1.1-.44-1.17-1.03v-.14s0-16.84,0-16.84c0-.65,.53-1.18,1.18-1.18,.27,0,.53,.09,.74,.26l.1,.09,5.73,5.73,14.02-7.44-4.33-5.5c-.37-.47-.33-1.13,.09-1.55l.11-.1Z"/><path class="uuid-cf1296e6-367a-4a7f-8640-0881fe78c9d1" d="M5.44,20.52c.4-.51,1.14-.6,1.66-.2,.46,.36,.58,1,.3,1.5l-.08,.12-4.35,5.68,14.03,7.45,5.73-5.73c.42-.42,1.09-.46,1.56-.1l.11,.1c.42,.42,.46,1.09,.1,1.56l-.1,.11-6.35,6.35c-.33,.33-.81,.43-1.25,.27l-.14-.06L.63,29.06c-.57-.31-.79-1.02-.49-1.59,0-.02,.02-.03,.03-.05l.08-.12,5.2-6.78Z"/><path class="uuid-cf1296e6-367a-4a7f-8640-0881fe78c9d1" d="M17.06,9.17c.6,0,1.1,.45,1.17,1.04v.14s0,10.09,0,10.09c0,.65-.53,1.18-1.18,1.18-.6,0-1.1-.45-1.17-1.04v-.14s0-10.09,0-10.09c0-.65,.53-1.18,1.18-1.18Z"/><path class="uuid-cf1296e6-367a-4a7f-8640-0881fe78c9d1" d="M23.6,4.93c.6,0,1.1,.45,1.17,1.04v.14s0,17.44,0,17.44c0,.65-.53,1.18-1.18,1.18-.6,0-1.1-.45-1.17-1.04v-.14s0-17.44,0-17.44c0-.65,.53-1.18,1.18-1.18Z"/><path class="uuid-cf1296e6-367a-4a7f-8640-0881fe78c9d1" d="M30.14,9.17c.6,0,1.1,.45,1.17,1.04v.14s0,10.09,0,10.09c0,.65-.53,1.18-1.18,1.18-.6,0-1.1-.45-1.17-1.04v-.14s0-10.09,0-10.09c0-.65,.53-1.18,1.18-1.18Z"/><path class="uuid-cf1296e6-367a-4a7f-8640-0881fe78c9d1" d="M13.54,10.75l3.52-6.11,3.53,6.11h-7.05Z"/><path class="uuid-cf1296e6-367a-4a7f-8640-0881fe78c9d1" d="M26.62,10.75l3.52-6.11,3.52,6.11h-7.05Z"/><path class="uuid-cf1296e6-367a-4a7f-8640-0881fe78c9d1" d="M20.04,6.11L23.56,0l3.52,6.11h-7.05Z"/></g></g></svg>