<?xml version="1.0" encoding="UTF-8"?><svg id="uuid-0ca6a634-89c3-4555-aec1-7966fbefbb0a" xmlns="http://www.w3.org/2000/svg" viewBox="0 0 60.45 70.88"><defs><style>.uuid-54fce099-1dec-4f7c-85b5-c3aeb7c7bed4{fill:#fff;}.uuid-464bfdaa-577c-4b36-85c9-ea0f36230640{fill:#1b2080;}</style></defs><g id="uuid-5a1321eb-cdf3-437a-b2ce-73ceacbdcbcf"><g><polygon class="uuid-464bfdaa-577c-4b36-85c9-ea0f36230640" points="0 0 0 59.6 30.23 70.88 60.45 59.6 60.45 0 0 0"/><g><path class="uuid-54fce099-1dec-4f7c-85b5-c3aeb7c7bed4" d="M11.59,43.01c1.08,2.33,4.6,2.99,6.53,4.76,1.85,1.7,2.79,5.17,5.3,6.09,.45,.16,.93,.24,1.4,.23,2.16,0,4.51-1.39,6.57-1.48,.08,0,.17,0,.25,0,1.93,0,4.1,.92,6.03,.92,.61,.01,1.22-.11,1.78-.36,2.33-1.08,2.99-4.6,4.76-6.53,1.7-1.85,5.17-2.79,6.09-5.3,.91-2.51-1.14-5.46-1.25-7.98-.11-2.61,1.64-5.73,.55-8.06s-4.6-2.99-6.53-4.76c-1.85-1.7-2.79-5.17-5.3-6.09-.45-.16-.93-.24-1.4-.23-2.16,0-4.51,1.39-6.57,1.48-.08,0-.17,0-.25,0-1.93,0-4.1-.92-6.03-.92-.61-.01-1.22,.11-1.78,.36-2.33,1.08-2.99,4.6-4.76,6.53-1.7,1.85-5.17,2.79-6.09,5.3-.91,2.51,1.14,5.46,1.25,7.98,.11,2.61-1.64,5.73-.55,8.06Zm.48-15.6c.41-1.13,1.69-1.93,3.04-2.77,.99-.62,2.02-1.26,2.8-2.11,.81-.89,1.39-1.99,1.94-3.06,.72-1.39,1.4-2.7,2.42-3.18,.39-.17,.82-.25,1.25-.24,.92,.05,1.84,.19,2.74,.43,1.08,.28,2.18,.45,3.29,.49,.1,0,.2,0,.31,0,1.15-.05,2.3-.42,3.41-.78,1.11-.36,2.17-.7,3.1-.7,.33,0,.66,.05,.97,.16,1.13,.41,1.93,1.69,2.77,3.04,.62,.99,1.26,2.02,2.11,2.8,.89,.81,1.99,1.39,3.06,1.94,1.39,.72,2.7,1.4,3.18,2.42,.47,1.02,.15,2.46-.19,3.99-.26,1.18-.53,2.39-.48,3.59,.05,1.15,.42,2.3,.78,3.41,.49,1.52,.95,2.95,.54,4.08s-1.69,1.93-3.04,2.77c-.99,.62-2.02,1.26-2.8,2.11-.81,.89-1.39,1.99-1.94,3.06-.72,1.39-1.4,2.7-2.42,3.18-.39,.17-.82,.25-1.25,.24-.92-.05-1.84-.19-2.74-.43-1.08-.28-2.18-.45-3.29-.49-.1,0-.2,0-.31,0-1.15,.05-2.3,.42-3.41,.78-1.11,.36-2.17,.7-3.1,.7-.33,0-.66-.05-.97-.16-1.13-.41-1.93-1.69-2.77-3.04-.62-.99-1.26-2.02-2.11-2.8-.89-.81-1.99-1.39-3.06-1.94-1.39-.72-2.7-1.4-3.18-2.42-.47-1.02-.15-2.46,.19-3.99,.26-1.18,.53-2.39,.48-3.59-.05-1.15-.42-2.3-.78-3.41-.49-1.52-.95-2.95-.54-4.08Z"/><path class="uuid-54fce099-1dec-4f7c-85b5-c3aeb7c7bed4" d="M30.6,46.67c6.92,0,12.52-5.61,12.52-12.52s-5.61-12.52-12.52-12.52-12.52,5.61-12.52,12.52h0c0,6.92,5.61,12.52,12.52,12.52h0Zm0-23.79c6.22,0,11.27,5.05,11.27,11.27s-5.05,11.27-11.27,11.27-11.27-5.05-11.27-11.27c0-6.22,5.05-11.26,11.27-11.27Z"/><path class="uuid-54fce099-1dec-4f7c-85b5-c3aeb7c7bed4" d="M30.6,49.18c8.3,0,15.03-6.73,15.03-15.03s-6.73-15.03-15.03-15.03-15.03,6.73-15.03,15.03c0,8.3,6.73,15.03,15.03,15.03h0Zm0-28.8c7.61,0,13.77,6.17,13.77,13.77s-6.17,13.77-13.77,13.77-13.77-6.17-13.77-13.77h0c0-7.6,6.17-13.76,13.77-13.77h0Z"/><polygon class="uuid-54fce099-1dec-4f7c-85b5-c3aeb7c7bed4" points="37.79 30.01 36.81 28.9 27.59 37.03 24.24 33.63 23.03 34.83 27.37 39.22 27.53 39.06 27.53 39.06 37.45 30.31 37.45 30.31 37.79 30.01"/></g></g></g></svg>