<?xml version="1.0" encoding="utf-8"?>
<!-- Generator: Adobe Illustrator 16.0.4, SVG Export Plug-In . SVG Version: 6.00 Build 0)  -->
<!DOCTYPE svg PUBLIC "-//W3C//DTD SVG 1.1//EN" "http://www.w3.org/Graphics/SVG/1.1/DTD/svg11.dtd">
<svg version="1.1" id="Layer_1" xmlns="http://www.w3.org/2000/svg" xmlns:xlink="http://www.w3.org/1999/xlink" x="0px" y="0px"
	 width="150px" height="48.619px" viewBox="74.75 25 150 48.619" enable-background="new 74.75 25 150 48.619" xml:space="preserve"
	>
<path fill="#2E2A25" d="M123.304,61.535h0.214l0.323,0.529h0.207l-0.349-0.539c0.181-0.021,0.317-0.117,0.317-0.334
	c0-0.243-0.143-0.351-0.431-0.351h-0.467v1.224h0.185L123.304,61.535L123.304,61.535z M123.304,61.377v-0.379h0.253
	c0.128,0,0.267,0.027,0.267,0.18c0,0.188-0.14,0.199-0.298,0.199H123.304z"/>
<path fill="#2E2A25" d="M124.722,61.455c0,0.66-0.537,1.197-1.198,1.197c-0.662,0-1.198-0.537-1.198-1.197
	c0-0.661,0.536-1.198,1.198-1.198C124.185,60.257,124.722,60.794,124.722,61.455 M123.523,60.469c-0.545,0-0.986,0.441-0.986,0.987
	c0,0.544,0.441,0.983,0.986,0.983c0.544,0,0.984-0.439,0.984-0.983C124.508,60.91,124.067,60.469,123.523,60.469"/>
<path fill="#FFFFFF" d="M116.878,62.459c-1.677,0-3.202,0.289-4.327,0.759c-0.124,0.062-0.212,0.191-0.212,0.339
	c0,0.053,0.014,0.108,0.034,0.154c0.133,0.385-0.086,0.803-1.175,1.042c-1.614,0.354-2.634,2.021-3.217,2.574
	c-0.685,0.651-2.619,1.049-2.327,0.662c0.228-0.304,1.098-1.248,1.628-2.269c0.473-0.914,0.895-1.176,1.476-2.048
	c0.17-0.255,0.831-1.151,1.023-1.862c0.216-0.691,0.143-1.562,0.226-1.92c0.118-0.519,0.606-1.64,0.642-2.271
	c0.022-0.357-1.493,0.512-2.213,0.512c-0.719,0-1.419-0.432-2.062-0.463c-0.795-0.036-1.308,0.615-2.026,0.5
	c-0.41-0.064-0.757-0.428-1.475-0.455c-1.022-0.037-2.271,0.57-4.617,0.494c-2.309-0.076-4.439-2.917-4.732-3.369
	c-0.34-0.529-0.756-0.529-1.21-0.113c-0.454,0.418-1.014,0.09-1.174-0.188c-0.302-0.53-1.111-2.078-2.366-2.402
	c-1.732-0.448-2.61,0.959-2.496,2.08c0.115,1.14,0.852,1.458,1.192,2.062c0.34,0.605,0.515,0.996,1.156,1.264
	c0.453,0.189,0.623,0.471,0.487,0.844c-0.119,0.324-0.591,0.396-0.901,0.414c-0.661,0.032-1.124-0.146-1.462-0.361
	c-0.394-0.252-0.712-0.601-1.055-1.189c-0.396-0.65-1.021-0.936-1.749-0.936c-0.346,0-0.671,0.092-0.959,0.238
	c-1.141,0.598-2.497,0.945-3.959,0.945l-1.648,0.003c3.161,9.373,12.023,16.122,22.464,16.122c8.34,0,15.672-4.307,19.896-10.817
	C118.827,62.591,117.857,62.459,116.878,62.459"/>
<path fill="#2E2A25" d="M105.013,60.609c-0.021,0-0.041,0.01-0.055,0.022c-0.308,0.354-0.44,0.476-0.662,0.652
	c-0.534,0.432-1.146-0.056-1.537-0.285c-0.869-0.513-1.57-0.188-1.74,0.208c-0.171,0.396,0.017,0.876,0.492,0.812
	c0.663-0.086,0.692,0.019,1.173,0.321c0.893,0.567,1.545,0.259,1.878-0.008c0.278-0.222,0.433-0.411,0.577-0.681
	c0.257-0.506,0.047-0.908-0.075-1.026C105.051,60.617,105.032,60.609,105.013,60.609"/>
<path fill="#2E2A25" d="M99.844,26.219c-13.09,0-23.7,10.61-23.7,23.7c0,2.649,0.435,5.198,1.236,7.577h1.648
	c1.461,0,2.818-0.354,3.959-0.947c0.288-0.146,0.613-0.238,0.959-0.238c0.729,0,1.353,0.283,1.749,0.936
	c0.343,0.59,0.662,0.938,1.055,1.188c0.338,0.217,0.801,0.396,1.462,0.363c0.311-0.015,0.782-0.09,0.901-0.414
	c0.136-0.373-0.034-0.654-0.487-0.842c-0.642-0.268-0.816-0.66-1.156-1.266c-0.341-0.604-1.077-0.924-1.192-2.062
	c-0.114-1.119,0.764-2.531,2.497-2.08c1.254,0.324,2.063,1.873,2.365,2.403c0.16,0.278,0.72,0.604,1.174,0.19
	c0.454-0.418,0.87-0.418,1.211,0.112c0.291,0.452,2.423,3.295,4.731,3.367c2.346,0.075,3.595-0.529,4.617-0.492
	c0.718,0.027,1.064,0.39,1.475,0.455c0.72,0.112,1.231-0.537,2.026-0.5c0.643,0.031,1.343,0.461,2.062,0.461
	c0.72,0,2.235-0.866,2.214-0.511c-0.036,0.634-0.524,1.754-0.643,2.271c-0.083,0.356-0.01,1.229-0.226,1.922
	c-0.192,0.709-0.854,1.606-1.023,1.862c-0.581,0.871-1.003,1.132-1.477,2.043c-0.529,1.022-1.399,1.97-1.627,2.271
	c-0.292,0.387,1.643-0.015,2.327-0.662c0.584-0.554,1.603-2.22,3.216-2.574c1.09-0.237,1.309-0.655,1.176-1.043
	c-0.021-0.045-0.034-0.101-0.034-0.153c0-0.147,0.088-0.275,0.212-0.339c1.125-0.468,2.65-0.759,4.327-0.759
	c0.98,0,1.948,0.132,2.861,0.343c2.407-3.711,3.804-8.133,3.804-12.883C123.543,36.829,112.933,26.219,99.844,26.219"/>
<path fill="#D13239" d="M113.218,43.613c-0.234,0.788-0.567,1.795-2.049,2.555c-0.216,0.111-0.299-0.07-0.199-0.241
	c0.561-0.952,0.659-1.19,0.822-1.566c0.228-0.55,0.347-1.332-0.105-2.961c-0.892-3.207-2.751-7.494-4.103-8.886
	c-1.305-1.342-3.668-1.719-5.804-1.172c-0.787,0.202-2.326,1.003-5.181,0.36c-4.939-1.112-5.671,1.361-5.955,2.438
	c-0.283,1.078-0.964,4.14-0.964,4.14c-0.227,1.249-0.524,3.417,7.146,4.878c3.573,0.681,3.755,1.604,3.913,2.268
	c0.283,1.19,0.737,1.873,1.246,2.212c0.512,0.342,0,0.623-0.565,0.681c-1.521,0.158-7.146-1.455-10.474-3.346
	c-2.723-1.664-2.768-3.162-2.145-4.433c-4.112-0.445-7.199,0.385-7.758,2.333c-0.961,3.34,7.345,9.048,16.803,11.91
	c9.925,3.006,20.134,0.908,21.269-5.331C119.631,46.618,117.244,44.522,113.218,43.613 M97.999,37.505
	c-2.737,0.198-3.021,0.493-3.535,1.039c-0.722,0.77-1.675-0.999-1.675-0.999c-0.571-0.12-1.265-1.042-0.892-1.902
	c0.369-0.851,1.05-0.596,1.263-0.331c0.259,0.322,0.812,0.85,1.531,0.831c0.719-0.019,1.548-0.17,2.704-0.17
	c1.171,0,1.959,0.438,2.003,0.814C99.437,37.108,99.304,37.41,97.999,37.505 M103.922,34.779c-0.492-0.012-0.954-0.083-1.352-0.198
	c-0.047-0.012-0.081-0.052-0.081-0.099s0.034-0.088,0.082-0.1c0.948-0.22,1.588-0.578,1.543-0.916c-0.06-0.449-1.3-0.694-2.77-0.546
	c-0.161,0.017-0.317,0.038-0.47,0.061c-0.004,0-0.009,0.001-0.012,0.001c-0.043,0-0.077-0.033-0.077-0.072
	c0-0.029,0.018-0.053,0.043-0.065c0.53-0.28,1.323-0.504,2.229-0.596c0.272-0.028,0.538-0.042,0.794-0.044h0.135
	c1.52,0.035,2.735,0.638,2.718,1.348C106.686,34.264,105.44,34.813,103.922,34.779"/>
<path fill="#2E2A25" d="M135.625,51.414c0-2.173-0.046-3.772-0.134-5.218h3.556l0.152,3.084h0.115
	c0.8-2.286,2.693-3.451,4.446-3.451c0.4,0,0.634,0.015,0.962,0.089v3.868c-0.384-0.076-0.744-0.118-1.236-0.118
	c-1.957,0-3.313,1.245-3.681,3.105c-0.069,0.362-0.105,0.797-0.105,1.24v8.42h-4.109L135.625,51.414z"/>
<path fill="#2E2A25" d="M149.68,55.42c0.108,2.941,2.386,4.229,5.015,4.229c1.888,0,3.238-0.295,4.479-0.75l0.608,2.824
	c-1.39,0.588-3.317,1.027-5.675,1.027c-5.271,0-8.359-3.254-8.359-8.229c0-4.482,2.719-8.723,7.939-8.723
	c5.278,0,6.998,4.342,6.998,7.896c0,0.762-0.067,1.375-0.146,1.754L149.68,55.42z M156.82,52.561
	c0.018-1.506-0.637-3.958-3.387-3.958c-2.529,0-3.579,2.293-3.764,3.958H156.82z"/>
<path fill="#2E2A25" d="M209.299,58.574c0,1.283,0.051,2.613,0.237,3.859h-1.481l-0.234-2.33h-0.077
	c-0.786,1.252-2.597,2.698-5.181,2.698c-3.271,0-4.793-2.299-4.793-4.467c0-3.75,3.312-6.01,9.924-5.938V51.96
	c0-1.607-0.312-4.813-4.157-4.788c-1.423,0-2.904,0.381-4.078,1.211l-0.513-1.169c1.484-1.006,3.298-1.404,4.768-1.404
	c4.688,0,5.587,3.52,5.587,6.424L209.299,58.574L209.299,58.574z M207.691,53.748c-3.537-0.102-8.211,0.436-8.211,4.336
	c0,2.334,1.543,3.387,3.233,3.387c2.707,0,4.248-1.678,4.81-3.26c0.117-0.348,0.168-0.695,0.168-0.975V53.748L207.691,53.748z"/>
<path fill="#2E2A25" d="M215.699,42.602v3.581h4.631v1.303h-4.631v10.562c0,2.065,0.642,3.36,2.386,3.36
	c0.839,0,1.431-0.108,1.847-0.254l0.195,1.244c-0.525,0.221-1.263,0.391-2.242,0.391c-1.187,0-2.17-0.373-2.805-1.15
	c-0.736-0.854-0.987-2.219-0.987-3.875V47.485h-2.741v-1.303h2.741v-2.989L215.699,42.602z"/>
<path fill="#2E2A25" d="M222.361,61.568h0.214l0.321,0.527h0.209l-0.35-0.539c0.182-0.021,0.317-0.115,0.317-0.334
	c0-0.244-0.144-0.349-0.433-0.349h-0.467v1.222h0.188V61.568L222.361,61.568z M222.361,61.41v-0.379h0.25
	c0.129,0,0.269,0.027,0.269,0.18c0,0.188-0.14,0.199-0.297,0.199H222.361z"/>
<path fill="#2E2A25" d="M223.779,61.486c0,0.66-0.538,1.197-1.199,1.197c-0.66,0-1.198-0.537-1.198-1.197s0.538-1.197,1.198-1.197
	C223.241,60.289,223.779,60.826,223.779,61.486 M222.58,60.501c-0.546,0-0.984,0.44-0.984,0.987c0,0.543,0.438,0.982,0.984,0.982
	c0.543,0,0.984-0.439,0.984-0.982C223.564,60.941,223.123,60.501,222.58,60.501"/>
<path fill="#2E2A25" d="M174.271,47.944h-0.066c-0.727-1.199-2.327-2.115-4.551-2.115c-3.904,0-7.305,3.231-7.279,8.671
	c0,4.991,3.07,8.299,6.949,8.299c2.343,0,4.301-1.117,5.271-2.938h0.072l0.184,2.572h3.658c-0.074-1.104-0.136-2.894-0.136-4.556
	V39.965l-4.104-1.179v9.158H174.271z M174.271,55.393c0,0.432-0.029,0.832-0.123,1.199c-0.414,1.776-1.867,2.92-3.547,2.92
	c-2.584,0-4.063-2.18-4.063-5.162c0-3.013,1.467-5.343,4.11-5.343c1.847,0,3.168,1.301,3.531,2.882
	c0.069,0.334,0.092,0.744,0.092,1.07V55.393z"/>
<path fill="#2E2A25" d="M189.23,45.811c-1.236,0-2.344,0.356-3.274,0.931c-0.968,0.566-1.753,1.44-2.222,2.344h-0.063v-7.599
	l-1.608-0.462v21.409h1.608v-9.938c0-0.66,0.052-1.119,0.22-1.602c0.693-2.021,2.598-3.681,4.9-3.681
	c3.326,0,4.479,2.668,4.479,5.595v9.625h1.607V52.63C194.877,46.58,190.771,45.811,189.23,45.811"/>
</svg>
