<svg id="Capa_1" data-name="Capa 1" xmlns="http://www.w3.org/2000/svg" xmlns:xlink="http://www.w3.org/1999/xlink" viewBox="0 0 896.2 121.55"><defs><style>.cls-1{fill:#56acde;}.cls-2{fill:url(#linear-gradient);}.cls-3{fill:url(#linear-gradient-2);}.cls-4{fill:#9fc4e1;}.cls-5{fill:url(#linear-gradient-3);}.cls-6{fill:#f0f1f1;}.cls-7{fill:url(#linear-gradient-4);}</style><linearGradient id="linear-gradient" x1="181.12" y1="30.87" x2="225.74" y2="135.66" gradientUnits="userSpaceOnUse"><stop offset="0" stop-color="#c5e2f5"/><stop offset="0.18" stop-color="#a3d4f1"/><stop offset="0.46" stop-color="#83b9e2"/><stop offset="0.89" stop-color="#5ad"/></linearGradient><linearGradient id="linear-gradient-2" x1="114.46" y1="23.15" x2="146.33" y2="105.21" gradientUnits="userSpaceOnUse"><stop offset="0" stop-color="#c5e2f5"/><stop offset="0.24" stop-color="#a3d4f1"/><stop offset="0.46" stop-color="#83b9e2"/><stop offset="0.89" stop-color="#5ad"/></linearGradient><linearGradient id="linear-gradient-3" x1="250.01" y1="43.58" x2="252.2" y2="104.1" gradientUnits="userSpaceOnUse"><stop offset="0.26" stop-color="#fff"/><stop offset="0.8" stop-color="#f0f1f1"/><stop offset="0.99" stop-color="#dbddde"/></linearGradient><linearGradient id="linear-gradient-4" x1="118.57" y1="60.31" x2="117.55" y2="108.59" gradientUnits="userSpaceOnUse"><stop offset="0.31" stop-color="#fff"/><stop offset="0.81" stop-color="#f0f1f1"/><stop offset="0.97" stop-color="#dbddde"/></linearGradient></defs><title>genuitec-Logo-blue-horizontal (1)</title><path class="cls-1" d="M429.4,114.28q-3.54,1.81-7.32,3.36a61.35,61.35,0,0,1-8.3,2.66,77.07,77.07,0,0,1-10.11,1.76,113.92,113.92,0,0,1-12.67.63,46,46,0,0,1-14-2,39.55,39.55,0,0,1-11.23-5.56,38.45,38.45,0,0,1-8.53-8.41,48.13,48.13,0,0,1-5.94-10.55,58.75,58.75,0,0,1-3.48-12,69.87,69.87,0,0,1-1.15-12.68A63.32,63.32,0,0,1,348,58.27a56.14,56.14,0,0,1,4.07-12.21,48.34,48.34,0,0,1,6.69-10.55A42.42,42.42,0,0,1,368,27.26a43.63,43.63,0,0,1,11.65-5.4,48,48,0,0,1,14-1.95q3.74,0,6.83.19a49.25,49.25,0,0,1,5.77.66A33.82,33.82,0,0,1,411.32,22a39.79,39.79,0,0,1,4.86,2.05A48.16,48.16,0,0,1,421.26,27q2.63,1.73,5.78,4.05l-9.52,12.55a62.81,62.81,0,0,0-6.33-5,31.72,31.72,0,0,0-5.78-3.14,26.15,26.15,0,0,0-5.91-1.63,45.24,45.24,0,0,0-6.79-.47,23.5,23.5,0,0,0-11.55,2.79,25.4,25.4,0,0,0-8.5,7.66,35.7,35.7,0,0,0-5.22,11.43,53.92,53.92,0,0,0-1.77,14.1,71.79,71.79,0,0,0,1.54,15.1,40.58,40.58,0,0,0,4.89,12.68,26.11,26.11,0,0,0,8.63,8.76,23.75,23.75,0,0,0,12.7,3.26c1.36,0,2.81-.06,4.37-.19s3.12-.3,4.69-.53,3.12-.5,4.63-.82,2.92-.63,4.23-1V73.47h18Z" transform="translate(-12.48 -10.53)"/><path class="cls-1" d="M507.31,109.63a50.83,50.83,0,0,1-7.85,6.66,35.26,35.26,0,0,1-7.51,3.86,34,34,0,0,1-7.62,1.79,72.23,72.23,0,0,1-8.07.44,36.52,36.52,0,0,1-15.53-3,29.36,29.36,0,0,1-10.56-8,32.67,32.67,0,0,1-6-11.56,47.44,47.44,0,0,1-1.94-13.56,41.93,41.93,0,0,1,2-13,30.84,30.84,0,0,1,6.11-10.9,29.77,29.77,0,0,1,10.3-7.53A35.06,35.06,0,0,1,475.21,52a40.23,40.23,0,0,1,13.13,1.95,25.2,25.2,0,0,1,9.42,5.59,23.28,23.28,0,0,1,5.67,8.82,33.33,33.33,0,0,1,1.91,11.58c0,1.64-.06,3.32-.17,5.06a45.84,45.84,0,0,1-.69,5.43h-44.3a21.65,21.65,0,0,0,1.11,6.47,25.3,25.3,0,0,0,3.25,6.62,19,19,0,0,0,5.29,5.18,12.83,12.83,0,0,0,7.22,2.07,34.18,34.18,0,0,0,6.2-.5,19.1,19.1,0,0,0,4.92-1.63,19.53,19.53,0,0,0,4.33-3,48.75,48.75,0,0,0,4.44-4.61ZM474.22,64.24a14.89,14.89,0,0,0-6.82,1.38,11.39,11.39,0,0,0-4.27,3.64,14.58,14.58,0,0,0-2.23,5.15,26.62,26.62,0,0,0-.66,6h27.11a40.51,40.51,0,0,0-.39-5.49,14.06,14.06,0,0,0-1.77-5.21,10.93,10.93,0,0,0-4-3.89A13.62,13.62,0,0,0,474.22,64.24Z" transform="translate(-12.48 -10.53)"/><path class="cls-1" d="M522.65,64.68c0-1.34,0-3.07-.09-5.18a39,39,0,0,0-.76-6.44h16.08a8.47,8.47,0,0,1,.4,1.23L538.7,56c.15.61.29,1.24.4,1.88s.2,1.25.29,1.79a28.54,28.54,0,0,1,3.81-2.76,33.88,33.88,0,0,1,4.89-2.48,33.21,33.21,0,0,1,5.74-1.76,30.71,30.71,0,0,1,6.44-.66,31.45,31.45,0,0,1,10.27,1.64,24.46,24.46,0,0,1,8.27,4.7,22.24,22.24,0,0,1,5.55,7.54,24.18,24.18,0,0,1,2,10.11v44.89H569.32V79.05a24.07,24.07,0,0,0-.85-6.9,10.88,10.88,0,0,0-2.53-4.55,9.85,9.85,0,0,0-4.1-2.52,18.26,18.26,0,0,0-5.58-.78,29.42,29.42,0,0,0-3.94.28,37.08,37.08,0,0,0-4.3.85c-1.46.38-2.91.82-4.33,1.32a32.89,32.89,0,0,0-4,1.69v52.43H522.65Z" transform="translate(-12.48 -10.53)"/><path class="cls-1" d="M620.45,53.06V99.52a11.9,11.9,0,0,0,.82,4.65,8.57,8.57,0,0,0,2.2,3.17,8.48,8.48,0,0,0,3.24,1.79,13.84,13.84,0,0,0,4,.56,45.47,45.47,0,0,0,10-1.16,32.63,32.63,0,0,0,9.39-3.61V53.06h17.07v56a39.72,39.72,0,0,0,.39,4.67c.26,2,.66,4.41,1.18,7.13H652.68c-.09-.25-.23-.72-.43-1.41s-.4-1.44-.59-2.23-.39-1.55-.56-2.26a14.08,14.08,0,0,1-.33-1.57,33.94,33.94,0,0,1-5,3.48,41.65,41.65,0,0,1-5.84,2.77,38.84,38.84,0,0,1-6.14,1.78,29.6,29.6,0,0,1-5.91.63,32.46,32.46,0,0,1-11.78-1.85,19.25,19.25,0,0,1-7.52-5,18.72,18.72,0,0,1-4-7.54,35.08,35.08,0,0,1-1.18-9.29V53.06Z" transform="translate(-12.48 -10.53)"/><path class="cls-1" d="M685.74,31.84a8.48,8.48,0,0,1,.76-3.58,8.85,8.85,0,0,1,2-2.82,9.13,9.13,0,0,1,3-1.86,10.39,10.39,0,0,1,3.71-.66,9.73,9.73,0,0,1,3.81.73A9.4,9.4,0,0,1,702,25.59a8.33,8.33,0,0,1,1.91,2.89,9.57,9.57,0,0,1,.65,3.49,9.32,9.32,0,0,1-.65,3.45A8.72,8.72,0,0,1,702,38.31a9.76,9.76,0,0,1-2.95,2,9.39,9.39,0,0,1-3.81.75,8.83,8.83,0,0,1-3.71-.79,9.92,9.92,0,0,1-5-5A8.26,8.26,0,0,1,685.74,31.84Zm.86,21.22h17.07v67.81H686.6Z" transform="translate(-12.48 -10.53)"/><path class="cls-1" d="M714.61,56.45l10.44-3.39,4.47-17.52h12.6V53.06h17.39l-1.57,11.68H742.12V99.33a23.45,23.45,0,0,0,.42,4.84,9.36,9.36,0,0,0,1.22,3.14,4.37,4.37,0,0,0,2,1.69,6.72,6.72,0,0,0,2.69.51,27.07,27.07,0,0,0,4.76-.48,35.25,35.25,0,0,0,5.94-1.66l3.94,8a38.53,38.53,0,0,1-9.29,5.15,25.47,25.47,0,0,1-8.89,1.7,27.08,27.08,0,0,1-9.72-1.48,14.44,14.44,0,0,1-6.07-4.2,15.67,15.67,0,0,1-3.15-6.63,39.4,39.4,0,0,1-.89-8.73V64.74H714.61Z" transform="translate(-12.48 -10.53)"/><path class="cls-1" d="M833,109.63a50.83,50.83,0,0,1-7.85,6.66,35.26,35.26,0,0,1-7.51,3.86,34,34,0,0,1-7.62,1.79,72.23,72.23,0,0,1-8.07.44,36.55,36.55,0,0,1-15.53-3,29.36,29.36,0,0,1-10.56-8,32.67,32.67,0,0,1-6-11.56,47.44,47.44,0,0,1-1.94-13.56,41.93,41.93,0,0,1,2-13A30.84,30.84,0,0,1,776,62.35a29.77,29.77,0,0,1,10.3-7.53A35.06,35.06,0,0,1,800.92,52a40.23,40.23,0,0,1,13.13,1.95,25.2,25.2,0,0,1,9.42,5.59,23.28,23.28,0,0,1,5.67,8.82,33.33,33.33,0,0,1,1.91,11.58c0,1.64-.06,3.32-.17,5.06a45.84,45.84,0,0,1-.69,5.43h-44.3A21.65,21.65,0,0,0,787,96.89a25.3,25.3,0,0,0,3.25,6.62,19,19,0,0,0,5.29,5.18,12.83,12.83,0,0,0,7.22,2.07,34.18,34.18,0,0,0,6.2-.5,19.1,19.1,0,0,0,4.92-1.63,19.82,19.82,0,0,0,4.34-3,50,50,0,0,0,4.43-4.61ZM799.93,64.24a14.89,14.89,0,0,0-6.82,1.38,11.39,11.39,0,0,0-4.27,3.64,14.58,14.58,0,0,0-2.23,5.15,26.62,26.62,0,0,0-.66,6h27.11a40.51,40.51,0,0,0-.39-5.49,13.88,13.88,0,0,0-1.77-5.21,11,11,0,0,0-4-3.89A13.63,13.63,0,0,0,799.93,64.24Z" transform="translate(-12.48 -10.53)"/><path class="cls-1" d="M908.69,109.25a29.69,29.69,0,0,1-6.3,6.47,28.82,28.82,0,0,1-7,3.8,32.31,32.31,0,0,1-7.58,1.79,71.35,71.35,0,0,1-7.91.44,39.59,39.59,0,0,1-16.11-3,30.66,30.66,0,0,1-10.9-7.79,30.21,30.21,0,0,1-6.17-11,42.12,42.12,0,0,1-1.94-12.65,40.56,40.56,0,0,1,2.37-14.06,31.32,31.32,0,0,1,7-11.21,31.81,31.81,0,0,1,11.46-7.41A43.71,43.71,0,0,1,881.45,52q3.6,0,6.95.32a35.07,35.07,0,0,1,6.47,1.22,30,30,0,0,1,6,2.48,26.65,26.65,0,0,1,5.49,4.08L895.69,70.58a47,47,0,0,0-3.54-3.2,18,18,0,0,0-3.42-2.17A15.09,15.09,0,0,0,885,64a22.19,22.19,0,0,0-4.36-.38,15.61,15.61,0,0,0-8.11,2A17.6,17.6,0,0,0,867,70.83,22.47,22.47,0,0,0,863.76,78a31.28,31.28,0,0,0-1,7.85,41.5,41.5,0,0,0,1,9.54,23.14,23.14,0,0,0,3.28,7.75,16.1,16.1,0,0,0,5.65,5.18,16.54,16.54,0,0,0,8.14,1.89,24.14,24.14,0,0,0,4.3-.38,14,14,0,0,0,4-1.41,17.93,17.93,0,0,0,3.91-2.86,30.73,30.73,0,0,0,4-4.71Z" transform="translate(-12.48 -10.53)"/><path class="cls-2" d="M301.42,99a25.43,25.43,0,0,0,.83-2.79A31.49,31.49,0,0,0,303,85.64a32.1,32.1,0,0,0-11.93-21.82,54.07,54.07,0,0,0-1.36-11.63c-6.54-25.94-32.13-44-60.63-41.41A57,57,0,0,0,185.42,37.5a34.82,34.82,0,0,0-15.63-2.14c-16.63,1.52-29.28,14.37-30.46,29.83C122.41,67.4,110.18,82,111.81,98.49c0,.53.12,1.06.2,1.57s0,.77.07,1.15C114,120.15,137.52,133.48,164.7,131a65.33,65.33,0,0,0,25.88-7.78c12.69,6.79,31,10.19,50.86,8.37,17.36-1.59,32.73-6.84,43.75-14.11A33.13,33.13,0,0,0,301.42,99Z" transform="translate(-12.48 -10.53)"/><path class="cls-3" d="M105.17,103.82c1,5.88,4.16,11.17,8.45,15.7a51.85,51.85,0,0,1-5.25.71c-24.55,2.24-45.82-9.81-47.51-26.91,0-.34,0-.69-.07-1s-.13-.94-.18-1.42C59.14,76,68.65,62.79,83.93,60.8c1.06-14,12.49-25.57,27.5-26.94a31.51,31.51,0,0,1,14.12,1.93A51.47,51.47,0,0,1,165,11.66a52.87,52.87,0,0,1,28.88,5.5A55.37,55.37,0,0,0,181,31.66a34.7,34.7,0,0,0-15.63-2.14c-15.79,1.44-29.1,13.77-31.3,28.18-.36.8-.11.94-.4,1.77-14.07,2.14-27.61,14-29.27,27.75C104.4,87.22,103.44,93.55,105.17,103.82Z" transform="translate(-12.48 -10.53)"/><path class="cls-4" d="M62.43,67.75A30.26,30.26,0,0,0,59.79,71a16.77,16.77,0,0,0-1.69,3.42l-.25.66-.68.24c-7.35,2.53-8.43,3.7-8.82,4.19-3.5,3.22,2.49,9.15,28.89,9,8.18-.06,20.65.11,32.85-.7,21.8-1.11,70-24.34,73.12-25.72,5.11-3.15,10.28-3.67,17-3.67,5.44,0,8-.73,12.27,1.13,6.92,3,10.93,6.25,10.93,9.06v8.8H211.21l.36-6.18c0-2.41-5.34-4.43-11.6-4.43C188.46,66.72,181,74,181,85.28c0,11.5,7.71,19.23,19.19,19.23,6,0,12.63-1.83,12.63-4.46V95.21h-10.9V85.76H223l1.67,1.6v14.73c0,4.5-3,8.83-9.1,11.26A43.74,43.74,0,0,1,200,116.24a37.1,37.1,0,0,1-12.07-2.2l-3.8-1.56c-9.21-4.13-21.74-5.67-39.92-5.67-5.77,0-10.92.2-14.68.35l-3.5.13-2.8.13c-9.16.4-19,.87-27.45.87-17.48,0-74.56-1.18-82.89-15,0,0-.23-2.14-.36-3.17-.62-4.86,3.76-11.33,49.32-24.27l.57,1.94Z" transform="translate(-12.48 -10.53)"/><path class="cls-4" d="M289.85,44.55C306.12,47.3,317,57,318.45,62.15c3.87,14.27-5.64,24.3-89.74,32-.49.06-2-2-2.47-1.93l.08-7.16H199.54V98.91h3.82l7.08-1.47,1.11.89,0,2.06c-1.81,2.11-6.29,3.43-11.49,3.43-10.26,0-16.89-6.69-16.89-17,0-10.09,6.38-17.82,16.65-17.82,5.21,0,10.16,2,10.71,2.87l.13,5.86v3.67L213,81h12.62V71c.87-.24,1.62,1.14,2.26,1.18,45.28-5.62,79.91-3.38,76.41-13.12-1.09-3-5.78-3.36-11.28-5.47a15.94,15.94,0,0,1-1.4-2.59c-.39-.79-.5-1.33-1.33-2.88l-.75-2.14.32-1.39" transform="translate(-12.48 -10.53)"/><path class="cls-5" d="M318.45,60.68c-1.47-5.39-10.92-13.75-28.6-16.13.37.05.84,1.37,1,1.67.53,1,.78,1.93,1.27,2.93a20.89,20.89,0,0,0,1.33,2.9c5.5,2.11,9.75,2.48,10.84,5.51,3.5,9.74-27.47,10-73.41,12.92a36.05,36.05,0,0,0-5.26.48V78.1H209.17V71.31c-.55-.85-4.1-2.35-9.31-2.35-10.27,0-16.65,6.26-16.65,16.35,0,10.35,6.63,17,16.89,17,5.2,0,9.56-1.41,10.34-2.39V97.44h-10.9V83.56h26.78l-.08,8.62c.44,0,5.57-.56,6.06-.63C311.14,84.74,322.32,75,318.45,60.68Z" transform="translate(-12.48 -10.53)"/><path class="cls-6" d="M227.9,70.31c14.78-.9,27.91-1.52,39.65-2.38C287,66.5,301,64.19,303.69,60.28a2.74,2.74,0,0,0,.24-2.61c-.73-2-3.14-2.8-6.46-3.86-1.26-.4-2.67-.84-4.16-1.42-.27-.1-.43-.39-1.23-2.36-.14-.34-.25-.62-.3-.72-.24-.48-.42-.94-.6-1.39a12.23,12.23,0,0,0-.67-1.53c0-.08-.09-.21-.17-.37a4.2,4.2,0,0,0-.61-1.12l.17-.72c10.11,1.37,16.75,4.56,20.54,7,4.41,2.84,7.55,6.36,8.38,9.41a11.64,11.64,0,0,1-.36,9.28c-2.18,4.61-6.09,7.41-16.24,10.49,7.67-2.3,13.45-6.37,15.54-10.78a11.14,11.14,0,0,0,.33-8.75c-1.3-4.81-9.87-13.18-27.36-15.78.11.2.21.43.32.69l.14.31a16.89,16.89,0,0,1,.71,1.61c.17.43.35.88.57,1.33.06.11.18.41.32.77a20.61,20.61,0,0,0,.87,2c1.45.55,2.83,1,4,1.38,3.53,1.12,6.08,1.93,6.94,4.31a3.42,3.42,0,0,1-.32,3.26c-2.88,4.2-16.34,6.48-36.72,8-11.73.86-24.82,1.39-39.68,2.38a7,7,0,0,0-1.93.2V78.1h-.76V70.68A11.45,11.45,0,0,1,227.9,70.31Z" transform="translate(-12.48 -10.53)"/><path class="cls-7" d="M203.06,86.36v7.38H214v6.31c0,4.32-8.69,5.93-14.16,5.93-12.4,0-20.72-8.32-20.72-20.7,0-12.17,8-20,20.48-20,6.37,0,13.14,2.08,13.14,5.93v4.68h8.79V68.53c0-3.41-2.58-6.34-7.48-8.46a38.34,38.34,0,0,0-14.69-2.8c-6.68,0-11.54,1.68-17.37,4.62-3.16,1.43-37.35,18.39-63,23.59A102.84,102.84,0,0,1,106.1,87c-5.9.47-14.62.71-19.46.64-30.67-.44-39.5-2.47-40.21-8-.23-1.79,3.38-3.49,9.82-5.71a16.1,16.1,0,0,1,3.67-6c.34-.35.68-.7,1-1s.65-.82,1-.9C34,73.88,12,82.24,12.92,89.42c1.56,12.29,48.51,18.76,109.78,16.06l2.82-.13c10-.28,41.45-2.51,60.06,5.85l2.44,1A33.82,33.82,0,0,0,199.25,114c9.09,0,23.5-3.24,23.5-12V86.36Z" transform="translate(-12.48 -10.53)"/></svg>