<?xml version="1.0" encoding="utf-8"?>
<!-- Generator: Adobe Illustrator 16.0.4, SVG Export Plug-In . SVG Version: 6.00 Build 0)  -->
<!DOCTYPE svg PUBLIC "-//W3C//DTD SVG 1.1//EN" "http://www.w3.org/Graphics/SVG/1.1/DTD/svg11.dtd">
<svg version="1.1" id="Layer_1" xmlns="http://www.w3.org/2000/svg" xmlns:xlink="http://www.w3.org/1999/xlink" x="0px" y="0px"
	 width="300px" height="300px" viewBox="0 0 300 300" enable-background="new 0 0 300 300" xml:space="preserve">
<g>
	<path fill="#FFFFFF" d="M285.237,260.202H10.167c-2.577,0-4.674-2.088-4.674-4.674c0-2.575,2.097-4.669,4.674-4.669h275.07
		c2.575,0,4.674,2.094,4.674,4.669C289.911,258.114,287.812,260.202,285.237,260.202"/>
	<path fill="#FFFFFF" d="M140.744,260.089c-69.811,0-126.605-57.303-126.605-127.741c0-70.435,56.79-127.731,126.605-127.731
		c55.868,0,104.483,36.145,120.972,89.949c0.757,2.474-0.632,5.079-3.097,5.842c-2.475,0.741-5.076-0.643-5.84-3.097
		c-15.28-49.86-60.299-83.345-112.035-83.345c-64.662,0-117.263,53.102-117.263,118.382c0,65.289,52.602,118.391,117.263,118.391
		c64.658,0,117.258-53.103,117.258-118.391c0-2.577,2.094-4.669,4.669-4.669c2.581,0,4.68,2.092,4.68,4.669
		C267.351,202.775,210.551,260.089,140.744,260.089"/>
	<path fill="#FFFFFF" d="M260.593,102.648c-0.479,0-0.967-0.072-1.437-0.224l-37.544-12.06c-2.454-0.788-3.803-3.425-3.014-5.874
		c0.789-2.46,3.415-3.812,5.881-3.03l31.435,10.111V57.923c0-2.585,2.1-4.675,4.679-4.675c2.574,0,4.669,2.09,4.669,4.675v40.053
		c0,1.492-0.715,2.893-1.922,3.773C262.536,102.346,261.563,102.648,260.593,102.648"/>
	<path fill="#FFFFFF" d="M257.23,280.299c-1.541,0-3.051-0.762-3.943-2.163c-1.391-2.173-0.753-5.065,1.425-6.454l27.951-17.851
		l-25.564-21.663c-1.969-1.671-2.209-4.617-0.543-6.579c1.666-1.975,4.611-2.227,6.586-0.55l30.4,25.764
		c1.128,0.95,1.739,2.401,1.64,3.879c-0.1,1.479-0.898,2.816-2.148,3.619l-33.296,21.257
		C258.963,280.06,258.085,280.299,257.23,280.299"/>
	<path fill="#FFFFFF" d="M70.599,128.847h16.6c0.947-11.37,5.321-22.024,12.628-30.734L88.061,86.234
		C77.686,98.163,71.599,113,70.599,128.847 M91.682,138.188H65.776c-2.577,0-4.674-2.095-4.674-4.672
		c0-21.654,8.358-42.006,23.53-57.319c0.877-0.883,2.07-1.384,3.316-1.384c1.251,0,2.444,0.5,3.321,1.389l18.315,18.483
		c1.808,1.822,1.808,4.76,0,6.586c-8.533,8.607-13.228,20.063-13.228,32.246C96.356,136.093,94.265,138.188,91.682,138.188"/>
	<path fill="#FFFFFF" d="M94.633,79.592l11.782,11.885c8.62-7.342,19.155-11.742,30.403-12.701V61.934
		C121.132,62.952,106.431,69.109,94.633,79.592 M106.268,102.648c-1.246,0-2.444-0.5-3.319-1.383L84.632,82.776
		c-1.802-1.822-1.802-4.751,0-6.57c15.182-15.332,35.372-23.771,56.852-23.771c2.584,0,4.674,2.097,4.674,4.673v26.144
		c0,2.581-2.089,4.673-4.674,4.673c-12.048,0-23.373,4.734-31.895,13.339C108.713,102.147,107.517,102.648,106.268,102.648"/>
	<path fill="#FFFFFF" d="M146.158,188.258v16.849c36.997-2.445,66.368-33.623,66.368-71.591c0-37.97-29.371-69.143-66.368-71.582
		v16.853c27.867,2.389,49.807,26.029,49.807,54.729C195.965,162.219,174.024,185.86,146.158,188.258 M141.486,214.6
		c-2.58,0-4.674-2.1-4.674-4.674v-26.149c0-2.568,2.094-4.669,4.674-4.669c24.888,0,45.13-20.45,45.13-45.592
		c0-25.133-20.242-45.59-45.13-45.59c-2.58,0-4.674-2.091-4.674-4.673V57.11c0-2.582,2.094-4.673,4.674-4.673
		c44.32,0,80.382,36.377,80.382,81.079C221.868,178.22,185.807,214.6,141.486,214.6"/>
	<path fill="#FFFFFF" d="M94.633,187.443c11.803,10.486,26.504,16.638,42.18,17.663v-16.849
		c-11.242-0.951-21.783-5.359-30.403-12.701L94.633,187.443z M141.486,214.6c-21.478,0-41.665-8.438-56.849-23.763
		c-1.808-1.821-1.808-4.757,0-6.579l18.312-18.488c1.757-1.775,4.887-1.775,6.64,0c8.527,8.606,19.851,13.338,31.897,13.338
		c2.582,0,4.679,2.101,4.679,4.669v26.149C146.158,212.5,144.068,214.6,141.486,214.6"/>
	<path fill="#FFFFFF" d="M70.599,138.188c1,15.842,7.084,30.689,17.459,42.612l11.766-11.876c-7.306-8.71-11.68-19.364-12.62-30.736
		H70.599z M87.954,192.217c-1.249,0-2.444-0.492-3.322-1.38C69.46,175.525,61.1,155.158,61.1,133.514
		c0-2.581,2.097-4.671,4.679-4.671h25.901c2.583,0,4.675,2.09,4.675,4.671c0,12.191,4.7,23.649,13.235,32.266
		c1.803,1.816,1.803,4.741,0,6.57l-18.317,18.486C90.395,191.725,89.199,192.217,87.954,192.217"/>
</g>
</svg>
