<?xml version="1.0" encoding="utf-8"?>
<!-- Generator: Adobe Illustrator 16.0.4, SVG Export Plug-In . SVG Version: 6.00 Build 0)  -->
<!DOCTYPE svg PUBLIC "-//W3C//DTD SVG 1.1//EN" "http://www.w3.org/Graphics/SVG/1.1/DTD/svg11.dtd">
<svg version="1.1" id="Layer_1" xmlns="http://www.w3.org/2000/svg" xmlns:xlink="http://www.w3.org/1999/xlink" x="0px" y="0px"
	 width="300px" height="300px" viewBox="0 0 300 300" enable-background="new 0 0 300 300" xml:space="preserve">
<path fill="#FFFFFF" d="M150.08,149.149c-21.272,0-38.577-17.304-38.577-38.574c0-21.269,17.305-38.571,38.577-38.571
	c21.269,0,38.573,17.302,38.573,38.571C188.652,131.845,171.349,149.149,150.08,149.149 M150.08,85.215
	c-13.985,0-25.36,11.378-25.36,25.36c0,13.99,11.375,25.363,25.36,25.363c13.986,0,25.357-11.373,25.357-25.363
	C175.437,96.593,164.065,85.215,150.08,85.215"/>
<path fill="#FFFFFF" d="M240.396,153.232c-19.337,0-35.066-15.729-35.066-35.07c0-19.331,15.729-35.066,35.066-35.066
	c19.335,0,35.063,15.735,35.063,35.066C275.459,137.503,259.73,153.232,240.396,153.232 M240.396,96.309
	c-12.054,0-21.854,9.804-21.854,21.854c0,12.051,9.8,21.854,21.854,21.854c12.051,0,21.854-9.803,21.854-21.854
	C262.25,106.112,252.446,96.309,240.396,96.309"/>
<path fill="#FFFFFF" d="M59.764,153.232c-19.337,0-35.067-15.729-35.067-35.07c0-19.331,15.73-35.066,35.067-35.066
	c19.333,0,35.063,15.735,35.063,35.066C94.827,137.503,79.097,153.232,59.764,153.232 M59.764,96.309
	c-12.054,0-21.854,9.804-21.854,21.854c0,12.051,9.801,21.854,21.854,21.854c12.05,0,21.854-9.803,21.854-21.854
	C81.618,106.112,71.813,96.309,59.764,96.309"/>
<path fill="#FFFFFF" d="M282.014,149.093c-11.133-3.895-23.173-5.864-35.781-5.864c0,0,0.002,0,0,0
	c-17.797,0-34.739,4.032-48.529,11.441c-13.535-7.41-30.16-11.441-47.624-11.441c-17.466,0-34.092,4.032-47.626,11.441
	c-13.787-7.41-30.73-11.441-48.529-11.441c-12.606,0-24.649,1.97-35.782,5.864c-4.699,1.642-9.169,3.616-13.296,5.873l6.341,11.592
	c3.488-1.909,7.298-3.585,11.313-4.993c9.595-3.349,20.464-5.125,31.424-5.125c12.985,0,25.367,2.395,35.984,6.86
	c-11.209,9.662-17.326,21.69-17.412,34.512l0,0c0,0.032,0,0.065,0,0.103c0,0.053,0,0.104,0,0.156h0.007
	c0.145,15.944,13.621,28.875,30.17,28.875c16.557,0,30.03-12.931,30.178-28.875h0.101c0-12.973-6.279-25.136-17.842-34.878
	c10.335-4.396,22.36-6.753,34.969-6.753c12.61,0,24.635,2.356,34.966,6.753c-11.553,9.735-17.832,21.886-17.839,34.847h-0.004v0.011
	v0.021h0.004c0.014,16.053,13.57,29.107,30.225,29.107c16.657,0,30.209-13.055,30.232-29.107v-0.021v-0.011
	c-0.011-12.905-6.136-25.021-17.416-34.739c10.619-4.466,23.002-6.86,35.984-6.86c10.966,0,21.832,1.776,31.426,5.125
	c4.016,1.408,7.822,3.084,11.313,4.993l6.341-11.592C291.186,152.709,286.711,150.734,282.014,149.093 M119.736,197.812h-0.094
	c0,8.778-7.608,15.921-16.968,15.921c-9.316,0-16.903-7.088-16.965-15.815c0.062-10.238,6.012-20.044,16.813-27.739
	C113.543,177.853,119.635,187.621,119.736,197.812 M214.45,198.05c-0.007,8.774-7.637,15.917-17.019,15.917
	c-9.378,0-17.008-7.143-17.016-15.917c0.008-10.273,6.109-20.132,17.222-27.872C208.485,177.911,214.443,187.769,214.45,198.05"/>
</svg>
