<?xml version="1.0" encoding="utf-8"?>
<!-- Generator: Adobe Illustrator 16.0.4, SVG Export Plug-In . SVG Version: 6.00 Build 0)  -->
<!DOCTYPE svg PUBLIC "-//W3C//DTD SVG 1.1//EN" "http://www.w3.org/Graphics/SVG/1.1/DTD/svg11.dtd">
<svg version="1.1" id="Layer_1" xmlns="http://www.w3.org/2000/svg" xmlns:xlink="http://www.w3.org/1999/xlink" x="0px" y="0px"
	 width="300px" height="300px" viewBox="0 0 300 300" enable-background="new 0 0 300 300" xml:space="preserve">
<g>
	<path fill="#FFFFFF" d="M154.778,147.486l50.011-20.889v47.961l-50.011,23.004V147.486z M207.624,115.393l-59.253,24.737
		c-1.725,0.728-2.84,2.405-2.84,4.268v60.375c0,1.578,0.799,3.044,2.127,3.895c0.756,0.486,1.62,0.732,2.499,0.732
		c0.652,0,1.314-0.146,1.928-0.426l59.253-27.261c1.636-0.747,2.689-2.387,2.689-4.188v-57.864c0-1.547-0.771-2.984-2.061-3.842
		c-0.766-0.517-1.663-0.779-2.562-0.779C208.806,115.041,208.2,115.156,207.624,115.393"/>
	<path fill="#FFFFFF" d="M94.259,174.577v-48.234l51.063,20.948v50.884L94.259,174.577z M87.062,115.614
		c-1.281,0.858-2.046,2.297-2.046,3.839v58.067c0,1.801,1.04,3.44,2.68,4.192l60.312,27.895c0.619,0.278,1.28,0.42,1.938,0.42
		c0.864,0,1.739-0.241,2.49-0.728c1.328-0.841,2.127-2.315,2.127-3.885v-61.226c0-1.871-1.125-3.566-2.859-4.276L91.391,115.17
		c-0.562-0.227-1.153-0.337-1.744-0.337C88.745,114.833,87.842,115.1,87.062,115.614"/>
	<path fill="#FFFFFF" d="M102.071,119.574l47.443-18.453l47.577,18.671l-46.948,19.597L102.071,119.574z M147.846,91.854
		L87.96,115.142c-1.753,0.686-2.92,2.37-2.944,4.258c-0.014,1.891,1.11,3.601,2.859,4.322l60.515,24.948
		c0.562,0.236,1.167,0.35,1.767,0.35c0.605,0,1.21-0.118,1.782-0.363l59.253-24.736c1.73-0.725,2.859-2.431,2.836-4.317
		c-0.02-1.881-1.182-3.567-2.939-4.248l-59.877-23.488c-0.543-0.215-1.12-0.314-1.687-0.314
		C148.952,91.552,148.385,91.646,147.846,91.854"/>
	<path fill="#FFFFFF" d="M143.877,22.394c0-3.109,2.532-5.639,5.646-5.639c3.109,0,5.642,2.53,5.642,5.639
		c0,3.114-2.537,5.638-5.642,5.638C146.41,28.032,143.877,25.508,143.877,22.394 M134.634,22.394c0,8.209,6.677,14.891,14.89,14.891
		c8.204,0,14.885-6.682,14.885-14.891c0-8.208-6.682-14.887-14.885-14.887C141.311,7.507,134.634,14.186,134.634,22.394"/>
	<path fill="#FFFFFF" d="M54.749,63.988c-2.206-2.2-2.206-5.775,0-7.977c1.092-1.105,2.538-1.651,3.988-1.651
		c1.451,0,2.888,0.546,3.988,1.651c1.073,1.063,1.654,2.481,1.654,3.991c0,1.505-0.581,2.923-1.654,3.986
		c-1.101,1.106-2.537,1.656-3.988,1.656C57.292,65.645,55.846,65.094,54.749,63.988 M48.204,49.471
		c-5.798,5.803-5.798,15.25,0,21.057c2.911,2.901,6.725,4.354,10.533,4.354c3.809,0,7.623-1.453,10.529-4.345
		c2.812-2.816,4.357-6.563,4.357-10.536c0-3.976-1.545-7.719-4.357-10.531c-2.906-2.901-6.724-4.348-10.529-4.348
		C54.924,45.124,51.11,46.57,48.204,49.471"/>
	<path fill="#FFFFFF" d="M15.49,150.786c0-3.114,2.528-5.64,5.642-5.64c3.114,0,5.638,2.526,5.638,5.64
		c0,3.112-2.528,5.645-5.638,5.645C18.019,156.431,15.49,153.907,15.49,150.786 M6.242,150.786c0,8.206,6.677,14.888,14.89,14.888
		c8.209,0,14.886-6.682,14.886-14.888c0-8.203-6.682-14.883-14.886-14.883C12.919,135.903,6.242,142.583,6.242,150.786"/>
	<path fill="#FFFFFF" d="M54.749,245.563c-2.206-2.202-2.206-5.784,0-7.977c2.197-2.202,5.774-2.202,7.977,0
		c1.073,1.058,1.654,2.476,1.654,3.983c0,1.507-0.581,2.925-1.654,3.993c-1.101,1.105-2.537,1.649-3.988,1.649
		C57.292,247.213,55.846,246.669,54.749,245.563 M48.204,231.047c-5.798,5.803-5.798,15.243,0,21.046
		c2.911,2.902,6.725,4.357,10.533,4.357c3.809,0,7.623-1.455,10.529-4.348c2.812-2.816,4.357-6.559,4.357-10.532
		c0-3.975-1.545-7.717-4.357-10.523c-2.906-2.902-6.72-4.348-10.529-4.348C54.924,226.699,51.11,228.145,48.204,231.047"/>
	<path fill="#FFFFFF" d="M143.877,279.181c0-3.119,2.532-5.652,5.646-5.652c3.109,0,5.642,2.533,5.642,5.652
		c0,3.109-2.537,5.643-5.642,5.643C146.41,284.823,143.877,282.29,143.877,279.181 M134.634,279.181
		c0,8.203,6.677,14.885,14.89,14.885c8.204,0,14.885-6.682,14.885-14.885c0-8.213-6.687-14.89-14.885-14.89
		C141.311,264.291,134.634,270.968,134.634,279.181"/>
	<path fill="#FFFFFF" d="M236.312,245.554c-1.068-1.059-1.654-2.477-1.654-3.983c0-1.508,0.586-2.926,1.654-3.983
		c1.101-1.106,2.547-1.659,3.998-1.659c1.441,0,2.882,0.553,3.983,1.659c2.201,2.201,2.201,5.774,0,7.967
		c-1.102,1.105-2.542,1.664-3.993,1.664C238.854,247.218,237.413,246.659,236.312,245.554 M229.772,231.037
		c-2.812,2.816-4.356,6.559-4.356,10.533c0,3.974,1.545,7.716,4.356,10.522c2.911,2.902,6.725,4.357,10.538,4.357
		c3.809,0,7.617-1.455,10.522-4.357c5.8-5.803,5.8-15.243,0-21.056c-2.905-2.901-6.714-4.338-10.522-4.338
		C236.497,226.699,232.679,228.136,229.772,231.037"/>
	<path fill="#FFFFFF" d="M272.273,150.786c0-3.114,2.523-5.64,5.638-5.64s5.647,2.526,5.647,5.64c0,3.121-2.533,5.645-5.647,5.645
		S272.273,153.898,272.273,150.786 M263.026,150.786c0,8.206,6.672,14.888,14.885,14.888c8.208,0,14.89-6.682,14.89-14.888
		c0-8.203-6.682-14.883-14.89-14.883S263.026,142.583,263.026,150.786"/>
	<path fill="#FFFFFF" d="M236.312,63.988c-1.068-1.063-1.654-2.481-1.654-3.986c0-1.514,0.586-2.927,1.654-3.991
		c1.101-1.105,2.547-1.651,3.998-1.651c1.441,0,2.882,0.546,3.983,1.651c2.201,2.202,2.201,5.777,0,7.977
		c-1.102,1.106-2.542,1.656-3.983,1.656C238.854,65.645,237.413,65.094,236.312,63.988 M229.772,49.471
		c-2.812,2.812-4.356,6.555-4.356,10.531c0,3.972,1.545,7.719,4.356,10.531c2.911,2.896,6.725,4.35,10.538,4.35
		c3.809,0,7.617-1.453,10.522-4.354c5.8-5.808,5.8-15.254,0-21.057c-2.905-2.906-6.714-4.348-10.522-4.348
		C236.497,45.124,232.679,46.565,229.772,49.471"/>
	<path fill="#FFFFFF" d="M144.898,46.792v25.633c0,2.549,2.079,4.621,4.626,4.621c2.547,0,4.617-2.072,4.617-4.621V46.792
		c0-2.543-2.069-4.62-4.617-4.62C146.977,42.173,144.898,44.25,144.898,46.792"/>
	<path fill="#FFFFFF" d="M72.716,73.982c-1.805,1.805-1.805,4.735,0,6.541l18.132,18.123c0.902,0.902,2.083,1.358,3.265,1.358
		s2.363-0.456,3.27-1.358c1.805-1.801,1.805-4.73,0-6.541L79.256,73.982c-0.902-0.902-2.094-1.351-3.27-1.351
		C74.809,72.631,73.623,73.08,72.716,73.982"/>
</g>
<g>
	<defs>
		<path id="SVGID_1_" d="M72.721,80.523V73.98C70.915,75.79,70.915,78.713,72.721,80.523"/>
	</defs>
	<use xlink:href="#SVGID_1_"  overflow="visible" fill="#FFFFFF"/>
	<clipPath id="SVGID_2_">
		<use xlink:href="#SVGID_1_"  overflow="visible"/>
	</clipPath>
	<g clip-path="url(#SVGID_2_)">
		<defs>
			<path id="SVGID_3_" d="M90.843,98.646c0.903,0.902,2.088,1.358,3.275,1.358c1.177,0,2.358-0.456,3.261-1.358
				c1.81-1.806,1.81-4.73,0-6.541l-18.127-18.12c-0.902-0.905-2.084-1.354-3.261-1.354c-1.186,0-2.372,0.449-3.27,1.354"/>
		</defs>
		<use xlink:href="#SVGID_3_"  overflow="visible" fill="#FFFFFF"/>
		<clipPath id="SVGID_4_">
			<use xlink:href="#SVGID_3_"  overflow="visible"/>
		</clipPath>
		<g clip-path="url(#SVGID_4_)">
			<defs>
				<rect id="SVGID_5_" x="70.915" y="72.626" width="28.268" height="27.368"/>
			</defs>
			<use xlink:href="#SVGID_5_"  overflow="visible" fill="#FFFFFF"/>
			<clipPath id="SVGID_6_">
				<use xlink:href="#SVGID_5_"  overflow="visible"/>
			</clipPath>
			<g clip-path="url(#SVGID_6_)">
				<defs>
					<rect id="SVGID_7_" x="70.915" y="72.626" width="28.268" height="27.368"/>
				</defs>
				<use xlink:href="#SVGID_7_"  overflow="visible" fill="#FFFFFF"/>
				<clipPath id="SVGID_8_">
					<use xlink:href="#SVGID_7_"  overflow="visible"/>
				</clipPath>
				<g clip-path="url(#SVGID_8_)">
					<g>
						<defs>
							<rect id="SVGID_9_" x="70.909" y="72.623" width="28.269" height="27.369"/>
						</defs>
						<clipPath id="SVGID_10_">
							<use xlink:href="#SVGID_9_"  overflow="visible"/>
						</clipPath>
						<g clip-path="url(#SVGID_10_)">
							
								<image overflow="visible" width="118" height="115" xlink:href="7AB401E2F5CF783B.jpg"  transform="matrix(0.24 0 0 0.24 70.9092 72.623)">
							</image>
						</g>
					</g>
				</g>
			</g>
		</g>
	</g>
</g>
<g>
	<path fill="#FFFFFF" d="M45.53,146.16c-2.548,0-4.627,2.074-4.627,4.621c0,2.55,2.079,4.629,4.627,4.629h25.626
		c2.557,0,4.622-2.079,4.622-4.629c0-2.547-2.065-4.621-4.622-4.621H45.53z"/>
	<path fill="#FFFFFF" d="M90.843,202.93l-18.122,18.127c-1.801,1.796-1.801,4.735,0,6.54c0.902,0.898,2.088,1.342,3.265,1.342
		c1.181,0,2.368-0.443,3.265-1.342l18.132-18.127c1.805-1.805,1.805-4.744,0-6.54c-0.903-0.897-2.088-1.352-3.27-1.352
		S91.75,202.032,90.843,202.93"/>
	<path fill="#FFFFFF" d="M144.898,229.146v25.637c0,2.546,2.079,4.616,4.626,4.616c2.547,0,4.617-2.07,4.617-4.616v-25.637
		c0-2.552-2.069-4.611-4.617-4.611C146.977,224.535,144.898,226.595,144.898,229.146"/>
	<path fill="#FFFFFF" d="M201.66,202.93c-1.805,1.796-1.805,4.735,0,6.54l18.132,18.127c0.894,0.898,2.074,1.342,3.261,1.342
		s2.372-0.443,3.266-1.342c1.805-1.805,1.805-4.744,0-6.54l-18.122-18.127c-0.903-0.897-2.089-1.352-3.266-1.352
		C203.744,201.578,202.563,202.032,201.66,202.93"/>
	<path fill="#FFFFFF" d="M227.882,146.16c-2.556,0-4.626,2.074-4.626,4.621c0,2.55,2.07,4.629,4.626,4.629h25.632
		c2.551,0,4.621-2.079,4.621-4.629c0-2.547-2.07-4.621-4.621-4.621H227.882z"/>
	<path fill="#FFFFFF" d="M219.787,73.982L201.66,92.105c-1.8,1.81-1.8,4.74,0,6.541c0.907,0.902,2.094,1.358,3.271,1.358
		s2.362-0.456,3.266-1.358l18.131-18.123c1.801-1.805,1.801-4.735,0-6.541c-0.907-0.902-2.093-1.351-3.274-1.351
		C221.876,72.631,220.694,73.08,219.787,73.982"/>
</g>
<g>
	<defs>
		<path id="SVGID_11_" d="M219.792,73.985l-18.136,18.12c-1.801,1.805-1.801,4.735,0,6.541c0.859,0.851,1.961,1.304,3.071,1.353
			h0.401c1.12-0.049,2.217-0.502,3.067-1.353l18.122-18.123c1.81-1.81,1.81-4.733,0-6.538c-0.898-0.9-2.079-1.354-3.266-1.354
			S220.69,73.085,219.792,73.985"/>
	</defs>
	<use xlink:href="#SVGID_11_"  overflow="visible" fill="#FFFFFF"/>
	<clipPath id="SVGID_12_">
		<use xlink:href="#SVGID_11_"  overflow="visible"/>
	</clipPath>
</g>
</svg>
