<?xml version="1.0" encoding="utf-8"?>
<!-- Generator: Adobe Illustrator 25.4.1, SVG Export Plug-In . SVG Version: 6.00 Build 0)  -->
<svg version="1.1" id="Layer_1" xmlns="http://www.w3.org/2000/svg" xmlns:xlink="http://www.w3.org/1999/xlink" x="0px" y="0px"
	 viewBox="0 0 200 200" style="enable-background:new 0 0 200 200;" xml:space="preserve">
<style type="text/css">
	.st0{fill:#2C317D;}
</style>
<g>
	<path class="st0" d="M164,40.2H79.2c-1.7,0-3.1,1.4-3.1,3.1c0,1.7,1.4,3.1,3.1,3.1H164c5.2,0,9.3,4.2,9.3,9.3V143
		c0,5.2-4.2,9.3-9.3,9.3H35.6c-5.2,0-9.3-4.2-9.3-9.3V55.8c0-5.2,4.2-9.3,9.3-9.3h18.7c1.7,0,3.1-1.4,3.1-3.1c0-1.7-1.4-3.1-3.1-3.1
		H35.6c-8.6,0-15.6,7-15.6,15.6V143c0,8.6,7,15.6,15.6,15.6H164c8.6,0,15.6-7,15.6-15.6V55.8C179.6,47.2,172.6,40.2,164,40.2
		L164,40.2z M164,40.2"/>
	<path class="st0" d="M66.8,56.4c-16.5,0-29.9,13.4-29.9,29.9s13.4,29.9,29.9,29.9s29.9-13.4,29.9-29.9S83.2,56.4,66.8,56.4
		L66.8,56.4z M53.2,105.7c2.2-5.4,7.6-9,13.5-9c6,0,11.3,3.6,13.5,9c-3.8,2.7-8.5,4.3-13.5,4.3C61.7,110,57.1,108.4,53.2,105.7
		L53.2,105.7z M61.1,84.8v-1.2c0-3.1,2.5-5.7,5.7-5.7c3.1,0,5.7,2.5,5.7,5.7v1.2c0,3.1-2.5,5.7-5.7,5.7
		C63.6,90.5,61.1,87.9,61.1,84.8L61.1,84.8z M85.1,101.3c-2.1-3.8-5.4-6.9-9.3-8.8c1.8-2.1,2.9-4.8,2.9-7.7v-1.2
		c0-6.6-5.3-11.9-11.9-11.9c-6.6,0-11.9,5.3-11.9,11.9v1.2c0,2.9,1.1,5.6,2.9,7.7c-3.9,1.9-7.2,4.9-9.3,8.8c-3.4-4.1-5.4-9.3-5.4-15
		c0-13.1,10.6-23.7,23.7-23.7s23.7,10.6,23.7,23.7C90.4,92,88.4,97.2,85.1,101.3L85.1,101.3z M85.1,101.3"/>
	<path class="st0" d="M114.7,102.5h44.9c1.7,0,3.1-1.4,3.1-3.1V74.5c0-1.7-1.4-3.1-3.1-3.1h-44.9c-1.7,0-3.1,1.4-3.1,3.1v24.9
		C111.6,101.1,113,102.5,114.7,102.5L114.7,102.5z M117.9,77.6h38.6v18.7h-38.6V77.6z M117.9,77.6"/>
	<path class="st0" d="M114.7,115h44.9c1.7,0,3.1-1.4,3.1-3.1s-1.4-3.1-3.1-3.1h-44.9c-1.7,0-3.1,1.4-3.1,3.1S113,115,114.7,115
		L114.7,115z M114.7,115"/>
	<path class="st0" d="M112.5,126.5c0.6,0.6,1.4,0.9,2.2,0.9c0.8,0,1.6-0.3,2.2-0.9c0.6-0.6,0.9-1.4,0.9-2.2c0-0.8-0.3-1.6-0.9-2.2
		c-0.6-0.6-1.4-0.9-2.2-0.9c-0.8,0-1.6,0.3-2.2,0.9c-0.6,0.6-0.9,1.4-0.9,2.2C111.6,125.2,112,126,112.5,126.5L112.5,126.5z
		 M112.5,126.5"/>
	<path class="st0" d="M125,122.1c-0.6,0.6-0.9,1.4-0.9,2.2c0,0.8,0.3,1.6,0.9,2.2c0.6,0.6,1.4,0.9,2.2,0.9c0.8,0,1.6-0.3,2.2-0.9
		c0.6-0.6,0.9-1.4,0.9-2.2c0-0.8-0.3-1.6-0.9-2.2c-0.6-0.6-1.4-0.9-2.2-0.9C126.4,121.2,125.6,121.6,125,122.1L125,122.1z
		 M125,122.1"/>
	<path class="st0" d="M159.6,121.2h-19.9c-1.7,0-3.1,1.4-3.1,3.1c0,1.7,1.4,3.1,3.1,3.1h19.9c1.7,0,3.1-1.4,3.1-3.1
		C162.7,122.6,161.3,121.2,159.6,121.2L159.6,121.2z M159.6,121.2"/>
	<path class="st0" d="M89.1,125.6c0-1.7-1.4-3.1-3.1-3.1H47.5c-1.7,0-3.1,1.4-3.1,3.1c0,1.7,1.4,3.1,3.1,3.1H86
		C87.7,128.7,89.1,127.3,89.1,125.6L89.1,125.6z M89.1,125.6"/>
	<path class="st0" d="M52.5,135c-1.7,0-3.1,1.4-3.1,3.1c0,1.7,1.4,3.1,3.1,3.1H81c1.7,0,3.1-1.4,3.1-3.1c0-1.7-1.4-3.1-3.1-3.1H52.5
		z M52.5,135"/>
	<path class="st0" d="M66.8,46.4c0.8,0,1.6-0.3,2.2-0.9c0.6-0.6,0.9-1.4,0.9-2.2c0-0.8-0.3-1.6-0.9-2.2c-0.6-0.6-1.4-0.9-2.2-0.9
		c-0.8,0-1.6,0.3-2.2,0.9c-0.6,0.6-0.9,1.4-0.9,2.2c0,0.8,0.3,1.6,0.9,2.2C65.1,46.1,65.9,46.4,66.8,46.4L66.8,46.4z M66.8,46.4"/>
</g>
</svg>
