<svg width="40" height="38" viewBox="0 0 40 38" fill="none" xmlns="http://www.w3.org/2000/svg">
<g clip-path="url(#clip0_49_105)">
<path d="M36.6692 11.3541C37.0364 11.0019 37.0914 10.4407 36.7992 10.0278L33.796 5.78493C33.5038 5.37197 32.9497 5.2284 32.4873 5.44437L31.6213 5.84923L35.9828 12.0116L36.6691 11.3534L36.6692 11.3541Z" fill="white"/>
<path d="M23.4209 25.3828C21.5948 26.119 19.7708 27.0284 18.1367 28.1467L17.2719 28.7393L21.7259 35.0319C21.9471 35.3446 22.3138 35.4992 22.6752 35.4686C22.8525 35.4535 23.028 35.3938 23.1848 35.2866L27.2034 32.534C27.4319 32.3772 27.5881 32.1389 27.6369 31.8696C27.6865 31.6003 27.6251 31.3238 27.4669 31.0997L23.4202 25.3829L23.4209 25.3828Z" fill="white"/>
<path d="M6.97723 21.3258C6.4405 21.6931 6.08101 22.2442 5.96523 22.8761C5.91469 23.1503 5.91271 23.4253 5.95707 23.6915L3.36735 25.4336C3.13661 25.5885 2.97774 25.8284 2.92685 26.0986C2.87597 26.3687 2.93754 26.6473 3.09652 26.8727L5.91127 30.8498C6.13247 31.1625 6.4991 31.3171 6.86056 31.2864C7.03501 31.2716 7.20795 31.2142 7.36286 31.1099L9.90665 29.3979C10.3728 29.7071 10.9337 29.8487 11.4892 29.8016C11.9023 29.7666 12.3122 29.6275 12.6769 29.3777L15.2149 27.6393L9.51521 19.5868L6.97717 21.3251L6.97723 21.3258Z" fill="white"/>
<path d="M38.0189 18.5032L26.1396 1.71856C25.9264 1.41766 25.5665 1.2514 25.1938 1.28232L25.191 1.28256C24.8198 1.31404 24.4929 1.53648 24.3319 1.86773C24.2768 1.9808 18.7408 13.2682 11.2377 18.4077L16.938 26.4602C21.1247 23.5926 26.3991 22.0233 30.086 21.2107C34.109 20.3248 37.1731 20.1236 37.2214 20.1209C37.5983 20.0979 37.9357 19.8752 38.1013 19.5401C38.2668 19.2043 38.2353 18.8086 38.0196 18.5031L38.0189 18.5032Z" fill="white"/>
</g>
<defs>
<clipPath id="clip0_49_105">
<rect width="35.7856" height="33.8512" fill="white" transform="translate(0.959961 3.33765) rotate(-4.84781)"/>
</clipPath>
</defs>
</svg>
