<svg xmlns="http://www.w3.org/2000/svg" xmlns:xlink="http://www.w3.org/1999/xlink" viewBox="0 0 530.19 180"><defs><style>.cls-1{fill:#fff;}.cls-2{fill:url(#未命名的渐变_4);}</style><linearGradient id="未命名的渐变_4" x1="145.73" y1="34.3" x2="27.3" y2="152.73" gradientUnits="userSpaceOnUse"><stop offset="0" stop-color="#ea6000"/><stop offset="0.38" stop-color="#f19243"/><stop offset="0.77" stop-color="#ed7814"/><stop offset="1" stop-color="#ea6000"/></linearGradient></defs><g id="图层_2" data-name="图层 2"><g id="图层_1-2" data-name="图层 1"><path d="M274.19,123.24v2.13H252.37v-2.13h6.7v-15h-6V106h20.52v2.21h-6.34v15Zm-19-12a84.56,84.56,0,0,1,3.24,8l-2.16.91a65.67,65.67,0,0,0-3-8.26Zm6.29,12h3.36v-15H261.5Zm6.19-4a47.56,47.56,0,0,0,3.29-8l2.18.69a64.16,64.16,0,0,1-3.48,8.09Z"/><path d="M285.71,105.33a47.26,47.26,0,0,1-1.94,4.54v16.85h-2v-13.3a25.46,25.46,0,0,1-2,2.69,17.28,17.28,0,0,0-1.2-2.14,26.85,26.85,0,0,0,5.18-9.24Zm14.74,3.15v1.82H285.23v-1.82h7a20.57,20.57,0,0,0-1.6-3.12l1.92-.75a21.47,21.47,0,0,1,1.72,3.12l-1.72.75ZM286.6,118.87h12.29v7.7h-2v-.79H288.5v.86h-1.9Zm12-5.14H286.94V112h11.68Zm-11.68,1.61h11.68v1.78H286.94Zm1.56,5.33V124h8.42v-3.31Z"/><path d="M304.62,107.11h2.88l1.66,9.19.94,5.67h.09c.39-1.9.79-3.8,1.2-5.67l2.28-9.19h2.45l2.3,9.19c.41,1.85.8,3.75,1.2,5.67h.12c.29-1.92.6-3.82.89-5.67l1.68-9.19H325l-3.48,17.66h-3.44L315.69,115c-.31-1.4-.58-2.72-.82-4.06h-.12c-.24,1.34-.53,2.66-.81,4.06l-2.33,9.81h-3.36Z"/><path d="M329.1,118.2c0-4.3,2.93-7,6-7,3.5,0,5.37,2.52,5.37,6.26a6.51,6.51,0,0,1-.12,1.39h-8.57c.22,2.52,1.8,4,4.09,4a5.64,5.64,0,0,0,3.14-1l1,1.75a8,8,0,0,1-4.47,1.4C332,125.09,329.1,122.54,329.1,118.2Zm9-1.2c0-2.28-1-3.6-2.95-3.6-1.66,0-3.12,1.27-3.39,3.6Z"/><path d="M348.5,123.4h-.08l-.26,1.37H346V105.64h2.73v5.07l-.07,2.25a6.33,6.33,0,0,1,3.94-1.72c3.34,0,5.23,2.66,5.23,6.72,0,4.53-2.71,7.13-5.69,7.13A5.46,5.46,0,0,1,348.5,123.4ZM355,118c0-2.76-.89-4.46-3.1-4.46a4.62,4.62,0,0,0-3.15,1.61v6.45a4.43,4.43,0,0,0,2.88,1.2C353.54,122.8,355,121.1,355,118Z"/><path d="M366.54,109.68V114c0,3.7-.31,9.22-2.28,12.84a7.56,7.56,0,0,0-1.94-1.27c1.8-3.36,2-8.19,2-11.57v-6.46h9.31c-.31-.84-.7-1.8-1.08-2.59l2.21-.55a24.45,24.45,0,0,1,1.39,3.14H384v2.12ZM384.3,123.5v2.11H366.57V123.5h9.19a41.9,41.9,0,0,0,5-12.5l2.36.81a52.4,52.4,0,0,1-5,11.69Zm-14-2.26a64.9,64.9,0,0,0-2.57-8.2l1.95-.75a63.79,63.79,0,0,1,2.71,8.07Zm4.35-1.41a67.94,67.94,0,0,0-2-8.19l2-.52a68,68,0,0,1,2.07,8.09Z"/><path d="M409.14,123.86c0,1.3-.31,2-1.17,2.31a13.28,13.28,0,0,1-4.49.38,9.86,9.86,0,0,0-.74-2.16c1.53.07,3.12,0,3.57,0s.6-.15.6-.6v-4.3H401.1v6.87h-2.23v-6.87h-5.52a13.73,13.73,0,0,1-3,7.27,7.28,7.28,0,0,0-1.75-1.46c2.61-2.9,2.85-7.15,2.85-10.54v-8.54h17.69Zm-10.27-6.43v-3.55h-5.21v1c0,.81,0,1.7-.09,2.59Zm-5.21-9v3.39h5.21V108.4Zm13.25,0H401.1v3.39h5.81Zm0,9v-3.55H401.1v3.55Z"/><path d="M435.88,108.84v11.47h-2.33V119h-6.24v7.63H425V119h-6.21v1.42h-2.24V108.84H425v-4.18h2.33v4.18Zm-10.9,8V111h-6.21v5.81Zm8.57,0V111h-6.24v5.81Z"/><path d="M442.69,110.16H445v16.51h-2.31Zm2.09-5.26a15.69,15.69,0,0,1,3,3.46l-1.9,1.2A16.79,16.79,0,0,0,443,106Zm3.19,6.48h9.34v11H448Zm14.67,12.75c0,1.12-.21,1.67-.89,2a7.93,7.93,0,0,1-3.24.38,9,9,0,0,0-.67-2c.91,0,1.82,0,2.09,0s.41-.12.41-.43V108H449v-2.09h13.68ZM450,116h5.23V113.2H450Zm0,4.63h5.23v-2.83H450Z"/><path d="M475.34,105.36a36.92,36.92,0,0,1-2.36,5.18v16.08h-2.11V113.9a24.39,24.39,0,0,1-1.87,2.33,14.8,14.8,0,0,0-1.23-2.26,26.73,26.73,0,0,0,5.48-9.24Zm14.57,13.15h-6.37v8.13h-2.23v-8.13h-6.65v-2.19h6.65v-4.75H477.9a17.29,17.29,0,0,1-1.6,3.39,14.35,14.35,0,0,0-1.93-1.08,21.31,21.31,0,0,0,2.86-8l2.16.44c-.21,1-.48,2.06-.77,3.07h2.69v-4.47h2.23v4.47h5.29v2.18h-5.29v4.75h6.37Z"/><path d="M228.08,77.56h-8.34l-2.21,7H214.6l7.75-22.82h3.21l7.75,22.82h-3.05Zm-.72-2.3-1.09-3.49c-.84-2.58-1.55-5.07-2.3-7.72h-.12c-.72,2.68-1.47,5.14-2.28,7.72l-1.12,3.49Z"/><path d="M236.52,61.72h2.89V84.54h-2.89Z"/><path d="M244,81.55l1.71-2A9,9,0,0,0,252,82.42c3,0,4.79-1.5,4.79-3.74s-1.65-3.08-3.79-4l-3.3-1.44c-2.12-.9-4.64-2.52-4.64-5.85,0-3.52,3-6.07,7.19-6.07A9.32,9.32,0,0,1,259,64.12L257.47,66a7.38,7.38,0,0,0-5.2-2.15c-2.58,0-4.26,1.31-4.26,3.37s2,3,3.76,3.79l3.27,1.4c2.65,1.16,4.7,2.71,4.7,6.11,0,3.61-3,6.47-7.75,6.47A10.91,10.91,0,0,1,244,81.55Z"/><path d="M261.89,61.72h3l2.4,12.42c.43,2.46.9,4.92,1.33,7.38h.13c.53-2.46,1.09-4.92,1.65-7.38l3.14-12.42h2.62l3.2,12.42c.56,2.43,1.09,4.89,1.62,7.38h.16q.64-3.73,1.31-7.38l2.39-12.42h2.77l-4.73,22.82h-3.45L276,70.78c-.4-1.81-.75-3.46-1.12-5.2h-.12c-.38,1.74-.78,3.39-1.16,5.2l-3.39,13.76h-3.42Z"/><path d="M290.25,80.15c0-3.68,3.21-5.51,10.4-6.32,0-2.18-.72-4.27-3.49-4.27a9.33,9.33,0,0,0-5.07,1.81l-1.12-2a12.65,12.65,0,0,1,6.66-2.21c4.11,0,5.85,2.77,5.85,6.94v10.4h-2.33l-.25-2h-.09a9.06,9.06,0,0,1-5.61,2.43C292.37,84.94,290.25,83.2,290.25,80.15Zm10.4.28V75.69C295,76.38,293,77.78,293,80c0,1.93,1.31,2.71,3,2.71S299,81.89,300.65,80.43Z"/><path d="M308.87,67.63h2.33l.25,3.08h.1c1.18-2.14,2.89-3.51,4.79-3.51a3.62,3.62,0,0,1,1.81.37l-.53,2.49a4,4,0,0,0-1.65-.28c-1.4,0-3.15,1-4.27,3.89V84.54h-2.83Z"/><path d="M319.67,76.1c0-5.48,3.71-8.9,7.63-8.9,4.3,0,6.72,3.11,6.72,7.93a11.34,11.34,0,0,1-.12,1.62H322.51c.18,3.61,2.39,5.92,5.6,5.92a7.27,7.27,0,0,0,4.23-1.34l1,1.87a10.09,10.09,0,0,1-5.6,1.74C323.28,84.94,319.67,81.67,319.67,76.1Zm11.86-1.37c0-3.43-1.55-5.26-4.2-5.26-2.39,0-4.51,1.93-4.85,5.26Z"/><path d="M352.39,61.72h13.17v2.43H355.29v7.72H364v2.42h-8.72V84.54h-2.9Z"/><path d="M369.33,81.17V59.76h2.83v21.6c0,.87.38,1.21.81,1.21a2.54,2.54,0,0,0,.59-.06l.41,2.18a4.39,4.39,0,0,1-1.65.25C370.2,84.94,369.33,83.57,369.33,81.17Z"/><path d="M376.49,91.48l.56-2.28a3.88,3.88,0,0,0,1.28.28c1.93,0,3.14-1.55,3.83-3.64l.37-1.27-6.79-16.94h3l3.46,9.4c.49,1.47,1.09,3.21,1.61,4.73h.16c.47-1.52,1-3.23,1.43-4.73l3-9.4h2.77l-6.38,18.31c-1.18,3.33-2.92,5.88-6.29,5.88A5.35,5.35,0,0,1,376.49,91.48Z"/><path d="M393.9,62.31a2,2,0,0,1,3.92,0,2,2,0,0,1-3.92,0Zm.52,5.32h2.84V84.54h-2.84Z"/><path d="M403,67.63h2.33l.25,2.43h.09c1.62-1.59,3.36-2.86,5.67-2.86,3.55,0,5.16,2.3,5.16,6.63V84.54h-2.83V74.2c0-3.17-1-4.51-3.2-4.51-1.75,0-2.93.87-4.64,2.58V84.54H403Z"/><path d="M420.7,87.77a4.78,4.78,0,0,1,2.52-3.83v-.12a3.06,3.06,0,0,1-1.55-2.77,4.15,4.15,0,0,1,1.89-3.15v-.12a5.93,5.93,0,0,1-2.21-4.54c0-3.71,2.93-6,6.35-6a6.92,6.92,0,0,1,2.37.43H436v2.18H432.5a4.83,4.83,0,0,1,1.37,3.49c0,3.61-2.74,5.88-6.17,5.88a5.94,5.94,0,0,1-2.52-.59,2.52,2.52,0,0,0-1.09,2c0,1.09.69,1.84,3,1.84h3.3c3.92,0,5.88,1.24,5.88,4,0,3.14-3.3,5.85-8.53,5.85C423.56,92.32,420.7,90.7,420.7,87.77Zm12.79-.87c0-1.56-1.21-2.09-3.45-2.09h-2.93a9.89,9.89,0,0,1-2.18-.27,3.56,3.56,0,0,0-1.74,2.86c0,1.8,1.84,3,4.92,3C431.35,90.39,433.49,88.68,433.49,86.9Zm-2.21-13.66c0-2.46-1.58-4-3.58-4a3.62,3.62,0,0,0-3.61,4,3.62,3.62,0,1,0,7.19,0Z"/><path d="M438.14,81.55l1.71-2a9,9,0,0,0,6.32,2.83c3,0,4.79-1.5,4.79-3.74s-1.65-3.08-3.8-4l-3.3-1.44c-2.11-.9-4.63-2.52-4.63-5.85,0-3.52,3-6.07,7.19-6.07a9.33,9.33,0,0,1,6.72,2.84L451.61,66a7.37,7.37,0,0,0-5.19-2.15c-2.59,0-4.27,1.31-4.27,3.37s2,3,3.77,3.79l3.27,1.4c2.64,1.16,4.7,2.71,4.7,6.11,0,3.61-3,6.47-7.75,6.47A10.91,10.91,0,0,1,438.14,81.55Z"/><path d="M456.85,76.1c0-5.48,3.7-8.9,7.62-8.9,4.3,0,6.73,3.11,6.73,7.93a11.15,11.15,0,0,1-.13,1.62H459.68c.18,3.61,2.4,5.92,5.6,5.92a7.32,7.32,0,0,0,4.24-1.34l1,1.87a10.09,10.09,0,0,1-5.6,1.74C460.46,84.94,456.85,81.67,456.85,76.1Zm11.86-1.37c0-3.43-1.56-5.26-4.21-5.26-2.39,0-4.51,1.93-4.85,5.26Z"/><path d="M475.37,67.63h2.33l.25,3.08h.1c1.18-2.14,2.89-3.51,4.79-3.51a3.62,3.62,0,0,1,1.81.37l-.53,2.49a4,4,0,0,0-1.65-.28c-1.4,0-3.15,1-4.27,3.89V84.54h-2.83Z"/><path d="M485,67.63h3l3.17,9.62c.53,1.65,1.06,3.39,1.59,5h.12c.5-1.59,1.06-3.33,1.56-5l3.21-9.62h2.8l-6,16.91h-3.3Z"/><path d="M502.39,76.1c0-5.48,3.71-8.9,7.63-8.9,4.29,0,6.72,3.11,6.72,7.93a11.34,11.34,0,0,1-.12,1.62H505.23c.18,3.61,2.39,5.92,5.6,5.92a7.27,7.27,0,0,0,4.23-1.34l1,1.87a10.09,10.09,0,0,1-5.6,1.74C506,84.94,502.39,81.67,502.39,76.1Zm11.86-1.37c0-3.43-1.55-5.26-4.2-5.26-2.4,0-4.51,1.93-4.86,5.26Z"/><path d="M520.92,67.63h2.33l.25,3.08h.09c1.19-2.14,2.9-3.51,4.8-3.51a3.6,3.6,0,0,1,1.8.37l-.53,2.49a4,4,0,0,0-1.65-.28c-1.4,0-3.14,1-4.26,3.89V84.54h-2.83Z"/><ellipse class="cls-1" cx="90" cy="89.97" rx="90" ry="89.97"/><path class="cls-2" d="M158.26,31.39a13.7,13.7,0,0,1-9.85,4.16H101.48A13.51,13.51,0,0,0,88,49.05h0a13.51,13.51,0,0,0,13.51,13.51h23c.4,0,.79,0,1.17,0h29.27a2.7,2.7,0,0,1,0,5.39H135.43a12.6,12.6,0,0,1,1.23,1.93h6.64a2.7,2.7,0,0,1,0,5.39h-5.11c0,.33,0,.66,0,1h0c0,.32,0,.64,0,1h26.25a2.7,2.7,0,0,1,0,5.39H136.69a13.68,13.68,0,0,1-1.22,1.93H157A2.7,2.7,0,1,1,157,90H126.1a12.63,12.63,0,0,1-1.63.1H97.2a41,41,0,0,1-41-41h0a41,41,0,0,1,41-41h29.91A90,90,0,0,0,21.74,148.66a13.74,13.74,0,0,1,9.85-4.16H78.52A13.5,13.5,0,0,0,92,131h0a13.5,13.5,0,0,0-13.51-13.5h-23a13.85,13.85,0,0,1-2.25-.19H20.21a2.7,2.7,0,0,1,0-5.39H44.46A13.17,13.17,0,0,1,43.27,110H29.75a2.7,2.7,0,0,1,0-5.39h12c0-.29,0-.57,0-.86h0c0-.37,0-.72.05-1.08H5.6a2.7,2.7,0,0,1,0-5.39H43.38a13,13,0,0,1,1.25-1.93H36.39a2.7,2.7,0,1,1,0-5.39H71.22a2.6,2.6,0,0,1,.4,0H82.79a41,41,0,0,1,41,41h0a41,41,0,0,1-41,41H52.89A90,90,0,0,0,158.26,31.39Zm-7.5,44.07a2.7,2.7,0,1,1,2.7-2.69A2.71,2.71,0,0,1,150.76,75.46Zm6.64-.83a1.87,1.87,0,1,1,1.86-1.86A1.87,1.87,0,0,1,157.4,74.63Zm5-.83a1,1,0,1,1,1-1A1,1,0,0,1,162.37,73.8ZM12.24,93.71a1,1,0,1,1,1-1A1,1,0,0,1,12.24,93.71Zm7.46.82a1.87,1.87,0,1,1,1.87-1.86A1.86,1.86,0,0,1,19.7,94.53Zm7.88.83a2.7,2.7,0,1,1,2.7-2.69A2.7,2.7,0,0,1,27.58,95.36Z"/></g></g></svg>