<svg xmlns="http://www.w3.org/2000/svg" xmlns:xlink="http://www.w3.org/1999/xlink" viewBox="0 0 160 160"><defs><style>.cls-1{fill:#fff;}.cls-2{fill:url(#未命名的渐变_4);}</style><linearGradient id="未命名的渐变_4" x1="129.53" y1="30.49" x2="24.26" y2="135.76" gradientUnits="userSpaceOnUse"><stop offset="0" stop-color="#ea6000"/><stop offset="0.38" stop-color="#f19243"/><stop offset="0.77" stop-color="#ed7814"/><stop offset="1" stop-color="#ea6000"/></linearGradient></defs><g id="图层_2" data-name="图层 2"><g id="图层_1-2" data-name="图层 1"><ellipse class="cls-1" cx="80" cy="79.98" rx="80" ry="79.98"/><path class="cls-2" d="M140.68,27.9a12.22,12.22,0,0,1-8.76,3.7H90.2a12,12,0,0,0-12,12h0a12,12,0,0,0,12,12h20.44c.35,0,.7,0,1,0h26a2.4,2.4,0,0,1,0,4.79H120.39a12.8,12.8,0,0,1,1.09,1.72h5.89a2.4,2.4,0,1,1,0,4.79h-4.53c0,.3,0,.59,0,.88h0q0,.44,0,.84h23.34a2.4,2.4,0,0,1,0,4.8H121.5a12.74,12.74,0,0,1-1.08,1.72h19.12a2.4,2.4,0,1,1,0,4.79H112.09a13.94,13.94,0,0,1-1.45.08H86.4A36.46,36.46,0,0,1,49.93,43.6h0A36.47,36.47,0,0,1,86.4,7.14H113a80,80,0,0,0-93.67,125,12.19,12.19,0,0,1,8.76-3.69H69.8a12,12,0,0,0,12-12h0a12,12,0,0,0-12-12H49.36a13.16,13.16,0,0,1-2-.16H18a2.4,2.4,0,1,1,0-4.79H39.52a13.25,13.25,0,0,1-1.06-1.72h-12a2.4,2.4,0,1,1,0-4.8h10.7c0-.25,0-.5,0-.76h0c0-.32,0-.64,0-1H5a2.4,2.4,0,1,1,0-4.79H38.56a12.94,12.94,0,0,1,1.11-1.72H32.34a2.4,2.4,0,0,1,0-4.79h31a2.19,2.19,0,0,1,.36,0H73.6a36.47,36.47,0,0,1,36.47,36.46h0A36.47,36.47,0,0,1,73.6,152.91H47a80,80,0,0,0,93.67-125ZM134,67.08a2.4,2.4,0,1,1,2.4-2.4A2.41,2.41,0,0,1,134,67.08Zm5.9-.74a1.66,1.66,0,1,1,1.66-1.66A1.66,1.66,0,0,1,139.91,66.34Zm4.42-.74a.92.92,0,1,1,.92-.92A.92.92,0,0,1,144.33,65.6ZM10.88,83.29a.92.92,0,1,1,.92-.92A.92.92,0,0,1,10.88,83.29Zm6.63.74a1.66,1.66,0,1,1,1.66-1.66A1.66,1.66,0,0,1,17.51,84Zm7,.74a2.4,2.4,0,1,1,2.39-2.4A2.41,2.41,0,0,1,24.52,84.77Z"/></g></g></svg>