<?xml version="1.0" encoding="UTF-8"?>
<svg width="93px" height="75px" viewBox="0 0 93 75" version="1.1" xmlns="http://www.w3.org/2000/svg" xmlns:xlink="http://www.w3.org/1999/xlink">
    <title>beslogo</title>
    <defs>
        <linearGradient x1="64.1795189%" y1="18.3514094%" x2="29.0292876%" y2="100%" id="linearGradient-1">
            <stop stop-color="#EE4C22" offset="0%"></stop>
            <stop stop-color="#F9DF00" offset="100%"></stop>
        </linearGradient>
        <linearGradient x1="50%" y1="0%" x2="50%" y2="100%" id="linearGradient-2">
            <stop stop-color="#1877C6" offset="0%"></stop>
            <stop stop-color="#68BDE3" offset="100%"></stop>
        </linearGradient>
    </defs>
    <g id="页面-1" stroke="none" stroke-width="1" fill="none" fill-rule="evenodd">
        <g id="beslogo" transform="translate(-0.000106, 0.000300)">
            <path d="M1.83010551,32.512 C1.31410551,33.327 0.767105505,35.851 1.30310551,39.308 L1.30310551,39.308 C1.84010551,42.765 2.96410551,48.009 2.89310551,52.904 L2.89310551,52.904 C2.85710551,58.326 3.20910551,63.743 3.94610551,69.115 L3.94610551,69.115 C4.50310551,71.996 5.68610551,73.995 6.58710551,74.344 L6.58710551,74.344 C7.48910551,74.695 8.90610551,71.502 9.74510551,69.115 L9.74510551,69.115 C10.5861055,66.729 11.8211055,64.677 13.4411055,64.932 L13.4411055,64.932 C15.0601055,65.189 21.4981055,68.28 25.0511055,70.684 L25.0511055,70.684 C28.3461055,72.915 32.0341055,74.866 33.2541055,74.897 L33.2541055,74.897 L33.3091055,74.897 C33.3811055,74.895 33.4421055,74.886 33.4931055,74.868 L33.4931055,74.868 C34.3751055,74.566 34.6881055,73.601 33.4931055,72.253 L33.4931055,72.253 C32.2991055,70.905 28.8471055,66.603 27.6941055,64.932 L27.6941055,64.932 C26.5391055,63.262 26.0141055,60.962 27.6941055,59.179 L27.6941055,59.179 C29.3731055,57.396 29.7691055,57.344 30.8621055,57.089 L30.8621055,57.089 C31.9541055,56.832 33.4131055,55.799 33.4931055,54.997 L33.4931055,54.997 C33.5741055,54.195 32.6031055,52.778 30.3351055,52.383 L30.3351055,52.383 C28.0681055,51.986 24.8691055,51.683 21.3571055,50.813 L21.3571055,50.813 C17.8441055,49.942 17.2971055,49.637 15.0301055,47.153 L15.0301055,47.153 C13.3101055,45.165 11.7201055,43.07 10.2721055,40.878 L10.2721055,40.878 C10.2721055,40.878 7.20410551,35.779 5.52510551,33.556 L5.52510551,33.556 C4.58610551,32.316 3.70310551,31.88 3.01810551,31.88 L3.01810551,31.88 C2.47610551,31.88 2.05810551,32.151 1.83010551,32.512 M15.5571055,44.006 C15.5571055,46.595 17.6431055,48.697 20.2311055,48.718 L20.2311055,48.718 C22.8321055,48.737 24.9591055,46.644 24.9781055,44.043 L24.9781055,44.043 C24.9981055,41.441 22.9061055,39.316 20.3041055,39.296 L20.3041055,39.296 C20.2981055,39.296 20.2931055,39.296 20.2871055,39.296 L20.2871055,39.296 C17.6841055,39.296 15.5681055,41.401 15.5571055,44.006" id="Fill-1" fill="url(#linearGradient-1)"></path>
            <path d="M59.3581055,39.832 C57.8631055,42.451 56.0951055,44.905 54.0841055,47.153 L54.0841055,47.153 C51.6651055,49.49 48.4051055,50.927 42.4731055,51.859 L42.4731055,51.859 C36.5411055,52.79 35.0731055,53.115 35.0840443,54.473 L35.0840443,54.473 C35.0941055,56.538 37.2591055,56.506 39.8301055,58.134 L39.8301055,58.134 C42.4021055,59.762 44.5371055,59.685 45.1051055,62.84 L45.1051055,62.84 C45.9751055,66.356 47.4041055,69.711 49.3351055,72.775 L49.3351055,72.775 C50.7231055,74.918 52.1501055,74.634 52.4941055,71.729 L52.4941055,71.729 C52.9291055,68.136 52.7361055,63.86 56.7151055,61.272 L56.7151055,61.272 C59.6811055,59.349 65.0971055,60.672 67.2741055,61.795 L67.2741055,61.795 C69.4491055,62.917 73.6511055,63.085 73.0841055,60.749 L73.0841055,60.749 C72.5181055,58.411 68.9741055,55.307 65.6941055,52.904 L65.6941055,52.904 C64.9321055,52.464 64.2221055,51.937 63.5791055,51.337 L63.5791055,51.337 C62.7751055,50.097 62.4051055,48.626 62.5261055,47.153 L62.5261055,47.153 C62.7081055,43.077 62.7991055,40.29 61.9991055,39.308 L61.9991055,39.308 C61.6551055,38.887 61.3031055,38.734 60.9721055,38.734 L60.9721055,38.734 C60.0871055,38.734 59.3581055,39.832 59.3581055,39.832 M43.5361055,44.541 C43.5361055,47.114 45.6071055,49.207 48.1811055,49.236 L48.1811055,49.236 C50.7731055,49.264 52.8991055,47.185 52.9271055,44.592 L52.9271055,44.592 C52.9561055,41.998 50.8761055,39.874 48.2821055,39.846 L48.2821055,39.846 C48.2731055,39.846 48.2651055,39.846 48.2561055,39.846 L48.2561055,39.846 C45.6611055,39.846 43.5501055,41.943 43.5361055,44.541" id="Fill-3" fill="#9C9DA1"></path>
            <path d="M58.4361055,-3.55271368e-15 C57.3931055,0.008 56.8701055,0.768 56.7151055,2.186 L56.7151055,2.186 C56.7501055,3.476 57.1171055,4.734 57.7791055,5.842 L57.7791055,5.842 C57.7791055,5.842 63.5991055,15.141 64.1051055,16.301 L64.1051055,16.301 C64.6111055,17.461 65.3911055,20.621 65.1681055,21.53 L65.1681055,21.53 C64.9461055,22.44 64.9561055,23.677 64.6431055,25.19 L64.6431055,25.19 C64.2471055,27.056 61.4121055,34.221 61.4731055,36.172 L61.4731055,36.172 C61.5341055,38.121 62.6781055,39.086 64.6431055,37.74 L64.6431055,37.74 C66.6061055,36.395 68.5691055,34.235 70.4421055,35.126 L70.4421055,35.126 C72.3151055,36.016 75.1601055,39.633 77.3051055,43.492 L77.3051055,43.492 C79.4521055,47.352 81.9321055,46.454 82.0531055,44.015 L82.0531055,44.015 C82.1741055,41.577 79.9681055,31.738 80.4731055,27.805 L80.4731055,27.805 C80.9801055,23.872 84.2191055,24.457 86.2741055,25.19 L86.2741055,25.19 C88.3291055,25.924 91.6191055,27.336 92.0841055,25.19 L92.0841055,25.19 C92.0841055,25.19 93.1881055,23.715 88.3891055,19.961 L88.3891055,19.961 C83.3241055,16.166 78.0371055,12.675 72.5571055,9.507 L72.5571055,9.507 C68.8231055,7.36 64.6321055,3.019 61.4731055,1.14 L61.4731055,1.14 C60.1831055,0.373 59.1971055,0.004 58.4641055,-3.55271368e-15 L58.4641055,-3.55271368e-15 L58.4361055,-3.55271368e-15 Z M55.6831051,20.481 C55.6821055,23.07 57.7701055,25.173 60.3581055,25.194 L60.3581055,25.194 C62.9601055,25.213 65.0851055,23.12 65.1051055,20.518 L65.1051055,20.518 C65.1261055,17.917 63.0321055,15.79 60.4301055,15.771 L60.4301055,15.771 C60.4241055,15.771 60.4171055,15.771 60.4111055,15.771 L60.4111055,15.771 C57.8081055,15.772 55.6941055,17.877 55.6831051,20.481 L55.6831051,20.481 Z" id="Fill-5" fill="url(#linearGradient-2)"></path>
            <path d="M46.2132055,16.577875 L49.5462055,16.5892361 L49.5462055,16.5892361 L51.3907055,16.5825 L51.3907055,16.5825 L51.3992998,16.6228704 C51.3992998,16.6277222 51.3992998,16.6318333 51.3977055,16.6355 L51.0747055,17.3265 L51.0747055,17.3265 L50.4277055,18.7845 L50.4277055,18.7845 C50.4197055,18.8015 50.3907055,18.8165 50.3687055,18.8195 L50.3030805,18.82325 L50.3030805,18.82325 L50.2367055,18.8225 C47.5967055,18.8225 44.9547055,18.8215 42.3137055,18.8265 C42.0437055,18.8265 41.7687055,18.8485 41.5027055,18.8925 C41.1997055,18.9425 40.8957055,19.0105 40.6247055,19.1605 C40.3467055,19.3155 40.1057055,19.5165 39.9957055,19.8315 C39.9537055,19.9525 39.8977055,20.0775 39.8947055,20.2025 C39.8867055,20.4915 40.0487055,20.6905 40.2967055,20.8175 C40.4517055,20.8965 40.6137055,20.9705 40.7807055,21.0185 C40.9397055,21.0645 41.1097055,21.0915 41.2757055,21.0955 L42.0105805,21.102625 L42.0105805,21.102625 L42.7447055,21.1015 C43.9567055,21.1015 45.1687055,21.0985 46.3807055,21.1035 C46.6267055,21.1045 46.8767055,21.1095 47.1167055,21.1565 C47.4237055,21.2155 47.7217055,21.3075 48.0047055,21.4555 C48.3327055,21.6285 48.6067055,21.8555 48.8157055,22.1535 C48.8717055,22.233 48.9139555,22.322 48.9524555,22.413625 L49.0667055,22.6895 L49.0667055,22.6895 C49.1757055,22.9275 49.1847055,23.1825 49.1717055,23.4365 C49.1649555,23.56775 49.1537055,23.699 49.1181274,23.826875 L49.0737055,23.9535 C49.0227055,24.0695 49.0067055,24.1995 48.9527055,24.3115 C48.8417055,24.5405 48.7267055,24.7715 48.5917055,24.9865 C48.3907055,25.3035 48.1407055,25.5835 47.8597055,25.8315 C47.6887055,25.9835 47.5027055,26.1185 47.3097055,26.2425 C47.0927055,26.3805 46.8647055,26.5035 46.6347055,26.6185 C46.4887055,26.6925 46.3337055,26.7445 46.1797055,26.7975 C45.9567055,26.8725 45.7317055,26.9435 45.5057055,27.0085 L45.3413305,27.0475 L45.3413305,27.0475 L45.1747055,27.0775 C44.9707055,27.1125 44.7657055,27.1535 44.5597055,27.1735 C44.4263722,27.1875 44.2912611,27.1935 44.1561499,27.1962407 L43.9537055,27.1985 C41.0597055,27.2105 38.1667055,27.2305 35.2717055,27.2325 L26.2227055,27.235375 L26.2227055,27.235375 L17.0617055,27.2335 L17.0617055,27.2335 C16.9817055,27.2285 16.9647055,27.2085 17.0087055,27.1235 L17.0975944,26.9403889 L17.0975944,26.9403889 L17.4637055,26.0935 L17.4637055,26.0935 L17.7757055,25.3615 L18.0207055,24.8075 L18.0207055,24.8075 L18.1747055,24.4415 L18.1747055,24.4415 L18.3097055,24.1515 L18.3097055,24.1515 L18.6847055,23.2945 L18.6847055,23.2945 L19.0557055,22.4565 L19.0557055,22.4565 L19.2607055,21.9575 L19.2607055,21.9575 L19.5057055,21.4215 L19.5057055,21.4215 L19.7657055,20.8315 L19.7657055,20.8315 C19.8777055,20.5825 19.9917055,20.3345 20.0997055,20.0845 L20.3427055,19.4875 L20.3427055,19.4875 L20.5877055,18.9505 L20.5877055,18.9505 L21.2967055,17.3455 C21.3917055,17.1305 21.4847055,16.9135 21.5847055,16.7005 L21.6080388,16.6758333 L21.6080388,16.6758333 L21.6807055,16.6405 L21.6807055,16.6405 C21.6957055,16.6335 21.7177055,16.6395 21.7347055,16.6395 L35.3697055,16.6395 L34.9948305,17.488125 L34.9948305,17.488125 L34.5807055,18.4595 L34.5807055,18.4595 C34.5247055,18.5875 34.4657055,18.7135 34.4037055,18.8385 C34.3947055,18.8565 34.3647055,18.8695 34.3437055,18.8725 L34.2775805,18.875875 L34.2775805,18.875875 L25.6467055,18.8745 L25.6467055,18.8745 C25.4812769,18.8745 25.43193,18.9002143 25.3764956,19.018395 L25.1612055,19.5275 L25.1612055,19.5275 L24.9687055,19.9665 C24.8897055,20.1495 24.8077055,20.3315 24.7307055,20.5155 C24.7237055,20.5345 24.7297055,20.5585 24.7297055,20.5915 L33.5707055,20.5915 L33.5145574,20.7763889 C33.5053722,20.8046111 33.4957055,20.8318333 33.4847055,20.8585 L33.3507055,21.16625 L33.3507055,21.16625 L32.9567055,22.0405 L32.9567055,22.0405 C32.8697055,22.2385 32.7917055,22.4395 32.7007055,22.6345 C32.6817055,22.6755 32.6297055,22.7045 32.5857055,22.7265 L32.5554092,22.7335 L32.5554092,22.7335 L32.4877055,22.7295 L32.4877055,22.7295 L23.7657055,22.7295 L23.2407055,23.9485 L23.2407055,23.9485 L22.8857055,24.8005 L22.8857055,24.8005 L22.8737055,24.8185 L22.8737055,24.8185 L22.8460018,24.913537 C22.8434833,24.9286111 22.8433722,24.9428333 22.8477055,24.9555 C22.8547055,24.9795 22.9277055,24.9915 22.9707055,24.9915 L24.2077055,24.9935 L41.7107055,24.9915 L41.7107055,24.9915 C42.1477055,24.9915 42.5857055,24.9655 43.0217055,24.9395 C43.1647055,24.9305 43.3057055,24.8805 43.4457055,24.8455 C43.5927055,24.8085 43.7447055,24.7815 43.8827055,24.7225 C44.1877055,24.5915 44.4637055,24.4195 44.6307055,24.1135 C44.7177055,23.9525 44.8087055,23.7995 44.7997055,23.6085 C44.7897055,23.4365 44.6097055,23.2395 44.4547055,23.1685 C44.2451055,23.0741 44.0297455,23.06354 43.8122095,23.06258 L43.6487055,23.0625 C42.0207055,23.0625 40.3927055,23.0655 38.7657055,23.0565 L38.5537425,23.0392037 L38.5537425,23.0392037 L38.1307055,22.9615 C38.0277055,22.9445 37.9237055,22.9265 37.8247055,22.8945 C37.6127055,22.8255 37.4007055,22.7555 37.1957055,22.6695 C36.8577055,22.5285 36.5587055,22.3235 36.2977055,22.0645 C36.0647055,21.8335 35.8827055,21.5715 35.7307055,21.2795 C35.4837055,20.8045 35.4617055,20.3035 35.5127055,19.7915 C35.5277055,19.6405 35.5857055,19.4915 35.6407055,19.3465 C35.6967055,19.1975 35.7617055,19.0475 35.8447055,18.9115 C35.9787055,18.6925 36.1187055,18.4735 36.2787055,18.2725 C36.5357055,17.9485 36.8627055,17.7025 37.2297055,17.5155 C37.4687055,17.3945 37.7127055,17.2855 37.9577055,17.1805 C38.1927055,17.0795 38.4357055,17.0035 38.6887055,16.9575 L39.2097055,16.8555 L39.2097055,16.8555 L40.1157055,16.7025 L40.1157055,16.7025 L40.1587055,16.6975 L40.1587055,16.6975 C40.5107055,16.6765 40.8617055,16.6495 41.2137055,16.6375 C42.8802055,16.58 44.5467055,16.5735 46.2132055,16.577875 L46.2132055,16.577875 Z M3.00980551,16.6387 L4.27443051,16.640325 L4.27443051,16.640325 L5.53980551,16.6397 C8.22080551,16.6407 10.9018055,16.6397 13.5838055,16.6447 C13.9398055,16.6457 14.2958055,16.6767 14.6508055,16.6977 C14.8488055,16.7107 15.0468055,16.7267 15.2428055,16.7527 C15.4158055,16.7747 15.5858055,16.8157 15.7588055,16.8457 L16.1248055,16.9027 L16.1248055,16.9027 L16.5395462,16.9766259 C16.6082499,16.9904778 16.6764722,17.0060333 16.7438055,17.0247 C16.9398055,17.0777 17.1328055,17.1507 17.3188055,17.2327 C17.5548055,17.3347 17.7898055,17.4417 18.0128055,17.5687 C18.2838055,17.7227 18.5048055,17.9337 18.6518055,18.2157 C18.7828055,18.4647 18.8248055,18.7327 18.7758055,19.0007 C18.7388055,19.2037 18.6518055,19.3997 18.5748055,19.5937 C18.4258055,19.9657 18.1918055,20.2797 17.8948055,20.5497 C17.6618055,20.7617 17.4028055,20.9307 17.1058055,21.0357 C16.8548055,21.1257 16.6018055,21.2097 16.3468055,21.2897 L16.2565092,21.3125519 L16.2565092,21.3125519 L15.8476805,21.375075 L15.8476805,21.375075 L14.9328055,21.5087 L14.9328055,21.5087 L14.6908055,21.5217 L14.6908055,21.5217 C14.5988055,21.5347 14.5108055,21.5617 14.4198055,21.5817 L14.4218055,21.6127 L14.4218055,21.6127 C14.5058055,21.6397 14.5898055,21.6677 14.6748055,21.6897 L15.1320648,21.798737 C15.2080277,21.8179222 15.2834722,21.8387 15.3578055,21.8627 C15.8578055,22.0247 16.3208055,22.2557 16.6408055,22.6937 C16.7628055,22.8607 16.8388055,23.0557 16.8528055,23.2677 C16.8688055,23.4877 16.8648055,23.7117 16.7878055,23.9187 C16.6888055,24.1807 16.5748055,24.4337 16.4198055,24.6717 C16.1768055,25.0427 15.8668055,25.3437 15.5248055,25.6137 C15.2098055,25.8637 14.8658055,26.0747 14.5018055,26.2477 C14.3398055,26.3247 14.1788055,26.4067 14.0098055,26.4687 C13.7218055,26.5717 13.4308055,26.6687 13.1378055,26.7537 L12.9108425,26.8131815 L12.9108425,26.8131815 L12.4518055,26.9137 L12.4518055,26.9137 C12.1888055,26.9697 11.9248055,27.0227 11.6598055,27.0677 C11.4978055,27.0957 11.3338055,27.1177 11.1698055,27.1257 C10.4908055,27.1547 9.81080551,27.1967 9.13180551,27.2007 L4.61980551,27.2205752 L4.61980551,27.2205752 L0.107805505,27.2337038 C0.0135197909,27.2337038 -0.0103577601,27.2347213 0.00373844982,27.1893855 L0.274805505,26.5317 L0.274805505,26.5317 L0.539805505,25.9687 L0.539805505,25.9687 L0.729805505,25.5227 L0.729805505,25.5227 L0.931805505,25.0587 L0.931805505,25.0587 L1.24380551,24.3217 L1.24380551,24.3217 L1.48980551,23.7717 L1.75480551,23.1497 L1.75480551,23.1497 L2.00580551,22.5917 L2.00580551,22.5917 L2.32980551,21.8387 L2.32980551,21.8387 L2.58880551,21.2727 L2.58880551,21.2727 C2.63680551,21.1617 2.68080551,21.0487 2.72580551,20.9357 C2.76080551,20.8487 2.81480551,20.8147 2.91580551,20.8147 C6.03080551,20.8167 9.14680551,20.8167 12.2628055,20.8127 C12.5148055,20.8117 12.7698055,20.7997 13.0178055,20.7587 C13.5438055,20.6707 13.9678055,20.4167 14.2168055,19.9267 C14.2958055,19.7717 14.3688055,19.6137 14.3598055,19.4277 C14.3508055,19.2217 14.2428055,19.0887 14.0798055,18.9987 C13.8958055,18.8977 13.6988055,18.8257 13.4828055,18.8167 C13.1758055,18.8037 12.8698055,18.7677 12.5628055,18.7677 L7.35318051,18.764825 L1.93880551,18.7657 L2.1933981,18.2185889 C2.23402773,18.1305889 2.27380551,18.0433667 2.31280551,17.9557 L2.49043051,17.546575 L2.49043051,17.546575 L2.66580551,17.1367 C2.72380551,16.9977 2.77980551,16.8577 2.84580551,16.7217 C2.87580551,16.6617 2.93280551,16.6387 3.00980551,16.6387 Z M9.02880551,22.7777 L6.89680551,22.7777 C6.80980551,22.7777 6.73980551,22.7827 6.75480551,22.8987 C6.75680551,22.9127 6.74180551,22.9307 6.73380551,22.9447 C6.68480551,23.0347 6.62980551,23.1207 6.59080551,23.2137 L6.40380551,23.6947 L6.40380551,23.6947 C6.33680551,23.8547 6.25280551,24.0067 6.18280551,24.1647 L5.85217588,24.941737 C5.84413884,24.9600333 5.83513884,24.9803667 5.82480551,25.0037 L6.02780551,25.0037 L6.02780551,25.0037 C7.44280551,24.9717 8.85880551,25.0687 10.2718055,24.9517 C10.4958055,24.9337 10.7208055,24.9227 10.9418055,24.8837 C11.0551388,24.8637 11.1635833,24.8205889 11.2733611,24.7828111 L11.4398055,24.7337 C11.6398055,24.6887 11.8128055,24.5877 11.9688055,24.4697 C12.1068055,24.3637 12.2298055,24.2287 12.3318055,24.0857 C12.4198055,23.9617 12.4848055,23.8137 12.5268055,23.6657 C12.5578055,23.5607 12.5368055,23.4457 12.4778055,23.3337 C12.3948055,23.1747 12.2768055,23.0657 12.1208055,23.0017 C12.0328055,22.9657 11.9403611,22.9394778 11.847324,22.9168111 L11.4350555,22.8192 C11.3438055,22.7992 11.2523055,22.7842 11.1608055,22.7837 L9.02880551,22.7777 L9.02880551,22.7777 Z" id="形状" fill="#014DA1"></path>
        </g>
    </g>
</svg>