<?xml version="1.0" encoding="UTF-8"?><svg id="Layer_1" xmlns="http://www.w3.org/2000/svg" viewBox="0 0 350 350"><defs><style>.cls-1{fill:#00aed4;}.cls-2{fill:#00758f;}.cls-3{fill:#0092b2;}.cls-4{fill:#f29111;}.cls-5{fill:#9be3f2;}</style></defs><polygon class="cls-1" points="316.58 66.14 316.58 66.25 332.43 49.89 316.59 49.89 316.59 66.14 316.58 66.14"/><path class="cls-3" d="M135.54,135.61L30.13,212.94H175v-37.85l-39.46-39.48Z"/><polygon class="cls-2" points="279.5 49.89 255.55 49.89 237.54 62.58 279.5 104.56 279.5 104.56 316.58 66.14 316.58 66.14 316.59 66.14 316.59 49.89 279.5 49.89"/><polygon class="cls-2" points="0 0 135.54 135.61 175 175.1 175 106.66 175 104.56 175 0 0 0"/><polygon class="cls-2" points="224.44 175.1 196.44 196.53 350 350 350 175.1 224.44 175.1"/><polygon class="cls-5" points="350 175.1 295.58 120.64 224.44 175.1 350 175.1"/><polygon class="cls-5" points="237.54 62.58 175 0 175 104.56 177.98 104.56 279.5 104.56 279.5 104.56 237.54 62.58"/><polygon class="cls-4" points="279.5 104.56 279.5 104.56 279.5 104.56 279.5 104.56"/><polygon class="cls-2" points="279.52 104.58 279.53 104.56 279.5 104.56 279.52 104.58"/><path class="cls-1" d="M279.53,104.56v.02s-.03-.02-.03-.02h-104.5v108.38l21.44-16.42,28-21.43,71.14-54.45,21.01-16.08h-37.05Z"/><polygon class="cls-5" points="279.53 104.56 316.58 104.56 316.58 66.25 288.34 95.42 279.53 104.56"/><polygon class="cls-2" points="288.34 95.42 316.58 66.25 316.58 66.14 288.34 95.42"/><polygon class="cls-2" points="279.53 104.56 288.34 95.42 279.5 104.56 279.5 104.56 279.53 104.56"/><polygon class="cls-2" points="316.58 66.14 316.58 66.14 279.5 104.56 288.34 95.42 316.58 66.14"/><polygon class="cls-2" points="279.5 104.56 279.5 104.56 279.5 104.56 279.5 104.56"/></svg>