<svg xmlns="http://www.w3.org/2000/svg" xmlns:xlink="http://www.w3.org/1999/xlink" viewBox="0 0 396.54 296.55"><defs><style>.cls-1{fill:url(#linear-gradient);}.cls-14,.cls-15,.cls-2,.cls-9{fill:none;}.cls-3{fill:url(#linear-gradient-2);}.cls-4{fill:#fff;}.cls-5{fill:url(#linear-gradient-3);}.cls-6{fill:url(#linear-gradient-4);}.cls-7{fill:url(#linear-gradient-5);}.cls-8{fill:url(#linear-gradient-6);}.cls-14,.cls-15,.cls-9{stroke-linecap:square;stroke-width:7.28px;}.cls-10,.cls-14,.cls-15,.cls-9{stroke-miterlimit:10;}.cls-9{stroke:url(#linear-gradient-7);}.cls-10,.cls-11{fill:#95bb3d;}.cls-10{stroke:#1a1b31;stroke-width:10.72px;}.cls-12{fill:url(#linear-gradient-9);}.cls-13{fill:url(#linear-gradient-10);}.cls-14{stroke:url(#linear-gradient-13);}.cls-15{stroke:url(#linear-gradient-14);}.cls-16{opacity:0.6;fill:url(#linear-gradient-15);}.cls-17{fill:url(#linear-gradient-16);}.cls-18{fill:url(#linear-gradient-17);}.cls-19{fill:#e5eca7;}.cls-20{fill:#f9fbeb;}</style><linearGradient id="linear-gradient" y1="148.28" x2="296.55" y2="148.28" gradientUnits="userSpaceOnUse"><stop offset="0" stop-color="#586382"/><stop offset="0.48" stop-color="#363954"/></linearGradient><linearGradient id="linear-gradient-2" x1="50.25" y1="106.1" x2="346.8" y2="106.1" gradientTransform="translate(-52.01 31.92) rotate(-0.81)" xlink:href="#linear-gradient"/><linearGradient id="linear-gradient-3" x1="792.46" y1="1966.32" x2="792.47" y2="1966.32" gradientTransform="matrix(46.99, -12.76, -11.33, -42.13, -14809.94, 93089.2)" gradientUnits="userSpaceOnUse"><stop offset="0" stop-color="#4f672f"/><stop offset="0.21" stop-color="#4f672f"/><stop offset="0.39" stop-color="#526b30"/><stop offset="0.56" stop-color="#5c7632"/><stop offset="0.73" stop-color="#6c8a35"/><stop offset="0.89" stop-color="#82a539"/><stop offset="1" stop-color="#95bb3d"/></linearGradient><linearGradient id="linear-gradient-4" x1="792.34" y1="1966.54" x2="792.34" y2="1966.54" xlink:href="#linear-gradient-3"/><linearGradient id="linear-gradient-5" x1="792.47" y1="1966.49" x2="792.47" y2="1966.49" xlink:href="#linear-gradient-3"/><linearGradient id="linear-gradient-6" x1="173.33" y1="168.83" x2="309.12" y2="168.83" gradientTransform="translate(-4.31 0.16) rotate(-0.08)" xlink:href="#linear-gradient-3"/><linearGradient id="linear-gradient-7" x1="139.52" y1="200.22" x2="289.37" y2="113.97" gradientTransform="translate(-4.31 0.16) rotate(-0.08)" gradientUnits="userSpaceOnUse"><stop offset="0" stop-color="#95bb3d"/><stop offset="0.21" stop-color="#759537" stop-opacity="0.86"/><stop offset="0.42" stop-color="#5a7431" stop-opacity="0.75"/><stop offset="0.52" stop-color="#4f672f" stop-opacity="0.7"/><stop offset="0.61" stop-color="#516a2f" stop-opacity="0.71"/><stop offset="0.7" stop-color="#587231" stop-opacity="0.74"/><stop offset="0.79" stop-color="#648033" stop-opacity="0.79"/><stop offset="0.88" stop-color="#759437" stop-opacity="0.86"/><stop offset="0.96" stop-color="#8aad3b" stop-opacity="0.95"/><stop offset="1" stop-color="#95bb3d"/></linearGradient><linearGradient id="linear-gradient-9" x1="50.25" y1="31.81" x2="346.8" y2="31.81" gradientTransform="translate(-52.01 31.92) rotate(-0.81)" xlink:href="#linear-gradient"/><linearGradient id="linear-gradient-10" x1="50.25" y1="50.89" x2="346.8" y2="50.89" gradientTransform="translate(-52.01 31.92) rotate(-0.81)" xlink:href="#linear-gradient"/><linearGradient id="linear-gradient-13" x1="135.49" y1="95.41" x2="309.55" y2="95.41" gradientTransform="translate(-4.31 0.16) rotate(-0.08)" gradientUnits="userSpaceOnUse"><stop offset="0" stop-color="#95bb3d"/><stop offset="1" stop-color="#95bb3d"/></linearGradient><linearGradient id="linear-gradient-14" x1="139.59" y1="141.3" x2="289.44" y2="55.05" xlink:href="#linear-gradient-7"/><linearGradient id="linear-gradient-15" x1="168.23" y1="94.36" x2="194.77" y2="94.36" gradientUnits="userSpaceOnUse"><stop offset="0" stop-color="#4f672f"/><stop offset="1" stop-color="#95bb3d"/></linearGradient><linearGradient id="linear-gradient-16" x1="68.34" y1="155" x2="400.33" y2="155" gradientTransform="translate(-4.31 0.16) rotate(-0.08)" xlink:href="#linear-gradient-3"/><linearGradient id="linear-gradient-17" x1="232.23" y1="147.75" x2="242.86" y2="187.96" gradientTransform="matrix(1, 0, 0, 1, 0, 0)" xlink:href="#linear-gradient-3"/></defs><title>newAsset 93</title><g id="Layer_2" data-name="Layer 2"><g id="Layer_1-2" data-name="Layer 1"><circle class="cls-1" cx="148.28" cy="148.28" r="148.28"/><path class="cls-2" d="M138.71,125.07c1.87-5.92,3-12.16,6.56-18.36C141.73,112.91,140.57,119.16,138.71,125.07Z"/><path class="cls-2" d="M143.64,135.25c.31,0,.63,0,1,0-.32,0-.65,0-1,0Z"/><path class="cls-3" d="M144.21,135.27c.12,0,.27,0,.39,0-.32,0-.65,0-1,0Z"/><path class="cls-4" d="M143.64,135.25h0l-.66,0Z"/><path class="cls-4" d="M139.74,134.59l-.13-.06a6.46,6.46,0,0,1-1.07-.53c-.12-.07-.21-.15-.32-.23a4,4,0,0,1-.59-.53l-.24-.3a3,3,0,0,1-.33-.65c0-.11-.28-.21-.3-.32,0,.11.17.21.21.32a3.24,3.24,0,0,0,.38.65,3.81,3.81,0,0,0,.27.3,4.15,4.15,0,0,0,.6.53c.1.08.21.16.32.23a6.51,6.51,0,0,0,1.07.53l.13.06a9.72,9.72,0,0,0,1.5.4l.5.08-.5-.08A9.71,9.71,0,0,1,139.74,134.59Z"/><line class="cls-5" x1="148.91" y1="138.62" x2="148.38" y2="138.71"/><line class="cls-6" x1="140.61" y1="131.28" x2="140.43" y2="130.74"/><path class="cls-7" d="M147.21,131.24"/><path class="cls-8" d="M183.71,191.73c-8.3,0-13.55-1.33-14.33-4.14-2-7.28,26.66-21.66,64.09-32.1,23-6.42,43.91-9.86,57.11-9.88,8.3,0,13.55,1.33,14.33,4.14,2,7.28-26.66,21.66-64.09,32.1-23,6.42-43.91,9.86-57.12,9.88"/><path class="cls-9" d="M135.64,190.21c8.3-41.28,46.72-72.52,92.9-72.58,28.62,0,54.28,11.9,71.67,30.81"/><path class="cls-10" d="M215.22,106.62"/><path class="cls-2" d="M138.71,125.07c1.87-5.92,3-12.16,6.56-18.36C141.73,112.91,140.57,119.16,138.71,125.07Z"/><path class="cls-2" d="M143.64,135.25c.31,0,.63,0,1,0-.32,0-.65,0-1,0Z"/><path class="cls-3" d="M144.21,135.27c.12,0,.27,0,.39,0-.32,0-.65,0-1,0Z"/><path class="cls-4" d="M143.64,135.25h0l-.66,0Z"/><path class="cls-4" d="M139.74,134.59l-.13-.06a6.46,6.46,0,0,1-1.07-.53c-.12-.07-.21-.15-.32-.23a4,4,0,0,1-.59-.53l-.24-.3a3,3,0,0,1-.33-.65c0-.11-.28-.21-.3-.32,0,.11.17.21.21.32a3.24,3.24,0,0,0,.38.65,3.81,3.81,0,0,0,.27.3,4.15,4.15,0,0,0,.6.53c.1.08.21.16.32.23a6.51,6.51,0,0,0,1.07.53l.13.06a9.72,9.72,0,0,0,1.5.4l.5.08-.5-.08A9.71,9.71,0,0,1,139.74,134.59Z"/><path class="cls-4" d="M138.68,125.07c1.81-5.92,2.87-12.16,6.4-18.36C141.54,112.91,140.49,119.16,138.68,125.07Z"/><path class="cls-11" d="M396,106.82c-.61-2.25-2.18-4.52-5.26-6.83a44.36,44.36,0,0,0-13.25-6.22c-11.39-3.55-27.43-5.49-46.17-5.48-5.7,0-11.65.17-17.8.53l-47.22,72.37L219,107l-2.41-1.11c-37.78,9.8-68.32,20.33-91.88,30.93-16,7.21-28.85,14.46-38.47,21.46S70.21,172,66.83,178a21.41,21.41,0,0,0-3.22,10.63,15.09,15.09,0,0,0,.53,4,16.43,16.43,0,0,0,4.7,7.64,33,33,0,0,0,10.64,6.46c9.31,3.76,23.15,6,41.24,6,29.1,0,69.16-5.73,119.85-18.9,5.34-1.39,10.49-2.79,15.55-4.21l1.43-.4c2.64-.74,5.25-1.49,7.81-2.23,1.95-.57,3.85-1.14,5.75-1.71l3.37-1c3.93-1.2,7.8-2.4,11.53-3.62,28.48-9.26,51.44-18.91,68.88-28.42s29.34-18.91,35.67-27.2c4.25-5.54,6-10.37,6-14.43A14.12,14.12,0,0,0,396,106.82Z"/><path class="cls-2" d="M152.89,95.71a94.24,94.24,0,0,1,48.29-32.27q3.5-1,7-1.69c.77-.16,1.55-.25,2.33-.39,1.57-.28,3.14-.56,4.71-.76.93-.12,1.86-.18,2.8-.28,1.41-.14,2.82-.29,4.22-.37,1-.06,2-.07,3-.1s2.14-.1,3.2-.1c-1.06,0-2.13.07-3.2.1s-2,0-3,.1c-1.41.08-2.82.23-4.23.37-.93.09-1.87.16-2.8.28-1.57.2-3.15.48-4.72.76-.78.14-1.56.24-2.34.39-2.35.47-4.71,1-7,1.69a94.31,94.31,0,0,0-52.74,38.34c-1.08,1.64-2.19,3.29-3.13,4.94.94-1.65,2.14-3.3,3.23-4.94C149.85,99.73,151.31,97.7,152.89,95.71Z"/><path class="cls-12" d="M229.33,59.77l-.89,0c-1.06,0-2.13.07-3.2.1C226.61,59.8,228,59.75,229.33,59.77Z"/><path class="cls-13" d="M152.89,95.71a94.26,94.26,0,0,1,48.29-32.27A94.24,94.24,0,0,0,152.89,95.71Z"/><path class="cls-2" d="M152.89,95.71a94.24,94.24,0,0,1,48.29-32.27q3.5-1,7-1.69c.77-.16,1.55-.25,2.33-.39,1.57-.28,3.14-.56,4.71-.76.93-.12,1.86-.18,2.8-.28,1.41-.14,2.82-.29,4.22-.37,1-.06,2-.07,3-.1s2.14-.1,3.2-.1c-1.06,0-2.13.07-3.2.1s-2,0-3,.1c-1.41.08-2.82.23-4.23.37-.93.09-1.87.16-2.8.28-1.57.2-3.15.48-4.72.76-.78.14-1.56.24-2.34.39-2.35.47-4.71,1-7,1.69a94.31,94.31,0,0,0-52.74,38.34c-1.08,1.64-2.19,3.29-3.13,4.94.94-1.65,2.14-3.3,3.23-4.94C149.85,99.73,151.31,97.7,152.89,95.71Z"/><path class="cls-12" d="M229.33,59.77l-.89,0c-1.06,0-2.13.07-3.2.1C226.61,59.8,228,59.75,229.33,59.77Z"/><path class="cls-13" d="M152.89,95.71a94.26,94.26,0,0,1,48.29-32.27A94.24,94.24,0,0,0,152.89,95.71Z"/><path class="cls-4" d="M287.23,95.75c.45-.17.89-.32,1.34-.5a23.42,23.42,0,0,0,2.17-1,14.06,14.06,0,0,0,4.55-3.54,5,5,0,0,0,1.12-2.46,2.92,2.92,0,0,0-.65-2.22,42.33,42.33,0,0,0-2.85-3.16c-.3-.31-.63-.62-1-.92q-1.17-1.12-2.44-2.21c-.37-.31-.73-.62-1.11-.93q-1.56-1.26-3.27-2.46l-.58-.43c-1.35-.93-2.77-1.82-4.25-2.7L279,72.51q-1.67-.94-3.43-1.84l-.64-.32A147.57,147.57,0,0,1,287.23,95.75Z"/><path class="cls-4" d="M274,69.89c-1.28-.61-2.59-1.21-3.93-1.77-.39-.17-.76-.34-1.15-.5q-2.58-1.06-5.3-2c-.46-.16-.93-.3-1.39-.45q-2.1-.69-4.26-1.31l-1.87-.51q-2.15-.56-4.37-1l-1.6-.36c-2-.4-4-.76-6-1.06l-1.18-.15q-2.52-.34-5.08-.57l-2-.15q-2.31-.16-4.64-.22c-.63,0-1.25,0-1.89,0-1.36,0-2.72,0-4.09.08-1,0-2,0-3,.1-1.41.08-2.82.23-4.22.37-.93.09-1.86.16-2.8.28-1.57.2-3.14.48-4.71.76-.78.14-1.55.24-2.33.39q-3.52.71-7,1.69a94.26,94.26,0,0,0-48.29,32.27c-1.58,2-3,4-4.4,6.07-1.08,1.64-2.28,3.29-3.23,4.94-3.53,6.19-4.69,12.44-6.56,18.36a44.93,44.93,0,0,1-2.22,5.79v0a4.62,4.62,0,0,0,.26,1.08c0,.11.26.21.3.32a2.51,2.51,0,0,1-.12-.32,3,3,0,0,1-.07-1.08,3,3,0,0,0,.07,1.08,2.51,2.51,0,0,0,.12.32,3,3,0,0,0,.33.65l.24.3a4,4,0,0,0,.59.53c.1.08.2.16.32.23a6.46,6.46,0,0,0,1.07.53l.13.06a9.71,9.71,0,0,0,1.5.4l.5.08c.4.06.82.11,1.26.14l.66,0c.31,0,.63,0,1,0a23,23,0,0,0,3.2-.26c1-.16,2-.35,3-.56,8.88-1.89,16.25-5.66,29-10.72,1.42-.56,2.91-1.14,4.47-1.73,3.13-1.18,6.56-2.43,10.38-3.73,5.72-2,12.31-4,20-6.19,10.27-2.89,18.94-5,26.44-6.54,3.75-.79,7.21-1.45,10.43-2l4.66-.83,8.4-1.42c2.62-.44,5.09-.87,7.44-1.33a98.16,98.16,0,0,0,12.49-3.17c.66-.22,1.32-.46,2-.7l.67-.25a147.57,147.57,0,0,0-12.29-25.4Z"/><path class="cls-4" d="M313.24,83.47c-10.12-12.58-33.8-28.77-53.59-33.95a148.56,148.56,0,0,1,15.27,20.79l.66.35q1.76.89,3.43,1.84l1.28.72c1.47.87,2.9,1.77,4.25,2.7l.58.43q1.71,1.21,3.27,2.46c.38.31.75.62,1.11.93Q290.79,80.83,292,82c.32.31.65.61,1,.92A42.33,42.33,0,0,1,295.76,86a2.92,2.92,0,0,1,.65,2.22,5,5,0,0,1-1.12,2.46,14.06,14.06,0,0,1-4.55,3.54,23.42,23.42,0,0,1-2.17,1c-.45.18-.89.33-1.34.5q2.47,6.68,4.31,13.65c.78-.29,1.56-.57,2.36-.89,8.66-3.48,20.32-9.21,22.13-16.14C317.45,87,316.72,87.79,313.24,83.47Z"/><path class="cls-4" d="M286.56,96c-.66.24-1.32.48-2,.7a98.16,98.16,0,0,1-12.49,3.17c-2.36.46-4.82.89-7.44,1.33l-8.4,1.42-4.66.83c-3.22.59-6.68,1.25-10.43,2-7.5,1.58-16.18,3.64-26.44,6.54-7.7,2.17-14.28,4.24-20,6.19-3.82,1.3-7.25,2.55-10.38,3.73-1.56.59-3.05,1.17-4.47,1.73-12.79,5.06-20.16,8.83-29,10.72-1,.21-2,.4-3,.56a23,23,0,0,1-3.2.26c-.12,0-.27,0-.39,0l-.57,0h0l-.66,0c-.44,0-.85-.08-1.26-.14l-.5-.08a9.72,9.72,0,0,1-1.5-.4l-.13-.06a6.51,6.51,0,0,1-1.07-.53c-.12-.07-.22-.16-.32-.23a4.15,4.15,0,0,1-.6-.53,3.81,3.81,0,0,1-.27-.3,3.24,3.24,0,0,1-.38-.65c0-.11-.18-.21-.21-.32a4.62,4.62,0,0,1-.26-1.08v0a42.34,42.34,0,0,0,2.19-5.79c1.81-5.92,2.87-12.16,6.4-18.36-3.53,6.19-4.59,12.44-6.4,18.36a42.34,42.34,0,0,1-2.19,5.79,44.93,44.93,0,0,0,2.22-5.79c1.86-5.92,3-12.16,6.56-18.36.94-1.65,2-3.3,3.13-4.94a94.31,94.31,0,0,1,52.74-38.34c2.33-.66,4.69-1.21,7-1.69.77-.16,1.56-.25,2.34-.39,1.57-.28,3.15-.56,4.72-.76.93-.12,1.87-.18,2.8-.28,1.41-.14,2.82-.29,4.23-.37,1-.06,2-.07,3-.1s2.14-.1,3.2-.1l.89,0,1.89,0q2.33.07,4.64.22l2,.15q2.56.23,5.08.57l1.18.15c2,.3,4.05.66,6,1.06l1.6.36q2.21.48,4.37,1l1.87.51q2.16.61,4.26,1.31c.46.15.93.29,1.39.45q2.72.93,5.3,2c.39.16.77.34,1.15.5,1.34.57,2.65,1.16,3.93,1.77l.9.42a148.56,148.56,0,0,0-15.27-20.79,123.83,123.83,0,0,0-31.22-4.07,114.7,114.7,0,0,0-31.14,4.23C153.4,62.06,126.54,99,122.68,129c-.63,4.93-1.25,9.61,2,13.34,2.77,3.14,10.17,7.18,19.5,7.18a37.45,37.45,0,0,0,5.81-.47c9.43-1.49,16.63-4.49,25.75-8.29a338.24,338.24,0,0,1,42.83-15,390.21,390.21,0,0,1,45.61-10c10.25-1.72,18.53-3.14,27.34-6.38q-1.83-7-4.31-13.65Z"/><path class="cls-4" d="M242.95,60.75q-2.52-.34-5.08-.57l-2-.15,2,.15Q240.43,60.41,242.95,60.75Z"/><path class="cls-4" d="M235.86,60q-2.3-.15-4.64-.22l-1.89,0c.63,0,1.26,0,1.89,0Q233.55,59.87,235.86,60Z"/><path class="cls-4" d="M275.59,70.67l-.66-.35,0,0Z"/><path class="cls-4" d="M274.95,70.35l0,0-.9-.42Z"/><path class="cls-11" d="M190.08,80.29a35.74,35.74,0,0,0-9.56,4.91,29.73,29.73,0,0,0-12.31,18.35,3.57,3.57,0,0,0,7,1.42A22.56,22.56,0,0,1,184.68,91,31.13,31.13,0,0,1,190,88c.7-.31,1.27-.53,1.65-.67l.42-.15.09,0h0a3.57,3.57,0,1,0-2.06-6.84Z"/><path class="cls-14" d="M135.64,131.29c8.3-41.28,46.72-72.52,92.9-72.58,28.62,0,54.28,11.9,71.67,30.81"/><path class="cls-15" d="M135.64,131.29c8.3-41.28,46.72-72.52,92.9-72.58,28.62,0,54.28,11.9,71.67,30.81"/><path class="cls-11" d="M190.08,80.29a35.74,35.74,0,0,0-9.56,4.91,29.73,29.73,0,0,0-12.31,18.35,3.57,3.57,0,0,0,7,1.42A22.56,22.56,0,0,1,184.68,91,31.13,31.13,0,0,1,190,88c.7-.31,1.27-.53,1.65-.67l.42-.15.09,0h0a3.57,3.57,0,1,0-2.06-6.84Z"/><path class="cls-16" d="M190.17,80.66a35.74,35.74,0,0,0-9.56,4.91,29.73,29.73,0,0,0-12.31,18.35,3.57,3.57,0,0,0,7,1.42,22.56,22.56,0,0,1,9.46-13.95,31.13,31.13,0,0,1,5.31-3c.7-.31,1.27-.53,1.65-.67l.42-.15.09,0h0a3.57,3.57,0,1,0-2.06-6.84Z"/><path class="cls-11" d="M396,106.82c-.61-2.25-2.18-4.52-5.26-6.83a44.36,44.36,0,0,0-13.25-6.22,127.63,127.63,0,0,0-26.63-4.71c-28.48-4.48-72.3.95-134,17-98.52,25.62-135,50.18-141.6,73.13,23.48-17.87,81.52-43.93,144.44-59.75,18.6-4.68,52-11.72,84.73-16.7L246,192.32c14.34-3.82,27.71-7.73,40-11.73,28.48-9.26,51.44-18.91,68.88-28.42s29.34-18.91,35.67-27.2c4.25-5.54,6-10.37,6-14.43A14.12,14.12,0,0,0,396,106.82Z"/><path class="cls-4" d="M83.27,262.24l8-2.86a4.31,4.31,0,1,0-2.9-8.12l-8,2.86a4.31,4.31,0,1,0,2.9,8.12"/><path class="cls-17" d="M64.63,194.19c-6.11-13.29,70.08-53.39,155.12-74.77,42.88-10.78,164.38-34.18,175.12-15.82,14.25,42.76-93,73.63-132.27,84.64C225.34,198.7,178.43,208.45,159,209.82,148.28,210.57,77.55,222.27,64.63,194.19Z"/><path class="cls-11" d="M149.66,185.62c3.69,13.57,35.81,17.2,93,2.34s83.37-33.23,79.68-46.8-34.73-17.64-92-2.78S146,172.05,149.66,185.62"/><path class="cls-18" d="M242.72,188c50-12.91,76.22-28.65,79.62-41.45-10.29-8.86-32-14.11-89.27,1-49.93,13.17-76.43,30.72-79.82,43.51C163.54,199.9,192.19,201,242.72,188Z"/><path class="cls-19" d="M304.91,149.75c2,7.28-26.66,21.66-64.09,32.1s-69.42,13-71.45,5.74,26.66-21.66,64.09-32.1,69.42-13,71.45-5.73"/><path class="cls-20" d="M276.54,152.63c-9.19,0-23.75,2.41-39.74,6.87-26,7.27-46,17.27-44.59,22.34.55,2,4.2,2.89,10,2.88,9.19,0,23.75-2.41,39.74-6.87,26-7.27,46-17.27,44.59-22.34-.55-2-4.2-2.89-10-2.88"/><path class="cls-4" d="M44.06,245.61l-5.79,2.08c2.17,2.4,4.44,4.71,6.76,7l2-.72a4.42,4.42,0,1,0-3-8.32Z"/><path class="cls-4" d="M243.26,204.16c-22.22,5.77-42.47,10.14-60.76,13.26L110,243.52a4.31,4.31,0,0,0,2.92,8.11L248.81,202.7Z"/><path class="cls-4" d="M71.43,214.81c-.53-.26-1-.55-1.53-.82l-9.15,3.25a4.31,4.31,0,0,0,2.88,8.13L82,218.84A64.41,64.41,0,0,1,71.43,214.81Z"/><path class="cls-4" d="M120.72,223.4c-4.7,0-9.15-.15-13.37-.43L62,239.21a4.42,4.42,0,1,0,3,8.32l68.24-24.45Q126.71,223.4,120.72,223.4Z"/></g></g></svg>