<?xml version="1.0" encoding="utf-8"?>
<!-- Generator: Adobe Illustrator 16.0.3, SVG Export Plug-In . SVG Version: 6.00 Build 0)  -->
<!DOCTYPE svg PUBLIC "-//W3C//DTD SVG 1.1//EN" "http://www.w3.org/Graphics/SVG/1.1/DTD/svg11.dtd">
<svg version="1.1" id="레이어_1" xmlns="http://www.w3.org/2000/svg" xmlns:xlink="http://www.w3.org/1999/xlink" x="0px"
	 y="0px" width="109.869px" height="56.693px" viewBox="0 0 109.869 56.693" enable-background="new 0 0 109.869 56.693"
	 xml:space="preserve">
<g>
	<g>
		<path d="M20.921,44.1c-0.247,1.473-0.555,2.959-0.921,4.449c-0.369,1.495-1.039,2.844-2.003,4.059
			c-0.969,1.211-2.337,2.195-4.111,2.95c-1.774,0.756-4.188,1.135-7.245,1.135c-0.773,0-1.467-0.02-2.08-0.056
			c-0.615-0.034-1.179-0.086-1.688-0.157c-0.51-0.072-0.993-0.143-1.45-0.213C0.966,56.199,0.495,56.112,0,56.006l1.372-8.113
			c0.596,0.104,1.247,0.199,1.948,0.288c0.703,0.09,1.408,0.132,2.108,0.132c0.245,0,0.562-0.017,0.949-0.055
			c0.388-0.032,0.782-0.119,1.187-0.262c0.402-0.139,0.799-0.352,1.185-0.633c0.385-0.279,0.703-0.649,0.949-1.107
			c0.175-0.279,0.314-0.534,0.42-0.764c0.106-0.224,0.194-0.524,0.264-0.894c0.07-0.37,0.157-0.844,0.262-1.423
			c0.108-0.578,0.248-1.36,0.423-2.345l3.321-19.972H24.82L20.921,44.1z"/>
	</g>
	<polygon points="47.267,56.006 23.502,56.006 29.35,20.86 52.481,20.86 51.162,28.554 38.257,28.554 37.361,34.086 49.954,34.086 
		48.689,41.727 36.042,41.727 35.04,47.946 48.634,47.946 	"/>
	<g>
		<path d="M82.308,42.463c-0.426,2.495-0.892,4.488-1.399,5.981c-0.508,1.492-1.308,2.785-2.395,3.872
			c-0.846,0.879-1.785,1.591-2.819,2.136c-1.037,0.542-2.081,0.975-3.134,1.291c-1.055,0.315-2.082,0.523-3.087,0.631
			c-1,0.104-1.923,0.158-2.765,0.158c-0.421,0-1.021-0.023-1.788-0.08c-0.775-0.051-1.619-0.163-2.532-0.341
			c-0.915-0.177-1.843-0.439-2.792-0.793c-0.948-0.349-1.848-0.823-2.687-1.42c-0.391-0.247-0.784-0.596-1.188-1.056
			c-0.404-0.455-0.774-1.008-1.105-1.657c-0.332-0.649-0.618-1.379-0.842-2.188c-0.229-0.811-0.345-1.722-0.345-2.743
			c0-0.349,0.024-0.868,0.08-1.553c0.056-0.686,0.149-1.431,0.29-2.239l3.585-21.604h10.695l-3.584,21.646
			c-0.035,0.142-0.096,0.511-0.186,1.109c-0.084,0.601-0.131,1.109-0.131,1.531c0,0.632,0.142,1.171,0.422,1.609
			c0.279,0.441,0.634,0.799,1.051,1.081c0.426,0.284,0.898,0.484,1.424,0.608c0.53,0.122,1.04,0.183,1.527,0.183
			c1.056,0,1.91-0.174,2.56-0.526c0.647-0.352,1.147-0.802,1.502-1.346c0.35-0.543,0.614-1.159,0.788-1.846
			c0.176-0.688,0.315-1.364,0.42-2.034l3.64-22.016h8.43L82.308,42.463z"/>
		<path d="M84.735,53.686l1.634-7.904c0.839,1.022,1.805,1.839,2.896,2.454c1.088,0.613,2.316,0.922,3.689,0.922
			c2.634,0,3.949-1.231,3.949-3.691c0-0.879-0.334-1.711-1.009-2.501c-0.67-0.792-1.445-1.52-2.332-2.187
			c-1.907-1.439-3.301-2.848-4.185-4.215c-0.882-1.374-1.327-2.829-1.327-4.374c0-1.583,0.354-3.083,1.058-4.504
			c0.711-1.422,1.689-2.689,2.941-3.796c1.255-1.107,2.719-1.984,4.395-2.637c1.676-0.649,3.48-0.972,5.415-0.972
			c1.477,0,2.88,0.208,4.213,0.632c1.339,0.419,2.603,1.09,3.796,2.003l-1.633,7.797c-0.704-0.843-1.483-1.519-2.347-2.028
			c-0.859-0.51-1.889-0.763-3.08-0.763c-1.335,0-2.293,0.358-2.872,1.079c-0.58,0.722-0.87,1.572-0.87,2.554
			c0,1.129,0.315,2.005,0.95,2.638c0.63,0.633,1.457,1.389,2.477,2.264c0.732,0.668,1.402,1.301,2.002,1.899
			c0.595,0.596,1.104,1.22,1.528,1.868c0.42,0.649,0.735,1.363,0.949,2.138c0.208,0.77,0.313,1.647,0.313,2.633
			c0,1.405-0.31,2.789-0.926,4.164c-0.613,1.37-1.496,2.6-2.659,3.686c-1.158,1.089-2.591,1.969-4.293,2.638
			c-1.704,0.665-3.627,0.999-5.77,0.999c-1.758,0-3.37-0.213-4.851-0.629C87.315,55.427,85.963,54.707,84.735,53.686"/>
	</g>
	<polygon points="57.302,14.559 56.688,14.559 56.496,11.845 55.339,14.559 54.731,14.559 54.473,10.876 55.009,10.876 
		55.196,13.672 56.348,10.879 56.976,10.879 57.159,13.667 58.33,10.876 58.865,10.876 	"/>
	<g>
		<path d="M60.487,12.951c0.01-0.198-0.038-0.361-0.146-0.486c-0.107-0.125-0.266-0.187-0.476-0.187c-0.2,0-0.377,0.061-0.53,0.18
			c-0.153,0.122-0.27,0.285-0.343,0.494H60.487z M58.909,13.415c-0.015,0.209,0.037,0.383,0.147,0.531
			c0.118,0.147,0.273,0.223,0.475,0.223c0.191,0,0.348-0.047,0.471-0.132c0.122-0.089,0.202-0.17,0.237-0.245h0.608
			c-0.09,0.19-0.25,0.382-0.478,0.579c-0.227,0.198-0.532,0.298-0.918,0.298c-0.396,0-0.697-0.141-0.906-0.422
			c-0.207-0.279-0.276-0.619-0.207-1.022c0.073-0.409,0.261-0.752,0.56-1.029c0.296-0.275,0.65-0.414,1.061-0.414
			c0.354,0,0.648,0.132,0.882,0.397c0.236,0.262,0.291,0.677,0.169,1.236H58.909z"/>
		<path d="M63.239,13.902c0.162-0.17,0.268-0.39,0.315-0.661c0.047-0.275,0.022-0.495-0.082-0.664
			c-0.103-0.171-0.274-0.255-0.515-0.255c-0.237,0-0.433,0.08-0.595,0.244c-0.158,0.163-0.261,0.387-0.314,0.675
			c-0.052,0.282-0.023,0.505,0.079,0.67c0.102,0.164,0.269,0.246,0.507,0.246C62.877,14.157,63.078,14.074,63.239,13.902
			 M63.989,12.208c0.188,0.262,0.244,0.607,0.167,1.033c-0.072,0.419-0.25,0.761-0.53,1.027c-0.281,0.265-0.608,0.4-0.982,0.4
			c-0.162,0-0.308-0.031-0.439-0.095c-0.131-0.059-0.245-0.147-0.343-0.259l-0.047,0.25h-0.562l0.653-3.688h0.562l-0.228,1.282
			c0.138-0.115,0.282-0.199,0.435-0.255c0.151-0.058,0.308-0.087,0.47-0.087C63.52,11.816,63.799,11.949,63.989,12.208"/>
	</g>
	<path d="M68.15,11.512l-0.927,1.641h1.283L68.15,11.512z M68.82,14.564l-0.201-0.885h-1.7l-0.507,0.885H65.84l2.097-3.684h0.644
		l0.812,3.684H68.82z"/>
	<g>
		<path d="M71.678,13.902c0.161-0.167,0.27-0.39,0.317-0.671c0.048-0.287,0.024-0.511-0.079-0.671
			c-0.104-0.166-0.274-0.247-0.518-0.247c-0.235,0-0.434,0.082-0.592,0.247c-0.161,0.161-0.266,0.384-0.315,0.671
			c-0.052,0.281-0.025,0.505,0.074,0.671c0.104,0.165,0.272,0.251,0.51,0.251C71.315,14.153,71.518,14.067,71.678,13.902
			 M72.432,12.19c0.188,0.256,0.244,0.602,0.166,1.04c-0.075,0.437-0.254,0.785-0.533,1.042c-0.28,0.26-0.607,0.389-0.981,0.389
			c-0.162,0-0.309-0.029-0.439-0.089c-0.131-0.061-0.245-0.148-0.344-0.26l-0.171,0.973h-0.563l0.594-3.369h0.563l-0.04,0.227
			c0.136-0.114,0.281-0.198,0.433-0.255c0.151-0.057,0.312-0.085,0.473-0.085C71.963,11.802,72.244,11.931,72.432,12.19"/>
		<path d="M74.782,13.902c0.16-0.167,0.267-0.39,0.316-0.671c0.051-0.287,0.024-0.511-0.078-0.671
			c-0.106-0.166-0.276-0.247-0.518-0.247c-0.237,0-0.434,0.082-0.594,0.247c-0.159,0.161-0.266,0.384-0.316,0.671
			c-0.048,0.281-0.023,0.505,0.08,0.671c0.098,0.165,0.269,0.251,0.506,0.251C74.418,14.153,74.621,14.067,74.782,13.902
			 M75.534,12.19c0.19,0.256,0.244,0.602,0.168,1.04c-0.078,0.437-0.256,0.785-0.535,1.042c-0.28,0.26-0.607,0.389-0.979,0.389
			c-0.163,0-0.311-0.029-0.441-0.089c-0.132-0.061-0.245-0.148-0.343-0.26l-0.172,0.973h-0.562l0.595-3.369h0.562l-0.04,0.227
			c0.136-0.114,0.283-0.198,0.435-0.255c0.151-0.057,0.308-0.085,0.47-0.085C75.063,11.802,75.345,11.931,75.534,12.19"/>
	</g>
	<polygon points="76.549,10.876 75.9,14.554 76.453,14.554 77.1,10.876 	"/>
	<path d="M77.55,11.889l-0.469,2.665h0.552l0.47-2.665H77.55z M77.732,10.876l-0.099,0.543h0.558l0.097-0.543H77.732z"/>
	<g>
		<path d="M80.397,12.765c-0.005-0.094-0.052-0.191-0.137-0.298c-0.084-0.105-0.233-0.159-0.437-0.159
			c-0.24,0-0.438,0.085-0.602,0.258c-0.162,0.172-0.266,0.394-0.314,0.665s-0.02,0.493,0.081,0.667
			c0.106,0.176,0.273,0.262,0.509,0.262c0.181,0,0.335-0.051,0.467-0.149c0.134-0.097,0.219-0.201,0.262-0.312h0.601
			c-0.101,0.235-0.274,0.461-0.52,0.662c-0.242,0.206-0.546,0.309-0.906,0.309c-0.417,0-0.718-0.139-0.909-0.416
			c-0.194-0.275-0.254-0.62-0.184-1.022c0.072-0.406,0.255-0.75,0.542-1.024c0.289-0.273,0.641-0.41,1.057-0.41
			c0.364,0,0.637,0.106,0.817,0.316c0.181,0.213,0.275,0.43,0.278,0.652H80.397z"/>
		<path d="M83.073,13.251c-0.047,0.02-0.091,0.037-0.139,0.051c-0.047,0.012-0.096,0.029-0.146,0.041
			c-0.112,0.026-0.246,0.046-0.403,0.064c-0.154,0.021-0.275,0.044-0.364,0.07c-0.139,0.044-0.247,0.097-0.331,0.158
			c-0.084,0.066-0.124,0.155-0.121,0.274c0.002,0.122,0.064,0.196,0.183,0.222c0.119,0.027,0.238,0.033,0.356,0.023
			c0.252-0.034,0.458-0.116,0.63-0.248c0.17-0.133,0.265-0.263,0.286-0.39L83.073,13.251z M82.93,14.554
			c-0.014-0.036-0.024-0.083-0.034-0.139c-0.006-0.055-0.009-0.114-0.002-0.18c-0.12,0.102-0.271,0.189-0.446,0.269
			c-0.174,0.083-0.362,0.13-0.557,0.148c-0.263,0.021-0.487-0.024-0.668-0.134c-0.181-0.114-0.266-0.292-0.254-0.536
			c0.009-0.242,0.09-0.441,0.249-0.593c0.156-0.15,0.344-0.257,0.556-0.319c0.167-0.048,0.334-0.078,0.5-0.088
			c0.166-0.011,0.326-0.029,0.479-0.051c0.078-0.017,0.165-0.039,0.258-0.065c0.09-0.03,0.144-0.097,0.164-0.204
			c0.016-0.093-0.021-0.18-0.103-0.261c-0.086-0.08-0.241-0.12-0.463-0.12c-0.218,0-0.393,0.047-0.524,0.136
			c-0.129,0.09-0.203,0.201-0.213,0.326h-0.536c0.024-0.284,0.17-0.51,0.439-0.683c0.271-0.169,0.574-0.253,0.911-0.253
			c0.319,0,0.588,0.077,0.806,0.229c0.217,0.153,0.3,0.368,0.252,0.647l-0.256,1.436c-0.02,0.116-0.024,0.219-0.009,0.296
			c0.01,0.082,0.02,0.128,0.021,0.137H82.93z"/>
		<path d="M84.637,14.569c-0.104,0-0.187-0.021-0.255-0.063c-0.066-0.043-0.121-0.092-0.167-0.146
			c-0.045-0.063-0.069-0.131-0.075-0.208c-0.007-0.077,0-0.183,0.025-0.312l0.252-1.444h-0.319l0.082-0.469h0.32l0.146-0.819h0.565
			l-0.139,0.813h0.381l-0.083,0.475h-0.381l-0.24,1.36c-0.009,0.054-0.019,0.104-0.027,0.146c-0.008,0.044,0.007,0.088,0.047,0.126
			c0.041,0.033,0.088,0.051,0.143,0.062c0.055,0.006,0.107,0.012,0.157,0.012l-0.081,0.468H84.637z"/>
	</g>
	<path d="M85.922,11.889l-0.468,2.665h0.55l0.468-2.665H85.922z M86.103,10.876l-0.097,0.543h0.558l0.096-0.543H86.103z"/>
	<g>
		<path d="M88.462,13.899c0.167-0.176,0.273-0.398,0.323-0.669c0.049-0.271,0.018-0.494-0.09-0.663
			c-0.104-0.169-0.271-0.255-0.506-0.255c-0.231,0-0.43,0.086-0.592,0.255c-0.165,0.169-0.271,0.393-0.318,0.663
			c-0.048,0.271-0.019,0.493,0.083,0.669c0.103,0.176,0.271,0.264,0.502,0.264C88.098,14.164,88.295,14.075,88.462,13.899
			 M89.199,12.208c0.197,0.272,0.262,0.615,0.189,1.022c-0.072,0.405-0.255,0.747-0.548,1.022c-0.296,0.276-0.65,0.416-1.066,0.416
			c-0.411,0-0.716-0.139-0.909-0.416c-0.194-0.275-0.257-0.617-0.183-1.022c0.071-0.408,0.256-0.75,0.543-1.022
			c0.29-0.271,0.641-0.405,1.056-0.405C88.694,11.803,89.002,11.938,89.199,12.208"/>
		<path d="M91.39,14.564l0.271-1.559c0.036-0.227,0.021-0.389-0.053-0.492c-0.074-0.099-0.203-0.151-0.393-0.151
			c-0.202,0-0.372,0.067-0.52,0.199c-0.146,0.129-0.237,0.298-0.276,0.51l-0.262,1.493h-0.561l0.464-2.644h0.563l-0.044,0.238
			c0.132-0.104,0.281-0.19,0.447-0.263c0.165-0.074,0.354-0.094,0.569-0.069c0.284,0.028,0.475,0.145,0.571,0.351
			c0.095,0.203,0.127,0.399,0.095,0.583l-0.317,1.803H91.39z"/>
		<path d="M97.139,13.039c0.083,0.183,0.092,0.383,0.025,0.604c-0.083,0.281-0.265,0.531-0.54,0.749
			c-0.275,0.213-0.632,0.323-1.07,0.323c-0.488,0-0.831-0.151-1.019-0.454c-0.191-0.302-0.261-0.617-0.205-0.938h0.564
			c-0.038,0.264,0.013,0.476,0.158,0.634c0.143,0.16,0.341,0.236,0.592,0.236c0.253,0,0.454-0.056,0.601-0.166
			c0.146-0.107,0.252-0.242,0.313-0.4c0.056-0.128,0.056-0.234,0.001-0.322c-0.053-0.088-0.14-0.164-0.26-0.224
			c-0.145-0.081-0.307-0.128-0.488-0.14c-0.181-0.013-0.357-0.059-0.528-0.134c-0.229-0.1-0.399-0.228-0.504-0.382
			c-0.101-0.155-0.123-0.354-0.064-0.609c0.056-0.244,0.212-0.479,0.47-0.708c0.257-0.229,0.604-0.345,1.04-0.345
			c0.51,0,0.833,0.15,0.974,0.45c0.143,0.307,0.191,0.562,0.145,0.774h-0.561c0.03-0.191-0.006-0.357-0.104-0.498
			c-0.099-0.144-0.279-0.211-0.544-0.211c-0.244,0-0.434,0.059-0.568,0.177c-0.134,0.118-0.214,0.245-0.24,0.374
			c-0.031,0.149-0.005,0.259,0.078,0.334c0.08,0.07,0.174,0.13,0.277,0.165c0.126,0.047,0.289,0.083,0.488,0.112
			c0.2,0.033,0.387,0.094,0.567,0.187C96.922,12.72,97.055,12.856,97.139,13.039"/>
		<path d="M99.677,12.951c0.011-0.198-0.038-0.361-0.145-0.486c-0.111-0.125-0.27-0.187-0.479-0.187c-0.2,0-0.376,0.061-0.529,0.18
			c-0.152,0.122-0.268,0.285-0.342,0.494H99.677z M98.101,13.415c-0.016,0.209,0.032,0.383,0.147,0.531
			c0.114,0.147,0.273,0.223,0.473,0.223c0.191,0,0.349-0.047,0.472-0.132c0.121-0.089,0.2-0.17,0.237-0.245h0.608
			c-0.09,0.19-0.252,0.382-0.479,0.579c-0.229,0.198-0.532,0.298-0.918,0.298c-0.396,0-0.698-0.141-0.904-0.422
			c-0.207-0.279-0.277-0.619-0.207-1.022c0.072-0.409,0.257-0.752,0.555-1.029c0.3-0.275,0.651-0.414,1.062-0.414
			c0.356,0,0.651,0.132,0.885,0.397c0.236,0.262,0.292,0.677,0.165,1.236H98.101z"/>
		<path d="M102.27,12.364c-0.095,0-0.181,0.005-0.253,0.018c-0.074,0.011-0.148,0.039-0.228,0.076
			c-0.151,0.073-0.271,0.179-0.363,0.313c-0.094,0.132-0.158,0.308-0.198,0.531l-0.222,1.263h-0.563l0.47-2.66h0.562l-0.059,0.336
			c0.07-0.082,0.146-0.152,0.234-0.216c0.091-0.064,0.186-0.117,0.288-0.156c0.08-0.035,0.168-0.055,0.265-0.062
			c0.099-0.009,0.154-0.013,0.167-0.016L102.27,12.364z"/>
	</g>
	<polygon points="103.759,14.559 103.115,14.559 102.576,11.915 103.153,11.915 103.558,13.884 104.657,11.915 105.234,11.915 	"/>
	<g>
		<path d="M107.173,12.951c0.013-0.198-0.035-0.361-0.146-0.486c-0.107-0.125-0.267-0.187-0.477-0.187
			c-0.199,0-0.375,0.061-0.526,0.18c-0.156,0.122-0.27,0.285-0.346,0.494H107.173z M105.598,13.415
			c-0.015,0.209,0.033,0.383,0.148,0.531c0.113,0.147,0.274,0.223,0.471,0.223c0.193,0,0.351-0.047,0.472-0.132
			c0.124-0.089,0.203-0.17,0.24-0.245h0.608c-0.091,0.19-0.252,0.382-0.479,0.579c-0.229,0.198-0.533,0.298-0.918,0.298
			c-0.396,0-0.697-0.141-0.906-0.422c-0.208-0.279-0.277-0.619-0.206-1.022c0.071-0.409,0.258-0.752,0.555-1.029
			c0.299-0.275,0.651-0.414,1.059-0.414c0.361,0,0.654,0.132,0.887,0.397c0.235,0.262,0.29,0.677,0.166,1.236H105.598z"/>
		<path d="M109.767,12.364c-0.095,0-0.181,0.005-0.253,0.018c-0.071,0.011-0.148,0.039-0.228,0.076
			c-0.152,0.073-0.271,0.179-0.363,0.313c-0.093,0.132-0.158,0.308-0.198,0.531l-0.223,1.263h-0.562l0.47-2.66h0.56l-0.058,0.336
			c0.071-0.082,0.147-0.152,0.234-0.216c0.091-0.064,0.186-0.117,0.289-0.156c0.08-0.035,0.165-0.055,0.266-0.062
			c0.096-0.009,0.153-0.013,0.167-0.016L109.767,12.364z"/>
	</g>
	<polygon points="12.339,14.894 8.042,14.894 9.958,3.407 6.776,3.407 7.35,0 18.105,0 17.525,3.407 14.253,3.407 	"/>
	<g>
		<path d="M21.154,3.919l-0.112,0.824c0.3-0.371,0.668-0.656,1.101-0.857c0.441-0.2,0.996-0.303,1.661-0.303
			c0.67,0,1.195,0.167,1.581,0.504c0.385,0.334,0.668,0.694,0.846,1.079c0.104-0.165,0.232-0.333,0.391-0.512
			c0.155-0.179,0.339-0.342,0.556-0.491c0.215-0.147,0.467-0.268,0.754-0.366c0.292-0.096,0.631-0.145,1.016-0.145
			c0.831,0,1.493,0.271,1.99,0.813c0.501,0.542,0.749,1.279,0.749,2.214c0,0.194-0.011,0.39-0.034,0.59
			c-0.021,0.201-0.041,0.36-0.055,0.479l-1.027,7.146h-3.538l0.98-6.746c0.012-0.104,0.029-0.228,0.044-0.378
			c0.016-0.148,0.022-0.275,0.022-0.379c0-0.193-0.049-0.401-0.147-0.624c-0.091-0.223-0.298-0.332-0.611-0.332
			c-0.188,0-0.388,0.081-0.589,0.243c-0.198,0.164-0.36,0.357-0.478,0.581l-1.093,7.634h-3.448l0.979-6.724
			c0.029-0.118,0.051-0.26,0.064-0.421c0.021-0.164,0.026-0.305,0.026-0.424c0-0.222-0.039-0.395-0.113-0.523
			c-0.073-0.125-0.158-0.217-0.244-0.276c-0.09-0.062-0.176-0.099-0.255-0.115c-0.082-0.012-0.134-0.021-0.147-0.021
			c-0.205,0-0.401,0.063-0.575,0.189C21.267,6.707,21.119,6.865,21,7.058l-1.16,7.836h-3.426l1.58-10.975H21.154z"/>
		<path d="M36.517,12.512c0.489,0,0.869-0.134,1.134-0.399l0.399-2.427c-0.267,0.031-0.526,0.092-0.778,0.189
			c-0.25,0.097-0.477,0.223-0.68,0.378c-0.198,0.156-0.358,0.345-0.478,0.567c-0.119,0.223-0.176,0.483-0.176,0.78
			c0,0.37,0.05,0.615,0.154,0.733C36.196,12.453,36.337,12.512,36.517,12.512 M34.289,4.787c0.223-0.146,0.49-0.299,0.804-0.445
			c0.308-0.146,0.644-0.279,1-0.389c0.357-0.112,0.721-0.2,1.089-0.269c0.372-0.066,0.737-0.099,1.093-0.099
			c0.55,0,1.063,0.044,1.546,0.134c0.481,0.088,0.889,0.267,1.224,0.533c0.335,0.27,0.579,0.65,0.735,1.148
			c0.161,0.497,0.183,1.146,0.081,1.949l-0.493,4.004c-0.045,0.388-0.012,0.617,0.091,0.692c0.102,0.075,0.212,0.109,0.331,0.109
			c0.118,0,0.26-0.042,0.427-0.131l-0.624,2.87c-0.225,0.076-0.454,0.133-0.69,0.178c-0.239,0.044-0.504,0.067-0.802,0.067
			c-1.056,0-1.796-0.499-2.226-1.491c-0.328,0.46-0.715,0.823-1.169,1.09c-0.453,0.269-0.991,0.401-1.611,0.401
			c-0.477,0-0.9-0.049-1.27-0.145c-0.372-0.096-0.686-0.256-0.936-0.479c-0.254-0.223-0.446-0.522-0.578-0.902
			c-0.138-0.378-0.203-0.849-0.203-1.413c0-0.312,0.048-0.636,0.145-0.969c0.097-0.334,0.251-0.66,0.469-0.979
			c0.215-0.32,0.49-0.619,0.824-0.901c0.334-0.281,0.737-0.525,1.211-0.736c0.595-0.25,1.174-0.432,1.735-0.544
			c0.566-0.11,1.189-0.181,1.873-0.211l0.065-0.556c0.063-0.343-0.028-0.583-0.265-0.725c-0.238-0.141-0.512-0.212-0.824-0.212
			c-0.713,0-1.354,0.097-1.927,0.289c-0.568,0.196-1.107,0.454-1.612,0.78L34.289,4.787z"/>
	</g>
	<polygon points="50.317,8.995 52.747,14.894 48.87,14.894 47.425,11.265 45.264,14.894 42.214,14.894 46.135,8.796 44.152,3.919 
		47.94,3.919 49.052,6.613 50.721,3.919 53.659,3.919 	"/>
</g>
</svg>
