<?xml version="1.0" encoding="UTF-8" standalone="no"?>
<svg
   xmlns:dc="http://purl.org/dc/elements/1.1/"
   xmlns:cc="http://creativecommons.org/ns#"
   xmlns:rdf="http://www.w3.org/1999/02/22-rdf-syntax-ns#"
   xmlns:svg="http://www.w3.org/2000/svg"
   xmlns="http://www.w3.org/2000/svg"
   viewBox="0 0 140.34666 43.16"
   height="43.16"
   width="140.34666"
   xml:space="preserve"
   id="svg2"
   version="1.1"><metadata
     id="metadata8"><rdf:RDF><cc:Work
         rdf:about=""><dc:format>image/svg+xml</dc:format><dc:type
           rdf:resource="http://purl.org/dc/dcmitype/StillImage" /></cc:Work></rdf:RDF></metadata><defs
     id="defs6" /><g
     transform="matrix(1.3333333,0,0,-1.3333333,0,43.16)"
     id="g10"><g
       transform="scale(0.1)"
       id="g12"><path
         id="path14"
         style="fill:#d1272c;fill-opacity:1;fill-rule:nonzero;stroke:none"
         d="m 899.066,217.656 c -18.839,0 -34.718,12.641 -39.621,29.942 H 963.93 l 14.402,22.414 H 859.445 c 4.883,17.336 20.782,29.945 39.621,29.945 h 71.739 l 14.336,22.469 h -87.715 c -35.078,0 -63.547,-28.465 -63.547,-63.621 0,-35.117 28.469,-63.528 63.547,-63.528 h 75.457 l 14.336,22.379 H 899.066 M 600.07,195.277 h 75.461 l 14.278,22.379 H 601.75 c -22.82,0 -41.211,18.461 -41.211,41.149 0,22.781 18.391,41.152 41.211,41.152 h 71.672 l 14.461,22.469 H 600.07 c -35.136,0 -63.679,-28.465 -63.679,-63.621 0,-35.117 28.543,-63.528 63.679,-63.528 M 135.813,217.656 H 65.2266 c -22.7149,0 -41.1211,18.461 -41.1211,41.149 0,22.781 18.4062,41.152 41.1211,41.152 h 70.5864 c 22.792,0 41.183,-18.371 41.183,-41.152 0,-22.688 -18.391,-41.149 -41.183,-41.149 M 63.6055,195.277 h 73.9065 c 35.156,0 63.468,28.411 63.468,63.528 0,35.156 -28.312,63.621 -63.468,63.621 H 63.6055 c -35.1172,0 -63.60159375,-28.465 -63.60159375,-63.621 0,-35.117 28.48439375,-63.528 63.60159375,-63.528 M 320.98,236.449 c 23.809,0 42.95,19.266 42.95,43 0,23.735 -19.141,42.977 -42.95,42.977 H 214.016 V 195.277 h 24.445 v 104.68 h 80.898 c 11.356,0 20.555,-9.164 20.555,-20.508 0,-11.324 -9.199,-20.644 -20.555,-20.644 l -68.945,0.058 73.027,-63.586 h 35.469 l -49.043,41.172 H 320.98 M 725.434,217.73 V 322.426 H 700.941 V 207.441 c 0,-3.132 1.317,-6.211 3.614,-8.425 2.332,-2.414 5.547,-3.739 8.914,-3.739 h 111.386 l 14.512,22.453 H 725.434 m -299.239,22.379 h 65.215 l -34.453,55.606 -63.262,-100.438 h -28.886 l 77,120.536 c 3.293,4.882 8.937,7.839 15.109,7.839 6.023,0 11.57,-2.859 14.863,-7.625 l 77.235,-120.75 H 520.207 L 506.625,217.73 H 440.59 l -14.395,22.379" /><path
         id="path16"
         style="fill:#312321;fill-opacity:1;fill-rule:nonzero;stroke:none"
         d="M 27.1719,29.6797 2.66797,131.453 H 15.8242 L 35.0039,50.8203 56.9844,125.859 H 68.7422 L 91.0078,49.9805 110.473,131.453 H 123.07 L 98.5664,29.6797 H 85.9688 L 62.8633,106.531 39.7695,29.6797 H 27.1719" /><path
         id="path18"
         style="fill:#312321;fill-opacity:1;fill-rule:nonzero;stroke:none"
         d="m 159.047,93.9375 c -6.164,0 -10.949,-1.8477 -14.348,-5.5312 -3.406,-3.6875 -5.301,-9.0313 -5.672,-16.0352 h 38.36 c 0,7.6562 -1.426,13.1641 -4.27,16.5273 -2.851,3.3594 -7.539,5.0391 -14.07,5.0391 z m 27.019,-60.6172 c -2.617,-1.5898 -6.093,-2.8515 -10.429,-3.7812 -4.344,-0.9336 -9.082,-1.4024 -14.207,-1.4024 -11.575,0 -20.325,3.2891 -26.25,9.8711 -5.93,6.582 -8.899,16.2227 -8.899,28.9063 0,12.2265 2.824,21.5156 8.477,27.8632 5.644,6.3437 13.742,9.5197 24.289,9.5197 20.34,0 30.516,-11.2501 30.516,-33.7384 v -8.1172 h -50.536 c 0.555,-8.2109 2.754,-14.207 6.582,-17.9961 3.829,-3.7812 9.52,-5.668 17.079,-5.668 4.199,0 8.164,0.4219 11.894,1.2618 3.731,0.8398 7.559,2.1484 11.484,3.914 V 33.3203" /><path
         id="path20"
         style="fill:#312321;fill-opacity:1;fill-rule:nonzero;stroke:none"
         d="m 237.023,94.2188 c -3.359,0 -6.746,-0.8399 -10.144,-2.5196 -3.41,-1.6797 -6.465,-4.0625 -9.172,-7.1367 V 40.3203 c 1.867,-0.5625 3.965,-1.0039 6.301,-1.3359 2.332,-0.3242 4.902,-0.4883 7.695,-0.4883 16.707,0 25.059,9.5234 25.059,28.5664 0,8.8672 -1.653,15.6016 -4.973,20.2227 -3.309,4.6171 -8.23,6.9336 -14.766,6.9336 z M 205.102,33.0352 V 134.816 h 12.605 V 95.0586 c 6.152,6.1644 13.391,9.2384 21.699,9.2384 9.707,0 17.168,-3.223 22.403,-9.6564 5.226,-6.4453 7.832,-15.6875 7.832,-27.7265 0,-12.1289 -3.309,-21.6328 -9.942,-28.4844 -6.621,-6.8594 -15.859,-10.293 -27.715,-10.293 -4.57,0 -9.382,0.4492 -14.421,1.3281 -5.04,0.8868 -9.192,2.0782 -12.461,3.5704" /><path
         id="path22"
         style="fill:#312321;fill-opacity:1;fill-rule:nonzero;stroke:none"
         d="M 286.859,29.6797 V 131.453 h 13.028 V 41.3008 h 49.832 V 29.6797 h -62.86" /><path
         id="path24"
         style="fill:#312321;fill-opacity:1;fill-rule:nonzero;stroke:none"
         d="m 393.402,38.4961 c 7.188,0 12.645,2.3555 16.387,7.0703 3.731,4.7149 5.594,11.6016 5.594,20.6563 0,9.0507 -1.863,15.9336 -5.594,20.6406 -3.742,4.7187 -9.199,7.0742 -16.387,7.0742 -7.089,0 -12.511,-2.3555 -16.242,-7.0742 -3.73,-4.707 -5.594,-11.5899 -5.594,-20.6406 0,-9.0547 1.864,-15.9414 5.594,-20.6563 3.731,-4.7148 9.153,-7.0703 16.242,-7.0703 z m 0,-10.3594 c -11.015,0 -19.55,3.3867 -25.617,10.1524 -6.074,6.7617 -9.101,16.0742 -9.101,27.9336 0,11.9414 3.027,21.2773 9.101,27.9961 6.067,6.7192 14.602,10.0782 25.617,10.0782 11.102,0 19.696,-3.359 25.762,-10.0782 6.063,-6.7188 9.102,-16.0547 9.102,-27.9961 0,-11.8594 -3.039,-21.1719 -9.102,-27.9336 -6.066,-6.7657 -14.66,-10.1524 -25.762,-10.1524" /><path
         id="path26"
         style="fill:#312321;fill-opacity:1;fill-rule:nonzero;stroke:none"
         d="m 455.57,79.6563 c 0,-9.9883 6.434,-14.9766 19.317,-14.9766 12.879,0 19.316,4.9883 19.316,14.9766 0,9.9921 -6.437,14.9843 -19.316,14.9843 -12.883,0 -19.317,-4.9922 -19.317,-14.9843 z m -3.222,-56.5586 c 0,-8.7735 7.507,-13.15629 22.539,-13.15629 7.187,0 12.851,1.14449 17.011,3.42579 4.149,2.2851 6.231,5.3437 6.231,9.1719 0,2.8906 -0.871,5.0898 -2.598,6.582 -1.73,1.4844 -4.777,2.5586 -9.172,3.2148 l -27.714,3.7774 c -4.2,-3.6328 -6.297,-7.9766 -6.297,-13.0156 z m -10.645,15.3984 -2.519,7.2852 11.062,17.0781 c -4.48,4.3867 -6.719,9.9844 -6.719,16.7969 0,7.746 2.676,13.789 8.047,18.125 5.364,4.3477 12.813,6.5157 22.336,6.5157 4.844,0 9.238,-0.703 13.153,-2.102 l 23.527,0.285 v -6.2964 l -9.805,-3.0859 c 3.641,-3.5469 5.457,-8.1641 5.457,-13.8594 0,-7.6563 -2.773,-13.6328 -8.328,-17.918 -5.559,-4.2969 -13.234,-6.4492 -23.027,-6.4492 -6.067,0 -11.387,0.8906 -15.957,2.668 l -6.309,-9.8047 35.703,-4.8906 c 7.742,-1.0352 13.418,-3.1758 17.012,-6.4454 3.594,-3.2734 5.391,-7.7461 5.391,-13.4375 0,-7.0937 -3.204,-12.6953 -9.59,-16.80074 C 494.738,2.05078 485.988,0 474.887,0 463.684,0 455.07,1.79688 449.055,5.39063 c -6.024,3.59375 -9.032,8.74997 -9.032,15.46877 0,6.3476 2.938,11.8945 8.817,16.6601 l -7.137,0.9766" /><path
         id="path28"
         style="fill:#312321;fill-opacity:1;fill-rule:nonzero;stroke:none"
         d="m 525.57,119.695 v 11.34 h 15.399 v -11.34 z m 2.938,-90.0153 v 63.2812 l -7.285,4.6172 v 5.1759 h 19.882 V 29.6797 h -12.597" /><path
         id="path30"
         style="fill:#312321;fill-opacity:1;fill-rule:nonzero;stroke:none"
         d="M 613.625,43.6836 V 33.3203 c -5.789,-3.457 -13.113,-5.1836 -21.98,-5.1836 -11.301,0 -19.817,3.2891 -25.547,9.8711 -5.743,6.582 -8.614,16.2617 -8.614,29.0547 0,11.8438 3.028,21.0117 9.102,27.5078 6.062,6.4847 14.648,9.7267 25.762,9.7267 6.902,0 13.289,-1.543 19.179,-4.6173 V 89.3164 c -6.164,3.0859 -11.906,4.6211 -17.226,4.6211 -15.957,0 -23.938,-8.957 -23.938,-26.875 0,-9.707 1.836,-16.8984 5.528,-21.5664 3.683,-4.668 9.492,-7 17.433,-7 3.172,0 6.387,0.418 9.656,1.2617 3.262,0.8399 6.817,2.1445 10.645,3.9258" /><path
         id="path32"
         style="fill:#312321;fill-opacity:1;fill-rule:nonzero;stroke:none"
         d="m 659.816,34.1602 v 11.4765 c 10.266,-4.1992 20.071,-6.3008 29.407,-6.3008 7.832,0 13.972,1.543 18.406,4.6172 4.434,3.086 6.652,7.3242 6.652,12.7461 0,4.0156 -1.359,7.3242 -4.062,9.9414 -2.707,2.6055 -7.61,5.2735 -14.699,7.9766 l -10.782,4.2031 c -9.05,3.543 -15.566,7.4883 -19.531,11.8242 -3.965,4.3438 -5.945,9.4535 -5.945,15.3325 0,8.398 3.172,15.031 9.519,19.882 6.34,4.856 15.02,7.278 26.035,7.278 4.571,0 9.289,-0.539 14.141,-1.614 4.856,-1.074 9.004,-2.539 12.461,-4.406 v -11.48 c -9.52,4.109 -18.289,6.16 -26.316,6.16 -15.215,0 -22.825,-5.176 -22.825,-15.535 0,-3.457 1.348,-6.3987 4.063,-8.8206 2.707,-2.4297 7.461,-5 14.277,-7.707 l 10.781,-4.1992 c 9.329,-3.6407 15.977,-7.7227 19.954,-12.2461 3.964,-4.5274 5.945,-9.9688 5.945,-16.3047 0,-9.1524 -3.242,-16.2696 -9.727,-21.3594 -6.492,-5.0898 -15.566,-7.6289 -27.234,-7.6289 -3.547,0 -7.258,0.2852 -11.125,0.8437 -3.875,0.5547 -7.488,1.3086 -10.848,2.2344 -3.371,0.9375 -6.211,1.961 -8.547,3.086" /><path
         id="path34"
         style="fill:#312321;fill-opacity:1;fill-rule:nonzero;stroke:none"
         d="m 771.254,93.9375 c -6.152,0 -10.938,-1.8477 -14.348,-5.5312 -3.406,-3.6875 -5.293,-9.0313 -5.672,-16.0352 h 38.368 c 0,7.6562 -1.426,13.1641 -4.278,16.5273 -2.84,3.3594 -7.539,5.0391 -14.07,5.0391 z m 27.019,-60.6172 c -2.605,-1.5898 -6.082,-2.8515 -10.429,-3.7812 -4.336,-0.9336 -9.071,-1.4024 -14.207,-1.4024 -11.574,0 -20.324,3.2891 -26.25,9.8711 -5.93,6.582 -8.887,16.2227 -8.887,28.9063 0,12.2265 2.82,21.5156 8.465,27.8632 5.644,6.3437 13.742,9.5197 24.289,9.5197 20.351,0 30.527,-11.2501 30.527,-33.7384 v -8.1172 h -50.547 c 0.567,-8.2109 2.754,-14.207 6.582,-17.9961 3.829,-3.7812 9.52,-5.668 17.079,-5.668 4.199,0 8.164,0.4219 11.906,1.2618 3.73,0.8398 7.558,2.1484 11.472,3.914 V 33.3203" /><path
         id="path36"
         style="fill:#312321;fill-opacity:1;fill-rule:nonzero;stroke:none"
         d="m 817.738,29.6797 v 73.0743 h 8.535 l 2.52,-13.7227 c 4.766,9.25 11.57,13.8707 20.449,13.8707 1.863,0 3.496,-0.148 4.891,-0.422 V 91.4141 h -3.211 c -5.324,0 -9.758,-1.4922 -13.301,-4.4805 -3.555,-2.9883 -5.976,-7.3242 -7.285,-13.0195 V 29.6797 h -12.598" /><path
         id="path38"
         style="fill:#312321;fill-opacity:1;fill-rule:nonzero;stroke:none"
         d="m 891.098,29.6797 -28.703,73.0743 h 13.164 l 21.132,-57.9571 21.008,57.9571 h 12.879 L 901.73,29.6797 h -10.632" /><path
         id="path40"
         style="fill:#312321;fill-opacity:1;fill-rule:nonzero;stroke:none"
         d="m 969.777,93.9375 c -6.16,0 -10.945,-1.8477 -14.343,-5.5312 -3.411,-3.6875 -5.305,-9.0313 -5.676,-16.0352 h 38.359 c 0,7.6562 -1.426,13.1641 -4.265,16.5273 -2.852,3.3594 -7.539,5.0391 -14.075,5.0391 z m 27.024,-60.6172 c -2.617,-1.5898 -6.094,-2.8515 -10.43,-3.7812 -4.348,-0.9336 -9.082,-1.4024 -14.211,-1.4024 -11.57,0 -20.32,3.2891 -26.25,9.8711 -5.926,6.582 -8.894,16.2227 -8.894,28.9063 0,12.2265 2.82,21.5156 8.476,27.8632 5.645,6.3437 13.738,9.5197 24.285,9.5197 20.344,0 30.523,-11.2501 30.523,-33.7384 v -8.1172 h -50.542 c 0.558,-8.2109 2.754,-14.207 6.582,-17.9961 3.828,-3.7812 9.523,-5.668 17.082,-5.668 4.199,0 8.164,0.4219 11.894,1.2618 3.731,0.8398 7.559,2.1484 11.485,3.914 V 33.3203" /><path
         id="path42"
         style="fill:#312321;fill-opacity:1;fill-rule:nonzero;stroke:none"
         d="m 1016.25,29.6797 v 73.0743 h 8.54 l 2.52,-13.7227 c 4.76,9.25 11.57,13.8707 20.45,13.8707 1.86,0 3.49,-0.148 4.89,-0.422 V 91.4141 h -3.21 c -5.33,0 -9.76,-1.4922 -13.3,-4.4805 -3.56,-2.9883 -5.98,-7.3242 -7.29,-13.0195 V 29.6797 h -12.6" /></g></g></svg>