<?xml version="1.0" encoding="UTF-8" standalone="no"?>
<!DOCTYPE svg PUBLIC "-//W3C//DTD SVG 1.1//EN" "http://www.w3.org/Graphics/SVG/1.1/DTD/svg11.dtd">
<svg width="100%" height="100%" viewBox="0 0 686 416" version="1.1" xmlns="http://www.w3.org/2000/svg" xmlns:xlink="http://www.w3.org/1999/xlink" xml:space="preserve" xmlns:serif="http://www.serif.com/" style="fill-rule:evenodd;clip-rule:evenodd;stroke-linejoin:round;stroke-miterlimit:1.41421;">
    <g transform="matrix(1,0,0,1,-765,-759)">
        <g id="enterprise" transform="matrix(1,0,0,1,765,759)">
            <rect x="0" y="0" width="685.005" height="415.471" style="fill:none;"/>
            <clipPath id="_clip1">
                <rect x="0" y="0" width="685.005" height="415.471"/>
            </clipPath>
            <g clip-path="url(#_clip1)">
                <g transform="matrix(1,0,0,1,-3675.12,-125.482)">
                    <path d="M3957,455C3957,455 3957,449 3957,449L3950,449L3914.03,449C3912.7,449 3911.42,448.47 3910.47,447.526C3909.53,446.583 3909,445.303 3909,443.969C3909,442.678 3909,441.29 3909,440C3909,438.674 3909.53,437.402 3910.46,436.464C3911.4,435.527 3912.67,435 3914,435L3954,435C3954.8,435 3955.56,434.684 3956.12,434.121C3956.68,433.559 3957,432.796 3957,432C3957,432 3957,426 3957,426L3950,426L3926,426C3924.67,426 3923.4,425.473 3922.46,424.536C3921.53,423.598 3921,422.326 3921,421C3921,419.7 3921,418.3 3921,417C3921,415.674 3921.53,414.402 3922.46,413.464C3923.4,412.527 3924.67,412 3926,412L4265.77,412C4268.66,412 4271,414.239 4271,417C4271,428.3 4271,455.7 4271,467C4271,469.761 4268.66,472 4265.77,472L3966,472L3951,472L3902,472C3900.67,472 3899.4,471.473 3898.46,470.536C3897.53,469.598 3897,468.326 3897,467C3897,465.7 3897,464.3 3897,463C3897,461.674 3897.53,460.402 3898.46,459.464C3899.4,458.527 3900.67,458 3902,458L3954,458C3954.8,458 3955.56,457.684 3956.12,457.121C3956.68,456.559 3957,455.796 3957,455Z" style="fill:rgb(96,163,192);"/>
                </g>
                <g transform="matrix(1,0,0,1,137.377,-181.482)">
                    <path d="M175.333,511.792L194.375,511.792L194.375,507.5L180.208,507.5L180.208,499.792L194.083,499.792L194.083,495.5L180.208,495.5L180.208,488.292L194.375,488.292L194.375,484L175.333,484L175.333,511.792Z" style="fill:white;fill-rule:nonzero;"/>
                </g>
                <g transform="matrix(1,0,0,1,137.377,-181.482)">
                    <path d="M222.917,511.792L227.625,511.792L227.625,484L222.75,484L222.75,503.708L208.542,484L203.542,484L203.542,511.792L208.417,511.792L208.417,491.542L222.917,511.792Z" style="fill:white;fill-rule:nonzero;"/>
                </g>
                <g transform="matrix(1,0,0,1,137.377,-181.482)">
                    <path d="M243.917,511.792L248.792,511.792L248.792,488.292L257.208,488.292L257.208,484L235.5,484L235.5,488.292L243.917,488.292L243.917,511.792Z" style="fill:white;fill-rule:nonzero;"/>
                </g>
                <g transform="matrix(1,0,0,1,137.377,-181.482)">
                    <path d="M265.083,511.792L284.125,511.792L284.125,507.5L269.958,507.5L269.958,499.792L283.833,499.792L283.833,495.5L269.958,495.5L269.958,488.292L284.125,488.292L284.125,484L265.083,484L265.083,511.792Z" style="fill:white;fill-rule:nonzero;"/>
                </g>
                <g transform="matrix(1,0,0,1,137.377,-181.482)">
                    <path d="M309.167,511.792L314.792,511.792L308,500.875C311.333,500.333 314.583,497.667 314.583,492.708C314.583,487.583 311,484 305.5,484L293.292,484L293.292,511.792L298.167,511.792L298.167,501.417L303,501.417L309.167,511.792ZM309.583,492.708C309.583,495.375 307.583,497.125 304.833,497.125L298.167,497.125L298.167,488.292L304.833,488.292C307.583,488.292 309.583,490.042 309.583,492.708Z" style="fill:white;fill-rule:nonzero;"/>
                </g>
                <g transform="matrix(1,0,0,1,137.377,-181.482)">
                    <path d="M323.625,511.792L328.5,511.792L328.5,501.417L335.833,501.417C341.625,501.417 344.917,497.417 344.917,492.708C344.917,488 341.667,484 335.833,484L323.625,484L323.625,511.792ZM339.917,492.708C339.917,495.375 337.917,497.125 335.167,497.125L328.5,497.125L328.5,488.292L335.167,488.292C337.917,488.292 339.917,490.042 339.917,492.708Z" style="fill:white;fill-rule:nonzero;"/>
                </g>
                <g transform="matrix(1,0,0,1,137.377,-181.482)">
                    <path d="M368.583,511.792L374.208,511.792L367.417,500.875C370.75,500.333 374,497.667 374,492.708C374,487.583 370.417,484 364.917,484L352.708,484L352.708,511.792L357.583,511.792L357.583,501.417L362.417,501.417L368.583,511.792ZM369,492.708C369,495.375 367,497.125 364.25,497.125L357.583,497.125L357.583,488.292L364.25,488.292C367,488.292 369,490.042 369,492.708Z" style="fill:white;fill-rule:nonzero;"/>
                </g>
                <g transform="matrix(1,0,0,1,137.377,-181.482)">
                    <rect x="383.042" y="484" width="4.875" height="27.792" style="fill:white;fill-rule:nonzero;"/>
                </g>
                <g transform="matrix(1,0,0,1,137.377,-181.482)">
                    <path d="M396.208,507.875C398.667,510.5 402.375,512.292 407.5,512.292C415,512.292 418.25,508.333 418.25,503.708C418.25,497.667 412.792,496.25 408.208,495.083C404.917,494.25 402.083,493.542 402.083,491.375C402.083,489.292 403.917,487.917 406.792,487.917C409.708,487.917 412.667,488.917 414.833,491.083L417.625,487.458C415.042,484.958 411.542,483.583 407.208,483.583C401.125,483.583 397.083,487.125 397.083,491.708C397.083,497.583 402.417,498.917 406.958,500.042C410.333,500.917 413.292,501.667 413.292,504.167C413.292,506 411.708,507.958 407.708,507.958C403.833,507.958 400.833,506.167 398.917,504.125L396.208,507.875Z" style="fill:white;fill-rule:nonzero;"/>
                </g>
                <g transform="matrix(1,0,0,1,137.377,-181.482)">
                    <path d="M426.917,511.792L445.958,511.792L445.958,507.5L431.792,507.5L431.792,499.792L445.667,499.792L445.667,495.5L431.792,495.5L431.792,488.292L445.958,488.292L445.958,484L426.917,484L426.917,511.792Z" style="fill:white;fill-rule:nonzero;"/>
                </g>
                <g transform="matrix(0.86686,0,0,0.86686,78.4204,260.926)">
                    <path d="M0,-36.467C5.374,-24.188 18.828,-8.501 21.011,-6.755C17.884,-1.192 12.594,0 12.594,0C12.594,0 -0.626,-21.669 0,-36.467" style="fill:rgb(240,152,27);fill-rule:nonzero;"/>
                </g>
                <g transform="matrix(0.86686,0,0,0.86686,71.7052,264.564)">
                    <path d="M0,-37.435C4.271,-24.731 17.171,-7.29 19.192,-5.359C15.587,-0.092 9.331,0 9.331,0C9.331,0 -1.927,-22.75 0,-37.435" style="fill:rgb(240,152,27);fill-rule:nonzero;"/>
                </g>
                <g transform="matrix(0.86686,0,0,0.86686,157.984,193.449)">
                    <path d="M0,-62.356C0,-62.356 1.982,-74.224 -10.688,-83.563C3.293,-78.713 4.639,-70.984 0,-62.356M-6.035,-53.148C-6.035,-53.148 -3.417,-68.82 -20.147,-81.15C-1.687,-74.748 0.091,-64.542 -6.035,-53.148M-13.069,-43.275C-13.069,-43.275 -9.816,-62.75 -30.607,-78.072C-7.666,-70.116 -5.457,-57.433 -13.069,-43.275M-21.104,-33.401C-21.104,-33.401 -17.215,-56.68 -42.067,-74.994C-14.646,-65.483 -12.005,-50.325 -21.104,-33.401M-57.157,19.119C-60.722,23.498 -65.47,24.153 -69.385,21.902C-74.664,18.868 -65.253,-2.628 -51.857,-3.631C-51.857,-3.631 -52.089,12.893 -57.157,19.119M189.25,-144.77C189.25,-144.77 109.654,-124.718 95.765,-100.761C62.49,-106.67 5.94,-97.73 5.94,-97.73C5.94,-97.73 0.365,-134.46 4.506,-144.77C-84.776,-101.807 -103.116,-9.311 -106.251,40.653C-106.251,40.653 -80.761,28.461 -56.199,42.661C-55.202,41.93 -72.831,74.506 -90.388,82.038C-90.584,82.122 -89.244,82.371 -89.444,82.414C-71.398,81.763 -32.602,65.381 -14.775,51.207C44.41,4.147 36.29,-28.665 36.29,-28.665C36.29,-28.665 8.993,14.902 -12.6,-12.529C-29.623,-34.156 21.422,-83.392 106.722,-68.421C157.556,-59.499 189.25,-37.422 189.25,-37.422L141.725,-89.7L189.25,-144.77Z" style="fill:rgb(240,152,27);fill-rule:nonzero;"/>
                </g>
                <g transform="matrix(0.86686,0,0,0.86686,200.92,169.545)">
                    <path d="M0,110.829L0,45.335C0,38.899 0.321,33.905 0.965,30.352C1.608,26.8 2.677,23.53 4.17,20.544C7.311,14.108 11.906,9.075 17.957,5.445C24.006,1.815 30.739,0 38.153,0C49.17,0 58.259,3.695 65.416,11.082C72.572,18.472 76.151,27.83 76.151,39.157C76.151,44.306 75.263,49.224 73.487,53.908C71.71,58.594 69.148,62.765 65.802,66.42C62.404,70.23 58.336,73.178 53.6,75.263C48.862,77.349 43.919,78.391 38.771,78.391C35.012,78.391 31.42,77.966 27.997,77.116C24.572,76.267 21.316,74.968 18.227,73.217L18.227,58.619C21.316,60.988 24.456,62.739 27.649,63.871C30.841,65.005 34.085,65.57 37.38,65.57C44.641,65.57 50.613,63.073 55.298,58.079C59.983,53.085 62.327,46.675 62.327,38.848C62.327,31.228 60.035,24.973 55.453,20.08C50.87,15.189 45,12.743 37.844,12.743C30.687,12.743 24.869,15.203 20.389,20.119C15.91,25.037 13.67,31.46 13.67,39.389L13.67,110.829L0,110.829Z" style="fill:rgb(0,44,62);fill-rule:nonzero;"/>
                </g>
                <g transform="matrix(0.86686,0,0,0.86686,326.702,170.615)">
                    <path d="M0,75.92L0,38.153C0,30.225 -2.24,23.801 -6.719,18.884C-11.199,13.967 -17.018,11.508 -24.174,11.508C-31.279,11.508 -37.11,13.941 -41.667,18.806C-46.224,23.672 -48.502,29.941 -48.502,37.612C-48.502,45.44 -46.16,51.85 -41.474,56.844C-36.789,61.838 -30.816,64.335 -23.556,64.335C-20.261,64.335 -17.056,63.77 -13.94,62.636C-10.826,61.504 -7.698,59.753 -4.557,57.384L-4.557,71.982C-7.646,73.732 -10.903,75.032 -14.327,75.881C-17.751,76.731 -21.343,77.155 -25.101,77.155C-28.705,77.155 -32.283,76.602 -35.836,75.495C-39.389,74.389 -42.607,72.831 -45.49,70.822C-50.948,67.065 -55.119,62.365 -58.001,56.728C-60.886,51.09 -62.327,44.821 -62.327,37.922C-62.327,26.595 -58.749,17.236 -51.591,9.847C-44.435,2.46 -35.347,-1.235 -24.328,-1.235C-17.068,-1.235 -10.426,0.593 -4.402,4.248C1.622,7.904 6.256,12.925 9.5,19.309C10.992,22.192 12.061,25.346 12.705,28.77C13.348,32.194 13.67,37.304 13.67,44.1L13.67,75.92L0,75.92Z" style="fill:rgb(0,44,62);fill-rule:nonzero;"/>
                </g>
                <g transform="matrix(0.86686,0,0,0.86686,400.686,265.618)">
                    <path d="M0,-109.439L0,-68.119C0,-58.439 -2.111,-50.677 -6.333,-44.834C-10.556,-38.989 -16.94,-35.012 -25.486,-32.901L-25.486,0L-39.08,0L-39.08,-32.901C-47.627,-35.012 -53.985,-38.977 -58.156,-44.795C-62.327,-50.613 -64.412,-58.389 -64.412,-68.119L-64.412,-109.439L-50.896,-109.439L-50.896,-65.648C-50.896,-59.675 -49.133,-54.809 -45.605,-51.051C-42.08,-47.292 -37.587,-45.413 -32.129,-45.413C-26.62,-45.413 -22.127,-47.292 -18.651,-51.051C-15.176,-54.809 -13.438,-59.675 -13.438,-65.648L-13.438,-109.439L0,-109.439Z" style="fill:rgb(0,44,62);fill-rule:nonzero;"/>
                </g>
                <g transform="matrix(0.86686,0,0,0.86686,461.107,170.615)">
                    <path d="M0,75.92L0,38.153C0,30.225 -2.239,23.801 -6.719,18.884C-11.198,13.967 -17.018,11.508 -24.174,11.508C-31.279,11.508 -37.11,13.941 -41.667,18.806C-46.224,23.672 -48.502,29.941 -48.502,37.612C-48.502,45.44 -46.16,51.85 -41.474,56.844C-36.789,61.838 -30.815,64.335 -23.556,64.335C-20.262,64.335 -17.057,63.77 -13.94,62.636C-10.826,61.504 -7.698,59.753 -4.557,57.384L-4.557,71.982C-7.646,73.732 -10.903,75.032 -14.326,75.881C-17.751,76.731 -21.343,77.155 -25.101,77.155C-28.705,77.155 -32.283,76.602 -35.836,75.495C-39.389,74.389 -42.607,72.831 -45.49,70.822C-50.948,67.065 -55.119,62.365 -58.002,56.728C-60.886,51.09 -62.327,44.821 -62.327,37.922C-62.327,26.595 -58.749,17.236 -51.592,9.847C-44.436,2.46 -35.348,-1.235 -24.328,-1.235C-17.068,-1.235 -10.427,0.593 -4.402,4.248C1.622,7.904 6.256,12.925 9.5,19.309C10.992,22.192 12.061,25.346 12.705,28.77C13.348,32.194 13.67,37.304 13.67,44.1L13.67,75.92L0,75.92Z" style="fill:rgb(0,44,62);fill-rule:nonzero;"/>
                </g>
                <g transform="matrix(0.86686,0,0,0.86686,481.031,169.545)">
                    <path d="M0,77.155L0,1.39L12.512,1.39L12.512,12.589C14.829,8.161 18.021,4.956 22.089,2.973C26.155,0.991 31.639,0 38.539,0L42.092,0L42.092,13.129L40.007,13.129C30.687,13.129 23.954,15.343 19.811,19.771C15.665,24.2 13.593,31.408 13.593,41.396L13.593,77.155L0,77.155Z" style="fill:rgb(0,44,62);fill-rule:nonzero;"/>
                </g>
                <g transform="matrix(0.86686,0,0,0.86686,571.47,170.615)">
                    <path d="M0,75.92L0,38.153C0,30.225 -2.239,23.801 -6.719,18.884C-11.198,13.967 -17.018,11.508 -24.174,11.508C-31.279,11.508 -37.11,13.941 -41.667,18.806C-46.224,23.672 -48.502,29.941 -48.502,37.612C-48.502,45.44 -46.16,51.85 -41.474,56.844C-36.789,61.838 -30.815,64.335 -23.556,64.335C-20.262,64.335 -17.057,63.77 -13.94,62.636C-10.826,61.504 -7.698,59.753 -4.557,57.384L-4.557,71.982C-7.646,73.732 -10.903,75.032 -14.326,75.881C-17.751,76.731 -21.343,77.155 -25.101,77.155C-28.705,77.155 -32.283,76.602 -35.836,75.495C-39.389,74.389 -42.607,72.831 -45.49,70.822C-50.948,67.065 -55.119,62.365 -58.002,56.728C-60.886,51.09 -62.327,44.821 -62.327,37.922C-62.327,26.595 -58.749,17.236 -51.592,9.847C-44.436,2.46 -35.348,-1.235 -24.328,-1.235C-17.068,-1.235 -10.427,0.593 -4.402,4.248C1.622,7.904 6.256,12.925 9.5,19.309C10.992,22.192 12.061,25.346 12.705,28.77C13.348,32.194 13.67,37.304 13.67,44.1L13.67,75.92L0,75.92Z" style="fill:rgb(0,44,62);fill-rule:nonzero;"/>
                </g>
                <g transform="matrix(0.86686,0,0,0.86686,605.022,157.518)">
                    <path d="M0,-3.072C0.57,-3.206 1.023,-3.425 1.36,-3.727C1.695,-3.995 1.947,-4.323 2.115,-4.709C2.283,-5.095 2.367,-5.541 2.367,-6.044L2.367,-6.094L2.367,-6.195C2.333,-6.564 2.232,-6.917 2.065,-7.253C1.896,-7.588 1.629,-7.924 1.26,-8.26C0.923,-8.563 0.453,-8.798 -0.151,-8.966C-0.756,-9.133 -1.495,-9.217 -2.367,-9.217L-6.347,-9.318L-6.347,-2.971L-2.015,-2.971C-1.243,-2.904 -0.571,-2.938 0,-3.072M-9.923,-12.089L-1.209,-12.089C0.47,-11.92 1.821,-11.652 2.846,-11.282C3.869,-10.912 4.55,-10.426 4.886,-9.821C5.255,-9.217 5.523,-8.563 5.691,-7.857C5.859,-7.152 5.943,-6.413 5.943,-5.641C5.943,-4.835 5.834,-4.113 5.616,-3.475C5.397,-2.837 5.069,-2.283 4.634,-1.813C4.197,-1.343 3.627,-0.965 2.922,-0.68C2.216,-0.394 1.376,-0.201 0.403,-0.101L6.347,8.915L2.367,8.915L-3.174,-0.201L-6.347,-0.201L-6.347,8.915L-9.923,8.915L-9.923,-12.089ZM-16.118,4.131C-15.48,5.911 -14.54,7.539 -13.298,9.016C-12.021,10.461 -10.477,11.552 -8.664,12.29C-6.851,13.03 -4.752,13.399 -2.367,13.399C-1.998,13.399 -1.629,13.382 -1.259,13.348C-0.89,13.315 -0.504,13.265 -0.101,13.197C0.302,13.13 0.705,13.046 1.108,12.945C1.511,12.845 1.914,12.727 2.317,12.593C3.492,12.19 4.608,11.611 5.667,10.855C6.724,10.099 7.739,9.167 8.714,8.059C9.688,6.951 10.442,5.591 10.98,3.98C11.518,2.367 11.819,0.487 11.887,-1.662C11.887,-3.542 11.551,-5.33 10.88,-7.026C10.207,-8.721 9.2,-10.325 7.857,-11.837C6.514,-13.347 4.994,-14.481 3.299,-15.237C1.604,-15.992 -0.286,-16.37 -2.367,-16.37L-2.493,-16.37L-2.619,-16.37L-2.771,-16.37L-2.921,-16.37L-3.047,-16.37L-3.174,-16.37C-3.241,-16.336 -3.291,-16.32 -3.325,-16.32L-3.476,-16.32C-5.188,-16.185 -6.825,-15.782 -8.387,-15.111C-9.948,-14.438 -11.434,-13.465 -12.845,-12.189C-14.255,-10.946 -15.313,-9.452 -16.018,-7.706C-16.723,-5.96 -17.075,-3.945 -17.075,-1.662L-17.075,-1.763C-17.075,0.386 -16.757,2.351 -16.118,4.131M-21.356,-3.274C-21.324,-3.676 -21.273,-4.096 -21.206,-4.533C-21.139,-4.936 -21.038,-5.356 -20.903,-5.792C-20.77,-6.228 -20.635,-6.665 -20.5,-7.102C-19.964,-8.714 -19.183,-10.25 -18.158,-11.711C-17.134,-13.171 -15.85,-14.573 -14.305,-15.917C-12.761,-17.259 -10.998,-18.266 -9.016,-18.939C-7.035,-19.61 -4.819,-19.946 -2.367,-19.946C0.285,-19.946 2.72,-19.467 4.936,-18.51C7.152,-17.553 9.134,-16.134 10.88,-14.254C12.659,-12.373 13.993,-10.401 14.884,-8.336C15.773,-6.271 16.235,-4.096 16.27,-1.813L16.27,-1.662C16.168,1.327 15.631,3.972 14.657,6.271C13.683,8.572 12.29,10.528 10.477,12.139C8.63,13.751 6.674,14.943 4.608,15.715C2.543,16.487 0.369,16.874 -1.914,16.874L-2.015,16.874L-2.115,16.874L-2.216,16.874L-2.317,16.874L-2.443,16.874L-2.569,16.874L-2.67,16.874L-2.771,16.874C-5.826,16.773 -8.496,16.252 -10.779,15.312C-13.063,14.373 -14.96,12.979 -16.471,11.132C-17.982,9.318 -19.149,7.405 -19.972,5.39C-20.795,3.375 -21.256,1.277 -21.356,-0.906C-21.356,-0.973 -21.365,-1.024 -21.382,-1.057C-21.399,-1.091 -21.407,-1.141 -21.407,-1.209L-21.407,-1.335L-21.407,-1.461L-21.407,-1.763L-21.407,-2.065L-21.407,-2.166C-21.407,-2.501 -21.391,-2.871 -21.356,-3.274" style="fill:rgb(0,44,62);fill-rule:nonzero;"/>
                </g>
            </g>
        </g>
    </g>
</svg>
