<?xml version="1.0" encoding="UTF-8" standalone="no"?><!DOCTYPE svg PUBLIC "-//W3C//DTD SVG 1.1//EN" "http://www.w3.org/Graphics/SVG/1.1/DTD/svg11.dtd"><svg width="100%" height="100%" viewBox="0 0 165 101" version="1.1" xmlns="http://www.w3.org/2000/svg" xmlns:xlink="http://www.w3.org/1999/xlink" xml:space="preserve" xmlns:serif="http://www.serif.com/" style="fill-rule:evenodd;clip-rule:evenodd;stroke-linejoin:round;stroke-miterlimit:2;"><rect id="community" x="0" y="0.183" width="164.401" height="99.713" style="fill:none;"/><path d="M18.821,55.219c1.118,2.554 3.917,5.818 4.371,6.181c-0.65,1.158 -1.751,1.406 -1.751,1.406c0,0 -2.75,-4.509 -2.62,-7.587" style="fill:#f0981b;fill-rule:nonzero;"/><path d="M17.209,55.891c0.889,2.643 3.573,6.271 3.993,6.673c-0.75,1.096 -2.051,1.115 -2.051,1.115c0,0 -2.343,-4.733 -1.942,-7.788" style="fill:#f0981b;fill-rule:nonzero;"/><path d="M37.916,33.638c0,0 0.412,-2.469 -2.224,-4.412c2.909,1.009 3.189,2.617 2.224,4.412m-1.255,1.916c0,0 0.544,-3.261 -2.936,-5.826c3.84,1.332 4.21,3.455 2.936,5.826m-1.464,2.054c0,0 0.677,-4.052 -3.649,-7.24c4.773,1.656 5.233,4.294 3.649,7.24m-1.672,2.054c0,0 0.81,-4.843 -4.361,-8.653c5.705,1.979 6.254,5.132 4.361,8.653m-7.5,10.927c-0.742,0.911 -1.73,1.047 -2.544,0.579c-1.099,-0.631 0.859,-5.104 3.646,-5.312c0,0 -0.048,3.437 -1.102,4.733m51.264,-34.097c0,0 -16.56,4.172 -19.449,9.156c-6.923,-1.229 -18.688,0.631 -18.688,0.631c0,0 -1.16,-7.642 -0.298,-9.787c-18.575,8.939 -22.391,28.182 -23.043,38.577c0,0 5.303,-2.537 10.413,0.418c0.207,-0.153 -3.46,6.625 -7.113,8.192c-0.041,0.017 0.238,0.069 0.197,0.078c3.754,-0.135 11.825,-3.544 15.534,-6.492c12.313,-9.791 10.624,-16.618 10.624,-16.618c0,0 -5.679,9.064 -10.171,3.357c-3.542,-4.499 7.078,-14.742 24.824,-11.628c10.576,1.857 17.17,6.45 17.17,6.45l-9.888,-10.877l9.888,-11.457Z" style="fill:#f0981b;fill-rule:nonzero;"/><path d="M48.221,63.932l0,-13.626c0,-1.339 0.067,-2.378 0.201,-3.117c0.133,-0.739 0.356,-1.419 0.666,-2.041c0.654,-1.339 1.61,-2.386 2.869,-3.141c1.258,-0.755 2.659,-1.133 4.201,-1.133c2.292,0 4.183,0.769 5.672,2.306c1.489,1.537 2.234,3.484 2.234,5.841c0,1.071 -0.185,2.094 -0.555,3.069c-0.369,0.974 -0.902,1.842 -1.598,2.603c-0.707,0.792 -1.554,1.406 -2.539,1.839c-0.986,0.434 -2.014,0.651 -3.085,0.651c-0.782,0 -1.529,-0.088 -2.242,-0.265c-0.712,-0.177 -1.39,-0.447 -2.032,-0.811l0,-3.037c0.642,0.493 1.296,0.857 1.96,1.092c0.664,0.236 1.339,0.354 2.025,0.354c1.51,0 2.753,-0.52 3.727,-1.559c0.975,-1.039 1.463,-2.372 1.463,-4.001c0,-1.585 -0.477,-2.886 -1.43,-3.904c-0.954,-1.018 -2.175,-1.527 -3.664,-1.527c-1.489,0 -2.699,0.512 -3.631,1.535c-0.932,1.023 -1.398,2.359 -1.398,4.009l0,14.863l-2.844,0Z" style="fill:#002c3e;fill-rule:nonzero;"/><path d="M78.409,56.926l0,-7.857c0,-1.65 -0.466,-2.986 -1.398,-4.009c-0.932,-1.023 -2.143,-1.535 -3.632,-1.535c-1.478,0 -2.691,0.507 -3.639,1.519c-0.948,1.012 -1.422,2.316 -1.422,3.912c0,1.629 0.487,2.962 1.462,4.001c0.975,1.039 2.217,1.559 3.728,1.559c0.685,0 1.352,-0.118 2,-0.354c0.648,-0.235 1.299,-0.599 1.952,-1.092l0,3.037c-0.642,0.364 -1.32,0.634 -2.032,0.811c-0.712,0.177 -1.46,0.265 -2.242,0.265c-0.749,0 -1.494,-0.115 -2.233,-0.345c-0.739,-0.23 -1.409,-0.555 -2.008,-0.973c-1.136,-0.781 -2.004,-1.759 -2.603,-2.932c-0.601,-1.173 -0.9,-2.477 -0.9,-3.912c0,-2.357 0.744,-4.304 2.233,-5.841c1.489,-1.537 3.38,-2.306 5.672,-2.306c1.511,0 2.892,0.381 4.146,1.141c1.253,0.761 2.217,1.805 2.892,3.133c0.31,0.6 0.533,1.256 0.667,1.969c0.134,0.712 0.201,1.775 0.201,3.189l0,6.62l-2.844,0Z" style="fill:#002c3e;fill-rule:nonzero;"/><path d="M96.165,41.163l0,8.597c0,2.014 -0.44,3.629 -1.318,4.844c-0.879,1.216 -2.207,2.044 -3.985,2.483l0,6.845l-2.828,0l0,-6.845c-1.778,-0.439 -3.101,-1.264 -3.969,-2.475c-0.867,-1.21 -1.301,-2.828 -1.301,-4.852l0,-8.597l2.812,0l0,9.111c0,1.243 0.367,2.255 1.101,3.037c0.733,0.782 1.668,1.173 2.803,1.173c1.146,0 2.081,-0.391 2.804,-1.173c0.723,-0.782 1.085,-1.794 1.085,-3.037l0,-9.111l2.796,0Z" style="fill:#002c3e;fill-rule:nonzero;"/><path d="M110.666,56.926l0,-7.857c0,-1.65 -0.466,-2.986 -1.398,-4.009c-0.932,-1.023 -2.143,-1.535 -3.632,-1.535c-1.478,0 -2.691,0.507 -3.639,1.519c-0.948,1.012 -1.422,2.316 -1.422,3.912c0,1.629 0.487,2.962 1.462,4.001c0.975,1.039 2.218,1.559 3.728,1.559c0.685,0 1.352,-0.118 2.001,-0.354c0.647,-0.235 1.298,-0.599 1.952,-1.092l0,3.037c-0.643,0.364 -1.321,0.634 -2.033,0.811c-0.712,0.177 -1.46,0.265 -2.241,0.265c-0.75,0 -1.495,-0.115 -2.234,-0.345c-0.739,-0.23 -1.409,-0.555 -2.008,-0.973c-1.136,-0.781 -2.004,-1.759 -2.603,-2.932c-0.6,-1.173 -0.9,-2.477 -0.9,-3.912c0,-2.357 0.744,-4.304 2.233,-5.841c1.489,-1.537 3.38,-2.306 5.672,-2.306c1.511,0 2.892,0.381 4.146,1.141c1.253,0.761 2.217,1.805 2.892,3.133c0.311,0.6 0.533,1.256 0.667,1.969c0.134,0.712 0.201,1.775 0.201,3.189l0,6.62l-2.844,0Z" style="fill:#002c3e;fill-rule:nonzero;"/><path d="M115.448,56.926l0,-15.763l2.603,0l0,2.33c0.482,-0.921 1.146,-1.588 1.992,-2c0.846,-0.413 1.987,-0.619 3.422,-0.619l0.74,0l0,2.732l-0.434,0c-1.939,0 -3.34,0.46 -4.202,1.382c-0.862,0.921 -1.293,2.421 -1.293,4.499l0,7.439l-2.828,0Z" style="fill:#002c3e;fill-rule:nonzero;"/><path d="M137.153,56.926l0,-7.857c0,-1.65 -0.466,-2.986 -1.398,-4.009c-0.932,-1.023 -2.143,-1.535 -3.631,-1.535c-1.479,0 -2.692,0.507 -3.64,1.519c-0.948,1.012 -1.422,2.316 -1.422,3.912c0,1.629 0.487,2.962 1.462,4.001c0.975,1.039 2.218,1.559 3.728,1.559c0.685,0 1.352,-0.118 2.001,-0.354c0.648,-0.235 1.298,-0.599 1.952,-1.092l0,3.037c-0.643,0.364 -1.32,0.634 -2.033,0.811c-0.712,0.177 -1.46,0.265 -2.241,0.265c-0.75,0 -1.495,-0.115 -2.234,-0.345c-0.739,-0.23 -1.408,-0.555 -2.008,-0.973c-1.136,-0.781 -2.003,-1.759 -2.603,-2.932c-0.6,-1.173 -0.9,-2.477 -0.9,-3.912c0,-2.357 0.744,-4.304 2.233,-5.841c1.489,-1.537 3.38,-2.306 5.672,-2.306c1.511,0 2.893,0.381 4.146,1.141c1.253,0.761 2.217,1.805 2.892,3.133c0.311,0.6 0.533,1.256 0.667,1.969c0.134,0.712 0.201,1.775 0.201,3.189l0,6.62l-2.844,0Z" style="fill:#002c3e;fill-rule:nonzero;"/><path d="M145.205,37.349c0.119,-0.028 0.213,-0.074 0.283,-0.137c0.07,-0.055 0.122,-0.124 0.157,-0.204c0.035,-0.08 0.053,-0.173 0.053,-0.278l0,-0.01l0,-0.021c-0.007,-0.077 -0.028,-0.15 -0.063,-0.22c-0.035,-0.07 -0.091,-0.14 -0.168,-0.21c-0.07,-0.063 -0.167,-0.112 -0.293,-0.147c-0.126,-0.034 -0.28,-0.052 -0.461,-0.052l-0.828,-0.021l0,1.321l0.901,0c0.161,0.014 0.3,0.007 0.419,-0.021m-2.064,-1.876l1.813,0c0.349,0.035 0.63,0.091 0.843,0.168c0.213,0.077 0.355,0.178 0.425,0.304c0.077,0.125 0.132,0.261 0.167,0.408c0.035,0.147 0.053,0.301 0.053,0.461c0,0.168 -0.023,0.318 -0.068,0.451c-0.046,0.133 -0.114,0.248 -0.205,0.346c-0.091,0.097 -0.209,0.176 -0.356,0.235c-0.147,0.06 -0.321,0.1 -0.524,0.121l1.237,1.875l-0.828,0l-1.153,-1.896l-0.66,0l0,1.896l-0.744,0l0,-4.369Zm-1.289,3.374c0.133,0.371 0.328,0.709 0.587,1.017c0.265,0.3 0.587,0.527 0.964,0.681c0.377,0.154 0.814,0.23 1.31,0.23c0.077,0 0.153,-0.003 0.23,-0.01c0.077,-0.007 0.157,-0.018 0.241,-0.032c0.084,-0.014 0.168,-0.031 0.252,-0.052c0.084,-0.021 0.167,-0.045 0.251,-0.073c0.245,-0.084 0.477,-0.205 0.697,-0.362c0.22,-0.157 0.431,-0.351 0.634,-0.582c0.203,-0.23 0.36,-0.513 0.472,-0.848c0.112,-0.336 0.174,-0.727 0.188,-1.174c0,-0.391 -0.07,-0.763 -0.209,-1.116c-0.14,-0.353 -0.35,-0.686 -0.629,-1.001c-0.279,-0.314 -0.596,-0.55 -0.948,-0.707c-0.353,-0.157 -0.746,-0.236 -1.179,-0.236l-0.026,0l-0.027,0l-0.031,0l-0.031,0l-0.027,0l-0.026,0c-0.014,0.007 -0.024,0.01 -0.031,0.01l-0.032,0c-0.356,0.029 -0.697,0.112 -1.022,0.252c-0.324,0.14 -0.634,0.342 -0.927,0.608c-0.293,0.258 -0.514,0.569 -0.66,0.933c-0.147,0.363 -0.22,0.782 -0.22,1.257l0,-0.021c0,0.447 0.066,0.856 0.199,1.226m-1.09,-1.54c0.007,-0.084 0.018,-0.171 0.031,-0.262c0.014,-0.084 0.035,-0.172 0.063,-0.262c0.028,-0.091 0.056,-0.182 0.084,-0.273c0.112,-0.335 0.274,-0.655 0.488,-0.959c0.213,-0.303 0.48,-0.595 0.801,-0.875c0.321,-0.279 0.688,-0.488 1.101,-0.628c0.412,-0.14 0.873,-0.21 1.383,-0.21c0.552,0 1.058,0.1 1.519,0.299c0.461,0.199 0.874,0.494 1.237,0.885c0.37,0.392 0.647,0.802 0.833,1.231c0.185,0.43 0.281,0.883 0.288,1.358l0,0.031c-0.021,0.622 -0.133,1.172 -0.335,1.65c-0.203,0.479 -0.493,0.886 -0.87,1.221c-0.384,0.336 -0.791,0.584 -1.221,0.744c-0.43,0.161 -0.882,0.241 -1.357,0.241l-0.021,0l-0.021,0l-0.021,0l-0.021,0l-0.026,0l-0.026,0l-0.021,0l-0.021,0c-0.636,-0.021 -1.191,-0.129 -1.666,-0.325c-0.475,-0.195 -0.87,-0.485 -1.184,-0.869c-0.315,-0.378 -0.558,-0.776 -0.729,-1.195c-0.171,-0.419 -0.267,-0.856 -0.288,-1.31c0,-0.014 -0.002,-0.024 -0.005,-0.031c-0.004,-0.007 -0.005,-0.018 -0.005,-0.032l0,-0.026l0,-0.026l0,-0.063l0,-0.063l0,-0.021c0,-0.07 0.003,-0.147 0.01,-0.23" style="fill:#002c3e;fill-rule:nonzero;"/><path d="M61.841,71.621c0.069,0.148 0.058,0.322 -0.03,0.46c-0.088,0.139 -0.241,0.222 -0.405,0.222c-0.856,0 -2.245,0 -3.101,0c-0.164,0 -0.317,0.084 -0.405,0.223c-0.088,0.138 -0.1,0.312 -0.03,0.46c0.399,0.857 1.066,2.286 1.345,2.885c0.079,0.169 0.248,0.277 0.435,0.277c0.829,0 3.17,0 4.862,0c0.41,0 0.791,-0.21 1.012,-0.555c0.22,-0.346 0.249,-0.781 0.075,-1.152c-0.533,-1.145 -1.233,-2.646 -1.767,-3.79c-0.173,-0.372 -0.145,-0.806 0.076,-1.152c0.22,-0.346 0.602,-0.555 1.012,-0.555c11.989,0 77.153,0.004 77.153,0.004c0.518,0 0.938,0.537 0.938,1.2l0,12c0,0.662 -0.42,1.2 -0.938,1.2c0,0 -73.965,-0.004 -82.317,-0.005c-0.466,0 -0.89,-0.27 -1.087,-0.692c-1.008,-2.163 -4.118,-8.831 -5.596,-12c-0.173,-0.372 -0.145,-0.806 0.076,-1.152c0.22,-0.346 0.602,-0.556 1.012,-0.556c1.789,0 4.391,0 5.667,0c0.466,0 0.891,0.271 1.088,0.693c0.271,0.581 0.655,1.406 0.925,1.985Z" style="fill:#60a3c0;"/><g><path d="M76.059,79.565c1.4,0 2.22,-0.7 2.73,-1.5l-1,-0.51c-0.32,0.56 -0.96,0.97 -1.73,0.97c-1.27,0 -2.25,-1.01 -2.25,-2.41c0,-1.4 0.98,-2.41 2.25,-2.41c0.77,0 1.41,0.42 1.73,0.97l1,-0.51c-0.5,-0.8 -1.33,-1.5 -2.73,-1.5c-1.92,0 -3.45,1.4 -3.45,3.45c0,2.05 1.53,3.45 3.45,3.45Z" style="fill:#fff;fill-rule:nonzero;"/><path d="M80.429,76.115c0,1.99 1.41,3.45 3.41,3.45c2,0 3.41,-1.46 3.41,-3.45c0,-1.99 -1.41,-3.45 -3.41,-3.45c-2,0 -3.41,1.46 -3.41,3.45Zm5.62,0c0,1.37 -0.87,2.41 -2.21,2.41c-1.35,0 -2.21,-1.04 -2.21,-2.41c0,-1.38 0.86,-2.41 2.21,-2.41c1.34,0 2.21,1.03 2.21,2.41Z" style="fill:#fff;fill-rule:nonzero;"/><path d="M95.139,79.445l1.17,0l0,-6.67l-1.65,0l-1.82,4.49l-1.81,-4.49l-1.65,0l0,6.67l1.17,0l0,-5.05l2.04,5.05l0.5,0l2.05,-5.05l0,5.05Z" style="fill:#fff;fill-rule:nonzero;"/><path d="M104.489,79.445l1.17,0l0,-6.67l-1.65,0l-1.82,4.49l-1.81,-4.49l-1.65,0l0,6.67l1.17,0l0,-5.05l2.04,5.05l0.5,0l2.05,-5.05l0,5.05Z" style="fill:#fff;fill-rule:nonzero;"/><path d="M108.079,76.815c0,1.64 0.95,2.75 2.89,2.75c1.93,0 2.88,-1.1 2.88,-2.76l0,-4.03l-1.18,0l0,4c0,1.06 -0.59,1.75 -1.7,1.75c-1.12,0 -1.71,-0.69 -1.71,-1.75l0,-4l-1.18,0l0,4.04Z" style="fill:#fff;fill-rule:nonzero;"/><path d="M120.919,79.445l1.13,0l0,-6.67l-1.17,0l0,4.73l-3.41,-4.73l-1.2,0l0,6.67l1.17,0l0,-4.86l3.48,4.86Z" style="fill:#fff;fill-rule:nonzero;"/><rect x="124.469" y="72.775" width="1.17" height="6.67" style="fill:#fff;fill-rule:nonzero;"/><path d="M129.649,79.445l1.17,0l0,-5.64l2.02,0l0,-1.03l-5.21,0l0,1.03l2.02,0l0,5.64Z" style="fill:#fff;fill-rule:nonzero;"/><path d="M136.719,79.445l1.17,0l0,-2.77l2.58,-3.9l-1.34,0l-1.82,2.86l-1.84,-2.86l-1.34,0l2.59,3.9l0,2.77Z" style="fill:#fff;fill-rule:nonzero;"/></g></svg>