<svg xmlns="http://www.w3.org/2000/svg" viewBox="0 0 869.41229 224.27852"><defs><style>.cls-1{fill:#2f58dd;}.cls-2{fill:#649cff;}</style></defs><g id="图层_2" data-name="图层 2"><g id="图层_1-2" data-name="图层 1"><path class="cls-1" d="M69.42952,188.87767l-23.6658-45.24343H30.91459v45.24343H0V60.39616H47.14879c27.45542,0,50.25643,9.32289,50.25643,40.40622,0,18.82155-8.80964,30.91459-22.105,37.12985L103.965,188.87767ZM30.91459,119.27942h13.8156c14.68038,0,22.44946-6.391,22.44946-18.477S59.41057,84.744,44.73019,84.744H30.91459Z"/><path class="cls-1" d="M112.31762,139.83055c0-32.63714,23.14552-51.63446,48.18233-51.63446,24.86807,0,48.01359,18.99732,48.01359,51.63446,0,32.46841-23.14552,51.46573-48.01359,51.46573C135.46314,191.29628,112.31762,172.299,112.31762,139.83055Zm64.761,0c0-16.40294-5.17469-26.76639-16.57871-26.76639-11.56573,0-16.74745,10.36345-16.74745,26.76639,0,16.23421,5.18172,26.59766,16.74745,26.59766C171.904,166.42821,177.07866,156.06476,177.07866,139.83055Z"/><path class="cls-1" d="M222.39241,139.83055c0-32.63714,24.172-51.63446,51.63447-51.63446A42.55222,42.55222,0,0,1,302.6916,98.72828l-14.33588,19.68634c-4.48567-3.79665-8.28935-5.35046-12.60629-5.35046-13.47108,0-21.92918,10.36345-21.92918,26.76639,0,16.23421,8.80964,26.59766,20.89565,26.59766,6.21526,0,12.086-2.93889,17.099-6.91131l11.7415,20.20662c-9.49866,8.46513-21.93621,11.57276-32.29263,11.57276C243.63257,191.29628,222.39241,172.299,222.39241,139.83055Z"/><path class="cls-1" d="M320.69757,50.8975h29.88106v77.01579h.689l29.874-37.2986h33.3332l-34.71124,40.582,37.12985,57.681h-33.3332l-21.24016-37.30562-11.7415,13.30235v24.00327H320.69757Z"/><path class="cls-2" d="M504.94381,44.45432V61.08225l27.0195,15.60143,27.03357-15.60143V44.45432L580.4216,32.0818,561.89927.00023,502.04326,0,483.52,32.08268Z"/><path class="cls-2" d="M488.77288,166.08077l14.39916-8.31045V126.56043L476.1455,110.959l-14.39916,8.31045-21.42471-12.36461-18.63881,32.28359L451.611,191.0253h37.16192Z"/><path class="cls-2" d="M602.19435,119.26946,587.80222,110.959l-27.03357,15.60845v31.20286l14.39916,8.31748v24.9375h37.16457l29.92819-51.83678-18.63975-32.28543Z"/><polygon class="cls-1" points="602.197 36.138 573.398 52.765 573.398 69.389 531.967 93.312 490.544 69.393 490.544 52.765 461.746 36.138 432.948 52.765 432.948 86.018 461.746 102.644 476.143 94.333 517.571 118.25 517.571 166.086 503.173 174.398 503.173 207.651 531.971 224.279 560.769 207.651 560.769 174.398 546.369 166.084 546.369 118.255 587.801 94.333 602.197 102.644 630.995 86.018 630.995 52.765 602.197 36.138"/><path class="cls-1" d="M727.05893,162.52486H689.06429l-7.42457,29.52952H650.21188L690.09782,63.57286h36.96111l39.893,128.48152H734.48349Zm-5.87075-23.83454-2.76312-10.8767c-3.45917-12.78206-6.73554-28.15147-10.19471-41.278h-.689c-3.10763,13.47109-6.55978,28.496-9.84318,41.278l-2.76312,10.8767Z"/><path class="cls-1" d="M772.35861,175.996l17.44351-21.24719c9.15415,7.7761,21.06439,13.12657,31.2591,13.12657,11.397,0,16.74746-4.31693,16.74746-11.22122,0-7.43159-7.08006-9.84317-18.13253-14.51164l-16.403-6.90429c-13.47108-5.35046-26.07737-16.57871-26.07737-35.23152,0-21.58467,19.34183-38.85241,46.62851-38.85241,14.84913,0,30.563,5.695,41.7913,16.92323L850.24623,97.41931c-8.46513-6.391-16.41-9.84317-26.42189-9.84317-9.49866,0-15.37644,3.79665-15.37644,10.708,0,7.08006,8.12062,9.84318,19.5176,14.32885l16.05844,6.391c15.88969,6.391,25.38835,17.099,25.38835,35.23153,0,21.41593-17.95676,40.23748-49.04712,40.23748C803.61771,194.473,785.65393,188.25773,772.35861,175.996Z"/></g></g></svg>