<?xml version="1.0" encoding="UTF-8" standalone="no"?>

<svg
   version="1.1"
   id="svg1176"
   width="257.03983"
   height="55.067719"
   viewBox="0 0 257.03983 55.067717"
   xmlns="http://www.w3.org/2000/svg"
   xmlns:svg="http://www.w3.org/2000/svg">
  <defs
     id="defs1180">
    <linearGradient
       x1="301.39648"
       y1="564.00195"
       x2="301.39648"
       y2="529.78772"
       gradientUnits="userSpaceOnUse"
       spreadMethod="pad"
       id="linearGradient1206">
      <stop
         style="stop-opacity:1;stop-color:#8a440a"
         offset="0"
         id="stop1198" />
      <stop
         style="stop-opacity:1;stop-color:#8a440a"
         offset="0.00562"
         id="stop1200" />
      <stop
         style="stop-opacity:1;stop-color:#fbc961"
         offset="0.51123"
         id="stop1202" />
      <stop
         style="stop-opacity:1;stop-color:#8a440a"
         offset="1"
         id="stop1204" />
    </linearGradient>
    <linearGradient
       x1="302.76953"
       y1="564.00195"
       x2="302.76953"
       y2="529.78839"
       gradientUnits="userSpaceOnUse"
       spreadMethod="pad"
       id="linearGradient1218">
      <stop
         style="stop-opacity:1;stop-color:#8a440a"
         offset="0"
         id="stop1210" />
      <stop
         style="stop-opacity:1;stop-color:#8a440a"
         offset="0.00562"
         id="stop1212" />
      <stop
         style="stop-opacity:1;stop-color:#fbc961"
         offset="0.51123"
         id="stop1214" />
      <stop
         style="stop-opacity:1;stop-color:#8a440a"
         offset="1"
         id="stop1216" />
    </linearGradient>
    <linearGradient
       x1="300.0127"
       y1="564.00195"
       x2="300.0127"
       y2="529.78821"
       gradientUnits="userSpaceOnUse"
       spreadMethod="pad"
       id="linearGradient1230">
      <stop
         style="stop-opacity:1;stop-color:#8a440a"
         offset="0"
         id="stop1222" />
      <stop
         style="stop-opacity:1;stop-color:#8a440a"
         offset="0.00562"
         id="stop1224" />
      <stop
         style="stop-opacity:1;stop-color:#fbc961"
         offset="0.51123"
         id="stop1226" />
      <stop
         style="stop-opacity:1;stop-color:#8a440a"
         offset="1"
         id="stop1228" />
    </linearGradient>
    <linearGradient
       x1="301.67969"
       y1="564.00049"
       x2="301.67969"
       y2="529.78717"
       gradientUnits="userSpaceOnUse"
       spreadMethod="pad"
       id="linearGradient1242">
      <stop
         style="stop-opacity:1;stop-color:#8a440a"
         offset="0"
         id="stop1234" />
      <stop
         style="stop-opacity:1;stop-color:#8a440a"
         offset="0.00562"
         id="stop1236" />
      <stop
         style="stop-opacity:1;stop-color:#fbc961"
         offset="0.51123"
         id="stop1238" />
      <stop
         style="stop-opacity:1;stop-color:#8a440a"
         offset="1"
         id="stop1240" />
    </linearGradient>
    <linearGradient
       x1="301.43457"
       y1="564.00293"
       x2="301.43457"
       y2="529.79071"
       gradientUnits="userSpaceOnUse"
       spreadMethod="pad"
       id="linearGradient1254">
      <stop
         style="stop-opacity:1;stop-color:#8a440a"
         offset="0"
         id="stop1246" />
      <stop
         style="stop-opacity:1;stop-color:#8a440a"
         offset="0.00562"
         id="stop1248" />
      <stop
         style="stop-opacity:1;stop-color:#fbc961"
         offset="0.51123"
         id="stop1250" />
      <stop
         style="stop-opacity:1;stop-color:#8a440a"
         offset="1"
         id="stop1252" />
    </linearGradient>
    <linearGradient
       x1="302.68652"
       y1="564.00049"
       x2="302.68652"
       y2="529.7865"
       gradientUnits="userSpaceOnUse"
       spreadMethod="pad"
       id="linearGradient1266">
      <stop
         style="stop-opacity:1;stop-color:#8a440a"
         offset="0"
         id="stop1258" />
      <stop
         style="stop-opacity:1;stop-color:#8a440a"
         offset="0.00562"
         id="stop1260" />
      <stop
         style="stop-opacity:1;stop-color:#fbc961"
         offset="0.51123"
         id="stop1262" />
      <stop
         style="stop-opacity:1;stop-color:#8a440a"
         offset="1"
         id="stop1264" />
    </linearGradient>
    <linearGradient
       x1="301.67969"
       y1="560.22998"
       x2="301.67969"
       y2="531.88745"
       gradientUnits="userSpaceOnUse"
       spreadMethod="pad"
       id="linearGradient1278">
      <stop
         style="stop-opacity:1;stop-color:#f57c14"
         offset="0"
         id="stop1270" />
      <stop
         style="stop-opacity:1;stop-color:#f57c14"
         offset="0.00562"
         id="stop1272" />
      <stop
         style="stop-opacity:1;stop-color:#fffccc"
         offset="0.51123"
         id="stop1274" />
      <stop
         style="stop-opacity:1;stop-color:#f57c14"
         offset="1"
         id="stop1276" />
    </linearGradient>
  </defs>
  <g
     id="g1184"
     transform="matrix(1.3333333,0,0,-1.3333333,-247.73502,754.44724)">
    <path
       d="m 369.2168,534.27344 c 1.09668,-2.28858 2.10254,-4.75342 4.16601,-6.41162 l -0.0312,-0.13575 H 361.1856 l 0.0293,0.13575 -4.87207,11.34131 -5.52734,-5.73584 c -0.69531,-0.80958 -1.54883,-1.61329 -1.76953,-2.59961 -0.25879,-1.16846 0.0391,-2.37745 0.93457,-3.00586 l -0.0312,-0.13575 h -11.43848 l 0.0293,0.13575 15.67773,15.29052 -4.3125,9.68409 c -0.79101,1.79199 -1.45507,3.22705 -3.1914,4.25976 l 0.0293,0.13477 h 12.16504 l -0.0293,-0.13477 3.86425,-9.3706 3.3584,3.45263 c 0.93457,0.9458 2.23828,2.375 2.50098,3.54248 0.21777,0.98487 -0.4209,2.06153 -1.38867,2.37549 l 0.0283,0.13477 h 11.33886 l -0.0293,-0.13477 -13.80762,-13.40478 4.47266,-9.41797 z"
       style="fill:#231f20;fill-opacity:1;fill-rule:nonzero;stroke:none"
       id="path1192" />
    <path
       d="m 198.37744,527.8501 c -1.74902,0.17383 -3.62402,0.92187 -4.97314,1.71191 -2.88867,1.66699 -3.17432,3.33203 -3.52149,6.32129 l -1.84765,16.41895 c -0.2168,1.97754 -0.6836,3.50879 -2.23389,4.7832 l 0.0317,0.13086 h 11.07519 l -0.008,-0.042 1.70215,-19.97266 h 0.15576 l 6.29248,12.02539 c 0.45752,0.87891 1.32422,2.46191 1.52295,3.33496 0.30029,1.32031 -0.23486,3.68848 -1.27246,4.52344 l 0.0278,0.13086 h 10.72119 l -0.0303,-0.13086 c -0.14258,-0.17578 -0.31445,-0.4834 -0.37305,-0.74609 -0.37793,-1.66797 -0.10302,-3.16114 0.0991,-4.74219 l 1.64112,-14.39551 h 0.15283 l 7.25146,13.08301 c 0.59668,1.05273 1.41114,2.41113 1.66065,3.50488 0.30224,1.32129 -0.21729,2.41699 -0.98731,3.2959 l 0.0264,0.13086 h 8.62891 l -0.0298,-0.13086 -17.10449,-29.32227 c -1.75781,0.34864 -3.38574,1.04981 -4.83838,1.84278 -2.32617,1.22558 -2.85498,2.72168 -3.14648,5.04785 l -1.37207,10.62305 -9.25147,-17.42676 z"
       style="fill:#231f20;fill-opacity:1;fill-rule:nonzero;stroke:none"
       id="path1194" />
    <path
       d="m 247.22119,529.82959 c -3.81592,-1.36621 -6.79834,-2.29004 -9.50537,-2.29004 -3.46875,0 -7.25244,0.34863 -9.60205,2.14844 -2.70313,2.02148 -3.1582,5.3125 -2.2334,8.60547 1.72412,6.1455 8.37891,10.5791 15.47461,10.5791 8.06445,0 10.82422,-3.9961 9.07959,-10.75391 h -15.8208 c -1.0625,-3.77441 1.13574,-6.49804 5.67725,-6.49804 2.85644,0 4.95703,0.95019 8.93994,2.53808 l -2.00977,-4.3291 m -4.41846,12.01953 c 0.48145,1.70996 -0.0693,3.2041 -2.5205,3.2041 -2.24659,0 -3.87696,-1.45117 -4.62354,-3.2041 z"
       style="fill:#231f20;fill-opacity:1;fill-rule:nonzero;stroke:none"
       id="path1196" />
    <path
       d="m 294.21387,529.64209 c 3.93261,0 8.31933,1.71582 12.0166,4.44238 3.45703,2.54297 5.54687,5.78028 7.05664,8.89258 3.51367,7.23828 5.19922,17.5918 -4.96094,17.5918 -8.75,0 -16.08594,-7.17774 -19.25586,-13.71582 -1.7832,-3.68555 -2.75097,-8.57617 -2.21289,-11.75196 0.59375,-3.04589 3.13086,-5.45898 7.35645,-5.45898 m -4.40528,16.93457 c 3.09375,6.38281 10.20704,13.25488 18.51758,13.25488 2.83789,0 4.81836,-0.8623 5.88477,-2.56152 2.10351,-3.36035 0.51953,-9.3584 -1.66016,-13.85254 -1.84765,-3.80469 -4.00976,-6.53516 -6.80664,-8.5918 -3.68945,-2.72265 -7.8916,-4.2832 -11.53027,-4.2832 -3.46192,0 -5.96973,1.83789 -6.55176,4.79199 -0.0898,0.53516 -0.13281,1.13086 -0.13281,1.77051 0,2.85254 0.8623,6.54297 2.27929,9.47168 z"
       style="fill:url(#linearGradient1206);fill-opacity:1;fill-rule:nonzero;stroke:none"
       id="path1208" />
    <path
       d="m 311.30859,564.93408 c 8.72071,0 14.70411,-2.67822 16.57618,-7.70312 h 0.90039 c -0.25,0.76562 -0.58692,1.49023 -1.01172,2.16894 -2.63867,4.20899 -8.33203,6.43555 -16.46485,6.43555 -12.16015,0 -27.47949,-6.23779 -34.55615,-18.1792 0.25733,-0.1416 0.5044,-0.2915 0.73486,-0.45361 6.59864,11.0625 20.92188,17.73144 33.82129,17.73144 z"
       style="fill:url(#linearGradient1218);fill-opacity:1;fill-rule:nonzero;stroke:none"
       id="path1220" />
    <path
       d="m 291.25781,525.27197 c -8.12597,0 -13.8872,2.66016 -16.05468,7.32813 -0.20264,-0.18115 -0.39551,-0.36719 -0.60987,-0.54151 0.14893,-0.29736 0.30811,-0.59033 0.48584,-0.87451 2.68701,-4.28808 8.43262,-6.64941 16.17871,-6.64941 13.37305,0 26.33496,6.47021 33.23633,16.17724 l 0.9375,2.94727 C 318.86719,532.021 304.37012,525.27197 291.25781,525.27197 Z"
       style="fill:url(#linearGradient1230);fill-opacity:1;fill-rule:nonzero;stroke:none"
       id="path1232" />
    <path
       d="m 327.58398,552.27539 c -0.22265,-2.021 -0.89355,-4.24463 -2.05859,-6.646 -5.55859,-11.45605 -19.65039,-19.45703 -34.26758,-19.45703 -7.16064,0 -12.41357,2.08985 -14.78906,5.88184 -0.23242,0.3706 -0.42627,0.76025 -0.60059,1.15918 -0.21142,-0.20996 -0.43896,-0.41113 -0.66503,-0.61328 2.16748,-4.66797 7.92871,-7.32813 16.05468,-7.32813 13.11231,0 27.60938,6.74903 34.17383,18.38721 l 2.72461,8.57617 c -0.19727,0.0239 -0.38574,0.0342 -0.57227,0.04 z"
       style="fill:url(#linearGradient1242);fill-opacity:1;fill-rule:nonzero;stroke:none"
       id="path1244" />
    <path
       d="m 286.05176,535.02783 c 0.73828,-3.77637 3.86621,-6.12304 8.16211,-6.12304 3.98144,0 8.53808,1.67675 12.50293,4.60253 3.01758,2.21778 5.33984,5.14063 7.30664,9.19532 1.15234,2.37109 4.66992,10.49316 1.57617,15.43554 -1.38477,2.20996 -3.83008,3.33106 -7.27344,3.33106 -9.01562,0 -16.68164,-7.34863 -19.99219,-14.17969 -1.90039,-3.92383 -2.84033,-8.95703 -2.28613,-12.24219 l 0.004,-0.0195 m 3.01855,11.8252 c 3.16992,6.53808 10.50586,13.71582 19.25586,13.71582 10.16016,0 8.47461,-10.35352 4.96094,-17.5918 -1.50977,-3.1123 -3.59961,-6.34961 -7.05664,-8.89258 -3.69727,-2.72656 -8.08399,-4.44238 -12.0166,-4.44238 -4.22559,0 -6.7627,2.41309 -7.35645,5.45898 -0.53808,3.17579 0.42969,8.06641 2.21289,11.75196 z"
       style="fill:url(#linearGradient1254);fill-opacity:1;fill-rule:nonzero;stroke:none"
       id="path1256" />
    <path
       d="m 311.30859,564.93408 c -12.89941,0 -27.22265,-6.66894 -33.82129,-17.73144 0.22217,-0.15625 0.42823,-0.32373 0.6211,-0.49854 6.72754,11.48584 21.47851,17.4917 33.20019,17.4917 7.4336,0 12.78711,-2.01172 15.07813,-5.66797 0.25683,-0.41064 0.47266,-0.84424 0.65332,-1.29687 h 0.84473 c -1.87207,5.0249 -7.85547,7.70312 -16.57618,7.70312 z"
       style="fill:url(#linearGradient1266);fill-opacity:1;fill-rule:nonzero;stroke:none"
       id="path1268" />
    <path
       d="m 327.58398,552.27539 c -0.6455,0.021 -1.25585,-0.04 -1.97851,-0.04 -2.37988,0 -4.21777,-0.38232 -6.44336,-1.55176 l -0.41406,-0.22363 2.31152,6.81201 1.06738,-0.041 h 5.75782 c -1.87207,5.0249 -7.85547,7.70312 -16.57618,7.70312 -12.89941,0 -27.22265,-6.66894 -33.82129,-17.73144 0.22217,-0.15625 0.42823,-0.32373 0.6211,-0.49854 0.229,-0.20605 0.43994,-0.42285 0.62207,-0.65283 1.4834,-1.79883 1.66699,-4.56152 0.80127,-7.10938 -0.69629,-2.05712 -1.93604,-4.01416 -3.66358,-5.72851 -0.21142,-0.20996 -0.43896,-0.41113 -0.66503,-0.61328 2.16748,-4.66797 7.92871,-7.32813 16.05468,-7.32813 13.11231,0 27.60938,6.74903 34.17383,18.38721 l 2.72461,8.57617 c -0.19727,0.0239 -0.38574,0.0342 -0.57227,0.04 m -14.29687,-9.29834 c -1.50977,-3.1123 -3.59961,-6.34961 -7.05664,-8.89258 -3.69727,-2.72656 -8.08399,-4.44238 -12.0166,-4.44238 -4.22559,0 -6.7627,2.41309 -7.35645,5.45898 -0.53808,3.17579 0.42969,8.06641 2.21289,11.75196 3.16992,6.53808 10.50586,13.71582 19.25586,13.71582 10.16016,0 8.47461,-10.35352 4.96094,-17.5918 z"
       style="fill:url(#linearGradient1278);fill-opacity:1;fill-rule:nonzero;stroke:none"
       id="path1280" />
    <path
       d="m 322.12695,557.23096 -1.06738,0.041 -2.31152,-6.81201 0.41406,0.22363 c 2.22559,1.16944 4.06348,1.55176 6.44336,1.55176 0.72266,0 1.33301,0.061 1.97851,0.04 0.18653,-0.006 0.375,-0.0161 0.57227,-0.04 l -2.72461,-8.57617 -0.9375,-2.94727 -2.08789,-6.57226 c -1.05566,-2.62598 -1.94629,-4.5376 -4.19043,-6.23096 l -0.0606,-0.18262 h 14.67774 l 0.0312,0.13575 c -1.62988,1.45459 -1.43067,3.8081 -0.86231,6.36572 l 5.7334,18.00781 h 2.83985 c 1.86328,0 3.42578,-0.27832 3.86328,-1.80371 l 2.19238,6.79932 h -24.50391 z"
       style="fill:#000000;fill-opacity:1;fill-rule:nonzero;stroke:none"
       id="path1282" />
    <path
       d="m 278.73047,546.05127 c -0.18213,0.22998 -0.39307,0.44678 -0.62207,0.65283 -0.19287,0.17481 -0.39893,0.34229 -0.6211,0.49854 -0.23046,0.16211 -0.47753,0.31201 -0.73486,0.45361 -1.38721,0.76074 -3.12646,1.20459 -4.87646,1.20459 -0.81592,0 -1.59864,-0.043 -2.43848,-0.26563 l -3.66406,-3.72753 c 4.58398,-0.17481 5.27783,-3.25 4.02539,-6.9336 -1.16358,-3.4248 -3.81006,-6.41308 -8.25537,-6.41308 -0.50635,0 -0.98731,0.0918 -1.45264,0.22168 l 8.79443,26.17871 h -0.15283 c -1.36572,-0.70215 -2.48633,-0.70215 -3.91601,-0.70215 h -6.73877 l -0.0415,-0.13379 c 1.41114,-1.4043 0.77246,-2.95801 0.13672,-4.97363 l -7.21142,-21.47657 c -0.74024,-2.00976 -2.74756,-2.89746 -2.74756,-2.89746 h 11.45117 c 4.08642,0 8.29541,0.27344 12.27344,2.51075 0.96533,0.54882 1.85107,1.15576 2.65478,1.81005 0.21436,0.17432 0.40723,0.36036 0.60987,0.54151 0.22607,0.20215 0.45361,0.40332 0.66503,0.61328 1.72754,1.71435 2.96729,3.67139 3.66358,5.72851 0.86572,2.54786 0.68213,5.31055 -0.80127,7.10938 z"
       style="fill:#000000;fill-opacity:1;fill-rule:nonzero;stroke:none"
       id="path1284" />
  </g>
</svg>
