<svg xmlns="http://www.w3.org/2000/svg" viewBox="0 0 505.71 481.01"><defs><style>.cls-1{fill:none;}.cls-2{fill:#217eb6;}</style></defs><title>Asset 3</title><g id="Layer_2" data-name="Layer 2"><g id="Layer_1-2" data-name="Layer 1"><path class="cls-1" d="M28.35,281.25A216.59,216.59,0,0,0,198,452.35C178.6,423,165.39,374,158.89,319.84,98.14,313,54.38,298.69,28.35,281.25Z"/><path class="cls-1" d="M156.36,294.63c-1.43-17.9-2.16-36.12-2.16-54.16s.74-36.51,2.19-54.53C73.21,196.39,24.61,221.16,24.46,240.2c0,0,0,.09,0,.13C24.54,259.38,73.15,284.17,156.36,294.63Z"/><path class="cls-1" d="M197.94,28.75A216.61,216.61,0,0,0,28.46,199.25c26-17.42,69.78-31.74,130.48-38.52C165.44,106.78,178.6,58.06,197.94,28.75Z"/><path class="cls-2" d="M475,391.21a70.22,70.22,0,0,1-34.48-.81c-30-11.64-57.05-41.07-74.65-67.32-4.17-6.22-8-13.26-7.45-20.73.63-8.69,7.32-16.09,15.28-19.63s17-3.8,25.67-3.08c23.24,1.95,45.35,10.47,67.1,18.9-19.75-17.21-41.54-33.8-67.24-38.85-22.61-4.44-46,.52-69-1.37-35.23-2.9-76.52-36.64-100.11-66.22l4.39-48.37H215.17l9.68,106.62,4.83-53.22c12,25.52,35.65,54.16,54.95,70.57C292,274,299.41,279,305.69,286.39c4.1,4.81,13.76,32.1,13.76,32.1s-37-2.69-45.34,4.59c-21.68,19-6.86,55.59,7.44,70.32-.41-11.12-3.17-22.3-3.51-33.58-.1-3.4-.09-6.94,1.37-10,1.67-3.51,5.06-5.95,8.65-7.45,13.71-5.75,28.88.23,41,7,36.25,20.34,66.72,55.27,109.68,61.55,26.81,3.92,57.28-7.87,67-34.84C502.93,383.82,482,389.65,475,391.21Z"/><path class="cls-2" d="M268.77,113.19C282,123,308,131.68,323.58,122.47c7.59-4.5,15.16-11.08,18.28-19.48-2.89,5-13.41,13.68-20.38,11-2.84-1.09-3.6-8.08-2.54-10.93-3,8.1-19.22,5.33-24.91,2.91-6.79-2.88-12.62-7.57-18.8-11.59-12.46-8.1-30-11.92-44-5.17-6.42,3.11-16.08,12.74-9.21,22.25-1.8-.73,7.73-15.62,23.49-11.52C255.24,102.48,261.27,107.63,268.77,113.19Z"/><path class="cls-2" d="M418.77,361.89,438.29,377a239.6,239.6,0,0,0,31.83-65l-23.31-8.1A215.73,215.73,0,0,1,418.77,361.89Z"/><path class="cls-2" d="M314.61,444c-21.72,8.38-55.2,18.43-78.36,11.18-18.66-5.84-28.3-33.7-34.22-50.31-12.82-36-19.14-74-21.78-112-.65-9.35-4.74-109.15.73-109.61,6.72-.57,13.69-1,20.77-1.38V157.41c-6.17.29-12.26.63-18.16,1.06C194.17,75.18,219.65,26,239.54,24.55l.93,0,.93,0c11.46.86,24.77,17.64,36,47.58l30.18,14.52c-6.57-23.06-14.79-43-24.61-57.9a216.61,216.61,0,0,1,169.48,170.5c-26-17.42-69.79-31.74-130.48-38.52-.62-5.17-1.36-10.23-2.11-15.29h-24.4c.65,4.26,1.28,8.57,1.84,13q-20.23-1.47-42.61-1.87v24.48a659.91,659.91,0,0,1,74.5,5.59c30.67,4.07,61.78,10.15,90.38,22.31,11.78,5,36.74,15.3,36.86,31.35,0,2.07-.72,24.41-.75,28.15.69,1.26,20.51,19.38,20.51,19.38a240.94,240.94,0,0,0,4.69-47.76C480.7,108.23,373.76.94,242,.11c-.52,0-1-.11-1.54-.11s-1,.09-1.54.11C107.19.94.25,108.23,0,240.54,0,373.14,107.88,481,240.47,481a239.58,239.58,0,0,0,169.08-69.81l-25.62-9.51A227.72,227.72,0,0,1,314.61,444ZM197.94,28.75c-19.34,29.31-32.5,78-39,132C98.24,167.52,54.5,181.84,28.46,199.25A216.61,216.61,0,0,1,197.94,28.75ZM24.46,240.2c.14-19,48.74-43.82,131.92-54.26-1.45,18-2.19,36.37-2.19,54.53s.73,36.25,2.16,54.16c-83.21-10.46-131.81-35.25-131.9-54.29C24.46,240.29,24.46,240.25,24.46,240.2Zm3.89,41c26,17.45,69.78,31.79,130.53,38.59C165.39,374,178.6,423,198,452.35A216.59,216.59,0,0,1,28.35,281.25Z"/><path class="cls-2" d="M326.25,216.23c-4.21,2.35-8.06,5.74-10,10.68-6.54,16.72.8,22.56,10.29,23.34a45.79,45.79,0,0,0,12.09-.88,19.52,19.52,0,0,0,16-19.19c0-9.19-7.87-16.64-17.57-16.64A21.83,21.83,0,0,0,326.25,216.23Z"/><rect class="cls-2" x="206.51" y="124.38" width="36.68" height="12.23"/></g></g></svg>