<?xml version="1.0" encoding="utf-8"?>
<!-- Generator: Adobe Illustrator 25.4.1, SVG Export Plug-In . SVG Version: 6.00 Build 0)  -->
<svg version="1.1" id="图层_1" xmlns="http://www.w3.org/2000/svg" xmlns:xlink="http://www.w3.org/1999/xlink" x="0px" y="0px"
	 viewBox="0 0 3178 1287" style="enable-background:new 0 0 3178 1287;" xml:space="preserve">
<style type="text/css">
	.st0{fill:#3C3A39;}
	.st1{fill:#CE4818;}
	.st2{clip-path:url(#SVGID_00000105390229794531310270000018291308450500635030_);fill:#888888;}
</style>
<g>
	<g>
		<path class="st0" d="M62.2,104.4c-10.7,9.2-20.9,17.4-31.2,24.1C24.6,120.7,9.3,104,0.8,96.2C38.1,74.9,75.7,40.1,97.4,3.5
			l39.8,14.2c-9.6,14.9-20.6,30.5-33,44.4v123.5H62.2V104.4z M328.5,264.8H189.7v71h-45.1v-71H6.9v-40.5h137.7v-39.1h45.1v39.1
			h138.8V264.8z M174.4,114.7c-15.3,4.6-30.2,8.9-45.1,12.4c-2.5-9.6-9.2-24.5-14.9-33.4c19.9-5,40.5-11,60-18.1V9.9h42.2v49.4
			c27.7-11.4,52.9-24.5,72.4-38l30.2,33c-29.1,18.5-65,34.1-102.6,46.9v25.6c0,13.1,2.5,14.9,16.7,14.9h41.2
			c12.1,0,14.6-5.7,16.3-35.9c8.9,6.4,25.6,12.8,36.9,15.6c-4.3,43.3-16,56.1-49.3,56.1h-51.1c-42.2,0-52.9-11.7-52.9-50.4V114.7z"
			/>
		<path class="st0" d="M687.8,287.6v39.8H490.1v-39.8h78.8v-66.7h-64.6v-39.1h64.6v-62.1h-38c-6.4,18.5-13.5,34.8-21.3,48.3
			c-6-5-18.1-12.4-28-18.1v138.8c0,18.5-2.8,30.2-13.5,36.9c-10.3,7.1-24.1,8.2-45.1,8.2c-1.1-11-5.7-29.8-10.7-40.5
			c10.7,0.4,21.7,0.4,25.2,0.4c3.9,0,5-1.4,5-5.7v-69.2h-34.4c-3.2,41.5-9.2,84.9-22,117.5c-7.5-6-24.9-16-34.1-19.2
			c19.2-48.3,20.2-119.6,20.2-171.5V16.7h109.3v118.6c15.6-30.2,25.9-71.7,32-112.5l39.8,6.7c-2.8,17-6,34.1-10.3,50.4h25.9V8.5
			h41.2v71.4h68.9v39.8h-68.9v62.1H674v39.1h-63.9v66.7H687.8z M442.5,179.6v-44h-32.3v9.6c0,10.7,0,22-0.4,34.4H442.5z M410.2,54.7
			v42.6h32.3V54.7H410.2z"/>
		<path class="st0" d="M821,17c-7.4,20.9-16,42.2-26.3,62.8v257.4h-38.3v-191c-8.5,12.1-17.4,23.8-25.9,33.7
			c-3.5-9.6-14.9-31.6-21.7-41.5c29.8-32.3,58.2-82.7,74.6-132.8L821,17z M1039.3,59.3v34.4H811.1V59.3h101.5
			c-5.3-13.1-14.2-29.5-22-42.2l35.9-13.5c9.9,14.6,20.9,34.1,25.9,46.9l-20.2,8.9H1039.3z M830.6,216.9h187.8v117.5h-37.3v-9.9
			H866.4v11h-35.9V216.9z M1013.8,145.6H835.9v-33h177.9V145.6z M835.9,164h177.9v33H835.9V164z M866.4,250.6v40.1h114.7v-40.1
			H866.4z"/>
		<path class="st0" d="M1323,167.9c20.9,20.6,49.3,37.3,80.6,46.9c-9.6,7.5-21.7,23.8-27.7,34.4c-41.2-16.3-76.3-45.1-100.8-81.3
			h-86.3c-23.4,31.6-54,60-93,82.7c-6.4-9.6-20.9-23.4-31.6-28.8c29.1-14.9,53.2-33.7,72.4-54h-65.3v-34.4h92.3
			c3.9-6,7.5-11.7,10.7-17.8h-65V83.4h80.2c2.1-5.7,3.9-11,5.3-16.7h-103.7V33h112.5c2.1-10,3.9-19.9,5-29.8l44.4,3.9
			c-1.4,8.5-3.2,17-5.3,25.9h127.1v33.7h-136c-1.8,5.7-3.9,11-5.7,16.7h127.5v32.3h-140.6c-3.2,6-6,11.7-9.6,17.8H1393v34.4H1323z
			 M1329.8,229c-8.2,9.6-17.8,19.2-26.3,27.3c24.1,12.1,47.6,24.1,64.3,33.4l-24.9,31.9c-22-13.8-56.4-32.7-89.5-47.9v23.8
			c0,18.1-3.6,26.3-16.3,32c-12.4,5-29.1,5.3-52.5,5.3c-2.1-10.3-7.5-23.8-12.4-33.4c13.8,0.7,29.5,0.7,33.7,0.4
			c5,0,6.4-1.4,6.4-5.3v-16c-35.9,14.2-72.8,28.4-102.2,39.8l-19.2-35.1c19.2-5.7,44.4-14.2,72.1-23.4c-7.5-9.2-20.6-20.2-31.2-28.4
			l27.7-21.7c12.8,8.2,28.8,21.3,36.6,30.9l-16.7,13.5c11-3.9,22-7.5,33-11.4v-66.4h41.2V234c5.3,2.5,10.6,4.6,16,7.1
			c9.9-10.7,20.2-22.7,27-32.7L1329.8,229z"/>
		<path class="st0" d="M1492.1,140.6c0,56.8-5,143.8-34.4,198.8c-7.8-7.5-27-20.2-37.3-24.5c26.6-50.1,28.8-123.2,28.8-174.3V45.1
			h135.6c-3.9-12.1-8.9-24.5-13.5-35.2l42.6-9.9c6.4,13.8,13.5,30.9,18.5,45.1H1747v40.1h-254.9V140.6z M1750.9,282.2V322h-264.1
			v-39.8h131.4c34.4-52.9,60.3-124.3,73.1-184.2l45.4,14.9c-16.7,56.5-42.6,117.5-73.8,169.3H1750.9z M1539.3,116.8
			c15.3,38.7,32,87.3,40.1,120.3l-39.8,16.7c-6.7-33-23.4-84.1-37.6-122.5L1539.3,116.8z M1600.7,231.1
			c-4.3-32.7-17.4-83.4-28.4-121.8l38.3-9.9c12.1,39.1,25.2,87,30.9,120.7L1600.7,231.1z"/>
		<path class="st0" d="M2083.9,285.8c0,22.7-5,34.1-19.2,40.5c-14.5,7.1-36.2,7.8-68.2,7.5c-1.4-11.4-8.2-29.5-13.5-40.5
			c19.9,1.1,43.3,0.7,49.7,0.7c6.7,0,9.2-2.1,9.2-8.5v-53.2h-74.9v99h-42.6v-99h-72.4c-6.4,38.7-19.2,77.8-44.7,105.4
			c-6.7-7.8-23.8-22.4-33.4-27.3c38.7-42.6,41.9-105.8,41.9-155.5V28h268V285.8z M1924.5,192.4v-43.7h-66.7v6.4
			c0,11.4-0.4,24.1-1.1,37.3H1924.5z M1857.8,68.2v41.2h66.7V68.2H1857.8z M2042,68.2h-74.9v41.2h74.9V68.2z M2042,192.4v-43.7
			h-74.9v43.7H2042z"/>
		<path class="st0" d="M2264.7,289.7c0,19.5-2.8,31.2-14.6,38.3c-11,6.8-26.3,7.8-49.3,7.8c-1.1-11-6-30.2-11.4-40.8
			c12.8,0.7,25.9,0.4,30.2,0.4c4.3,0,6-1.4,6-6.4v-70.3h-37.3c-3.2,41.5-10.3,85.2-24.9,117.5c-7.5-6-24.9-16-34.1-19.5
			c22-48.3,23.4-119.3,23.4-171.1V16.7h111.8V289.7z M2225.6,178.9v-43h-34.8v9.6c0,10.7,0,21.7-0.4,33.4H2225.6z M2190.8,55.7v41.2
			h34.8V55.7H2190.8z M2458.5,147c-8.2,47.9-22.7,87-42.6,118.9c15.3,15.6,33,28.7,52.5,37.3c-8.5,7.8-20.2,22.7-26.3,33
			c-18.5-10.3-35.5-23.4-50.4-38.7c-13.5,14.9-29.1,27.7-46.5,38c-4.3-8.2-13.1-20.6-20.9-28.4v29.1h-40.1V17h163.3v68.5
			c0,18.5-3.9,28.4-18.8,34.1c-13.8,5.3-34.1,5.3-61.1,5.3c-1.8-11-7.5-25.2-12.4-35.5c17.7,1.1,38.7,1.1,44.4,0.7
			c5.7-0.4,7.4-1.4,7.4-5.7V56.1h-82.7v84.1h102.6l6.4-1.4L2458.5,147z M2324.3,302.5c16-8.9,30.2-21.3,43.3-36.2
			c-17.4-25.9-30.5-55.7-41.2-88h-2.1V302.5z M2362.3,178.2c7.1,19.5,16.3,38.3,27.3,55.4c9.6-16.7,17.4-35.5,23.1-55.4H2362.3z"/>
		<path class="st0" d="M2794.1,53.2c-21.3,30.9-51.8,55-88.4,73.9c33.7,7.5,72.1,11.7,113.3,13.5c-8.5,9.2-18.1,25.9-23.4,36.9
			c-54.3-3.9-102.6-12.4-142.7-27.3c-45.4,15.6-95.5,25.6-145.5,31.6c-2.8-10.7-9.9-27.3-16.3-36.9c38.7-3.2,77.4-9.2,112.9-18.5
			c-13.8-8.2-25.9-18.1-37.3-29.5c-12.1,8.5-25.2,17-40.1,24.5c-5-9.9-16.7-25.9-24.5-32.7c50.1-22.7,83.1-54.7,101.2-84.8l43,8.9
			c-5.3,8.5-11,17-17.4,25.2h132.8l6-1.8L2794.1,53.2z M2789.8,200.9c0,0-1.1,11.4-2.1,17c-7.8,60.3-16.7,88.8-29.8,100.1
			c-10.3,9.6-21.7,12.4-37.6,13.1c-13.1,0.7-35.9,0.7-59.3-0.4c-0.7-11-6-26.3-13.1-36.2c23.1,2.1,48.6,2.5,59.3,2.5
			c7.4,0,12.4-0.4,17-3.9c7.1-5.7,13.8-23.1,19.2-56.4h-94.8c-24.1,51.8-66,80.6-130.3,98.3c-4.3-8.9-16.7-26.6-24.5-34.8
			c51.8-10.7,87.7-29.8,108.3-63.6h-84.8v-35.9h100.5c2.1-9.6,4.3-19.2,5.7-30.2l43.7,3.5c-1.8,9.6-3.6,18.1-6,26.6H2789.8z
			 M2593.8,75.3c14.5,14.9,34.1,27,58.6,36.6c28.4-10.3,53.2-23.1,72.8-38.7h-128.9L2593.8,75.3z"/>
		<path class="st0" d="M3088.8,187.1c24.5,16.7,55.7,29.8,88.1,37.6c-9.2,7.8-20.6,23.4-26.3,33.7c-3.5-1.1-7.5-2.1-11-3.5v79.2
			h-40.8v-6.4h-41.9v8.5h-38.7V224h59.6c-16.3-10.7-31.2-23.4-43.7-36.9H2972c-12.8,13.1-27.3,25.6-43.7,36.9h65.3v110.1h-40.5v-6.4
			h-37.6v8.5h-38.7v-83.4c-5,2.5-9.9,4.6-15.3,6.7c-3.5-9.9-14.2-25.6-22.4-33c30.2-11,55-24.5,75.3-39.4H2847v-36.6h105.8
			c7.4-9.6,13.8-19.2,18.8-29.1h-102.3V18.8h120.7v98l27,5c-4.6,9.9-10.3,19.5-16,28.7h73.8c-9.9-5.7-21.3-11.4-31.6-15.3l14.6-13.8
			h-38V18.8h125v102.6h-60.7c12.8,6,25.9,13.5,34.1,19.9l-9.2,9.2h59.3v36.6H3088.8z M2950.3,54.3H2907v31.6h43.3V54.3z
			 M2953.2,260.2h-37.6v30.9h37.6V260.2z M3098.7,291.1v-30.9h-41.9v30.9H3098.7z M3057.9,85.9h46.5V54.3h-46.5V85.9z"/>
	</g>
	<path class="st1" d="M0.8,591.4h350.7l-258-149l-0.3,0.1c-9.1-5.4-19.6-8.6-30.9-8.6c-34,0-61.6,27.5-61.6,61.5
		c0,0.5,0.2,0.9,0.2,1.4L0.8,497V591.4z"/>
	<path class="st1" d="M0.8,1129.6v96.3h0.1c0.2,33.8,27.6,61.1,61.5,61.1c10.9,0,21-3.1,29.9-8.1l0.4,0.3l259.1-149.6H0.8z"/>
	<g>
		<g>
			<defs>
				<rect id="SVGID_1_" x="0.8" y="778.7" width="78.1" height="163.7"/>
			</defs>
			<clipPath id="SVGID_00000026874004613926425120000009913371562917629615_">
				<use xlink:href="#SVGID_1_"  style="overflow:visible;"/>
			</clipPath>
			<path style="clip-path:url(#SVGID_00000026874004613926425120000009913371562917629615_);fill:#888888;" d="M78.9,860.5
				c0-44-34.6-79.7-78.1-81.8v163.7C44.3,940.3,78.9,904.5,78.9,860.5"/>
		</g>
	</g>
	<path class="st1" d="M725.8,807.8v-0.3L489.4,671H0.8v25.6c88.7,2.1,160.1,74.6,160.1,163.9c0,89.3-71.4,161.8-160.1,163.9v25.5
		h488.9l235.6-136v-0.3c18.3-10.7,30.9-30.3,30.9-53.1C756.2,838,743.9,818.5,725.8,807.8L725.8,807.8z"/>
	<path class="st0" d="M922,851.2l-80.7-127.1h47.9l35.7,58.7c8.3,14.7,17.6,29.3,26.4,44h2c8.3-14.7,16.1-29.3,24-44l32.8-58.7h46.4
		l-80.7,131.5l87.5,134h-48.9l-39.1-62.1c-8.8-16.2-18.6-32.3-28.4-47.4h-2.4c-9.3,15.2-18.1,31.3-27.4,47.4l-35.7,62.1h-46.9
		L922,851.2z"/>
	<path class="st0" d="M1095.1,640.5c0-18.1,13.2-28.8,30.8-28.8c17.6,0,30.8,10.8,30.8,28.8c0,16.6-13.2,28.8-30.8,28.8
		C1108.3,669.3,1095.1,657.1,1095.1,640.5L1095.1,640.5z M1103.4,724.1h44.5v265.5h-44.5V724.1z"/>
	<path class="st0" d="M1205.1,1040.5c0-22.5,14.7-44,39.6-60.1v-2c-14.2-8.3-24.4-22.5-24.4-43.5c0-22,16.1-39.6,29.8-49.4v-1.9
		c-17.6-14.2-34.7-39.6-34.7-71.4c0-58.2,46-94.8,99.7-94.8c14.7,0,27.9,3.4,37.2,6.9h92.4v34.2h-54.3
		c12.7,12.2,21.5,31.8,21.5,54.8c0,56.7-43,92.4-96.8,92.4c-13.2,0-27.8-3.4-39.6-9.3c-9.8,8.3-17.1,17.1-17.1,31.8
		c0,17.1,10.8,28.9,46.4,28.9h51.9c61.6,0,92.4,19.6,92.4,63.1c0,49.4-51.8,91.9-134,91.9
		C1250.1,1111.9,1205.1,1086.5,1205.1,1040.5L1205.1,1040.5z M1406.1,1026.8c0-24.5-19.1-32.8-54.3-32.8h-46
		c-9.8,0-22.5-1.5-34.2-4.4c-19.1,13.7-27.4,29.4-27.4,45c0,28.4,28.8,47,77.2,47C1372.4,1081.6,1406.1,1054.7,1406.1,1026.8
		L1406.1,1026.8z M1371.4,812.1c0-38.6-24.9-62.1-56.3-62.1c-31.3,0-56.7,23-56.7,62.1c0,38.7,25.9,63.1,56.7,63.1
		C1345.5,875.2,1371.4,850.8,1371.4,812.1L1371.4,812.1z"/>
	<path class="st0" d="M1461.3,857.1c0-86.1,58.2-139.9,119.8-139.9c67.5,0,105.6,48.9,105.6,124.7c0,9.8-1,19.1-1.9,25.4h-179
		c2.9,56.7,37.7,92.9,88,92.9c25.9,0,47-7.8,66.5-21l16.1,29.3c-23.5,15.2-51.8,27.4-88,27.4C1518.1,996,1461.3,944.7,1461.3,857.1
		L1461.3,857.1z M1647.6,835.6c0-53.8-24.4-82.6-66-82.6c-37.7,0-70.9,30.3-76.3,82.6H1647.6z"/>
	<path class="st0" d="M1740.1,724.1h36.7l3.9,38.6h1.5c23-25.4,50.8-45.5,82.7-45.5c40.6,0,62.6,19.6,73.3,50.8
		c27.4-29.8,55.3-50.8,87.5-50.8c54.8,0,80.7,36.2,80.7,104.2v168.2h-44.5V827.3c0-49.9-15.7-70.9-49.4-70.9
		c-20.5,0-42,13.2-67,40.6v192.7H1901V827.3c0-49.9-15.6-70.9-49.4-70.9c-20,0-42.5,13.2-67,40.6v192.7h-44.5V724.1z"/>
	<path class="st0" d="M2164,920.7c0-57.7,50.4-86.6,163.3-99.3c0-34.2-11.3-67-54.8-67c-30.8,0-58.7,14.2-79.7,28.3l-17.6-30.8
		c24.4-15.6,62.1-34.7,104.6-34.7c64.6,0,91.9,43.5,91.9,109v163.3h-36.7l-3.9-31.8h-1.5c-25.4,21-55.2,38.1-88,38.1
		C2197.3,996,2164,968.6,2164,920.7L2164,920.7z M2327.4,925.1v-74.3c-89.5,10.7-119.8,32.8-119.8,67c0,30.3,20.6,42.6,47,42.6
		C2280.4,960.3,2301.4,948.1,2327.4,925.1L2327.4,925.1z"/>
	<path class="st0" d="M2669.1,882.7h-157l-41.6,109.5h-55.1l145.8-358.5h60.3l145.9,358.5H2710L2669.1,882.7z M2655.6,846.5
		l-20.5-54.8c-15.8-40.6-29.3-79.7-43.3-121.3h-2.4c-13.4,42-27.5,80.7-42.7,121.3l-21.1,54.8H2655.6z"/>
	<path class="st0" d="M2761.6,945.2l32.2-30.8c31.1,26.9,74.4,44.5,118.9,44.5c56.2,0,90.2-23.5,90.2-58.7c0-36.6-31-48.4-71.4-63.6
		l-62.1-22.5c-39.8-14.2-87.3-39.6-87.3-91.9c0-55.3,57.4-95.4,135.3-95.4c50.9,0,96.1,18.1,126.5,44.5l-28.7,28.9
		c-26.4-20.5-58-33.7-97.8-33.7c-48.6,0-80.3,20.5-80.3,52.8c0,34.7,37.5,47.9,70.9,59.7l61.5,22c49.8,18.1,88.5,42.5,88.5,95.8
		c0,56.7-56.2,101.7-145.9,101.7C2851.2,998.6,2799.1,978,2761.6,945.2L2761.6,945.2z"/>
	<path class="st0" d="M3075.4,491c0-14,4.9-25.7,14.7-35.3c9.8-9.5,21.9-14.3,36.3-14.3c14.4,0,26.5,4.7,36,14
		c9.6,9.3,14.4,21.1,14.4,35.3c0,14-4.9,25.7-14.7,35.1c-9.8,9.4-21.9,14.2-36.2,14.2c-14.5,0-26.6-4.6-36.1-13.8
		C3080.2,517,3075.4,505.3,3075.4,491L3075.4,491z M3083.9,490.8c0,12,4.1,22,12.2,30c8.1,8,18.2,12,30.1,12
		c11.7,0,21.6-4,29.8-12.1c8.2-8,12.3-18,12.3-29.8c0-12.1-4-22.1-12.1-30.1c-8.1-8-18.1-12-30-12c-12.2,0-22.3,4-30.3,12
		C3087.9,468.8,3083.9,478.8,3083.9,490.8L3083.9,490.8z M3152,520.9h-16.2l-5.3-15.4c-1.9-5.6-4.5-8.4-7.7-8.4h-5v23.8h-13.4v-61.5
		h20.9c16.2,0,24.4,5.8,24.4,17.4c0,8.4-4.9,13.9-14.6,16.4v0.3c3.9,0.9,7.1,4.2,9.5,9.9L3152,520.9z M3117.7,470.7v16h7.6
		c6.4,0,9.7-2.8,9.7-8.3c0-5.2-3.7-7.7-11.1-7.7H3117.7z"/>
</g>
</svg>
