<?xml version="1.0" encoding="UTF-8"?><svg id="uuid-26ac59c5-93c7-4477-a4f7-f37c975e2b80" xmlns="http://www.w3.org/2000/svg" viewBox="0 0 31 65.1"><defs><style>.uuid-8da1c927-9167-4f9d-9aea-54469db795ec{fill:#fff;}</style></defs><g id="uuid-4e5dcdfe-b542-4810-ba2b-3548060125d8"><g><path class="uuid-8da1c927-9167-4f9d-9aea-54469db795ec" d="M26.66,18.04c-.42,0-.84,.07-1.24,.2v-7.92c0-2.67-1.95-4.84-4.34-4.84-.42,0-.84,.07-1.23,.2v-.84c0-2.67-1.95-4.84-4.34-4.84s-4.21,2.04-4.32,4.6c-.42-.15-.85-.22-1.29-.22-2.39,0-4.34,2.17-4.34,4.84v1.84c-.4-.13-.82-.2-1.24-.2C1.95,10.85,0,13.02,0,15.69v21.52c.01,3.5,1.5,6.84,4.09,9.19,1.21,1.1,1.85,1.86,1.76,2.75,0,.05,0,14.41,0,14.41,0,.86,.69,1.55,1.55,1.55s1.55-.69,1.55-1.55v-14.19c.2-2.56-1.66-4.24-2.77-5.26-1.96-1.75-3.08-4.26-3.08-6.89V15.69c0-.94,.57-1.74,1.24-1.74s1.24,.8,1.24,1.74v13.95c0,.86,.69,1.55,1.55,1.55s1.55-.69,1.55-1.55V9.22c0-.94,.57-1.74,1.24-1.74s1.24,.8,1.24,1.74V29.73c0,.86,.69,1.55,1.55,1.55,.91-.06,1.61-.82,1.6-1.73V4.84c0-.94,.57-1.74,1.24-1.74s1.24,.8,1.24,1.74V29.66c0,.86,.69,1.55,1.55,1.55s1.55-.69,1.55-1.55V10.32c0-.94,.57-1.74,1.23-1.74s1.24,.8,1.24,1.74V29.59c0,.86,.69,1.55,1.55,1.55s1.55-.69,1.55-1.55v-6.71c0-.94,.57-1.74,1.24-1.74s1.24,.8,1.24,1.74v14.33c0,2.63-1.11,5.14-3.08,6.89-1.12,1.01-2.98,2.7-2.77,5.26v8.81c0,.86,.69,1.55,1.55,1.55s1.55-.69,1.55-1.55c0,0,0-8.98,0-9.03-.08-.89,.55-1.65,1.76-2.75,2.6-2.35,4.08-5.68,4.09-9.19v-14.33c0-2.67-1.95-4.84-4.34-4.84Z"/><path class="uuid-8da1c927-9167-4f9d-9aea-54469db795ec" d="M15.5,49.6c-.86,0-1.55,.69-1.55,1.55v3.1c0,.86,.69,1.55,1.55,1.55s1.55-.69,1.55-1.55v-3.1c0-.86-.69-1.55-1.55-1.55Z"/></g></g></svg>