<?xml version="1.0" encoding="UTF-8"?><svg id="uuid-f2bfe5ec-e94f-4807-806a-d489fcfd461f" xmlns="http://www.w3.org/2000/svg" viewBox="0 0 60.45 70.88"><defs><style>.uuid-84168be8-4f26-47b7-b8de-40a15dd4c324{fill:#fff;}.uuid-7e2e1209-f019-415a-9f1c-2efde38ab6ff{fill:#1b2080;}</style></defs><g id="uuid-783f2825-182c-4f7b-b1d4-426af34640c7"><g><polygon class="uuid-7e2e1209-f019-415a-9f1c-2efde38ab6ff" points="0 0 0 59.6 30.23 70.88 60.45 59.6 60.45 0 0 0"/><path class="uuid-84168be8-4f26-47b7-b8de-40a15dd4c324" d="M45.46,40.21l-5.28-3.3,5.28-3.31c.42-.26,.54-.82,.28-1.24-.07-.11-.17-.21-.28-.28l-5.27-3.31,5.28-3.3c.2-.13,.35-.32,.4-.56,.05-.23,.02-.47-.11-.68-.07-.12-.17-.22-.29-.29l-14.49-9.06c-.15-.1-.33-.14-.51-.14-.15,0-.3,.06-.43,.14l-14.49,9.06c-.2,.13-.35,.32-.4,.56-.05,.23-.02,.47,.11,.68,.07,.12,.17,.22,.29,.29l5.28,3.3-5.28,3.31c-.42,.26-.54,.82-.28,1.24,.07,.11,.17,.21,.28,.28l5.28,3.31-5.28,3.3c-.42,.26-.55,.82-.29,1.24,.07,.12,.17,.21,.29,.29l14.49,9.06c.29,.18,.65,.18,.94,0l14.49-9.06c.2-.13,.35-.33,.4-.56s.01-.47-.11-.68c-.07-.12-.17-.21-.29-.29Zm-27.75-15.49l12.78-8.01,12.79,8.01-5.22,3.27-.18-.19,.13,.21-7.51,4.71-12.79-8.01Zm-.01,8.12l4.8-3,7.52,4.71c.29,.18,.65,.18,.94,0l7.52-4.71,4.81,3.01-5.2,3.25s-.06,.03-.08,.05l-7.51,4.7-12.8-8.01Zm12.8,16.14l-12.79-8.01,4.79-3.01,7.52,4.71c.29,.18,.65,.18,.94,0l7.52-4.71,4.8,3.01-12.79,8.01Z"/></g></g></svg>