<svg width="64" height="65" viewBox="0 0 64 65" fill="none" xmlns="http://www.w3.org/2000/svg">
<path d="M2.3999 38.2001H12.7999C13.6836 38.2001 14.3999 38.9164 14.3999 39.8001V60.6001C14.3999 61.4838 13.6836 62.2001 12.7999 62.2001H2.3999" stroke="#1B208B" stroke-width="2"/>
<path d="M14.3999 42.3468C17.7938 38.9109 23.2439 38.1729 27.4908 39.8926C29.9151 40.8742 30.8848 42.8374 35.7333 42.8374C37.9883 42.8374 40.5711 42.8374 42.7195 42.8374C44.7527 42.8374 46.4 44.4856 46.4 46.5188C46.4 48.5519 44.7518 50.2001 42.7186 50.2001H29.9151" stroke="#1B208B" stroke-width="2"/>
<path d="M42.3183 50.2001H43.8285C45.3612 50.2001 46.8216 49.5487 47.8456 48.4083L54.8393 40.6199C56.0694 39.2501 58.1418 39.046 59.6154 40.1496C61.163 41.3085 61.5006 43.4917 60.3755 45.064L51.4475 57.5406C49.7141 59.9629 46.9206 61.4001 43.942 61.4001C37.1846 61.4001 28.3258 61.4001 26.155 61.4001C19.7877 61.4001 14.3999 59.3827 14.3999 59.3827" stroke="#1B208B" stroke-width="2"/>
<path d="M23.1157 2.19995C27.4736 2.19995 32.7999 6.09996 32.7999 10.4875C32.7999 6.09996 38.1263 2.19995 42.4842 2.19995C46.3579 2.19995 51.2 5.61246 51.2 11.95C51.2 17.02 46.3579 21.7 45.3894 22.675L32.7999 33.4L20.2104 22.675C19.242 21.7 14.3999 17.02 14.3999 11.95C14.3999 5.61246 19.242 2.19995 23.1157 2.19995Z" stroke="#1B208B" stroke-width="2"/>
</svg>
