<svg width="64" height="65" viewBox="0 0 64 65" fill="none" xmlns="http://www.w3.org/2000/svg">
<path d="M30.8587 4.11244C31.2179 3.00686 32.782 3.00686 33.1412 4.11244L39.5436 23.817C39.7043 24.3114 40.165 24.6462 40.6849 24.6462H61.4035C62.566 24.6462 63.0493 26.1337 62.1088 26.817L45.3471 38.9951C44.9265 39.3007 44.7506 39.8423 44.9112 40.3367L51.3136 60.0413C51.6728 61.1469 50.4075 62.0662 49.467 61.3829L32.7053 49.2049C32.2847 48.8993 31.7152 48.8993 31.2946 49.2049L14.5329 61.3829C13.5924 62.0662 12.3271 61.1469 12.6863 60.0413L19.0887 40.3367C19.2493 39.8423 19.0734 39.3007 18.6528 38.9951L1.89106 26.817C0.950603 26.1337 1.43394 24.6462 2.5964 24.6462H23.315C23.8349 24.6462 24.2956 24.3114 24.4563 23.817L30.8587 4.11244Z" stroke="#1B208B" stroke-width="2"/>
</svg>
