<svg width="64" height="65" viewBox="0 0 64 65" fill="none" xmlns="http://www.w3.org/2000/svg">
<circle cx="12.8" cy="12.8" r="12.8" transform="matrix(1 0 0 -1 19.2 45.4001)" stroke="#1B208B" stroke-width="2"/>
<circle cx="12.8" cy="12.8" r="12.8" transform="matrix(1 0 0 -1 19.2 45.4001)" stroke="#1B208B" stroke-width="2"/>
<path d="M11.1 26.5059C13.4473 18.4423 20.3346 12.3122 28.8103 11.0674C30.5588 10.8106 32 9.40265 32 7.63534V3.00004M38.0942 11.7C46.1578 14.0473 52.2879 20.9346 53.5327 29.4103C53.7895 31.1589 55.1974 32.6001 56.9648 32.6001H61.6001M52.9001 38.6942C50.5528 46.7579 43.6655 52.888 35.1898 54.1327C33.4412 54.3895 32 55.7975 32 57.5648V62.2001M25.9059 53.5001C17.8422 51.1528 11.7121 44.2655 10.4674 35.7898C10.2106 34.0413 8.80263 32.6001 7.03532 32.6001H2.40002" stroke="#1B208B" stroke-width="2"/>
<path d="M26.4 6.20037L32 3.00037L37.6 6.20037" stroke="#1B208B" stroke-width="2"/>
<path d="M26.4 59.0001L32 62.2001L37.6 59.0001" stroke="#1B208B" stroke-width="2"/>
<path d="M5.60003 38.2003L2.40002 32.6003L5.60003 27.0003" stroke="#1B208B" stroke-width="2"/>
<path d="M58.4 38.2003L61.6 32.6003L58.4 27.0003" stroke="#1B208B" stroke-width="2"/>
</svg>
