<?xml version="1.0" encoding="utf-8"?>
<!-- Generator: Adobe Illustrator 26.0.3, SVG Export Plug-In . SVG Version: 6.00 Build 0)  -->
<svg version="1.1" id="Layer_1" xmlns="http://www.w3.org/2000/svg" xmlns:xlink="http://www.w3.org/1999/xlink" x="0px" y="0px"
	 viewBox="0 0 522 138.4" style="enable-background:new 0 0 522 138.4;" xml:space="preserve">
<style type="text/css">
	.st0{fill:#FFFFFF;}
</style>
<g>
	<path class="st0" d="M24.2,110.9c-1.2,0-2.3-0.1-3.3-0.2c-0.9-0.1-1.7-0.3-2.4-0.5v-8c0.7,0.1,1.4,0.3,2.1,0.4
		c0.8,0.1,1.6,0.2,2.4,0.2c1.1,0,2.1-0.2,3-0.6c0.9-0.4,1.6-1.2,2.1-2.4c0.5-1.2,0.8-2.9,0.8-5.1V52.1h9.6v42.5c0,3.9-0.6,7-1.8,9.4
		c-1.2,2.4-2.9,4.1-5.1,5.2C29.6,110.3,27.1,110.9,24.2,110.9z"/>
	<path class="st0" d="M77.8,97.5l-3.3-10.8H58l-3.3,10.8H44.3l16-45.6h11.8l16.1,45.6H77.8z M72.2,78.6l-3.3-10.6
		c-0.2-0.7-0.5-1.6-0.8-2.7c-0.3-1.1-0.7-2.2-1-3.4c-0.3-1.1-0.6-2.1-0.8-3c-0.2,0.8-0.5,1.9-0.9,3.2c-0.4,1.3-0.7,2.4-1,3.6
		c-0.3,1.1-0.6,1.9-0.7,2.4l-3.3,10.6H72.2z"/>
	<path class="st0" d="M130.4,97.5h-10.9l-11.9-19.1l-4.1,2.9v16.2h-9.6V52.1h9.6v20.8c0.6-0.9,1.3-1.8,1.9-2.7
		c0.6-0.9,1.3-1.8,1.9-2.7l12.3-15.4h10.7l-15.8,20.1L130.4,97.5z"/>
	<path class="st0" d="M163.9,97.5l-3.3-10.8h-16.5l-3.3,10.8h-10.4l16-45.6h11.8l16.1,45.6H163.9z M158.3,78.6L155,68.1
		c-0.2-0.7-0.5-1.6-0.8-2.7c-0.3-1.1-0.7-2.2-1-3.4c-0.3-1.1-0.6-2.1-0.8-3c-0.2,0.8-0.5,1.9-0.9,3.2c-0.4,1.3-0.7,2.4-1,3.6
		c-0.3,1.1-0.6,1.9-0.7,2.4l-3.3,10.6H158.3z"/>
	<path class="st0" d="M193.2,52.1c4.1,0,7.5,0.5,10.2,1.5c2.7,1,4.7,2.5,6,4.5s2,4.5,2,7.6c0,2.1-0.4,3.9-1.2,5.4
		c-0.8,1.6-1.8,2.9-3.1,3.9c-1.3,1.1-2.7,2-4.2,2.6l13.4,19.8h-10.7l-10.8-17.4h-5.1v17.4H180V52.1H193.2z M192.5,60h-2.9v12.3h3.1
		c3.2,0,5.5-0.5,6.8-1.6c1.4-1.1,2.1-2.6,2.1-4.7c0-2.2-0.7-3.7-2.2-4.6C197.9,60.5,195.6,60,192.5,60z"/>
	<path class="st0" d="M239.5,97.5h-9.6V60.1h-12.3v-8h34.3v8h-12.3V97.5z"/>
	<path class="st0" d="M286.6,97.5l-3.3-10.8h-16.5l-3.3,10.8h-10.4l16-45.6h11.8L297,97.5H286.6z M281,78.6l-3.3-10.6
		c-0.2-0.7-0.5-1.6-0.8-2.7c-0.3-1.1-0.7-2.2-1-3.4c-0.3-1.1-0.6-2.1-0.8-3c-0.2,0.8-0.5,1.9-0.9,3.2c-0.4,1.3-0.7,2.4-1,3.6
		c-0.3,1.1-0.6,1.9-0.7,2.4l-3.3,10.6H281z"/>
	<path class="st0" d="M345.3,97.5h-26.1V52.1h26.1V60h-16.5v10h15.4v7.9h-15.4v11.7h16.5V97.5z"/>
	<path class="st0" d="M380.9,97.5h-26.1V52.1h26.1V60h-16.5v10h15.4v7.9h-15.4v11.7h16.5V97.5z"/>
</g>
<g>
	<path class="st0" d="M404.1,101.5l9.6-54.6l-11.6,4.5L397,38.3l23.3-10.1h12.7l-13,73.2H404.1z"/>
	<path class="st0" d="M466.6,103.2c-3.8,0-7.3-0.7-10.6-2c-3.3-1.4-6.1-3.4-8.6-6.1c-2.4-2.7-4.3-6.1-5.7-10.2
		c-1.4-4.1-2.1-8.8-2.1-14.1c0-5.8,0.9-11.3,2.7-16.6c1.8-5.3,4.3-10,7.5-14.1c3.2-4.1,7.2-7.3,11.8-9.8s9.8-3.7,15.5-3.7
		c3.9,0,7.4,0.7,10.7,2c3.3,1.4,6.1,3.4,8.6,6.2c2.4,2.7,4.3,6.1,5.7,10.2c1.4,4,2,8.7,2,14.1c0,6.3-0.9,12.1-2.8,17.5
		c-1.9,5.4-4.4,10.1-7.8,14c-3.3,4-7.3,7.1-11.9,9.3C477,102.1,472,103.2,466.6,103.2z M468.1,88.2c2.9,0,5.6-0.7,8-2.2
		c2.4-1.5,4.5-3.5,6.2-6c1.7-2.5,3-5.5,4-8.9c1-3.4,1.4-7.1,1.4-11c0-6.1-1.1-10.7-3.4-13.8c-2.2-3.1-5.2-4.7-8.8-4.7
		c-3.1,0-5.9,0.8-8.3,2.5c-2.4,1.7-4.5,3.9-6.2,6.5c-1.7,2.7-3,5.7-3.9,9c-0.9,3.4-1.3,6.7-1.3,10.1c0,6,1.2,10.6,3.5,13.8
		C461.7,86.6,464.6,88.2,468.1,88.2z"/>
</g>
</svg>
