<?xml version="1.0" encoding="utf-8"?>
<!-- Generator: Adobe Illustrator 26.0.3, SVG Export Plug-In . SVG Version: 6.00 Build 0)  -->
<svg version="1.1" id="Layer_1" xmlns="http://www.w3.org/2000/svg" xmlns:xlink="http://www.w3.org/1999/xlink" x="0px" y="0px"
	 viewBox="0 0 170.2 181.9" style="enable-background:new 0 0 170.2 181.9;" xml:space="preserve">
<style type="text/css">
	.st0{fill:#F18121;}
</style>
<g>
	<g>
		<g>
			<path class="st0" d="M159.6,30.8H11.1c-4.7,0-8.5,3.8-8.5,8.5v93.4c0,4.7,3.8,8.5,8.5,8.5h148.5c4.7,0,8.5-3.8,8.5-8.5V39.3
				C168.1,34.7,164.3,30.8,159.6,30.8L159.6,30.8z M156.5,37.2L90.3,86.9c-1.2,0.9-3,1.5-4.9,1.5c-1.9,0-3.7-0.6-4.9-1.5L14.3,37.2
				H156.5z M121.1,90.1l36.1,44.6c0,0,0.1,0.1,0.1,0.1H13.5c0,0,0.1-0.1,0.1-0.1l36.1-44.6c1.1-1.4,0.9-3.4-0.5-4.5
				c-1.4-1.1-3.4-0.9-4.5,0.5L9,130.2V41.2l67.7,50.8c2.5,1.9,5.6,2.7,8.7,2.7c3.1,0,6.2-0.8,8.7-2.7l67.7-50.8v89.1L126,86.1
				c-1.1-1.4-3.1-1.6-4.5-0.5C120.2,86.8,120,88.8,121.1,90.1L121.1,90.1z M121.1,90.1"/>
		</g>
	</g>
</g>
</svg>
