<?xml version="1.0" encoding="utf-8"?>
<!-- Generator: Adobe Illustrator 26.0.3, SVG Export Plug-In . SVG Version: 6.00 Build 0)  -->
<svg version="1.1" id="Layer_1" xmlns="http://www.w3.org/2000/svg" xmlns:xlink="http://www.w3.org/1999/xlink" x="0px" y="0px"
	 viewBox="0 0 100 100" style="enable-background:new 0 0 100 100;" xml:space="preserve">
<style type="text/css">
	.st0{fill:#F18121;}
</style>
<g>
	<path class="st0" d="M81.4,100H18.5c-3.4,0-6.1-2.8-6.1-6.1V17.5c0-1.6,0.7-3.2,1.8-4.3L25.5,1.8C26.6,0.7,28.2,0,29.8,0h51.6
		c3.4,0,6.1,2.8,6.1,6.1v87.7C87.5,97.2,84.8,100,81.4,100z M29.8,3.6c-0.7,0-1.3,0.3-1.8,0.8L16.7,15.7c-0.5,0.5-0.8,1.1-0.8,1.8
		v76.3c0,1.4,1.1,2.6,2.6,2.6h62.9c1.4,0,2.6-1.1,2.6-2.6V6.1c0-1.4-1.1-2.6-2.6-2.6H29.8z"/>
	<path class="st0" d="M27.2,17.5H15.1c-1,0-1.8-0.8-1.8-1.8s0.8-1.8,1.8-1.8h12.1c0,0,0.1,0,0.1-0.1v-12c0-1,0.8-1.8,1.8-1.8
		c1,0,1.8,0.8,1.8,1.8v12C30.9,15.9,29.2,17.5,27.2,17.5z"/>
	<path class="st0" d="M73.1,28.3H52.2c-1,0-1.8-0.8-1.8-1.8c0-1,0.8-1.8,1.8-1.8h20.9c1,0,1.8,0.8,1.8,1.8
		C74.9,27.5,74.1,28.3,73.1,28.3z"/>
	<path class="st0" d="M40.2,28.3H26.8c-1,0-1.8-0.8-1.8-1.8c0-1,0.8-1.8,1.8-1.8h13.5c1,0,1.8,0.8,1.8,1.8
		C42,27.5,41.2,28.3,40.2,28.3z"/>
	<path class="st0" d="M73.1,37.9h-6.3c-1,0-1.8-0.8-1.8-1.8s0.8-1.8,1.8-1.8h6.3c1,0,1.8,0.8,1.8,1.8S74.1,37.9,73.1,37.9z"/>
	<path class="st0" d="M55.4,37.9H26.8c-1,0-1.8-0.8-1.8-1.8s0.8-1.8,1.8-1.8h28.6c1,0,1.8,0.8,1.8,1.8S56.4,37.9,55.4,37.9z"/>
	<path class="st0" d="M57,66.6H26.8c-1,0-1.8-0.8-1.8-1.8s0.8-1.8,1.8-1.8H57c1,0,1.8,0.8,1.8,1.8S58,66.6,57,66.6z"/>
	<path class="st0" d="M73.1,57h-27c-1,0-1.8-0.8-1.8-1.8s0.8-1.8,1.8-1.8h27c1,0,1.8,0.8,1.8,1.8S74.1,57,73.1,57z"/>
	<path class="st0" d="M34.7,57h-7.9c-1,0-1.8-0.8-1.8-1.8s0.8-1.8,1.8-1.8h7.9c1,0,1.8,0.8,1.8,1.8S35.7,57,34.7,57z"/>
	<path class="st0" d="M73.1,47.5H26.8c-1,0-1.8-0.8-1.8-1.8s0.8-1.8,1.8-1.8h46.4c1,0,1.8,0.8,1.8,1.8S74.1,47.5,73.1,47.5z"/>
</g>
</svg>
