<?xml version="1.0" encoding="utf-8"?>
<!-- Generator: Adobe Illustrator 26.0.3, SVG Export Plug-In . SVG Version: 6.00 Build 0)  -->
<svg version="1.1" id="Layer_1" xmlns="http://www.w3.org/2000/svg" xmlns:xlink="http://www.w3.org/1999/xlink" x="0px" y="0px"
	 viewBox="0 0 170.2 181.9" style="enable-background:new 0 0 170.2 181.9;" xml:space="preserve">
<style type="text/css">
	.st0{fill:#F18121;}
</style>
<g>
	<path class="st0" d="M98,148.2c6,0,11.5-3.6,13.8-9.2c2.3-5.6,1-12-3.2-16.2c-4.3-4.3-10.7-5.5-16.2-3.2c-5.6,2.3-9.2,7.7-9.2,13.8
		C83.2,141.5,89.8,148.1,98,148.2L98,148.2z M98,124.3c3.6,0,6.9,2.2,8.3,5.5c1.4,3.3,0.6,7.2-1.9,9.7c-2.6,2.6-6.4,3.3-9.7,1.9
		c-3.3-1.4-5.5-4.6-5.5-8.3C89.1,128.3,93.1,124.3,98,124.3L98,124.3z M75.7,25.2c0-1.6,1.3-3,3-3h38.7c1.6,0,3,1.3,3,3s-1.3,3-3,3
		H78.7C77,28.1,75.7,26.8,75.7,25.2L75.7,25.2z M138.2,46c0,1.6-1.3,3-3,3H60.8c-1.6,0-3-1.3-3-3s1.3-3,3-3h74.5
		C136.9,43,138.2,44.4,138.2,46L138.2,46z M138.2,60.9c0,1.6-1.3,3-3,3H60.8c-1.6,0-3-1.3-3-3s1.3-3,3-3h74.5
		C136.9,57.9,138.2,59.3,138.2,60.9L138.2,60.9z M138.2,75.8c0,1.6-1.3,3-3,3H60.8c-1.6,0-3-1.3-3-3c0-1.6,1.3-3,3-3h74.5
		C136.9,72.8,138.2,74.1,138.2,75.8L138.2,75.8z M138.2,90.7c0,1.6-1.3,3-3,3H60.8c-1.6,0-3-1.3-3-3c0-1.6,1.3-3,3-3h74.5
		C136.9,87.7,138.2,89,138.2,90.7L138.2,90.7z M152.8,10.3c0-4.9-4-8.9-8.9-8.9H32.5c-0.8-0.1-1.7,0-2.5,0.2
		c-8,1.2-13.9,8.1-13.9,16.2v19.4c0,4.9,4,8.9,8.9,8.9h17.9v95.3c0,4.9,4,8.9,8.9,8.9h24.5c0.3,1.5,1.2,2.8,2.4,3.7l-6.2,17.3
		c-0.3,0.9-0.2,1.9,0.4,2.7c0.6,0.8,1.5,1.3,2.5,1.2l7-0.2l4.9,4.4c0.7,0.7,1.8,0.9,2.7,0.7c1-0.2,1.7-0.9,2.1-1.9l5.7-16.1
		l5.7,16.1c0.3,0.9,1.1,1.6,2.1,1.9c1,0.2,2,0,2.7-0.7l4.9-4.4l7,0.2c1,0,1.9-0.4,2.5-1.2c0.6-0.8,0.7-1.8,0.4-2.7l-6.2-17.3
		c1.3-0.9,2.1-2.2,2.4-3.7h24.5c2.4,0,4.6-0.9,6.3-2.6c1.7-1.7,2.6-4,2.6-6.3L152.8,10.3z M25.1,40.1c-1.6,0-3-1.3-3-3V17.7
		c0-5.8,4.7-10.4,10.4-10.4S42.9,12,42.9,17.7v22.3H25.1z M82.2,120.6c-0.1-1-0.1-2.1,0-3.1c1.1-0.2,2.1-0.2,3.2-0.1
		c3.9,0.7,7.9-0.9,10.2-4.2c0.7-0.8,1.9-2.2,2.4-2.3c0.5,0.1,1.8,1.5,2.4,2.3c2.3,3.3,6.3,4.9,10.2,4.2c1-0.1,2.1-0.1,3.1,0
		c0.2,1.1,0.2,2.1,0.1,3.2c-0.7,3.9,0.9,7.9,4.2,10.2c0.8,0.7,2.2,1.9,2.3,2.4c-0.1,0.5-1.5,1.8-2.3,2.4c-3.3,2.3-4.9,6.3-4.2,10.2
		c0.1,1,0.1,2.1,0,3.1c-1.1,0.2-2.1,0.2-3.2,0.1c-3.9-0.7-7.9,0.9-10.2,4.2c-0.7,0.8-1.9,2.2-2.4,2.3c-0.5-0.1-1.8-1.5-2.4-2.3
		c-2.3-3.3-6.3-4.9-10.2-4.2c-1,0.1-2.1,0.1-3.1,0c-0.2-1.1-0.2-2.1-0.1-3.2c0.7-3.9-0.9-7.9-4.2-10.2c-0.8-0.7-2.2-1.9-2.3-2.4
		c0.1-0.5,1.5-1.8,2.3-2.4C81.3,128.6,82.9,124.6,82.2,120.6L82.2,120.6z M88.2,172.1l-2.5-2.3c-0.5-0.5-1.3-0.8-2-0.8h-0.1
		l-3.9,0.1l5-14.1c2.9-0.3,4.6-0.5,6.4,2.1c0.5,0.6,1.1,1.2,1.7,1.8L88.2,172.1z M112.5,169.1c-0.8,0-1.5,0.3-2.1,0.8l-2.5,2.3
		l-4.6-13c0.6-0.6,1.2-1.2,1.7-1.8c1.7-2.6,3.5-2.4,6.4-2.1l5,14.1L112.5,169.1z M146.3,143.4c-0.6,0.6-1.3,0.9-2.1,0.9h-24.4
		c-0.1-1.8,0.4-2.7,2.3-4.1c2.4-1.6,4-4.1,4.3-6.9c-0.3-2.8-1.9-5.4-4.3-6.9c-1.9-1-2.8-3.3-2.2-5.4c0.6-2.7-0.1-5.5-1.8-7.7
		c-2.2-1.7-5-2.4-7.7-1.8c-2.1,0.6-4.3-0.3-5.4-2.2c-1.6-2.4-4.1-4-6.9-4.3c-2.8,0.3-5.4,1.9-6.9,4.3c-1,1.9-3.3,2.8-5.4,2.2
		c-2.7-0.6-5.5,0.1-7.7,1.8c-1.7,2.2-2.4,5-1.8,7.7c0.6,2.1-0.3,4.3-2.2,5.4c-2.4,1.6-4,4.1-4.3,6.9c0.3,2.8,1.9,5.4,4.3,6.9
		c1.8,1.4,2.3,2.3,2.3,4.1H51.9c-1.6,0-3-1.3-3-3V17.7c0-3.8-1.3-7.5-3.8-10.4h98.7c1.6,0,3,1.3,3,3v0l0.3,131
		C147.2,142.1,146.9,142.9,146.3,143.4L146.3,143.4z M146.3,143.4"/>
</g>
</svg>
