<?xml version="1.0" encoding="utf-8"?>
<!-- Generator: Adobe Illustrator 26.0.3, SVG Export Plug-In . SVG Version: 6.00 Build 0)  -->
<svg version="1.1" id="Layer_1" xmlns="http://www.w3.org/2000/svg" xmlns:xlink="http://www.w3.org/1999/xlink" x="0px" y="0px"
	 viewBox="0 0 100 100" style="enable-background:new 0 0 100 100;" xml:space="preserve">
<style type="text/css">
	.st0{fill:#F18121;}
</style>
<g>
	<g>
		<path class="st0" d="M61.6,48.6L61.6,48.6c5.4,0,9.8-4.4,9.8-9.8V10.4c0-5.4-4.4-9.8-9.8-9.8c-5.4,0-9.8,4.4-9.8,9.8v28.4
			C51.8,44.2,56.2,48.6,61.6,48.6L61.6,48.6z M55.7,10.4c0-3.2,2.6-5.9,5.9-5.9c3.2,0,5.9,2.6,5.9,5.9v28.4c0,3.2-2.6,5.9-5.9,5.9h0
			c-3.2,0-5.9-2.6-5.9-5.9V10.4z M55.7,10.4"/>
		<path class="st0" d="M38.4,51.6L38.4,51.6c-5.4,0-9.8,4.4-9.8,9.8v28.4c0,5.4,4.4,9.8,9.8,9.8c5.4,0,9.8-4.4,9.8-9.8V61.4
			C48.2,56,43.8,51.6,38.4,51.6L38.4,51.6z M44.3,89.8c0,3.2-2.6,5.9-5.9,5.9c-3.2,0-5.9-2.6-5.9-5.9V61.4c0-3.2,2.6-5.9,5.9-5.9h0
			c3.2,0,5.9,2.6,5.9,5.9V89.8z M44.3,89.8"/>
		<path class="st0" d="M38.5,28.8H9.8c-5.4,0-9.8,4.4-9.8,9.8c0,5.4,4.4,9.8,9.8,9.8h28.7c5.4,0,9.8-4.4,9.8-9.8v0
			C48.2,33.1,43.9,28.8,38.5,28.8L38.5,28.8z M44.3,38.5c0,3.2-2.6,5.9-5.9,5.9H9.8c-3.2,0-5.9-2.6-5.9-5.9c0-3.2,2.6-5.9,5.9-5.9
			h28.7C41.7,32.7,44.3,35.3,44.3,38.5L44.3,38.5z M44.3,38.5"/>
		<path class="st0" d="M78.2,48.2h8.4c5.7,0,10.4-4.6,10.4-10.3v-1.9c0-5.7-4.7-10.3-10.4-10.3c-5.7,0-10.4,4.6-10.4,10.3v10.3
			C76.3,47.3,77.1,48.2,78.2,48.2L78.2,48.2z M80.2,35.9c0-3.6,2.9-6.4,6.5-6.4c3.6,0,6.5,2.9,6.5,6.4v1.9c0,3.6-2.9,6.4-6.5,6.4
			h-6.5V35.9z M80.2,35.9"/>
		<path class="st0" d="M21.8,52h-8.4C7.6,52,3,56.7,3,62.4v1.9C3,70,7.6,74.6,13.3,74.6c5.7,0,10.4-4.6,10.4-10.3V54
			C23.7,52.9,22.9,52,21.8,52L21.8,52z M19.8,64.3c0,3.6-2.9,6.4-6.5,6.4c-3.6,0-6.5-2.9-6.5-6.4v-1.9c0-3.6,2.9-6.4,6.5-6.4h6.5
			V64.3z M19.8,64.3"/>
		<path class="st0" d="M36.3,25h8.4c1.1,0,2-0.9,2-1.9V12.8c0-5.7-4.7-10.3-10.4-10.3C30.6,2.4,26,7.1,26,12.8v1.9
			C26,20.4,30.6,25,36.3,25L36.3,25z M29.9,12.8c0-3.6,2.9-6.4,6.5-6.4c3.6,0,6.5,2.9,6.5,6.4v8.3h-6.5c-3.6,0-6.5-2.9-6.5-6.4V12.8
			z M29.9,12.8"/>
		<path class="st0" d="M63.7,75.2h-8.4c-1.1,0-2,0.9-2,1.9v10.3c0,5.7,4.7,10.3,10.4,10.3c5.7,0,10.4-4.6,10.4-10.3v-1.9
			C74,79.8,69.4,75.2,63.7,75.2L63.7,75.2z M70.1,87.4c0,3.6-2.9,6.4-6.5,6.4c-3.6,0-6.5-2.9-6.5-6.4v-8.3h6.5
			c3.6,0,6.5,2.9,6.5,6.4V87.4z M70.1,87.4"/>
		<path class="st0" d="M90.2,51.9H61.5c-5.4,0-9.8,4.4-9.8,9.8c0,5.4,4.4,9.8,9.8,9.8h5.8c1.1,0,2-0.9,2-1.9c0-1.1-0.9-1.9-2-1.9
			h-5.8c-3.2,0-5.9-2.6-5.9-5.9c0-3.2,2.6-5.9,5.9-5.9h28.7c3.2,0,5.9,2.6,5.9,5.9c0,3.2-2.6,5.9-5.9,5.9H85c-1.1,0-2,0.9-2,1.9
			c0,1.1,0.9,1.9,2,1.9h5.2c5.4,0,9.8-4.4,9.8-9.8C100,56.3,95.6,51.9,90.2,51.9L90.2,51.9z M90.2,51.9"/>
		<path class="st0" d="M77.3,67.9c-0.7-0.5-1.7-0.4-2.3,0.1c-0.6,0.5-0.9,1.4-0.6,2.1c0.3,0.8,1,1.3,1.8,1.3c0.8,0,1.6-0.5,1.9-1.2
			C78.4,69.4,78.1,68.4,77.3,67.9L77.3,67.9z M77.3,67.9"/>
	</g>
</g>
</svg>
