<?xml version="1.0" encoding="utf-8"?>
<!-- Generator: Adobe Illustrator 26.0.3, SVG Export Plug-In . SVG Version: 6.00 Build 0)  -->
<svg version="1.1" id="Layer_1" xmlns="http://www.w3.org/2000/svg" xmlns:xlink="http://www.w3.org/1999/xlink" x="0px" y="0px"
	 viewBox="0 0 100 100" style="enable-background:new 0 0 100 100;" xml:space="preserve">
<style type="text/css">
	.st0{fill:#F18121;}
</style>
<g>
	<g>
		<path class="st0" d="M8,36.2c0.4,0.4,0.9,0.6,1.3,0.6c0.5,0,1-0.2,1.3-0.6c0.7-0.7,0.7-2,0-2.7l0,0c-0.7-0.7-2-0.7-2.7,0
			C7.2,34.2,7.2,35.4,8,36.2L8,36.2z"/>
		<path class="st0" d="M65.6,9.5c0.4,0.4,0.9,0.6,1.3,0.6c0.5,0,1-0.2,1.4-0.6c0.7-0.7,0.7-2,0-2.7c-0.7-0.7-2-0.7-2.7,0
			C64.9,7.5,64.9,8.7,65.6,9.5L65.6,9.5z"/>
		<path class="st0" d="M97.5,72.1c-0.4-1-1.5-1.5-2.5-1.1c-1,0.4-1.5,1.5-1.1,2.5c1.8,4.5,1.4,9.6-1,13.7c-1-2.7-3.2-4.9-6.2-5.7
			l-0.5-0.1c0.7-1.2,1.1-2.6,1.1-4.1v-1.6c0-4.4-3.6-8-8-8c-4.4,0-8,3.6-8,8v1.6c0,1.5,0.4,2.9,1.1,4.1L72,81.5
			c-2.9,0.8-5.2,2.9-6.2,5.7c-3.5-6-2.6-13.8,2.5-18.9c4.4-4.4,11-5.8,16.8-3.5c1,0.4,2.1-0.1,2.5-1.1c0.4-1-0.1-2.1-1.1-2.5
			c-7.2-2.8-15.4-1.1-20.9,4.4c-0.9,0.9-1.7,1.9-2.4,2.9l-17.4-9.3c2.5-5.9,2.5-12.6,0-18.5l17.4-9.3c0.7,1,1.5,2,2.4,2.9
			C69.3,38,74.2,40,79.4,40c5.2,0,10.1-2,13.8-5.7c7.6-7.6,7.6-19.9,0-27.5c-5.5-5.5-13.7-7.2-21-4.3c-1,0.4-1.5,1.5-1.1,2.5
			c0.4,1,1.5,1.5,2.5,1.1c5.8-2.3,12.4-1,16.9,3.5c5.1,5.1,5.9,12.9,2.5,18.9c-1-2.7-3.2-4.9-6.2-5.7l-0.5-0.1
			c0.7-1.2,1.1-2.6,1.1-4.1v-1.6c0-4.4-3.6-8-8-8c-4.4,0-8,3.6-8,8v1.6c0,1.5,0.4,2.9,1.1,4.1L72,22.8c-2.9,0.8-5.2,2.9-6.2,5.7
			c-2.4-4.1-2.8-9.1-1-13.6c0.4-1-0.1-2.1-1.1-2.5c-1-0.4-2.1,0.1-2.5,1.1c-1.9,4.8-1.8,10,0.1,14.6L44,37.3
			c-0.9-1.4-1.9-2.6-3.1-3.8c-3.6-3.6-8.2-5.9-13.2-6.6c-4.9-0.7-9.9,0.2-14.3,2.6c-0.9,0.5-1.3,1.7-0.8,2.6
			c0.5,0.9,1.7,1.3,2.6,0.8c7.5-4,17-2.7,23,3.4c6.3,6.3,7.4,15.7,3.3,23.1c-1.2-3.4-4-6-7.6-7L32.5,52c1.1-1.6,1.8-3.6,1.8-5.7
			v-2.1c0-5.4-4.4-9.8-9.8-9.8s-9.8,4.4-9.8,9.8v2.1c0,2.1,0.7,4.1,1.8,5.7L15,52.4c-3.6,0.9-6.4,3.6-7.6,6.9
			c-3.1-5.7-3.3-12.7-0.1-18.6c0.5-0.9,0.2-2.1-0.8-2.6C5.6,37.6,4.5,38,4,38.9c-2.3,4.3-3.2,9.4-2.6,14.3c0.7,5,3,9.6,6.6,13.2
			c4.5,4.5,10.5,6.8,16.5,6.8s11.9-2.3,16.5-6.8c1.2-1.2,2.2-2.5,3.1-3.8l17.4,9.3c-1,2.3-1.5,4.9-1.5,7.5c0,5.2,2,10.1,5.7,13.8
			c3.8,3.8,8.8,5.7,13.8,5.7c5,0,10-1.9,13.8-5.7C98.7,87.6,100.3,79.3,97.5,72.1z M75.2,16.9c0-2.3,1.9-4.2,4.2-4.2
			c2.3,0,4.2,1.9,4.2,4.2v1.6c0,2.3-1.9,4.2-4.2,4.2c-2.3,0-4.2-1.9-4.2-4.2V16.9z M69.2,31.4c0-2.3,1.6-4.4,3.8-5l2.9-0.8
			c1.1,0.5,2.3,0.8,3.5,0.8c1.3,0,2.5-0.3,3.5-0.8l2.9,0.8c2.3,0.6,3.8,2.6,3.8,5v0.9c0,0,0,0,0,0c-2.8,2.5-6.4,3.8-10.2,3.8
			c-3.8,0-7.5-1.4-10.3-3.9c0-0.2,0.1-0.3,0.1-0.5V31.4L69.2,31.4z M18.4,44.2c0-3.3,2.7-6,6-6c3.3,0,6,2.7,6,6v2.1c0,3.3-2.7,6-6,6
			s-6-2.7-6-6L18.4,44.2z M10.7,63.7c0,0-0.1-0.1-0.1-0.1v-0.5c0-3.3,2.2-6.2,5.4-7l3.9-1c1.4,0.7,2.9,1.1,4.5,1.1s3.2-0.4,4.5-1.1
			l3.9,1c3.2,0.8,5.4,3.7,5.4,7v0.5c0,0-0.1,0.1-0.1,0.1C30.6,71.3,18.3,71.3,10.7,63.7z M75.2,75.7c0-2.3,1.9-4.2,4.2-4.2
			c2.3,0,4.2,1.9,4.2,4.2v1.6c0,2.3-1.9,4.2-4.2,4.2c-2.3,0-4.2-1.9-4.2-4.2V75.7z M69.1,91.1c0-0.2,0.1-0.3,0.1-0.5v-0.4
			c0-2.3,1.6-4.4,3.8-5l2.9-0.8c1.1,0.5,2.3,0.8,3.5,0.8s2.5-0.3,3.5-0.8l2.9,0.8c2.3,0.6,3.8,2.6,3.8,5v0.9c0,0,0,0,0,0
			C83.7,96.2,74.9,96.2,69.1,91.1z"/>
		<path class="st0" d="M90.5,65.5L90.5,65.5c-0.8,0.8-0.8,2,0,2.7c0.4,0.4,0.9,0.6,1.3,0.6c0.5,0,1-0.2,1.4-0.6c0.7-0.7,0.7-2,0-2.7
			C92.4,64.8,91.2,64.8,90.5,65.5z"/>
	</g>
</g>
</svg>
