<?xml version="1.0" encoding="utf-8"?>
<!-- Generator: Adobe Illustrator 16.0.4, SVG Export Plug-In . SVG Version: 6.00 Build 0)  -->
<!DOCTYPE svg PUBLIC "-//W3C//DTD SVG 1.1//EN" "http://www.w3.org/Graphics/SVG/1.1/DTD/svg11.dtd">
<svg version="1.1" id="Layer_1" xmlns="http://www.w3.org/2000/svg" xmlns:xlink="http://www.w3.org/1999/xlink" x="0px" y="0px"
	 width="195px" height="45px" viewBox="0 0 195 45" enable-background="new 0 0 195 45" xml:space="preserve">
<g>
	<g>
		<path d="M192.333,35.956c0-0.532-0.312-0.795-0.968-0.795h-1.059v2.788h0.433v-1.201h0.441l0.764,1.201h0.452l-0.797-1.233
			C192.01,36.671,192.333,36.464,192.333,35.956z M191.171,36.402h-0.432v-0.898h0.551c0.287,0,0.617,0.046,0.617,0.431
			C191.907,36.384,191.54,36.402,191.171,36.402z M191.22,34.18c-1.312,0-2.38,1.017-2.38,2.381c0,1.348,1.067,2.377,2.38,2.377
			c1.297,0,2.379-1.029,2.379-2.377C193.599,35.197,192.517,34.18,191.22,34.18z M191.22,38.589c-1.093,0-1.958-0.881-1.958-2.028
			c0-1.155,0.865-2.041,1.958-2.041c1.091,0,1.955,0.886,1.955,2.041C193.175,37.708,192.311,38.589,191.22,38.589z"/>
		<g>
			<path d="M68.973,36.304h-9.7V7.967c0-0.445,0.053-0.923,0.154-1.417l0.131-0.627h-4.616l0.13,0.627
				c0.103,0.495,0.154,0.973,0.154,1.417v29.022c0,0.411-0.052,0.854-0.151,1.315l-0.142,0.634h15.91v-2.973l-0.666,0.194
				C69.847,36.256,69.441,36.304,68.973,36.304z"/>
			<path d="M78.547,36.918V7.943c0-0.585,0.048-1.037,0.143-1.348l0.208-0.672h-4.686l0.135,0.63
				c0.103,0.479,0.154,0.946,0.154,1.39v28.975c0,0.444-0.052,0.912-0.154,1.391l-0.133,0.63h4.684l-0.208-0.674
				C78.595,37.957,78.547,37.503,78.547,36.918z"/>
			<path d="M85.435,6.553c0.104,0.479,0.156,0.938,0.156,1.368v28.997c0,0.444-0.053,0.912-0.156,1.391l-0.133,0.63h4.623
				l-0.135-0.629c-0.104-0.479-0.153-0.946-0.153-1.391V23.315h8.068c0.581,0,1.081,0.049,1.481,0.148l0.646,0.159v-2.956
				l-0.637,0.145c-0.51,0.116-0.996,0.174-1.446,0.174h-8.113V8.395h9.296c0.568,0,1.131,0.044,1.666,0.133l0.605,0.1V5.923H85.302
				L85.435,6.553z"/>
			<path d="M118.824,20.843h-9.56V8.395h9.914c0.427,0,0.848,0.068,1.251,0.206l0.688,0.234V5.923h-16.241l0.196,0.668
				c0.099,0.327,0.146,0.79,0.146,1.375v28.951c0,0.439-0.038,0.918-0.113,1.422l-0.089,0.598h16.126V35.98l-0.602,0.095
				c-1.096,0.171-1.52,0.219-1.646,0.229h-9.63V23.175h9.604c0.71,0,1.268,0.035,1.657,0.107l0.616,0.114v-2.961l-0.668,0.194
				C119.987,20.772,119.433,20.843,118.824,20.843z"/>
			<path d="M173.901,37.018L162.759,7.063c-0.066-0.182-0.122-0.417-0.163-0.698l-0.068-0.442h-3.646l-0.061,0.449
				c-0.071,0.513-0.139,0.754-0.188,0.879l-10.735,29.756c-0.063,0.164-0.161,0.378-0.283,0.636c-0.311-0.23-0.584-0.465-0.8-0.698
				l-11.938-13.325c2.95-0.319,5.272-1.16,6.91-2.498c1.869-1.524,2.819-3.657,2.819-6.339c0-1.821-0.519-3.469-1.541-4.894
				c-0.919-1.292-2.165-2.274-3.696-2.917c-1.621-0.697-3.495-1.05-5.577-1.05h-7.695l0.137,0.63
				c0.102,0.479,0.155,0.946,0.155,1.39v28.975c0,0.444-0.054,0.912-0.155,1.391l-0.136,0.629h4.624l-0.135-0.629
				c-0.102-0.478-0.153-0.946-0.153-1.391V24.564l11.46,12.909c0.393,0.445,0.667,0.836,0.818,1.164l0.142,0.302h4.114h2.652h0.547
				l0.016-0.506c0.017-0.609,0.082-0.911,0.134-1.056l3.4-9.306h12.545l3.419,9.294c0.126,0.382,0.206,0.75,0.233,1.095l0.04,0.479
				h5.077l-0.514-0.803C174.204,37.653,173.997,37.277,173.901,37.018z M165.303,25.739h-10.809l5.3-14.651L165.303,25.739z
				 M130.432,8.395h2.247c2.232,0,3.963,0.417,5.145,1.241c0.823,0.571,1.473,1.334,1.937,2.264
				c0.466,0.938,0.703,1.971,0.703,3.071c0,2.46-0.998,4.229-3.048,5.402c-1.271,0.716-2.704,1.08-4.262,1.08h-2.722V8.395z"/>
			<path d="M190.223,5.923l-0.115,0.367c-0.116,0.374-0.272,0.748-0.458,1.104l-7.344,13.728l-7.182-13.624
				c-0.392-0.773-0.499-1.075-0.529-1.187l-0.104-0.388h-5.08l0.648,0.839c0.186,0.243,0.408,0.611,0.661,1.098l8.669,16.329v12.729
				c0,0.445-0.051,0.913-0.154,1.391l-0.135,0.629h4.625l-0.135-0.629c-0.102-0.478-0.153-0.946-0.153-1.391V24.189l8.782-16.463
				c0.18-0.323,0.391-0.651,0.627-0.973l0.609-0.83H190.223z"/>
		</g>
	</g>
	<path fill="#939598" d="M3.297,43.962c-1.045,0-1.896-0.851-1.896-1.896V2.795c0-1.046,0.85-1.896,1.896-1.896h39.271
		c1.045,0,1.896,0.85,1.896,1.896v39.271c0,1.045-0.852,1.896-1.896,1.896H3.297z"/>
	<path fill="#FFFFFF" d="M43.747,42.066c0,0.648-0.53,1.179-1.179,1.179H3.297c-0.647,0-1.178-0.53-1.178-1.179V2.795
		c0-0.648,0.53-1.178,1.178-1.178h39.271c0.648,0,1.179,0.53,1.179,1.178V42.066z"/>
	<g>
		<rect x="6.426" y="5.923" fill="#051E3C" width="7.177" height="7.177"/>
		<rect x="15.039" y="5.923" fill="#1D396B" width="7.177" height="7.177"/>
		<rect x="23.65" y="5.923" fill="#79B3E1" width="7.179" height="7.177"/>
		<rect x="6.426" y="23.148" fill="#79B3E1" width="7.177" height="7.177"/>
		<rect x="6.426" y="14.535" fill="#1D396B" width="7.177" height="7.178"/>
		<rect x="15.039" y="14.535" fill="#79B3E1" width="7.177" height="7.178"/>
		<rect x="23.65" y="31.761" fill="#1D396B" width="7.178" height="7.177"/>
		<rect x="32.263" y="31.761" fill="#051E3C" width="7.178" height="7.177"/>
		<rect x="15.038" y="31.761" fill="#79B3E1" width="7.178" height="7.177"/>
		<rect x="32.263" y="14.536" fill="#79B3E1" width="7.178" height="7.178"/>
		<rect x="32.263" y="23.149" fill="#1D396B" width="7.178" height="7.177"/>
		<rect x="23.65" y="23.149" fill="#79B3E1" width="7.178" height="7.177"/>
	</g>
</g>
</svg>
