<svg id="图层_1" data-name="图层 1" xmlns="http://www.w3.org/2000/svg" viewBox="0 0 1323.83 363.27"><defs><style>.cls-1{fill:#253068;}.cls-2{fill:#2c9ee9;}.cls-3{fill:#fff;}</style></defs><title>useopen-line</title><polygon class="cls-1" points="220.02 213.04 263.82 238.49 263.67 187.83 220.02 213.04"/><polygon class="cls-2" points="102.64 212.4 101.32 213.16 102.65 213.93 102.64 212.4"/><polygon class="cls-2" points="102.89 270.28 102.74 215.96 101.42 215.19 54.6 242.22 102.89 270.28"/><polygon class="cls-2" points="215.24 216.16 215.39 271.22 263.88 243.23 216.28 215.56 215.24 216.16"/><polygon class="cls-1" points="0.35 215.71 0.51 272.9 49.96 301.64 49.8 244.44 0.35 215.71"/><polygon class="cls-1" points="49.62 183.12 0.17 154.38 0.34 211.58 49.79 240.31 49.62 183.12"/><polygon class="cls-1" points="49.45 122.23 0 93.49 0.16 150.25 49.61 178.99 49.45 122.23"/><polygon class="cls-1" points="53.37 246.52 53.53 303.71 102.98 332.45 102.82 275.26 53.37 246.52"/><polygon class="cls-1" points="155.67 244.75 152.44 242.87 106.22 216.01 106.38 273.2 155.84 301.94 155.67 244.75"/><polygon class="cls-1" points="106.39 277.33 106.55 334.53 156.01 363.27 155.85 306.07 106.39 277.33"/><polygon class="cls-1" points="155.5 183.86 106.04 155.12 106.2 211.88 155.66 240.62 155.5 183.86"/><polygon class="cls-3" points="267.98 301.64 317.44 272.9 317.6 215.71 268.14 244.44 267.98 301.64"/><polygon class="cls-3" points="268.16 240.31 317.61 211.58 317.77 154.38 268.32 183.12 268.16 240.31"/><polygon class="cls-3" points="268.49 122.23 268.33 178.99 317.78 150.25 317.94 93.49 268.49 122.23"/><polygon class="cls-3" points="214.96 332.45 264.41 303.71 264.58 246.52 215.12 275.26 214.96 332.45"/><polygon class="cls-3" points="214.96 211 264.41 182.26 264.58 125.07 215.12 153.81 214.96 211"/><polygon class="cls-3" points="162.27 244.75 162.11 301.94 211.57 273.2 211.73 216.01 165.5 242.87 162.27 244.75"/><polygon class="cls-3" points="161.93 363.27 211.39 334.53 211.56 277.33 162.1 306.07 161.93 363.27"/><polygon class="cls-3" points="162.28 240.62 211.74 211.88 211.9 155.12 162.44 183.86 162.28 240.62"/><polygon class="cls-3" points="53.98 183.01 53.81 240.21 103.27 211.47 103.44 154.27 57.2 181.13 53.98 183.01"/><polygon class="cls-3" points="103.61 93.47 103.61 93.38 91.59 100.37 103.57 93.45 103.61 93.47"/><polygon class="cls-3" points="103.25 150.1 54.63 121.85 54.15 122.12 53.99 178.88 103.45 150.14 103.45 149.99 103.25 150.1"/><polygon class="cls-2" points="51.56 61.62 2.5 89.95 51.24 118.28 100.31 89.95 51.56 61.62"/><polygon class="cls-2" points="104.61 87.47 153.68 59.14 104.93 30.81 55.87 59.14 55.87 59.14 104.61 87.47"/><polygon class="cls-2" points="207.04 28.33 158.3 0 109.24 28.32 157.99 56.65 207.04 28.33"/><polygon class="cls-2" points="103.45 149.99 152.32 121.78 103.61 93.47 103.57 93.45 91.59 100.37 54.51 121.78 54.63 121.85 103.25 150.1 103.45 149.99"/><polygon class="cls-2" points="108.89 89.95 108.89 89.95 157.63 118.28 206.7 89.95 157.95 61.63 108.89 89.95"/><polygon class="cls-2" points="211.01 87.46 260.06 59.14 211.32 30.81 162.26 59.14 211.01 87.46"/><polygon class="cls-2" points="169.28 130.03 157.61 123.25 108.55 151.58 157.28 179.91 206.35 151.58 169.28 130.03"/><polygon class="cls-2" points="259.72 120.77 259.72 120.77 210.98 92.44 161.91 120.77 210.65 149.09 259.72 120.77"/><polygon class="cls-2" points="264.03 118.28 313.09 89.95 264.35 61.63 215.29 89.95 264.03 118.28"/><path class="cls-1" d="M542.41,234.94h15.67v51.33c0,28.45-14,41.85-49.68,41.85-35.4,0-49.56-13.4-49.56-41.85V234.94H475.4v51.33c0,18.46,8.22,26,33.51,26s33.5-7.58,33.5-26Z" transform="translate(-91.17 -70.33)"/><path class="cls-1" d="M608,326.85V310.8h68.9c8.59,0,13.4-4.81,13.4-12,0-7.84-4.81-11.89-13.4-11.89H634.7c-17.32,0-28.06-11-28.06-26.17,0-14.79,10-25.79,28.31-25.79h66V251H635c-7.33,0-11.63,4.3-11.63,11.25s4.43,11.13,11.51,11.13h42.1c18.58,0,28.57,8.72,28.57,26.54,0,15.43-9.36,26.93-28.57,26.93Z" transform="translate(-91.17 -70.33)"/><path class="cls-1" d="M754.68,326.85V234.94h82.05V251H770.61v59.8h66.24v16.05Zm27.69-40V273.38h50.94V286.9Z" transform="translate(-91.17 -70.33)"/><path class="cls-1" d="M928,326.85c-25.66,0-44.63-20.23-44.63-46.9,0-27.06,19-45,44.63-45h22.38c26.54,0,45,18.33,45,45s-18.83,46.9-45,46.9Zm22.38-16.05c16.94,0,29-12.77,29-30.09s-12-29.71-29-29.71H928c-16.44,0-28.57,12.26-28.57,29.71s12,30.09,28.57,30.09Z" transform="translate(-91.17 -70.33)"/><path class="cls-1" d="M1071.5,301.31V285.76h36.92c11.25,0,17.95-7.08,17.95-17.44,0-10.62-6.7-17.32-17.95-17.32h-48.67v75.85h-15.93V234.94h64.6c21.24,0,33.63,12.77,33.63,32.87,0,19.85-12.39,33.5-33.63,33.5Z" transform="translate(-91.17 -70.33)"/><path class="cls-1" d="M1188.83,326.85V234.94h82.05V251h-66.12v59.8H1271v16.05Zm27.68-40V273.38h51V286.9Z" transform="translate(-91.17 -70.33)"/><path class="cls-1" d="M1335.1,259.6v67.25h-15.3V243.41c0-5.94,3.16-9.6,8.22-9.6,2.4,0,4.43.88,6.83,3.28l64.85,64.35V234.18H1415v84.2c0,6.07-3.29,9.61-8,9.61a10.23,10.23,0,0,1-7.34-3.41Z" transform="translate(-91.17 -70.33)"/></svg>