<?xml version="1.0" encoding="iso-8859-1"?>
<!-- Generator: Adobe Illustrator 19.0.0, SVG Export Plug-In . SVG Version: 6.00 Build 0)  -->
<svg version="1.1" id="Layer_1" xmlns="http://www.w3.org/2000/svg" xmlns:xlink="http://www.w3.org/1999/xlink" x="0px" y="0px"
	 viewBox="0 0 512.011 512.011" style="enable-background:new 0 0 512.011 512.011;" xml:space="preserve">
<g>
	<g>
		<g>
			<path d="M415.343,53.646c12.006,4.258,21.7,13.978,25.958,25.984c1.237,3.507,4.531,5.692,8.038,5.692
				c0.947,0,1.911-0.162,2.85-0.495c4.437-1.57,6.767-6.451,5.197-10.889c-6.033-17.067-19.285-30.327-36.335-36.378
				c-4.446-1.562-9.318,0.751-10.897,5.188C408.585,47.195,410.897,52.068,415.343,53.646z"/>
			<path d="M337.246,289.098c1.28,0.691,2.679,1.041,4.087,1.041c1.408,0,2.816-0.35,4.087-1.041
				c97.118-52.975,149.513-140.126,149.513-195.226c0-51.763-42.103-93.867-93.867-93.867c-36.352,0-69.769,21.291-85.12,54.255
				c-1.997,4.275-0.145,9.353,4.122,11.341c4.275,1.997,9.353,0.137,11.341-4.13c12.57-26.974,39.91-44.399,69.658-44.399
				c42.351,0,76.8,34.449,76.8,76.8c0,50.099-50.97,129.707-136.533,177.971C255.77,223.579,204.8,143.972,204.8,93.872
				c0-42.351,34.458-76.8,76.8-76.8c10.692,0,21.035,2.15,30.754,6.4c4.318,1.886,9.344-0.077,11.238-4.395
				c1.886-4.318-0.085-9.344-4.403-11.238c-11.878-5.197-24.525-7.834-37.589-7.834c-51.755,0-93.867,42.103-93.867,93.867
				C187.733,148.972,240.137,236.123,337.246,289.098z"/>
			<path d="M110.933,324.272H179.2c9.95,0,26.88,12.698,41.813,23.893c18.722,14.046,36.403,27.307,52.053,27.307h51.2
				c12.954,0,19.396,5.879,19.567,6.033c1.664,1.664,3.849,2.5,6.033,2.5c2.185,0,4.361-0.836,6.033-2.5
				c3.328-3.337,3.328-8.738,0-12.066c-1.135-1.126-11.614-11.034-31.633-11.034h-51.2c-9.958,0-26.88-12.698-41.813-23.893
				c-18.731-14.046-36.412-27.307-52.053-27.307h-68.267c-4.719,0-8.533,3.823-8.533,8.533
				C102.4,320.449,106.214,324.272,110.933,324.272z"/>
			<path d="M42.667,456.539c0-7.057-5.743-12.8-12.8-12.8s-12.8,5.743-12.8,12.8s5.743,12.8,12.8,12.8
				S42.667,463.596,42.667,456.539z"/>
			<path d="M507.426,358.406c-4.565-7.893-11.921-13.542-20.727-15.898c-8.815-2.372-18.014-1.161-25.37,3.123l-98.219,47.804
				c-15.258,7.637-30.677,7.637-64.444,7.637c-33.024,0-83.43-8.337-83.934-8.414c-4.651-0.76-9.045,2.372-9.822,7.006
				c-0.768,4.651,2.372,9.045,7.014,9.822c2.125,0.358,52.301,8.653,86.741,8.653c35.43,0,53.214,0,71.996-9.395l98.671-48.051
				c8.132-4.71,18.603-1.911,23.313,6.246c2.278,3.951,2.876,8.55,1.698,12.954s-4.002,8.081-8.192,10.505l-115.371,71.808
				c-0.247,0.154-24.858,15.667-80.649,15.667c-48.375,0-123.11-41.182-124.186-41.771c-0.768-0.384-19.277-9.429-55.014-9.429
				c-4.719,0-8.533,3.823-8.533,8.533c0,4.71,3.814,8.533,8.533,8.533c31.036,0,47.019,7.458,47.053,7.458
				c3.226,1.792,79.343,43.742,132.147,43.742c61.602,0,88.934-17.749,89.839-18.355l114.961-71.552
				c7.893-4.557,13.542-11.921,15.898-20.719C513.195,375.498,511.983,366.299,507.426,358.406z"/>
			<path d="M59.733,273.072h-51.2c-4.719,0-8.533,3.823-8.533,8.533s3.814,8.533,8.533,8.533h51.2c4.702,0,8.533,3.831,8.533,8.533
				v187.733c0,4.702-3.831,8.533-8.533,8.533h-51.2c-4.719,0-8.533,3.823-8.533,8.533c0,4.71,3.814,8.533,8.533,8.533h51.2
				c14.114,0,25.6-11.486,25.6-25.6V298.672C85.333,284.558,73.847,273.072,59.733,273.072z"/>
		</g>
	</g>
</g>
<g>
</g>
<g>
</g>
<g>
</g>
<g>
</g>
<g>
</g>
<g>
</g>
<g>
</g>
<g>
</g>
<g>
</g>
<g>
</g>
<g>
</g>
<g>
</g>
<g>
</g>
<g>
</g>
<g>
</g>
</svg>
