<?xml version="1.0" encoding="iso-8859-1"?>
<!-- Generator: Adobe Illustrator 19.0.0, SVG Export Plug-In . SVG Version: 6.00 Build 0)  -->
<svg version="1.1" id="Layer_1" xmlns="http://www.w3.org/2000/svg" xmlns:xlink="http://www.w3.org/1999/xlink" x="0px" y="0px"
	 viewBox="0 0 496 496" style="enable-background:new 0 0 496 496;" xml:space="preserve">
<g>
	<g>
		<g>
			<rect x="64" y="192" width="168" height="16"/>
			<path d="M456,96H352V0H32v96.808C13.768,100.528,0,116.688,0,136v272c0,22.056,17.944,40,40,40h72v32H80v16h336v-16h-32v-32h72
				c22.056,0,40-17.944,40-40V136C496,113.944,478.056,96,456,96z M360,152c0,22.056-17.944,40-40,40c-22.056,0-40-17.944-40-40
				c0-22.056,17.944-40,40-40C342.056,112,360,129.944,360,152z M271.112,256c-2.944-2.88-6.224-5.408-9.752-7.592l27.664-49.792
				c8.88,5.92,19.528,9.384,30.976,9.384c5.56,0,10.928-0.84,16-2.36V256H271.112z M272,296c0,22.056-17.944,40-40,40
				c-22.056,0-40-17.944-40-40c0-22.056,17.944-40,40-40C254.056,256,272,273.944,272,296z M264.64,160H80V48h224v50.36
				c-23.104,6.904-40,28.328-40,53.64C264,154.72,264.264,157.376,264.64,160z M48,16h288v82.36c-5.072-1.52-10.44-2.36-16-2.36V32
				H64v144h205.48c1.992,4.176,4.432,8.104,7.352,11.632l-30.208,54.376C241.952,240.736,237.064,240,232,240
				c-15.216,0-29.016,6.12-39.112,16H48V16z M368,480H128v-32h240V480z M480,408c0,13.232-10.768,24-24,24H40
				c-13.232,0-24-10.768-24-24v-8h464V408z M480,384H16V136c0-10.416,6.712-19.216,16-22.528V272h149.48
				c-3.472,7.288-5.48,15.408-5.48,24c0,30.872,25.12,56,56,56s56-25.128,56-56c0-8.592-2.008-16.712-5.48-24H352v-52.104
				l20.512,32.824C360,263,352,278.584,352,296c0,30.872,25.12,56,56,56s56-25.128,56-56s-25.12-56-56-56
				c-7.728,0-15.096,1.576-21.8,4.416l-30.712-49.136C368,185,376,169.416,376,152c0-15.664-6.48-29.824-16.888-40H456
				c13.232,0,24,10.768,24,24V384z M408,256c22.056,0,40,17.944,40,40c0,22.056-17.944,40-40,40c-22.056,0-40-17.944-40-40
				C368,273.944,385.944,256,408,256z"/>
			<rect x="216" y="224" width="16" height="16"/>
			<rect x="64" y="224" width="136" height="16"/>
		</g>
	</g>
</g>
<g>
</g>
<g>
</g>
<g>
</g>
<g>
</g>
<g>
</g>
<g>
</g>
<g>
</g>
<g>
</g>
<g>
</g>
<g>
</g>
<g>
</g>
<g>
</g>
<g>
</g>
<g>
</g>
<g>
</g>
</svg>
