<?xml version="1.0" encoding="iso-8859-1"?>
<!-- Generator: Adobe Illustrator 17.1.0, SVG Export Plug-In . SVG Version: 6.00 Build 0)  -->
<!DOCTYPE svg PUBLIC "-//W3C//DTD SVG 1.1//EN" "http://www.w3.org/Graphics/SVG/1.1/DTD/svg11.dtd">
<svg version="1.1" id="Capa_1" xmlns="http://www.w3.org/2000/svg" xmlns:xlink="http://www.w3.org/1999/xlink" x="0px" y="0px"
	 viewBox="0 0 455 455" style="enable-background:new 0 0 455 455;" xml:space="preserve">
<g>
	<path d="M447.5,149.251h-20.926c-4.142,0-7.5,3.357-7.5,7.5s3.358,7.5,7.5,7.5H440V391H116.852v-12.626c0-4.143-3.358-7.5-7.5-7.5
		s-7.5,3.357-7.5,7.5V398.5c0,4.143,3.358,7.5,7.5,7.5H447.5c4.142,0,7.5-3.357,7.5-7.5V156.751
		C455,152.608,451.642,149.251,447.5,149.251z"/>
	<path d="M404.074,348.374V106.626c0-4.143-3.358-7.5-7.5-7.5h-20.926c-4.142,0-7.5,3.357-7.5,7.5s3.358,7.5,7.5,7.5h13.426v226.748
		H65.926v-12.625c0-4.143-3.358-7.5-7.5-7.5s-7.5,3.357-7.5,7.5v20.125c0,4.143,3.358,7.5,7.5,7.5h338.148
		C400.716,355.874,404.074,352.517,404.074,348.374z"/>
	<path d="M353.148,298.249V56.5c0-4.143-3.358-7.5-7.5-7.5H7.5C3.358,49,0,52.357,0,56.5v241.749c0,4.143,3.358,7.5,7.5,7.5h338.148
		C349.79,305.749,353.148,302.392,353.148,298.249z M338.148,290.749H15V64h323.148V290.749z"/>
</g>
<g>
</g>
<g>
</g>
<g>
</g>
<g>
</g>
<g>
</g>
<g>
</g>
<g>
</g>
<g>
</g>
<g>
</g>
<g>
</g>
<g>
</g>
<g>
</g>
<g>
</g>
<g>
</g>
<g>
</g>
</svg>
