<?xml version="1.0" encoding="utf-8"?>
<!-- Generator: Adobe Illustrator 16.0.4, SVG Export Plug-In . SVG Version: 6.00 Build 0)  -->
<!DOCTYPE svg PUBLIC "-//W3C//DTD SVG 1.1//EN" "http://www.w3.org/Graphics/SVG/1.1/DTD/svg11.dtd">
<svg version="1.1" id="Layer_1" xmlns="http://www.w3.org/2000/svg" xmlns:xlink="http://www.w3.org/1999/xlink" x="0px" y="0px"
	 width="156.25px" height="35.25px" viewBox="72.25 32.75 156.25 35.25" enable-background="new 72.25 32.75 156.25 35.25"
	 xml:space="preserve">
<polygon fill="#E47226" points="74.249,43.129 96.066,43.129 96.066,49.409 89.094,49.409 89.094,66.965 81.288,66.965 
	81.288,49.409 74.249,49.409 "/>
<path fill="#E47226" d="M116.213,55.396l1.446-3.209c0.592-0.855,1.397-1.578,2.414-2.165c1.018-0.586,2.063-0.88,3.14-0.88
	c2.814,0,4.688,1.057,5.618,3.171c1.507-2.114,3.489-3.171,5.949-3.171c1.519,0,2.765,0.245,3.742,0.734
	c0.977,0.49,1.705,1.281,2.187,2.375c0.482,1.092,0.723,2.537,0.723,4.334v10.379h-6.846v-8.861c0-1.367-0.161-2.297-0.487-2.793
	c-0.325-0.494-0.936-0.742-1.828-0.742c-0.452,0-0.841,0.06-1.167,0.179c-0.328,0.117-0.615,0.435-0.867,0.948
	c-0.252,0.515-0.381,1.316-0.381,2.408v8.861h-6.909v-9.023c0-1.211-0.155-2.073-0.468-2.594c-0.312-0.52-0.907-0.779-1.785-0.779
	c-1.628,0-2.445,1.179-2.445,3.535L116.213,55.396z"/>
<path fill="#D05028" d="M150.85,49.482h2.584V44.09h6.771v5.392h3.271v4.004h-3.271v6.443c0,0.674,0.092,1.146,0.272,1.422
	c0.18,0.274,0.472,0.441,0.875,0.504c0.403,0.062,1.101,0.092,2.092,0.092v4.889c0.015,0-0.504,0.021-1.559,0.064
	c-1.053,0.043-1.812,0.064-2.273,0.064c-1.34,0-2.401-0.076-3.189-0.229c-0.787-0.154-1.412-0.438-1.869-0.854
	c-0.462-0.414-0.785-1.005-0.974-1.773c-0.188-0.771-0.281-1.799-0.281-3.088v-7.535h-2.446v-4.004H150.85z"/>
<path fill="#D05028" d="M165.025,49.611h6.248v3.536h0.065c0.903-2.668,2.668-4.003,5.295-4.003c0.128,0,0.31,0.011,0.541,0.032
	c0.231,0.022,0.357,0.033,0.38,0.033v6.918c-0.576-0.136-1.093-0.203-1.551-0.203c-1.383,0-2.417,0.392-3.104,1.17
	c-0.688,0.781-1.029,2.089-1.029,3.923v5.948h-6.846V49.611L165.025,49.611z"/>
<path fill="#D05028" d="M205.307,52.727c-0.716-1.354-1.654-2.38-2.812-3.075c-1.157-0.694-2.362-1.041-3.617-1.041
	c-1.075,0-1.999,0.172-2.772,0.515c-0.771,0.344-1.965,1.093-2.971,2.457l-0.012,12.41h0.139c1.021,1.981,2.764,2.974,5.221,2.974
	c1.396-0.027,2.68-0.312,3.853-0.854c1.173-0.545,2.142-1.512,2.904-2.9c0.765-1.387,1.147-3.268,1.147-5.641
	C206.387,55.697,206.027,54.082,205.307,52.727 M198.827,60.766c-0.478,0.775-1.208,1.18-2.19,1.213
	c-1.035,0-1.779-0.438-2.232-1.315c-0.454-0.875-0.684-1.817-0.684-2.826c0-1.062,0.239-1.983,0.719-2.767
	c0.479-0.78,1.232-1.172,2.26-1.172c0.976,0.031,1.691,0.441,2.15,1.229c0.461,0.787,0.691,1.711,0.691,2.773
	C199.541,59.033,199.302,59.988,198.827,60.766"/>
<path fill="#D05028" d="M219.604,61.21h6.58c-0.357,1.567-1.324,2.917-2.899,4.054c-1.576,1.135-3.796,1.703-6.651,1.703
	c-1.976,0-3.711-0.377-5.21-1.132c-1.499-0.753-2.653-1.817-3.462-3.192c-0.812-1.375-1.216-2.955-1.216-4.742
	c0-1.178,0.209-2.323,0.627-3.438c0.416-1.113,1.037-2.111,1.864-2.992c0.824-0.885,1.855-1.582,3.094-2.093
	c1.238-0.511,2.648-0.767,4.23-0.767c1.844,0,3.431,0.319,4.754,0.957c1.324,0.638,2.383,1.48,3.177,2.528
	c0.794,1.047,1.372,2.19,1.739,3.434c0.365,1.244,0.549,2.508,0.549,3.794H213.59c0.032,1.071,0.389,1.903,1.069,2.495
	s1.47,0.906,2.368,0.943C218.249,62.76,219.107,62.244,219.604,61.21 M213.59,55.786h6.346c-0.065-0.876-0.406-1.593-1.019-2.147
	c-0.614-0.555-1.312-0.83-2.092-0.83c-1.013,0-1.804,0.262-2.378,0.787C213.876,54.119,213.59,54.85,213.59,55.786"/>
<path fill="#D05028" d="M182.34,48.21c-1.441,0-2.622-1.18-2.622-2.622v-1.006c0-1.442,1.181-2.622,2.622-2.622h0.305
	c1.441,0,2.621,1.18,2.621,2.622v1.006c0,1.442-1.18,2.622-2.621,2.622H182.34z"/>
<path fill="#D05028" d="M181.544,66.966c-1.254,0-2.278-1.024-2.278-2.278V52.076c0-1.254,1.024-2.279,2.278-2.279h1.785
	c1.254,0,2.278,1.025,2.278,2.279v12.611c0,1.254-1.024,2.277-2.278,2.277L181.544,66.966L181.544,66.966z"/>
<path fill="#E47226" d="M145.973,46.843c-1.514,0-2.754-1.239-2.754-2.753v-1.057c0-1.514,1.24-2.753,2.754-2.753h0.32
	c1.514,0,2.753,1.239,2.753,2.753v1.057c0,1.514-1.239,2.753-2.753,2.753H145.973z"/>
<path fill="#E47226" d="M145.139,66.966c-1.317,0-2.395-1.077-2.395-2.394V51.33c0-1.317,1.077-2.394,2.395-2.394h1.872
	c1.315,0,2.395,1.077,2.395,2.394v13.242c0,1.316-1.079,2.394-2.395,2.394H145.139z"/>
<path fill="#E47226" d="M115.093,53.508c-1.306,0-2.375-1.068-2.375-2.375v-0.546c0-1.307,1.069-2.375,2.375-2.375h0.62
	c1.307,0,2.375,1.068,2.375,2.375v0.546c0,1.307-1.068,2.375-2.375,2.375H115.093z"/>
<path fill="#E47226" d="M114.373,66.966c-1.047,0-1.903-0.856-1.903-1.903v-9.137c0-1.047,0.857-1.902,1.904-1.902h2.059
	c1.046,0,1.903,0.855,1.903,1.902v9.137c0,1.047-0.857,1.903-1.903,1.903H114.373z"/>
<path fill="#D05028" d="M190.104,39.966c-1.408,0-2.562-1.153-2.562-2.562v-0.881c0-1.41,1.153-2.562,2.562-2.562h0.388
	c1.409,0,2.562,1.152,2.562,2.562v0.881c0,1.409-1.152,2.562-2.562,2.562H190.104z"/>
<path fill="#D05028" d="M189.928,66.966c-1.494,0-2.718-1.224-2.718-2.717V44.624c0-1.495,1.224-2.718,2.718-2.718h0.741
	c1.495,0,2.718,1.223,2.718,2.718v19.625c0,1.493-1.224,2.717-2.718,2.717H189.928z"/>
<path fill="#E47226" d="M101.585,48.611c1.199,0,2.374,0.152,3.523,0.456c1.147,0.304,2.2,0.796,3.155,1.477
	c0.955,0.681,1.726,1.604,2.309,2.769c0.584,1.166,0.884,2.562,0.9,4.193c0,2.189-0.46,3.99-1.381,5.4
	c-0.92,1.408-2.118,2.432-3.596,3.066c-1.478,0.633-3.07,0.965-4.782,0.992c-1.323,0-2.584-0.181-3.778-0.541
	c-1.193-0.361-2.255-0.912-3.18-1.654c-0.926-0.744-1.657-1.689-2.192-2.842s-0.802-2.494-0.802-4.027
	c0-2.084,0.444-3.822,1.335-5.224c0.891-1.397,2.079-2.427,3.564-3.083C98.146,48.938,99.787,48.611,101.585,48.611 M101.779,53.203
	c-1.131,0.025-1.932,0.479-2.402,1.357c-0.47,0.877-0.706,1.879-0.706,3.004c0,1.344,0.221,2.467,0.661,3.373
	c0.441,0.908,1.192,1.361,2.253,1.361c2.028,0,3.043-1.576,3.043-4.732c0-1.02-0.22-2-0.659-2.945
	C103.531,53.676,102.801,53.203,101.779,53.203"/>
</svg>
