<svg id="レイヤー_1" data-name="レイヤー 1" xmlns="http://www.w3.org/2000/svg" viewBox="0 0 644 394.52"><defs><style>.cls-1{fill:none;}.cls-2{fill:#ed1a3b;}.cls-3{fill:#1b3281;}</style></defs><title>Color.mizuho</title><rect class="cls-1" x="63.1" y="159.82" width="485.72" height="135.76"/><rect class="cls-1" x="93.36" y="159.8" width="425.2" height="78.25"/><path class="cls-2" d="M132.06,277.06A793.71,793.71,0,0,1,306,257.88,825.85,825.85,0,0,1,548.42,294a.59.59,0,0,1-.29,1.15,1674,1674,0,0,0-415.7-15.84,1.16,1.16,0,0,1-.37-2.28Z"/><path class="cls-3" d="M161.27,159.8q-5.69,14.43-12,29l-5.58,12.88L138,188.79q-6.44-14.56-12.25-29H94.27v2.53a6.46,6.46,0,0,1,6.39,6.5q-.73,9.94-1.75,20l-2.06,20.28q-1.47,14.56-3.49,29h10.06q.92-14.43,2.38-29l3.1-30.57q6.67,13.94,12.9,28l1.13,2.55q6.44,14.56,12.25,29h3q5.7-14.43,12-29l1.8-4.16q6.09-14.07,12.65-28l3.26,32.17q1.47,14.56,2.37,29h23.15q-2-14.42-3.49-29l-2.05-20.28q-1.47-14.56-2.38-29Z"/><path class="cls-3" d="M265,230.27q3.76-7.2,8.14-14.49L301.2,169v-2H239.4v14.38h2.47a6.45,6.45,0,0,1,6-6.5c1.91-.07,3.83-.1,5.76-.1h19.92q-3.69,7.06-7.95,14.18l-28.25,47.06v2H304v-8.35q-7.06.56-14.21.56Z"/><path class="cls-3" d="M379.26,238.06l.59,0c-.37-4.8-.59-9.62-.59-14.46V206h27.61v17.59q0,7.27-.56,14.5h21.27q-.57-7.22-.56-14.5v-42q0-7.28.56-14.49H400.51v2.24h.56a5.74,5.74,0,0,1,5.68,5.41q.12,3.42.12,6.84v16.65H379.26V181.54q0-7.28.56-14.49H352.75v2.24h.56a5.72,5.72,0,0,1,5.67,5.38q.13,3.42.13,6.87v49.19a70.86,70.86,0,0,1-8.55.52,55.9,55.9,0,0,1-9.2-.75c-8.51-1.61-9.85-9.59-9.85-14.56V181.15c0-4.73.2-9.42.56-14.1H305v2.24h.57a5.72,5.72,0,0,1,5.66,5.37q.13,3.43.13,6.88v31c0,7,2.21,22.4,21.12,25.16A125.57,125.57,0,0,0,350.56,239Q365,239,379.26,238.06Z"/><path class="cls-3" d="M518.56,202.56h0c0,24.19-20.88,36.48-41.5,36.48s-41.49-12.29-41.49-36.47h0c0-24.2,20.88-36.48,41.49-36.48s41.5,12.28,41.5,36.48Zm-20.22,0c0-13.18-5.53-28.7-21.28-28.7s-21.25,15.52-21.27,28.7,5.53,28.69,21.27,28.69S498.31,215.73,498.34,202.56Z"/><path class="cls-3" d="M227.73,181.54c0-4.85.19-9.69.56-14.49H200.48v2.52h.64a6.46,6.46,0,0,1,6.39,6.53c.05,1.81.08,3.62.08,5.44v42q0,7.27-.56,14.5h21.26q-.56-7.22-.56-14.5Z"/><rect class="cls-1" x="-76.69" y="39.32" width="765.3" height="355.2"/></svg>