<?xml version="1.0" encoding="utf-8"?>
<!-- Generator: Adobe Illustrator 16.0.4, SVG Export Plug-In . SVG Version: 6.00 Build 0)  -->
<!DOCTYPE svg PUBLIC "-//W3C//DTD SVG 1.1//EN" "http://www.w3.org/Graphics/SVG/1.1/DTD/svg11.dtd">
<svg version="1.1" id="Layer_1" xmlns="http://www.w3.org/2000/svg" xmlns:xlink="http://www.w3.org/1999/xlink" x="0px" y="0px"
	 width="280px" height="100px" viewBox="0 0 280 100" enable-background="new 0 0 280 100" xml:space="preserve">
<g>
	<rect x="160.034" y="39.772" fill="#4A4B42" width="5.146" height="5.065"/>
	<path fill="#00BEAD" d="M133.115,53.107v9.397h-7.091V22.313h7.091v21.101l19.27-21.101h8.514l-16.138,17.852l17.909,22.34h-8.867
		l-13.83-17.022L133.115,53.107z M133.115,53.107"/>
	<path fill="#4A4B42" d="M186.431,28.874v33.631h-7.091V28.874h-14.01v-6.561h35.053v6.561H186.431z M186.431,28.874"/>
	<path fill="#4A4B42" d="M211.556,39.396h19.743v6.561h-19.743v9.987h22.106v6.562h-29.196V22.313h29.196v6.561h-22.106V39.396z
		 M211.556,39.396"/>
	<path fill="#4A4B42" d="M130.557,73.62c0.61,0.426,0.958,1.035,1.06,1.843h-0.872c-0.199-1.083-0.984-1.706-2.38-1.706
		c-1.293,0-2.127,0.623-2.127,1.606c0,0.761,0.585,1.222,1.742,1.444l1.283,0.25c1.568,0.3,2.354,1.035,2.354,2.203
		c0,0.773-0.288,1.396-0.872,1.868c-0.576,0.461-1.332,0.697-2.282,0.697c-2.027,0-3.321-1.059-3.522-2.888h0.872
		c0.211,1.332,1.147,2.092,2.689,2.092c1.345,0,2.205-0.661,2.205-1.671c0-0.77-0.538-1.232-1.595-1.443l-1.469-0.287
		c-1.543-0.297-2.342-1.058-2.342-2.217c0-0.731,0.275-1.32,0.825-1.753c0.559-0.448,1.28-0.676,2.191-0.676
		C129.202,72.983,129.947,73.199,130.557,73.62"/>
	<path fill="#4A4B42" d="M140.973,79.944c0.684-0.707,1.021-1.556,1.021-2.539c0-0.984-0.338-1.83-1.021-2.526
		c-0.684-0.709-1.508-1.061-2.492-1.061c-0.979,0-1.817,0.352-2.5,1.061c-0.687,0.696-1.022,1.542-1.022,2.526
		c0,0.983,0.335,1.832,1.022,2.539c0.684,0.699,1.521,1.049,2.5,1.049C139.465,80.993,140.289,80.644,140.973,79.944 M138.48,73.001
		c1.221,0,2.256,0.434,3.114,1.293c0.859,0.859,1.294,1.895,1.294,3.111c0,1.22-0.435,2.268-1.294,3.127
		c-0.858,0.858-1.894,1.28-3.114,1.28c-1.22,0-2.264-0.422-3.123-1.28c-0.86-0.859-1.284-1.907-1.284-3.127
		c0-1.217,0.424-2.252,1.284-3.111C136.216,73.435,137.26,73.001,138.48,73.001"/>
	<path fill="#4A4B42" d="M146.814,77.232h4.356v0.821h-4.356v3.587h-0.885v-8.468h5.778v0.808h-4.894V77.232z M146.814,77.232"/>
	<path fill="#4A4B42" d="M157.604,73.98v7.66h-0.886v-7.66h-3.152v-0.808h7.188v0.808H157.604z M157.604,73.98"/>
	<path fill="#4A4B42" d="M172.013,81.701h-0.871l-2.352-6.986l-2.366,6.986h-0.86l-2.899-8.528h0.932l2.406,7.196l2.401-7.196h0.773
		l2.402,7.184l2.4-7.184h0.924L172.013,81.701z M172.013,81.701"/>
	<path fill="#4A4B42" d="M179.812,74.183l-1.854,4.184h3.71L179.812,74.183z M177.597,79.172l-1.097,2.469h-0.948l3.836-8.532h0.847
		l3.837,8.532h-0.946l-1.096-2.469H177.597z M177.597,79.172"/>
	<path fill="#4A4B42" d="M189.813,77.756c1.405,0,2.364-0.734,2.364-1.881c0-1.16-0.959-1.895-2.364-1.895h-2.242v3.775H189.813z
		 M187.571,78.564v3.076h-0.883v-8.468h3.15c0.959,0,1.728,0.25,2.329,0.734c0.598,0.485,0.895,1.144,0.895,1.968
		c0,1.357-0.91,2.329-2.352,2.612l2.713,3.153h-1.108l-2.639-3.076H187.571z M187.571,78.564"/>
	<path fill="#4A4B42" d="M196.878,77.021h4.495v0.821h-4.495v2.986h4.993v0.808h-5.877v-8.464h5.877v0.808h-4.993V77.021z
		 M196.878,77.021"/>
	<path fill="#4A4B42" d="M212.77,74.183l-1.858,4.184h3.714L212.77,74.183z M210.553,79.172l-1.099,2.469h-0.945l3.836-8.532h0.846
		l3.838,8.532h-0.947l-1.095-2.469H210.553z M210.553,79.172"/>
	<path fill="#4A4B42" d="M222.771,77.756c1.405,0,2.363-0.734,2.363-1.881c0-1.16-0.958-1.895-2.363-1.895h-2.242v3.775H222.771z
		 M220.528,78.564v3.076h-0.885v-8.468h3.149c0.961,0,1.73,0.25,2.331,0.734c0.595,0.485,0.895,1.144,0.895,1.968
		c0,1.357-0.909,2.329-2.354,2.612l2.715,3.153h-1.108l-2.639-3.076H220.528z M220.528,78.564"/>
	<path fill="#4A4B42" d="M231.852,73.98v7.66h-0.882v-7.66h-3.152v-0.808h7.187v0.808H231.852z M231.852,73.98"/>
	<rect x="237.47" y="73.173" fill="#4A4B42" width="0.888" height="8.464"/>
	<path fill="#4A4B42" d="M246.935,73.62c0.606,0.426,0.958,1.035,1.057,1.843h-0.872c-0.198-1.083-0.983-1.706-2.38-1.706
		c-1.293,0-2.127,0.623-2.127,1.606c0,0.761,0.585,1.222,1.743,1.444l1.282,0.25c1.568,0.3,2.354,1.035,2.354,2.203
		c0,0.773-0.287,1.396-0.872,1.868c-0.575,0.461-1.332,0.697-2.28,0.697c-2.028,0-3.321-1.059-3.52-2.888h0.868
		c0.214,1.332,1.147,2.092,2.689,2.092c1.346,0,2.208-0.661,2.208-1.671c0-0.77-0.541-1.232-1.598-1.443l-1.47-0.287
		c-1.542-0.297-2.339-1.058-2.339-2.217c0-0.731,0.272-1.32,0.822-1.753c0.559-0.448,1.28-0.676,2.19-0.676
		C245.577,72.983,246.324,73.199,246.935,73.62"/>
	<path fill="#4A4B42" d="M254.249,74.183l-1.856,4.184h3.712L254.249,74.183z M252.032,79.172l-1.099,2.469h-0.946l3.837-8.532
		h0.846l3.837,8.532h-0.946l-1.095-2.469H252.032z M252.032,79.172"/>
	<path fill="#4A4B42" d="M268.297,81.641h-0.761l-5.525-6.864v6.864h-0.886v-8.468h0.722l5.565,6.947v-6.947h0.885V81.641z
		 M268.297,81.641"/>
	<path fill="#4A4B42" d="M276.88,73.62c0.609,0.426,0.957,1.035,1.057,1.843h-0.872c-0.198-1.083-0.983-1.706-2.38-1.706
		c-1.294,0-2.127,0.623-2.127,1.606c0,0.761,0.584,1.222,1.743,1.444l1.284,0.25c1.568,0.3,2.352,1.035,2.352,2.203
		c0,0.773-0.288,1.396-0.872,1.868c-0.571,0.461-1.332,0.697-2.278,0.697c-2.028,0-3.324-1.059-3.522-2.888h0.872
		c0.211,1.332,1.144,2.092,2.687,2.092c1.348,0,2.207-0.661,2.207-1.671c0-0.77-0.536-1.232-1.595-1.443l-1.468-0.287
		c-1.547-0.297-2.343-1.058-2.343-2.217c0-0.731,0.275-1.32,0.822-1.753c0.562-0.448,1.28-0.676,2.189-0.676
		C275.521,72.983,276.269,73.199,276.88,73.62"/>
	<path fill="#4A4B42" d="M267.678,52.421c2.644-2.763,3.937-6.174,3.937-10.116c0-3.938-1.293-7.292-3.937-10.055
		c-2.648-2.766-5.881-4.174-9.766-4.174c-3.82,0-7.056,1.409-9.703,4.174c-2.645,2.763-3.939,6.117-3.939,10.055
		c0,3.942,1.295,7.354,3.939,10.116c2.647,2.767,5.883,4.117,9.703,4.117C261.797,56.538,265.029,55.188,267.678,52.421
		 M257.912,21.485c5.766,0,10.646,2.06,14.705,6.117c4.057,4.06,6.114,8.939,6.114,14.702c0,5.766-2.058,10.704-6.114,14.764
		c-4.059,4.057-8.939,6.057-14.705,6.057c-5.763,0-10.703-2-14.76-6.057c-4.06-4.06-6.06-8.998-6.06-14.764
		c0-5.763,2-10.643,6.06-14.702C247.209,23.545,252.149,21.485,257.912,21.485"/>
	<path fill="#00BEAD" d="M274.25,63.508l-8.988-9.062c0,0,1.328-0.901,2.416-2.025c1.172-1.217,2.034-2.686,2.034-2.686l9.125,9.185
		L274.25,63.508z M274.25,63.508"/>
	<path fill="#9C9C96" d="M68.718,49.786L34.382,15.451L47.314,2.519l34.334,34.336L68.718,49.786z M68.718,49.786"/>
	<path fill="#9C9C96" d="M81.648,62.719L47.232,97.135L34.298,84.202l34.417-34.416L81.648,62.719z M81.648,62.719"/>
	<path fill="#00BEAD" d="M94.581,75.651L81.648,62.719l12.933-12.933l12.933,12.933L94.581,75.651z M94.581,75.651"/>
	<path fill="#797972" d="M60.248,15.451L13.016,62.684L0.083,49.751l47.23-47.232L60.248,15.451z M60.248,15.451"/>
	<path fill="#4A4B42" d="M47.232,97.135L0,49.903l12.932-12.932l47.232,47.231L47.232,97.135z M47.232,97.135"/>
</g>
</svg>
