<?xml version="1.0" encoding="utf-8"?>
<!-- Generator: Adobe Illustrator 16.0.4, SVG Export Plug-In . SVG Version: 6.00 Build 0)  -->
<!DOCTYPE svg PUBLIC "-//W3C//DTD SVG 1.1//EN" "http://www.w3.org/Graphics/SVG/1.1/DTD/svg11.dtd">
<svg version="1.1" id="Layer_1" xmlns="http://www.w3.org/2000/svg" xmlns:xlink="http://www.w3.org/1999/xlink" x="0px" y="0px"
	 width="94px" height="25.667px" viewBox="103.833 37.167 94 25.667" enable-background="new 103.833 37.167 94 25.667"
	 xml:space="preserve">
<g>
	<path fill="#26B2E7" d="M182.604,49.357c-0.055-0.006-0.104-0.011-0.162-0.011c-0.567,0-1.153-0.137-1.153-1.524V43.18
		c0-2.094-0.99-3.008-2.97-3.008h-1.686c-0.562,0-1.021,0.448-1.021,1.013c0,0.563,0.457,1.016,1.021,1.016l0.585,0.003
		c0.638,0,1.087,0.407,1.087,1.363v4.551c0,2.07,1.535,2.23,2.35,2.298v0.045c-0.813,0.068-2.35,0.229-2.35,2.299v4.551
		c0,0.957-0.466,1.394-1.103,1.394h-0.569c-0.562,0-1.021,0.428-1.021,0.991c0,0.564,0.457,0.996,1.021,0.996h1.686
		c1.979,0,2.97-0.9,2.97-2.993v-4.642c0-1.39,0.586-1.524,1.153-1.524c0.06,0,0.11-0.005,0.164-0.011
		c0.569-0.033,1.021-0.504,1.021-1.082C183.625,49.861,183.171,49.391,182.604,49.357"/>
	<path fill="#26B2E7" d="M195.24,50.491c0-0.489-0.292-0.911-0.711-1.102c-0.016-0.009-0.031-0.02-0.049-0.028l-7.817-4.227
		c-0.206-0.118-0.438-0.181-0.672-0.181c-0.748,0-1.356,0.608-1.356,1.356c0,0.6,0.295,1.009,0.926,1.284l5.396,2.896l-5.391,2.894
		c-0.639,0.278-0.933,0.688-0.933,1.288c0,0.747,0.608,1.354,1.356,1.354c0.234,0,0.466-0.062,0.67-0.178l7.818-4.229
		c0.012-0.007,0.021-0.013,0.033-0.019C194.941,51.414,195.24,50.988,195.24,50.491"/>
	<path fill="#2E3134" d="M129.429,51.45c0-3.206-2.596-5.812-5.787-5.812c-3.199,0-5.802,2.606-5.802,5.812
		c0,3.204,2.611,5.813,5.82,5.813c1.097,0,2.166-0.31,3.091-0.891l0.139-0.087l0.06,0.151c0.201,0.5,0.668,0.824,1.193,0.824
		c0.722,0,1.286-0.576,1.286-1.311V51.45L129.429,51.45z M123.666,54.262c-1.55,0-2.811-1.262-2.811-2.812
		c0-1.55,1.261-2.812,2.811-2.812c1.551,0,2.812,1.262,2.812,2.812C126.478,53,125.217,54.262,123.666,54.262"/>
	<path fill="#2E3134" d="M142.264,51.45c0-3.206-2.578-5.812-5.776-5.812c-3.202,0-5.796,2.606-5.796,5.812
		c0,3.204,2.614,5.813,5.821,5.813c1.097,0,2.168-0.31,3.094-0.891l0.139-0.087l0.061,0.151c0.2,0.5,0.651,0.824,1.183,0.824
		c0.716,0,1.275-0.588,1.275-1.311L142.264,51.45L142.264,51.45z M136.522,54.262c-1.551,0-2.812-1.262-2.812-2.812
		c0-1.55,1.261-2.812,2.812-2.812c1.55,0,2.811,1.262,2.811,2.812C139.333,53,138.072,54.262,136.522,54.262"/>
	<path fill="#2E3134" d="M152.615,56.455c0.207,0.52,0.701,0.854,1.261,0.854c0.75,0,1.358-0.607,1.358-1.354V42.607
		c-0.004-0.746-0.633-1.353-1.377-1.353c-0.748,0-1.379,0.608-1.379,1.356v3.931l-0.115-0.084c-0.932-0.575-1.935-0.866-3.004-0.866
		c-3.229,0-5.852,2.628-5.852,5.858c0,3.229,2.631,5.857,5.861,5.857c1.104,0,2.182-0.31,3.112-0.896l0.092-0.058L152.615,56.455z
		 M149.372,54.216c-1.525,0-2.767-1.241-2.767-2.766c0-1.525,1.241-2.767,2.767-2.767c1.524,0,2.767,1.241,2.767,2.767
		C152.139,52.975,150.896,54.216,149.372,54.216"/>
	<path fill="#2E3134" d="M172.52,47.344c-0.938-1.001-2.311-1.502-4.084-1.502l0,0c-0.063,0-1.472,0.09-2.424,0.629
		c-0.207-0.646-0.812-1.103-1.506-1.103c-0.852,0-1.561,0.691-1.58,1.542c0,0.013,0,5.671-0.002,9.043
		c0,0.872,0.711,1.581,1.582,1.581c0.872,0,1.582-0.709,1.582-1.582v-4.813c0-1.001,0.736-2.079,2.354-2.079
		c1.553,0,2.25,1.112,2.25,1.901c0,0.786,0.002,5.005,0.002,5.006c0.008,0.864,0.717,1.567,1.582,1.567
		c0.871,0,1.58-0.71,1.58-1.582v-4.771C173.863,51.039,173.967,48.89,172.52,47.344"/>
	<path fill="#2E3134" d="M116.083,45.411c-0.681,0-1.142,0.328-1.449,1.031l-2.731,5.88l-2.73-5.878
		c-0.308-0.705-0.769-1.033-1.449-1.033c-0.848,0-1.537,0.688-1.537,1.536c0,0.266,0.069,0.528,0.199,0.754l4.229,9.086
		c0.342,0.648,0.787,0.702,1.289,0.702c0.503,0,0.948-0.054,1.292-0.706l4.223-9.075c0.132-0.232,0.202-0.495,0.202-0.761
		C117.619,46.1,116.93,45.411,116.083,45.411"/>
	<path fill="#2E3134" d="M159.083,45.435c-0.862,0-1.558,0.675-1.581,1.538c-0.001,0.016-0.001,8.8-0.001,8.89
		c0,0.871,0.71,1.582,1.582,1.582s1.582-0.711,1.582-1.582c0-0.09-0.001-8.872-0.001-8.887
		C160.643,46.111,159.948,45.435,159.083,45.435"/>
	<path fill="#2E3134" d="M159.081,41.12c0.918,0,1.661,0.743,1.661,1.661c0,0.918-0.743,1.661-1.661,1.661s-1.661-0.743-1.661-1.661
		C157.42,41.863,158.163,41.12,159.081,41.12"/>
</g>
</svg>
