<?xml version="1.0" encoding="utf-8"?>
<!-- Generator: Adobe Illustrator 16.0.4, SVG Export Plug-In . SVG Version: 6.00 Build 0)  -->
<!DOCTYPE svg PUBLIC "-//W3C//DTD SVG 1.1//EN" "http://www.w3.org/Graphics/SVG/1.1/DTD/svg11.dtd">
<svg version="1.1" id="Logotype" xmlns="http://www.w3.org/2000/svg" xmlns:xlink="http://www.w3.org/1999/xlink" x="0px" y="0px"
	 width="393.864px" height="84.097px" viewBox="0 0 393.864 84.097" enable-background="new 0 0 393.864 84.097"
	 xml:space="preserve">
<g>
	<path fill="#737373" d="M139.021,48.456l-2.361,6.607h-0.134c-0.422-1.549-1.129-3.744-2.236-6.535l-12.635-31.695h-12.353v50.392
		h8.147V36.247c0-1.912-0.041-4.223-0.122-6.867c-0.042-1.338-0.193-2.41-0.231-3.227h0.179c0.414,1.898,0.844,3.345,1.155,4.312
		l15.15,36.759h5.7l15.038-37.091c0.341-0.846,0.703-2.496,1.035-3.98h0.179c-0.196,3.671-0.363,7.025-0.386,9.05v32.021h8.691
		V16.833h-11.863L139.021,48.456z"/>
	<rect x="172.021" y="31.112" fill="#737373" width="8.495" height="36.112"/>
	<path fill="#737373" d="M176.356,15.765c-1.4,0-2.617,0.478-3.619,1.419c-1.006,0.945-1.516,2.138-1.516,3.543
		c0,1.383,0.504,2.551,1.5,3.473c0.99,0.918,2.213,1.384,3.636,1.384c1.422,0,2.651-0.466,3.652-1.383
		c1.008-0.923,1.519-2.091,1.519-3.474c0-1.356-0.498-2.535-1.478-3.504C179.069,16.255,177.827,15.765,176.356,15.765z"/>
	<path fill="#737373" d="M210.59,30.75c-1.634-0.338-3.23-0.509-4.747-0.509c-3.898,0-7.374,0.835-10.331,2.483
		c-2.962,1.65-5.254,4.008-6.812,7.006c-1.554,2.99-2.342,6.481-2.342,10.377c0,3.412,0.765,6.542,2.274,9.303
		c1.512,2.766,3.65,4.928,6.357,6.428c2.705,1.497,5.829,2.257,9.286,2.257c4.037,0,7.485-0.807,10.247-2.398l0.112-0.065V57.85
		l-0.356,0.261c-1.254,0.912-2.652,1.64-4.156,2.163c-1.502,0.523-2.871,0.789-4.07,0.789c-3.333,0-6.008-1.043-7.951-3.1
		c-1.947-2.059-2.934-4.947-2.934-8.586c0-3.662,1.028-6.628,3.057-8.815c2.023-2.182,4.704-3.288,7.967-3.288
		c2.794,0,5.515,0.945,8.088,2.812l0.356,0.259v-8.2l-0.114-0.064C213.552,31.539,212.229,31.091,210.59,30.75z"/>
	<path fill="#737373" d="M238.579,30.485c-2.133,0-4.044,0.686-5.681,2.037c-1.437,1.186-2.474,2.812-3.269,4.843h-0.09v-6.253
		h-8.494v36.112h8.494V48.75c0-3.142,0.713-5.722,2.117-7.67c1.388-1.926,3.236-2.901,5.494-2.901c0.766,0,1.625,0.126,2.555,0.375
		c0.92,0.248,1.587,0.518,1.98,0.801l0.357,0.258v-8.563l-0.138-0.059C241.116,30.655,239.996,30.485,238.579,30.485z"/>
	<path fill="#737373" d="M261.651,30.242c-5.956,0-10.686,1.745-14.057,5.187c-3.371,3.44-5.079,8.204-5.079,14.158
		c0,5.654,1.668,10.201,4.958,13.515s7.768,4.994,13.307,4.994c5.771,0,10.408-1.769,13.779-5.258
		c3.369-3.486,5.078-8.202,5.078-14.018c0-5.745-1.604-10.326-4.765-13.616C271.71,31.911,267.261,30.242,261.651,30.242z
		 M268.405,58.047c-1.596,2.002-3.997,3.016-7.138,3.016c-3.12,0-5.582-1.033-7.315-3.072c-1.744-2.05-2.629-4.971-2.629-8.684
		c0-3.828,0.885-6.826,2.629-8.91c1.735-2.072,4.173-3.123,7.246-3.123c2.981,0,5.355,1.004,7.056,2.986
		c1.709,1.991,2.575,4.965,2.575,8.838C270.829,53.021,270.014,56.032,268.405,58.047z"/>
	<path fill="#737373" d="M298.477,46.034c-2.678-1.076-4.394-1.968-5.099-2.651c-0.683-0.661-1.029-1.597-1.029-2.781
		c0-1.051,0.428-1.893,1.307-2.573c0.883-0.686,2.114-1.033,3.658-1.033c1.435,0,2.9,0.226,4.357,0.67
		c1.455,0.443,2.735,1.037,3.805,1.764l0.352,0.239v-7.853l-0.137-0.059c-0.984-0.422-2.283-0.783-3.861-1.076
		c-1.573-0.291-2.999-0.438-4.237-0.438c-4.051,0-7.401,1.036-9.962,3.079c-2.574,2.055-3.88,4.75-3.88,8.012
		c0,1.695,0.281,3.201,0.837,4.477c0.557,1.282,1.422,2.412,2.57,3.358c1.137,0.938,2.896,1.922,5.227,2.924
		c1.957,0.806,3.418,1.487,4.347,2.025c0.907,0.526,1.551,1.056,1.913,1.571c0.354,0.505,0.534,1.193,0.534,2.047
		c0,2.428-1.817,3.606-5.556,3.606c-1.388,0-2.969-0.289-4.701-0.859c-1.734-0.57-3.354-1.392-4.814-2.441l-0.356-0.257v8.28
		l0.13,0.061c1.218,0.562,2.751,1.035,4.56,1.408c1.808,0.374,3.446,0.562,4.868,0.562c4.397,0,7.936-1.042,10.519-3.096
		c2.599-2.067,3.916-4.827,3.916-8.204c0-2.434-0.708-4.521-2.106-6.204C304.247,48.921,301.839,47.388,298.477,46.034z"/>
	<path fill="#737373" d="M330.584,30.242c-5.956,0-10.685,1.745-14.057,5.187c-3.37,3.44-5.079,8.204-5.079,14.158
		c0,5.654,1.668,10.201,4.959,13.515c3.29,3.313,7.767,4.994,13.307,4.994c5.771,0,10.407-1.769,13.778-5.258
		c3.37-3.486,5.079-8.202,5.079-14.018c0-5.745-1.604-10.326-4.766-13.616C340.643,31.911,336.193,30.242,330.584,30.242z
		 M337.339,58.047c-1.596,2.002-3.998,3.016-7.138,3.016c-3.12,0-5.582-1.033-7.316-3.072c-1.744-2.05-2.628-4.971-2.628-8.684
		c0-3.828,0.885-6.826,2.629-8.91c1.734-2.072,4.172-3.123,7.246-3.123c2.98,0,5.355,1.004,7.056,2.986
		c1.709,1.991,2.575,4.965,2.575,8.838C339.763,53.021,338.946,56.032,337.339,58.047z"/>
	<path fill="#737373" d="M393.864,38.04v-6.928h-8.603V20.34l-0.29,0.089l-8.08,2.474l-0.159,0.049v8.16h-12.746v-4.546
		c0-2.116,0.474-3.736,1.408-4.815c0.927-1.07,2.251-1.612,3.938-1.612c1.215,0,2.474,0.287,3.74,0.853l0.316,0.141v-7.297
		l-0.148-0.053c-1.18-0.425-2.787-0.641-4.778-0.641c-2.51,0-4.79,0.549-6.776,1.629c-1.99,1.085-3.556,2.632-4.651,4.599
		c-1.094,1.964-1.647,4.232-1.647,6.744v4.999h-5.99v6.928h5.99v29.185h8.599V38.04h12.746v18.547
		c0,7.637,3.603,11.509,10.708,11.509c1.168,0,2.397-0.137,3.651-0.405c1.278-0.275,2.147-0.551,2.659-0.844l0.113-0.064v-6.995
		l-0.35,0.233c-0.466,0.312-1.048,0.565-1.729,0.755c-0.685,0.191-1.256,0.288-1.698,0.288c-1.665,0-2.896-0.448-3.661-1.333
		c-0.772-0.894-1.164-2.454-1.164-4.642V38.04H393.864z"/>
</g>
<rect fill="#F25022" width="39.961" height="39.961"/>
<rect x="44.121" fill="#7FBA00" width="39.96" height="39.96"/>
<rect y="44.137" fill="#00A4EF" width="39.96" height="39.96"/>
<rect x="44.121" y="44.137" fill="#FFB900" width="39.96" height="39.96"/>
</svg>
