<?xml version="1.0" encoding="utf-8"?>
<!-- Generator: Adobe Illustrator 16.0.4, SVG Export Plug-In . SVG Version: 6.00 Build 0)  -->
<!DOCTYPE svg PUBLIC "-//W3C//DTD SVG 1.1//EN" "http://www.w3.org/Graphics/SVG/1.1/DTD/svg11.dtd">
<svg version="1.1" id="Layer_1" xmlns="http://www.w3.org/2000/svg" xmlns:xlink="http://www.w3.org/1999/xlink" x="0px" y="0px"
	 width="81px" height="14.333px" viewBox="109.5 43.167 81 14.333" enable-background="new 109.5 43.167 81 14.333"
	 xml:space="preserve">
<path fill="#010101" d="M155.545,44.909v10.594c0.428,0.099,0.9,0.167,1.213,0.229c1.57,0.309,2.59,0.398,3.819-0.104
	c0.614-0.251,1.142-0.628,1.388-1.309c0.24-0.67,0.292-1.45,0.229-2.43c0-0.744,0.013-1.382-0.062-1.977
	c-0.074-0.598-0.447-1.018-0.808-1.434c-0.933-0.733-1.507-0.756-2.314-0.749c-0.45,0.007-1.071,0.022-1.646,0.092v-2.915
	L155.545,44.909L155.545,44.909z M159.119,49.279c0.621,0.103,1.109,0.475,1.176,0.938c0.053,0.664,0.083,1.176,0.083,1.713
	c-0.009,0.581-0.043,1.361-0.231,1.908c-0.32,0.844-2.373,0.611-2.785,0.544v-4.897C158.057,49.255,158.68,49.272,159.119,49.279"/>
<path fill="#010101" d="M163.812,45.291v8.436c0,0.145-0.018,0.254,0.039,0.784s0.582,1.152,2.1,1.152l2.184-0.077v-1.307h-1.224
	c-0.345,0-0.847-0.031-1.078-0.161c-0.229-0.13-0.188-0.356-0.205-0.558v-5.318h2.565v-1.286h-2.565v-2.035L163.812,45.291z"/>
<path fill="#010101" d="M143.504,47.462v6.034h-0.002c-0.021,0.408-0.589,0.732-1.284,0.732c-0.695,0-1.264-0.324-1.284-0.732
	h-0.002v-6.033h-1.815v6.033h-0.002c-0.021,0.408-0.589,0.732-1.284,0.732s-1.264-0.324-1.284-0.732h-0.002v-6.033h-1.815v6.271
	v0.022h0.002c0.019,1.118,1.4,2.019,3.1,2.021c0.824-0.002,1.613-0.217,2.195-0.603c0.581,0.384,1.37,0.599,2.192,0.603
	c1.713,0,3.101-0.914,3.101-2.043l-0.003-0.037h0.003v-6.235H143.504z"/>
<path fill="#010101" d="M150.45,47.476h-0.007c-1.389,0.028-2.449,0.656-2.963,1.533c-0.515,0.877-0.567,1.845-0.57,2.689
	c-0.005,2.003,0.785,3.358,1.984,3.795c0.975,0.354,2.608,0.259,3.674,0.116l0.976-0.129l0.044-1.428l-1.025,0.104
	c-1.252,0.127-2.415-0.064-2.837-0.259c-0.482-0.219-0.84-0.697-0.955-1.64l5.185-0.016l-0.03-0.759
	c-0.011-0.354,0.05-1.296-0.368-2.229c-0.416-0.934-1.505-1.784-3.096-1.781h-0.011V47.476z M150.472,49.292
	c1.062,0,1.24,0.287,1.426,0.706c0.08,0.175,0.121,0.719,0.15,0.941l-3.23,0.011c0.051-0.277,0.126-0.849,0.228-1.022
	C149.266,49.554,149.526,49.313,150.472,49.292"/>
<path fill="#010101" d="M184.994,47.52h-0.01c-1.387,0.028-2.446,0.656-2.961,1.533c-0.516,0.877-0.567,1.845-0.57,2.689
	c-0.006,2.003,0.785,3.359,1.982,3.795c0.977,0.354,2.608,0.259,3.676,0.117l0.975-0.131l0.044-1.426l-1.024,0.104
	c-1.252,0.127-2.414-0.062-2.838-0.258c-0.481-0.221-0.841-0.697-0.955-1.639l5.186-0.018l-0.03-0.758
	c-0.012-0.354,0.05-1.297-0.368-2.23c-0.416-0.933-1.506-1.783-3.096-1.781h-0.01V47.52z M185.014,49.336
	c1.062,0,1.24,0.287,1.428,0.706c0.078,0.176,0.121,0.719,0.149,0.942l-3.229,0.011c0.053-0.278,0.125-0.849,0.229-1.023
	C183.809,49.598,184.068,49.356,185.014,49.336"/>
<path fill="#010101" d="M179.861,44.918v10.596c-0.428,0.096-0.9,0.166-1.213,0.229c-1.569,0.309-2.588,0.398-3.817-0.104
	c-0.614-0.25-1.144-0.628-1.388-1.31c-0.241-0.669-0.293-1.45-0.229-2.429c0-0.746-0.011-1.383,0.063-1.978
	c0.076-0.598,0.447-1.017,0.808-1.433c0.933-0.734,1.506-0.756,2.313-0.749c0.451,0.007,1.072,0.022,1.647,0.091l-0.024-2.594
	L179.861,44.918z M176.289,49.289c-0.622,0.104-1.109,0.475-1.178,0.938c-0.053,0.664-0.082,1.177-0.082,1.714
	c0.009,0.58,0.043,1.359,0.23,1.908c0.321,0.844,2.373,0.61,2.786,0.545v-4.898C177.354,49.265,176.729,49.281,176.289,49.289"/>
<path fill="#010101" d="M169.785,47.939v5.67c0,0.151-0.018,0.27,0.04,0.832c0.052,0.521,0.485,1.422,1.764,1.506l0.011-2.514
	v-5.495H169.785z"/>
<rect x="169.783" y="45.117" fill="#010101" width="1.814" height="1.815"/>
<rect x="111.783" y="44.963" fill="#5F86B1" width="19.225" height="10.773"/>
<path fill="#FFFFFF" d="M119.679,47.573v4.128h-0.001c-0.015,0.279-0.403,0.502-0.879,0.502c-0.476,0-0.865-0.223-0.879-0.502
	h-0.001v-4.127h-1.242v4.127h-0.001c-0.015,0.279-0.403,0.502-0.879,0.502s-0.865-0.223-0.879-0.502h-0.001v-4.127h-1.242v4.291
	v0.016h0.001c0.013,0.766,0.958,1.38,2.121,1.38c0.563,0,1.104-0.146,1.502-0.409c0.397,0.263,0.937,0.409,1.5,0.409
	c1.172,0,2.122-0.625,2.122-1.396c-0.001-0.01-0.001-0.018-0.002-0.026h0.002v-4.266H119.679z"/>
<path fill="#FFFFFF" d="M122.961,48.162c0.428,0,0.773,0.347,0.773,0.774c0,0.427-0.346,0.774-0.773,0.774
	c-0.427,0-0.773-0.347-0.773-0.774C122.188,48.509,122.534,48.162,122.961,48.162"/>
<path fill="#FFFFFF" d="M122.961,50.99c0.428,0,0.773,0.347,0.773,0.773c0,0.428-0.346,0.774-0.773,0.774
	c-0.427,0-0.773-0.347-0.773-0.774C122.188,51.337,122.534,50.99,122.961,50.99"/>
<polygon fill="#FFFFFF" points="126.624,46.217 128.112,46.217 125.493,53.811 124.005,53.811 "/>
<polygon fill="#FFFFFF" points="128.645,46.217 130.133,46.217 127.514,53.811 126.025,53.811 "/>
</svg>
