<svg id="Layer_1" data-name="Layer 1" xmlns="http://www.w3.org/2000/svg" viewBox="0 0 500 130.47"><defs><style>.cls-1{fill:#fb9900;}.cls-2{fill:#e05555;}.cls-3{fill:#ff8a5b;}.cls-4{fill:#e56b35;}.cls-5{fill:#1767ac;}.cls-6{fill:#42a5e2;}.cls-7{fill:#fcd9b1;}.cls-8{fill:#fbba57;}.cls-9{fill:#5adbff;}.cls-10{fill:#1db8fb;}</style></defs><title>LJC RGB logos_500 color (1)</title><path class="cls-1" d="M112.83,2.38h28.55V103.94h54.21v24.94H112.83Z"/><path class="cls-2" d="M276.44,118.73q-11.29,11-31.17,11-24.59,0-41.38-19.7l13.19-20.24a50,50,0,0,0,13.64,10.48,29.24,29.24,0,0,0,13.1,3.62q7.23,0,11.21-4.34t4-12.29V26.2H215.45V2h72.29V88Q287.74,107.71,276.44,118.73Z"/><path class="cls-3" d="M259,26.2H215.45V2h72.29Z"/><path class="cls-4" d="M141.38,103.94h54.21v24.94H112.83Z"/><path class="cls-5" d="M383.86,29.37a38.81,38.81,0,0,0-17.62-4.43A37.93,37.93,0,0,0,332.8,44.45a40.42,40.42,0,0,0-5.06,20.06,40.88,40.88,0,0,0,5.06,20.15,38.06,38.06,0,0,0,13.92,14.46,37.07,37.07,0,0,0,19.52,5.33,40.62,40.62,0,0,0,17.25-4.07,54.12,54.12,0,0,0,15.64-10.93l16.8,18.25a76.27,76.27,0,0,1-23.76,16.63,66.14,66.14,0,0,1-27.38,6.14A67.46,67.46,0,0,1,331,121.89a62.76,62.76,0,0,1-23.86-23.58,65.61,65.61,0,0,1-8.67-33.43A63.09,63.09,0,0,1,331.63,8.49,69.9,69.9,0,0,1,365.87,0a71.37,71.37,0,0,1,49.88,21.14L399.13,41.56A48,48,0,0,0,383.86,29.37Z"/><path class="cls-6" d="M383.86,29.37a38.81,38.81,0,0,0-17.62-4.43A37.93,37.93,0,0,0,332.8,44.45a41.87,41.87,0,0,0-5.05,20.44H298.47A63.09,63.09,0,0,1,331.63,8.49,69.9,69.9,0,0,1,365.87,0a71.37,71.37,0,0,1,49.88,21.14L399.13,41.56A48,48,0,0,0,383.86,29.37Z"/><path class="cls-7" d="M111.51,2.11h29.9L102,128.88H72.1Z"/><path class="cls-8" d="M80.48,101.9l-8.34,27.15L0,81.9V49.3Z"/><path class="cls-1" d="M72.1,2.11v32.6L36.62,57.9l-25-16.27Z"/><path class="cls-9" d="M500,49.3V81.9l-72.14,47.15,0-32.63Z"/><path class="cls-10" d="M488.36,41.63l-25,16.27L427.9,34.71V2.11Z"/></svg>