<?xml version="1.0" encoding="utf-8"?>
<!-- Generator: Adobe Illustrator 16.0.4, SVG Export Plug-In . SVG Version: 6.00 Build 0)  -->
<!DOCTYPE svg PUBLIC "-//W3C//DTD SVG 1.1//EN" "http://www.w3.org/Graphics/SVG/1.1/DTD/svg11.dtd">
<svg version="1.1" id="Layer_1" xmlns="http://www.w3.org/2000/svg" xmlns:xlink="http://www.w3.org/1999/xlink" x="0px" y="0px"
	 width="158.75px" height="62px" viewBox="71.5 19 158.75 62" enable-background="new 71.5 19 158.75 62" xml:space="preserve">
<path fill="#002D3D" d="M72.515,68.566c0,0,6.657-3.186,13.072,0.522c0.26-0.19-4.344,8.315-8.929,10.285
	c-0.051,0.021,0.299,0.087,0.246,0.099c4.714-0.171,14.846-4.449,19.502-8.15c15.457-12.291,13.336-20.86,13.336-20.86
	s-7.129,11.379-12.768,4.214c-4.446-5.648,8.885-18.506,31.163-14.597c13.276,2.33,21.554,8.096,21.554,8.096l-12.412-13.653
	l12.412-14.383c0,0-20.788,5.237-24.416,11.494c-8.69-1.543-23.459,0.792-23.459,0.792s-1.456-9.593-0.375-12.286
	C78.123,31.36,73.333,55.518,72.515,68.566"/>
<path fill="#002D3D" d="M76.293,68.754c1.403,3.207,4.917,7.305,5.487,7.762c-0.816,1.451-2.198,1.764-2.198,1.764
	S76.129,72.619,76.293,68.754"/>
<path fill="#002D3D" d="M74.271,69.598c1.115,3.318,4.484,7.873,5.012,8.377c-0.941,1.377-2.575,1.4-2.575,1.4
	S73.768,73.434,74.271,69.598"/>
<path fill="#FFFFFF" d="M94.752,49.226c0,0,1.016-6.08-5.475-10.863C96.439,40.847,97.129,44.806,94.752,49.226"/>
<path fill="#FFFFFF" d="M96.851,46.646c0,0,0.85-5.086-4.58-9.088C98.262,39.637,98.839,42.949,96.851,46.646"/>
<path fill="#FFFFFF" d="M98.688,44.068c0,0,0.684-4.093-3.686-7.313C99.825,38.427,100.289,41.092,98.688,44.068"/>
<path fill="#FFFFFF" d="M100.265,41.663c0,0,0.518-3.1-2.792-5.539C101.125,37.391,101.476,39.41,100.265,41.663"/>
<path fill="#FFFFFF" d="M86.721,57c-3.499,0.264-5.956,5.877-4.577,6.668c1.022,0.588,2.262,0.418,3.193-0.727
	C86.66,61.314,86.721,57,86.721,57"/>
<path fill="#002D3D" d="M113.2,79.691V62.587c0-1.681,0.084-2.985,0.252-3.913s0.447-1.781,0.837-2.562
	c0.821-1.68,2.021-2.993,3.601-3.941c1.58-0.947,3.338-1.422,5.274-1.422c2.878,0,5.252,0.965,7.121,2.895
	c1.869,1.93,2.804,4.375,2.804,7.334c0,1.344-0.232,2.629-0.696,3.852c-0.464,1.224-1.133,2.312-2.007,3.268
	c-0.888,0.995-1.95,1.766-3.187,2.309c-1.238,0.546-2.528,0.818-3.873,0.818c-0.982,0-1.92-0.111-2.814-0.334
	c-0.894-0.221-1.745-0.561-2.551-1.018v-3.812c0.806,0.618,1.626,1.075,2.46,1.371c0.834,0.297,1.681,0.444,2.542,0.444
	c1.896,0,3.456-0.651,4.679-1.956c1.224-1.305,1.836-2.979,1.836-5.023c0-1.99-0.598-3.623-1.795-4.901
	c-1.197-1.276-2.73-1.916-4.599-1.916s-3.389,0.644-4.559,1.928s-1.755,2.961-1.755,5.031v18.657h-3.57V79.691z"/>
<path fill="#002D3D" d="M150.835,70.896v-9.861c0-2.072-0.585-3.75-1.754-5.033c-1.17-1.285-2.69-1.926-4.559-1.926
	c-1.856,0-3.379,0.635-4.569,1.904c-1.19,1.271-1.785,2.908-1.785,4.912c0,2.045,0.612,3.717,1.835,5.022
	c1.224,1.304,2.784,1.955,4.68,1.955c0.86,0,1.698-0.146,2.511-0.442c0.814-0.296,1.631-0.753,2.451-1.371v3.812
	c-0.807,0.457-1.657,0.797-2.552,1.019c-0.894,0.221-1.832,0.334-2.813,0.334c-0.942,0-1.876-0.146-2.804-0.435
	c-0.928-0.289-1.768-0.697-2.521-1.222c-1.426-0.981-2.515-2.209-3.268-3.682s-1.129-3.109-1.129-4.91
	c0-2.959,0.934-5.402,2.803-7.332c1.869-1.932,4.243-2.895,7.12-2.895c1.896,0,3.631,0.477,5.205,1.431
	c1.573,0.954,2.783,2.267,3.63,3.935c0.39,0.752,0.668,1.576,0.836,2.472c0.168,0.894,0.252,2.229,0.252,4.002v8.312H150.835
	L150.835,70.896z"/>
<path fill="#002D3D" d="M174.432,51.109v10.793c0,2.525-0.553,4.555-1.654,6.08c-1.104,1.525-2.77,2.564-5.002,3.117v8.592h-3.551
	V71.1c-2.231-0.552-3.894-1.586-4.981-3.106c-1.089-1.521-1.634-3.55-1.634-6.091V51.109h3.529v11.438
	c0,1.561,0.461,2.831,1.381,3.812c0.922,0.98,2.096,1.473,3.521,1.473c1.438,0,2.611-0.491,3.52-1.473
	c0.907-0.981,1.362-2.252,1.362-3.812V51.109H174.432z"/>
<path fill="#002D3D" d="M192.111,70.896v-9.861c0-2.072-0.584-3.75-1.754-5.033c-1.17-1.285-2.689-1.926-4.56-1.926
	c-1.854,0-3.379,0.635-4.567,1.904c-1.19,1.271-1.785,2.908-1.785,4.912c0,2.045,0.611,3.717,1.834,5.022
	c1.225,1.304,2.785,1.955,4.682,1.955c0.859,0,1.696-0.146,2.51-0.442c0.814-0.296,1.633-0.753,2.451-1.371v3.812
	c-0.807,0.457-1.658,0.797-2.551,1.019c-0.895,0.221-1.833,0.334-2.814,0.334c-0.94,0-1.875-0.146-2.803-0.435
	c-0.929-0.289-1.77-0.697-2.521-1.222c-1.426-0.981-2.516-2.209-3.268-3.682c-0.754-1.473-1.131-3.109-1.131-4.91
	c0-2.959,0.936-5.402,2.805-7.332c1.869-1.932,4.242-2.895,7.119-2.895c1.896,0,3.631,0.477,5.205,1.431
	c1.573,0.954,2.783,2.267,3.631,3.935c0.391,0.752,0.668,1.576,0.836,2.472c0.168,0.894,0.252,2.229,0.252,4.002v8.312H192.111
	L192.111,70.896z"/>
<path fill="#002D3D" d="M198.115,70.896V51.109h3.268v2.926c0.605-1.156,1.439-1.994,2.502-2.512
	c1.062-0.519,2.493-0.776,4.295-0.776h0.93v3.428h-0.545c-2.436,0-4.192,0.578-5.274,1.734c-1.083,1.157-1.624,3.039-1.624,5.647
	v9.34H198.115L198.115,70.896z"/>
<path fill="#002D3D" d="M225.624,70.896v-9.861c0-2.072-0.585-3.75-1.755-5.033c-1.17-1.285-2.689-1.926-4.559-1.926
	c-1.855,0-3.379,0.635-4.568,1.904c-1.19,1.271-1.785,2.908-1.785,4.912c0,2.045,0.611,3.717,1.835,5.022
	c1.224,1.304,2.784,1.955,4.681,1.955c0.859,0,1.696-0.146,2.51-0.442c0.814-0.296,1.631-0.753,2.451-1.371v3.812
	c-0.807,0.457-1.658,0.797-2.552,1.019c-0.894,0.221-1.832,0.334-2.813,0.334c-0.94,0-1.877-0.146-2.803-0.435
	c-0.929-0.289-1.77-0.697-2.521-1.222c-1.426-0.981-2.516-2.209-3.268-3.682c-0.754-1.473-1.131-3.109-1.131-4.91
	c0-2.959,0.934-5.402,2.805-7.332c1.869-1.932,4.242-2.895,7.119-2.895c1.896,0,3.631,0.477,5.205,1.431
	c1.572,0.954,2.783,2.267,3.631,3.935c0.391,0.752,0.668,1.576,0.836,2.472c0.168,0.894,0.252,2.229,0.252,4.002v8.312H225.624
	L225.624,70.896z"/>
</svg>
