<?xml version="1.0" encoding="utf-8"?>
<!-- Generator: Adobe Illustrator 24.0.3, SVG Export Plug-In . SVG Version: 6.00 Build 0)  -->
<svg version="1.1" id="logo" xmlns="http://www.w3.org/2000/svg" xmlns:xlink="http://www.w3.org/1999/xlink" x="0px" y="0px"
	 viewBox="0 0 150 38.9" style="enable-background:new 0 0 150 38.9;" xml:space="preserve">
<style type="text/css">
	.st0{fill:#ED2636;}
</style>
<g>
	<path class="st0" d="M32.9,22c2.9,0,7.2-0.6,7.2-4.1c0-0.3,0-0.6-0.1-0.8l-1.8-7.6c-0.4-1.7-0.7-2.4-3.7-3.9
		c-2.3-1.2-7.3-3.1-8.7-3.1c-1.4,0-1.8,1.8-3.4,1.8c-1.6,0-2.7-1.3-4.2-1.3c-1.4,0-2.3,1-3.1,2.9c0,0-2,5.6-2.2,6.4
		c-0.1,0.2-0.1,0.3-0.1,0.5C12.9,14.9,21.4,22,32.9,22 M40.6,19.3c0.4,1.9,0.4,2.2,0.4,2.4c0,3.3-3.7,5.1-8.6,5.1
		c-11,0-20.7-6.5-20.7-10.7c0-0.7,0.2-1.2,0.3-1.7c-4,0.2-9.1,0.9-9.1,5.4c0,7.4,17.6,16.5,31.4,16.5c10.7,0,13.3-4.8,13.3-8.6
		C47.8,24.7,45.2,21.3,40.6,19.3"/>
	<path d="M40.6,19.3c0.4,1.9,0.4,2.2,0.4,2.4c0,3.3-3.7,5.1-8.6,5.1c-11,0-20.7-6.5-20.7-10.7c0-0.7,0.2-1.2,0.3-1.7l0.8-2.2
		c-0.1,0.2-0.1,0.3-0.1,0.5c0,2.2,8.6,9.3,20,9.3c2.9,0,7.2-0.6,7.2-4.1c0-0.3,0-0.6-0.1-0.8L40.6,19.3z"/>
	<path d="M139.3,24.2c0,2.8,1.7,4.1,4.8,4.1c0.7,0,2-0.2,2.8-0.4v-3.2c-0.7,0.2-1.2,0.3-1.8,0.3c-1.2,0-1.8-0.4-1.8-1.6v-5h3.7v-3.3
		h-3.7v-4.2l-4,0.8v3.4h-2.7v3.3h2.7L139.3,24.2L139.3,24.2z M126.9,24.3c0-0.8,0.8-1.3,2.2-1.3c0.8,0,1.6,0.1,2.4,0.3v1.7
		c-0.7,0.4-1.6,0.6-2.5,0.6C127.7,25.6,126.9,25.1,126.9,24.3 M128.1,28.4c1.4,0,2.5-0.3,3.6-1v0.8h4v-8.4c0-3.2-2.2-4.9-5.7-4.9
		c-2,0-4,0.5-6.1,1.4l1.4,2.9c1.5-0.6,2.8-1,4-1c1.6,0,2.5,0.6,2.5,2v0.6c-1-0.2-1.9-0.4-2.9-0.4c-3.3,0-5.4,1.4-5.4,3.9
		C123.4,26.6,125.2,28.4,128.1,28.4 M106.4,28.2h4.2v-6.8h7.1v6.8h4.2V10.8h-4.2v6.7h-7.1v-6.7h-4.2V28.2z M90.1,21.6
		c0-1.9,1.5-3.3,3.5-3.3c1.1,0,2.1,0.4,2.8,1v4.6c-0.7,0.7-1.6,1-2.8,1C91.6,24.9,90.1,23.5,90.1,21.6 M96.4,28.2h4V10l-4,0.8v4.9
		c-1-0.6-2.2-0.8-3.3-0.8c-3.8,0-6.8,2.9-6.8,6.7s2.9,6.7,6.7,6.7c1.3,0,2.5-0.4,3.5-1.1V28.2z M78.2,18.2c1.2,0,2.3,0.8,2.7,2.1
		h-5.5C75.9,18.9,76.9,18.2,78.2,18.2 M71.5,21.7c0,3.8,3.1,6.8,7.1,6.8c2.2,0,3.8-0.6,5.5-2l-2.7-2.4c-0.6,0.6-1.5,1-2.6,1
		c-1.5,0-2.7-0.8-3.2-2.1h9.3v-1c0-4.1-2.8-7.1-6.6-7.1C74.5,14.9,71.5,17.9,71.5,21.7 M64.5,14.5c1.4,0,2.2,0.9,2.2,2s-0.8,2-2.2,2
		h-4.2v-4H64.5z M56.1,28.2h4.2v-6.3h3.2l3.3,6.3h4.8l-3.8-6.9c2-0.9,3.3-2.7,3.3-4.9c0-3.1-2.4-5.5-6.1-5.5h-8.9V28.2z"/>
</g>
</svg>
