<?xml version="1.0" encoding="utf-8"?>
<!-- Generator: Adobe Illustrator 16.0.4, SVG Export Plug-In . SVG Version: 6.00 Build 0)  -->
<!DOCTYPE svg PUBLIC "-//W3C//DTD SVG 1.1//EN" "http://www.w3.org/Graphics/SVG/1.1/DTD/svg11.dtd">
<svg version="1.1" id="Layer_1" xmlns="http://www.w3.org/2000/svg" xmlns:xlink="http://www.w3.org/1999/xlink" x="0px" y="0px"
	 width="85.75px" height="20.25px" viewBox="107.25 40.5 85.75 20.25" enable-background="new 107.25 40.5 85.75 20.25"
	 xml:space="preserve">
<path fill="#F79226" d="M108.734,54.727v3.823c0,0.373,0.303,0.677,0.675,0.677h18.897c0.373,0,0.675-0.304,0.675-0.677v-3.823
	c-3.282,0.914-6.673,1.35-10.123,1.35C115.407,56.075,112.018,55.641,108.734,54.727"/>
<path fill="#F79226" d="M128.307,41.678H109.41c-0.372,0-0.675,0.304-0.675,0.675v10.454v0.569c3.279,0.944,6.67,1.575,10.124,1.575
	s6.844-0.631,10.123-1.575v-0.569V42.353C128.981,41.979,128.68,41.678,128.307,41.678"/>
<path fill="#F79226" d="M136.646,52.993h-2.892V45.97c0-0.361-0.294-0.654-0.654-0.654c-0.349,0-0.643,0.3-0.643,0.654v7.592
	c0,0.354,0.294,0.654,0.643,0.654h3.546c0.334,0,0.605-0.271,0.605-0.605C137.252,53.27,136.98,52.993,136.646,52.993"/>
<path fill="#F79226" d="M139.435,45.133c-0.415,0-0.716,0.28-0.716,0.667v0.158c0,0.38,0.308,0.667,0.716,0.667
	c0.414,0,0.728-0.287,0.728-0.667V45.8C140.162,45.413,139.855,45.133,139.435,45.133"/>
<path fill="#F79226" d="M139.435,47.538c-0.348,0-0.631,0.288-0.631,0.643v5.454c0,0.36,0.282,0.643,0.643,0.643
	c0.359,0,0.631-0.274,0.631-0.643v-5.454C140.077,47.82,139.795,47.538,139.435,47.538"/>
<path fill="#F79226" d="M147.78,47.538c-0.354,0-0.631,0.282-0.631,0.643v0.257c-0.617-0.646-1.384-0.972-2.285-0.972
	c-1.534,0-3.121,1.171-3.121,3.134v0.022c0,1.946,1.587,3.108,3.121,3.108c0.901,0,1.657-0.336,2.297-1.026v0.274
	c0,1.312-0.771,2.067-2.114,2.067c-0.765,0-1.481-0.221-2.137-0.657c-0.065-0.039-0.158-0.084-0.293-0.084
	c-0.312,0-0.594,0.276-0.594,0.581c0,0.229,0.127,0.437,0.323,0.532c0.825,0.509,1.738,0.766,2.712,0.766
	c1.063,0,1.932-0.307,2.513-0.888c0.564-0.563,0.851-1.353,0.851-2.342V48.18C148.422,47.826,148.134,47.538,147.78,47.538
	 M145.047,52.566c-1.125,0-2.006-0.864-2.006-1.969v-0.023c0-1.127,0.843-1.944,2.006-1.944c1.051,0,2.139,0.731,2.139,1.956v0.023
	C147.186,51.818,146.075,52.566,145.047,52.566"/>
<path fill="#F79226" d="M153.488,47.466c-0.812,0-1.477,0.294-1.98,0.875v-2.747c0-0.354-0.287-0.644-0.643-0.644
	c-0.348,0-0.63,0.289-0.63,0.644v8.041c0,0.36,0.283,0.643,0.643,0.643c0.358,0,0.63-0.274,0.63-0.643v-3.183
	c0-1.06,0.705-1.8,1.715-1.8c0.996,0,1.568,0.63,1.568,1.728v3.255c0,0.36,0.281,0.643,0.643,0.643c0.354,0,0.631-0.281,0.631-0.643
	v-3.486C156.062,48.519,155.053,47.466,153.488,47.466"/>
<path fill="#F79226" d="M160.669,48.763c0.328,0,0.595-0.262,0.595-0.582c0-0.315-0.271-0.582-0.595-0.582h-1.459v-1.313
	c0-0.348-0.294-0.642-0.644-0.642c-0.354,0-0.629,0.281-0.629,0.642v1.313h-0.342c-0.316,0-0.582,0.267-0.582,0.582
	c0,0.31,0.271,0.582,0.582,0.582h0.342v3.621c0,1.234,0.707,1.942,1.941,1.942c0.368,0,0.682-0.059,0.982-0.182
	c0.231-0.09,0.377-0.289,0.377-0.521c0-0.314-0.258-0.568-0.57-0.568c-0.045,0-0.089,0.01-0.146,0.024
	c-0.088,0.022-0.224,0.06-0.424,0.06c-0.615,0-0.89-0.271-0.89-0.875v-3.5H160.669z"/>
<path fill="#F79226" d="M166.439,47.466c-0.889,0-1.623,0.349-2.236,1.064v-2.937c0-0.36-0.282-0.644-0.643-0.644
	c-0.354,0-0.631,0.283-0.631,0.644v8.041c0,0.354,0.288,0.644,0.643,0.644c0.354,0,0.631-0.282,0.631-0.644v-0.3
	c0.602,0.675,1.352,1.018,2.236,1.018c1.535,0,3.168-1.205,3.168-3.438v-0.022C169.607,48.666,167.977,47.466,166.439,47.466
	 M164.167,50.914v-0.023c0-1.39,1.091-2.25,2.103-2.25c1.185,0,2.043,0.951,2.043,2.261v0.023c0,1.324-0.84,2.249-2.043,2.249
	C165.234,53.175,164.167,52.329,164.167,50.914"/>
<path fill="#F79226" d="M173.668,47.466c-1.784,0-3.182,1.509-3.182,3.437v0.023c0,1.96,1.42,3.438,3.303,3.438
	c1.002,0,1.77-0.307,2.48-0.989c0.131-0.114,0.203-0.269,0.203-0.431c0-0.313-0.262-0.569-0.582-0.569
	c-0.134,0-0.256,0.049-0.382,0.153c-0.507,0.468-1.046,0.685-1.696,0.685c-1.047,0-1.838-0.711-2.019-1.788h4.351
	c0.336,0,0.606-0.271,0.606-0.605C176.752,49.151,175.691,47.466,173.668,47.466 M171.795,50.393c0.176-1.069,0.915-1.8,1.85-1.8
	c1.15,0,1.686,0.898,1.814,1.8H171.795z"/>
<path fill="#F79226" d="M181.225,47.466c-0.813,0-1.479,0.294-1.981,0.875v-0.16c0-0.361-0.282-0.643-0.642-0.643
	c-0.349,0-0.631,0.288-0.631,0.643v5.454c0,0.36,0.281,0.643,0.643,0.643c0.359,0,0.63-0.274,0.63-0.643v-3.183
	c0-1.06,0.705-1.8,1.715-1.8c0.995,0,1.567,0.63,1.567,1.728v3.255c0,0.36,0.283,0.643,0.644,0.643c0.354,0,0.63-0.281,0.63-0.643
	v-3.486C183.798,48.519,182.787,47.466,181.225,47.466"/>
<path fill="#F79226" d="M190.979,44.95c-0.358,0-0.631,0.276-0.631,0.644v2.888c-0.601-0.675-1.352-1.016-2.236-1.016
	c-1.535,0-3.168,1.204-3.168,3.437v0.023c0,2.225,1.633,3.426,3.168,3.426c0.889,0,1.623-0.351,2.236-1.065v0.35
	c0,0.36,0.282,0.644,0.644,0.644c0.354,0,0.631-0.282,0.631-0.644v-8.041C191.622,45.233,191.34,44.95,190.979,44.95
	 M188.282,53.175c-1.164,0-2.042-0.972-2.042-2.261v-0.023c0-1.325,0.84-2.25,2.042-2.25c1.034,0,2.103,0.842,2.103,2.25v0.023
	C190.385,52.311,189.294,53.175,188.282,53.175"/>
</svg>
