<?xml version="1.0" encoding="utf-8"?>
<!-- Generator: Adobe Illustrator 16.0.4, SVG Export Plug-In . SVG Version: 6.00 Build 0)  -->
<!DOCTYPE svg PUBLIC "-//W3C//DTD SVG 1.1//EN" "http://www.w3.org/Graphics/SVG/1.1/DTD/svg11.dtd">
<svg version="1.1" id="Layer_1" xmlns="http://www.w3.org/2000/svg" xmlns:xlink="http://www.w3.org/1999/xlink" x="0px" y="0px"
	 width="176.25px" height="24.5px" viewBox="62.25 38.25 176.25 24.5" enable-background="new 62.25 38.25 176.25 24.5"
	 xml:space="preserve">
<path fill="#ED2224" d="M135.768,53.879h11.052l-5.838-9.41l-10.719,17.01l-4.885,0.004l13.048-20.426
	c0.553-0.831,1.509-1.33,2.548-1.33c1.027,0,1.969,0.485,2.525,1.293l13.093,20.463l-4.889-0.004l-2.292-3.802h-11.2L135.768,53.879
	z M186.479,57.68V39.938h-4.145v19.477c0,0.539,0.218,1.054,0.604,1.438c0.405,0.4,0.941,0.625,1.519,0.625h18.89l2.438-3.799
	H186.479z M117.951,54.504c4.02,0,7.281-3.262,7.281-7.282c0-4.022-3.261-7.284-7.281-7.284H99.824v21.541h4.14V43.734h13.702
	c1.929,0,3.485,1.559,3.485,3.487c0,1.924-1.556,3.488-3.485,3.488l-11.674-0.004l12.362,10.771h6.018l-8.318-6.978L117.951,54.504z
	 M74.331,61.479c-5.947,0-10.771-4.819-10.771-10.769c0-5.95,4.824-10.772,10.771-10.772h12.52c5.948,0,10.769,4.822,10.769,10.772
	c0,5.951-4.821,10.772-10.769,10.772L74.331,61.479z M86.572,57.684c3.852,0,6.972-3.121,6.972-6.974
	c0-3.853-3.12-6.974-6.972-6.974l-11.964-0.001c-3.851,0-6.973,3.122-6.973,6.975c0,3.853,3.122,6.974,6.973,6.974H86.572z
	 M165.232,61.479c-5.945,0-10.771-4.819-10.771-10.769c0-5.95,4.825-10.772,10.771-10.772h14.879l-2.438,3.798l-12.161-0.001
	c-3.853,0-6.976,3.122-6.976,6.975c0,3.853,3.123,6.974,6.976,6.974h14.936l-2.434,3.795H165.232z M215.902,57.684
	c-3.188,0-5.883-2.145-6.707-5.067h17.707l2.438-3.799l-20.148-0.001c0.824-2.932,3.517-5.081,6.711-5.081l12.152,0.001l2.442-3.798
	h-14.879c-5.944,0-10.771,4.822-10.771,10.772c0,5.949,4.825,10.769,10.771,10.769H228.4l2.435-3.795H215.902z"/>
<path fill="#ED2224" d="M232.717,42.231c0-1.05,0.85-1.901,1.902-1.901c1.052,0,1.9,0.851,1.9,1.901c0,1.055-0.85,1.907-1.9,1.907
	C233.566,44.138,232.717,43.286,232.717,42.231 M234.619,44.661c1.338,0,2.424-1.085,2.424-2.421c0-1.339-1.086-2.421-2.424-2.421
	c-1.335,0-2.418,1.082-2.418,2.421C232.201,43.576,233.284,44.661,234.619,44.661 M234.391,40.803c0.373,0,0.526,0.004,0.711,0.073
	c0.479,0.16,0.525,0.599,0.525,0.76c0,0.034-0.005,0.126-0.027,0.223c-0.027,0.103-0.088,0.31-0.338,0.465
	c-0.029,0.021-0.043,0.036-0.121,0.064l0.629,1.128h-0.607l-0.553-1.037h-0.367v1.037h-0.532v-2.713H234.391z M234.58,42.029
	c0.164-0.002,0.346-0.016,0.451-0.17c0.044-0.067,0.062-0.14,0.062-0.233c0-0.147-0.077-0.266-0.204-0.329
	c-0.121-0.047-0.246-0.047-0.498-0.047h-0.149v0.779H234.58z"/>
</svg>
