<svg id="artwork" xmlns="http://www.w3.org/2000/svg" viewBox="0 0 262.33 76.86"><defs><style>.cls-1{fill:#0047ba;}.cls-2{fill:#101820;}</style></defs><title>Liferay Logo_Liferay Logo 4C Black</title><path class="cls-1" d="M74,24H28a4,4,0,0,0-4,4V74a4,4,0,0,0,4,4H74a4,4,0,0,0,4-4V28A4,4,0,0,0,74,24ZM40,59a1,1,0,0,1-1,1H33a1,1,0,0,1-1-1V53a1,1,0,0,1,1-1h6a1,1,0,0,1,1,1Zm0-10a1,1,0,0,1-1,1H33a1,1,0,0,1-1-1V43a1,1,0,0,1,1-1h6a1,1,0,0,1,1,1Zm0-10a1,1,0,0,1-1,1H33a1,1,0,0,1-1-1V33a1,1,0,0,1,1-1h6a1,1,0,0,1,1,1ZM50,69a1,1,0,0,1-1,1H43a1,1,0,0,1-1-1V63a1,1,0,0,1,1-1h6a1,1,0,0,1,1,1Zm0-20a1,1,0,0,1-1,1H43a1,1,0,0,1-1-1V43a1,1,0,0,1,1-1h6a1,1,0,0,1,1,1Zm0-10a1,1,0,0,1-1,1H43a1,1,0,0,1-1-1V33a1,1,0,0,1,1-1h6a1,1,0,0,1,1,1ZM60,69a1,1,0,0,1-1,1H53a1,1,0,0,1-1-1V63a1,1,0,0,1,1-1h6a1,1,0,0,1,1,1Zm0-10a1,1,0,0,1-1,1H53a1,1,0,0,1-1-1V53a1,1,0,0,1,1-1h6a1,1,0,0,1,1,1Zm0-20a1,1,0,0,1-1,1H53a1,1,0,0,1-1-1V33a1,1,0,0,1,1-1h6a1,1,0,0,1,1,1ZM70,69a1,1,0,0,1-1,1H63a1,1,0,0,1-1-1V63a1,1,0,0,1,1-1h6a1,1,0,0,1,1,1Zm0-10a1,1,0,0,1-1,1H63a1,1,0,0,1-1-1V53a1,1,0,0,1,1-1h6a1,1,0,0,1,1,1Zm0-10a1,1,0,0,1-1,1H63a1,1,0,0,1-1-1V43a1,1,0,0,1,1-1h6a1,1,0,0,1,1,1Z" transform="translate(-24 -18.39)"/><path class="cls-2" d="M122.41,73.65H98.66v-49a.49.49,0,0,0-.49-.49H94.49a.49.49,0,0,0-.49.49V77.3a.5.5,0,0,0,.49.5h27.92a.5.5,0,0,0,.5-.5V74.14A.49.49,0,0,0,122.41,73.65Z" transform="translate(-24 -18.39)"/><path class="cls-2" d="M157.49,38.46h-8.37v-7.8c0-5.52,1.81-8.2,5.53-8.2a10,10,0,0,1,4.35,1,.47.47,0,0,0,.4,0,.44.44,0,0,0,.28-.3l1-2.87a.5.5,0,0,0-.27-.61,14.83,14.83,0,0,0-5.79-1.34c-6.43,0-10,4.28-10,12v8.07l-4.81.3a.5.5,0,0,0-.46.5V42a.49.49,0,0,0,.49.5h4.78V77.3a.5.5,0,0,0,.49.5h3.53a.5.5,0,0,0,.5-.5V42.53h8.37A.49.49,0,0,0,158,42V39A.49.49,0,0,0,157.49,38.46Z" transform="translate(-24 -18.39)"/><path class="cls-2" d="M175.67,37.5c-8.35,0-17.22,7.25-17.22,20.7,0,12.1,7.49,20.55,18.22,20.55A21.52,21.52,0,0,0,189,74.91a.49.49,0,0,0,.17-.65l-1.45-2.69a.51.51,0,0,0-.32-.24.51.51,0,0,0-.4.07,16.71,16.71,0,0,1-10,3.32c-8.07,0-13.62-6.25-13.94-15.61h27.08a.49.49,0,0,0,.48-.41,16.47,16.47,0,0,0,.21-3C190.84,44.32,185.17,37.5,175.67,37.5ZM163.1,55.21c.9-8.08,6-13.67,12.6-13.67,6.86,0,10.69,4.85,10.83,13.67Z" transform="translate(-24 -18.39)"/><path class="cls-2" d="M216.38,38.35a8.36,8.36,0,0,0-4-.85c-4,0-7.77,2.55-10.67,7.21l-.31-5.79a.49.49,0,0,0-.49-.46h-3a.49.49,0,0,0-.5.49V77.3a.5.5,0,0,0,.5.5h3.52a.5.5,0,0,0,.5-.5v-26c2.45-6,6.08-9.47,10-9.47a8.13,8.13,0,0,1,3.3.61.47.47,0,0,0,.4,0,.49.49,0,0,0,.24-.32l.8-3.19A.48.48,0,0,0,216.38,38.35Z" transform="translate(-24 -18.39)"/><path class="cls-2" d="M248,38.46h-3.08a.49.49,0,0,0-.49.46l-.2,2.9c-3.32-2.61-6.54-4.32-11.1-4.32-10.16,0-17.54,8.7-17.54,20.7,0,12.87,6.12,20.55,16.36,20.55,4.22,0,8.44-1.89,12.26-5.49l.31,4.08a.5.5,0,0,0,.5.46h3a.5.5,0,0,0,.5-.5V39A.49.49,0,0,0,248,38.46Zm-4,7.82V68.6c-4.13,4.17-7.69,6-11.52,6-7.62,0-12.17-6.15-12.17-16.46,0-9.29,5.71-16.56,13-16.56C237.05,41.62,240.26,43,244,46.28Z" transform="translate(-24 -18.39)"/><path class="cls-2" d="M286.24,38.67a.46.46,0,0,0-.4-.21h-3.61a.5.5,0,0,0-.47.33L273.6,62.9c-.43,1.27-.88,2.68-1.35,4.12-.63,2-1.27,4-1.92,5.83-.81-2-1.64-4.18-2.44-6.29-.49-1.29-1-2.54-1.41-3.68l-9.25-24.11a.5.5,0,0,0-.46-.31H253a.49.49,0,0,0-.46.67L268.18,78l-1,3.16c-1.5,4.49-4.34,9.84-9.36,9.84a9.18,9.18,0,0,1-2.95-.59.51.51,0,0,0-.4,0,.52.52,0,0,0-.26.32l-.81,3a.49.49,0,0,0,.27.57,10.27,10.27,0,0,0,4.12.84c5.91,0,10.53-4.48,13.37-13L286.3,39.11A.46.46,0,0,0,286.24,38.67Z" transform="translate(-24 -18.39)"/><rect class="cls-2" x="104.3" y="20.06" width="4.52" height="39.34" rx="0.49" ry="0.49"/><rect class="cls-2" x="103.67" y="5.62" width="5.79" height="5.79" rx="1.1" ry="1.1"/></svg>