<?xml version="1.0" encoding="utf-8"?>
<!-- Generator: Adobe Illustrator 16.0.4, SVG Export Plug-In . SVG Version: 6.00 Build 0)  -->
<!DOCTYPE svg PUBLIC "-//W3C//DTD SVG 1.1//EN" "http://www.w3.org/Graphics/SVG/1.1/DTD/svg11.dtd">
<svg version="1.1" id="Layer_1" xmlns="http://www.w3.org/2000/svg" xmlns:xlink="http://www.w3.org/1999/xlink" x="0px" y="0px"
	 width="148.25px" height="37px" viewBox="76 31.25 148.25 37" enable-background="new 76 31.25 148.25 37" xml:space="preserve">
<path fill="#008774" d="M110.128,38.464h-5.145v-4.978h5.145V38.464z M110.135,66.85h-5.158V42.117h5.158V66.85z"/>
<path fill="#008774" d="M139.888,42.117l-7.183,21.363c-1.234,3.494-3.436,3.942-5.217,3.942c-2.646,0-4.24-1.217-5.179-3.937
	l-5.986-17.742h-2.369v-3.628h6.18l6.17,19.858c0.27,0.85,0.436,1.355,1.185,1.355c0.776,0,0.931-0.516,1.181-1.355l6.296-19.858
	L139.888,42.117L139.888,42.117z"/>
<path fill="#008774" d="M152.588,42.117c6.674,0,11.327,4.403,11.327,10.711v3.885c0,6.301-4.653,10.71-11.327,10.71
	c-6.672,0-11.334-4.409-11.334-10.71v-3.885C141.254,46.52,145.916,42.117,152.588,42.117 M152.588,63.354
	c3.992,0,6.467-3.02,6.467-6.641v-3.885c0-3.624-2.453-6.643-6.467-6.643c-4.229,0-6.463,3.019-6.463,6.643v3.885
	C146.125,60.334,148.458,63.354,152.588,63.354"/>
<path fill="#008774" d="M205.09,42.907c-2.57-0.661-6.586-1.141-9.552-1.141c-6.771,0-10.974,4.271-10.974,11.156v2.71
	c0,6.88,4.201,11.214,10.974,11.214c0.155,0,1.36,0.004,1.909-0.049v-4.152c-0.211,0-1.756,0.056-1.909,0.056
	c-3.683,0-6.16-2.841-6.16-7.067v-2.71c0-4.227,2.478-7.066,6.16-7.066c1.667,0,4.185,0.134,5.052,0.318l0.275,0.059l0.007,20.618
	h5.151V43.764C206.023,43.324,206.023,43.155,205.09,42.907"/>
<rect x="210.993" y="33.486" fill="#008774" width="5.155" height="33.364"/>
<path fill="#008774" d="M87.034,33.486h-9.049v33.36h5.362V38.124h3.145c0.668,0.005,1.236,0.033,1.807,0.044
	c4.648,0.089,6.924,1.933,6.924,5.547c0,0.146,0.009,0.242,0.009,0.392c0,3.343-1.836,5.562-6.904,5.562
	c-0.484,0-0.982-0.011-1.498-0.006c0.002,1.278-0.005,3.649-0.008,4.483c0.523,0.025,1.013,0.047,1.514,0.047
	c7.272,0,12.408-2.857,12.408-10.036c0-0.141-0.008-0.288-0.008-0.432C100.735,36.286,95.141,33.486,87.034,33.486"/>
<path fill="#008774" d="M173.07,36.786v5.332h8.397v3.995h-8.397v14.411c0,2.263,1.445,2.322,3.539,2.322h4.863v4h-6.582
	c-4.865,0-7.035-1.947-7.035-6.322V37.501L173.07,36.786z"/>
<path fill="#008774" d="M218.52,64.688c0-1.196,0.963-2.17,2.156-2.17c1.192,0,2.155,0.974,2.155,2.17
	c0,1.191-0.963,2.162-2.155,2.162C219.482,66.85,218.52,65.879,218.52,64.688 M220.676,62.828c-1.013,0-1.834,0.844-1.834,1.852
	c0,1.01,0.821,1.848,1.834,1.848c1.02,0,1.84-0.838,1.84-1.848C222.516,63.672,221.693,62.828,220.676,62.828 M220.201,65.831
	h-0.251V63.49h0.659c0.594,0,0.884,0.271,0.884,0.708c0,0.343-0.204,0.562-0.481,0.668l0.606,0.965h-0.298l-0.561-0.905l-0.56,0.032
	L220.201,65.831L220.201,65.831z M220.623,64.721c0.389-0.014,0.626-0.199,0.626-0.51c0-0.33-0.211-0.496-0.659-0.496h-0.396v1.025
	L220.623,64.721z"/>
</svg>
