<?xml version="1.0" encoding="utf-8"?>
<!-- Generator: Adobe Illustrator 16.0.4, SVG Export Plug-In . SVG Version: 6.00 Build 0)  -->
<!DOCTYPE svg PUBLIC "-//W3C//DTD SVG 1.1//EN" "http://www.w3.org/Graphics/SVG/1.1/DTD/svg11.dtd">
<svg version="1.1" id="Layer_1" xmlns="http://www.w3.org/2000/svg" xmlns:xlink="http://www.w3.org/1999/xlink" x="0px" y="0px"
	 width="73.25px" height="36.75px" viewBox="113.5 31.75 73.25 36.75" enable-background="new 113.5 31.75 73.25 36.75"
	 xml:space="preserve">
<path fill="#ED2224" d="M144.001,37.845c-0.521-0.462-1.364-0.739-2.196-0.741c-1.994-0.006-3.619,1.566-3.625,3.596
	c-0.006,1.994,1.631,3.574,3.625,3.58c1.12,0.002,2.091-0.449,2.755-1.249v-1.979c-0.352,0.616-1.067,1.401-1.712,1.67
	c-0.324,0.135-0.658,0.221-1.043,0.221c-1.244,0-2.27-0.966-2.27-2.242c0-1.174,0.945-2.261,2.27-2.257
	c0.621,0.002,1.179,0.259,1.592,0.66c0.427,0.415,1.093,1.28,1.411,1.622c0.81,0.872,1.975,1.418,3.259,1.422
	c2.46,0.007,4.458-1.986,4.458-4.441c0-2.461-2.002-4.503-4.458-4.503c-1.431,0-2.689,0.745-3.507,1.79v2.675
	c0.623-1.697,1.745-3.052,3.507-3.052c1.692,0,3.063,1.397,3.06,3.09c-0.004,1.691-1.368,3.06-3.06,3.055
	c-0.753-0.002-1.454-0.275-1.986-0.728C145.42,39.515,144.688,38.422,144.001,37.845"/>
<path fill="#ED2224" d="M114.757,45.275h9.853v2.744c0,0-0.505-1.082-1.572-1.084h-4.56v4.736h4.944v2.509
	c0,0-0.159-0.8-1.353-0.803h-3.591v6.471c-0.002,0.953,1.033,1.519,1.033,1.519h-4.69c0,0,0.985-0.496,0.985-1.519V46.963
	C115.808,45.881,114.757,45.275,114.757,45.275"/>
<path fill="#ED2224" d="M139.525,45.281h5.013c0,0-1.123,0.532-1.123,1.4v15.094c0,5.104-5.116,5.938-5.383,5.925
	c0.436-0.28,2.561-2.091,2.569-5.925V46.682C140.603,45.864,139.525,45.281,139.525,45.281"/>
<path fill="#ED2224" d="M145.244,45.279h5.027c0,0-1.116,0.536-1.116,1.423v13.149c0,0.939,1.116,1.526,1.116,1.526h-5.027
	c0,0,1.116-0.583,1.116-1.526V46.702C146.36,45.815,145.244,45.279,145.244,45.279"/>
<path fill="#ED2224" d="M151.277,45.278h11.063l-0.938,2.923c0,0-0.282-1.229-1.351-1.229h-2.297v12.875
	c0,0.814,1.08,1.521,1.08,1.521h-4.925c0,0,1.068-0.637,1.066-1.521V46.973h-2.771c-0.785,0.001-1.911,1.473-1.911,1.473
	L151.277,45.278z"/>
<path fill="#ED2224" d="M180.818,45.279h4.845c0,0-1.036,0.549-1.036,1.419v9.743c-0.007,3.961-3.287,5.18-5.562,5.18
	c-2.26,0-5.803-1.232-5.799-5.18v-9.743c0.002-0.87-1.067-1.419-1.067-1.419h4.983c0,0-1.109,0.533-1.109,1.419v9.743
	c0,2.078,1.378,3.438,2.992,3.438c1.612,0,2.845-1.415,2.848-3.438v-9.743C181.913,45.828,180.818,45.279,180.818,45.279"/>
<path fill="#ED2224" d="M133.719,45.279h4.934c0,0-1.049,0.572-1.049,1.437c0,0.004-0.001,9.72-0.001,9.72
	c0,3.978-3.437,5.229-5.738,5.229c-2.26,0-5.8-1.27-5.8-5.229l-0.005-9.72c0-0.869-1.007-1.437-1.007-1.437h4.984
	c0,0-1.152,0.567-1.152,1.437l-0.005,9.72c0,2.06,1.371,3.479,2.985,3.486c1.615,0.008,2.911-1.447,2.911-3.486l0.006-9.72
	C134.782,45.845,133.719,45.279,133.719,45.279"/>
<path fill="#ED2224" d="M170.717,47.854c0,0-0.699-1.224-2.721-1.229s-3.121,1.058-3.125,2.434c-0.005,1.559,1.167,2.148,2.982,3.02
	c1.725,0.828,4.317,1.973,4.31,4.853c-0.009,2.582-2.297,4.739-6.401,4.739c-1.265-0.004-3.01-0.416-3.01-0.416l-0.939-3.092
	c0.867,0.845,2.408,1.753,3.996,1.753c1.641,0,3.603-1.016,3.603-2.643c0-3.147-7.318-2.621-7.318-7.885
	c0-1.812,1.263-4.435,5.63-4.435c1.418,0,2.995,0.416,2.995,0.416L170.717,47.854L170.717,47.854z"/>
</svg>
