<?xml version="1.0" encoding="utf-8"?>
<!-- Generator: Adobe Illustrator 16.0.4, SVG Export Plug-In . SVG Version: 6.00 Build 0)  -->
<!DOCTYPE svg PUBLIC "-//W3C//DTD SVG 1.1//EN" "http://www.w3.org/Graphics/SVG/1.1/DTD/svg11.dtd">
<svg version="1.1" id="Layer_1" xmlns="http://www.w3.org/2000/svg" xmlns:xlink="http://www.w3.org/1999/xlink" x="0px" y="0px"
	 width="488px" height="135.272px" viewBox="0 0 488 135.272" enable-background="new 0 0 488 135.272" xml:space="preserve">
<g>
	<path fill="#FFFFFF" d="M148.824,112.89c1.233,1.752,3.374,3.113,6.164,3.113c3.505,0,7.983-2.14,7.983-8.436V76.419h7.008v31.863
		c0,9.214-7.333,14.729-14.796,14.729c-5.321,0-9.409-2.466-12.005-6.034L148.824,112.89z"/>
	<path fill="#FFFFFF" d="M202.882,112.305H185.36l-3.568,10.317h-7.398l16.807-46.203h5.841l16.807,46.203h-7.398L202.882,112.305z
		 M200.87,106.076l-6.684-20.183h-0.13l-6.683,20.183H200.87z"/>
	<polygon fill="#FFFFFF" points="218.783,76.419 225.791,76.419 225.791,100.236 225.921,100.236 244.935,76.419 253.241,76.419 
		238.446,94.654 254.8,122.624 246.493,122.624 233.904,100.041 225.791,108.542 225.791,122.624 218.783,122.624 	"/>
	<path fill="#FFFFFF" d="M283.355,112.305h-17.523l-3.567,10.317h-7.398l16.808-46.203h5.841l16.807,46.203h-7.397L283.355,112.305z
		 M281.343,106.076l-6.684-20.183h-0.129l-6.685,20.183H281.343z"/>
	<path fill="#FFFFFF" d="M299.257,76.419h18.04c3.893,0,6.942,0.907,9.408,3.05c2.597,2.207,4.608,5.71,4.608,9.863
		c0,5.972-3.374,10.838-8.955,12.784l10.708,20.507h-8.307l-9.539-19.728h-8.956v19.728h-7.008V76.419z M306.265,96.666h10.578
		c5.256,0,7.852-3.439,7.852-7.333c0-2.4-0.909-4.218-2.336-5.256c-1.299-0.974-2.726-1.428-5.127-1.428h-10.967V96.666z"/>
	<polygon fill="#FFFFFF" points="345.54,82.649 332.886,82.649 332.886,76.42 365.202,76.42 365.202,82.649 352.549,82.649 
		352.549,122.623 345.54,122.623 	"/>
	<path fill="#FFFFFF" d="M389.021,112.305h-17.522l-3.567,10.317h-7.398l16.808-46.203h5.841l16.807,46.203h-7.397L389.021,112.305z
		 M387.01,106.076l-6.685-20.183h-0.13l-6.683,20.183H387.01z"/>
	<polygon fill="#FFFFFF" points="420.499,76.419 450.025,76.419 450.025,83.039 427.507,83.039 427.507,96.211 446.716,96.211 
		446.716,102.442 427.507,102.442 427.507,116.003 450.025,116.003 450.025,122.624 420.499,122.624 	"/>
	<polygon fill="#FFFFFF" points="456.582,76.419 486.107,76.419 486.107,83.039 463.59,83.039 463.59,96.211 482.798,96.211 
		482.798,102.442 463.59,102.442 463.59,116.003 486.107,116.003 486.107,122.624 456.582,122.624 	"/>
	<path fill="#FFFFFF" d="M98.578,15.922c0,0,10.112,50.189-23.334,93.427L24.765,96.741L98.578,15.922z"/>
	<path fill="#FFFFFF" d="M88.494,117.771c2.922,0,5.797,0.135,8.61,0.396L1.891,94.675c0,0,17.72,5.876,39.125,37.883
		C52.334,123.523,69.401,117.771,88.494,117.771"/>
	<path fill="#FFFFFF" d="M98.578,15.922c0,0,10.13,50.274-23.374,93.585L24.64,96.878L98.578,15.922z"/>
	<path fill="#FFFFFF" d="M133.495,0.447l-29.758,32.582c0.036,4.077-0.108,8.718-0.574,13.785
		c-0.989,10.741-3.229,21.179-6.656,31.023c-4.09,11.747-9.895,22.668-17.257,32.494l25.226,6.301
		C153.117,70.837,133.495,0.447,133.495,0.447"/>
</g>
</svg>
